<svg width="481" height="145" viewBox="0 0 481 145" fill="none" xmlns="http://www.w3.org/2000/svg">
<path d="M76.4074 62.4251C76.2559 53.1503 80.2504 45.9304 88.3822 40.7624C83.796 34.0745 77.0326 30.3155 68.0891 29.4751C64.9077 29.1755 60.8404 29.9296 55.8928 31.7565C50.5706 33.7354 47.5744 34.719 46.9099 34.719C45.505 34.719 42.8075 33.8874 38.8101 32.2111C34.8214 30.5391 31.4186 29.7031 28.6089 29.7031C23.8784 29.7806 19.4773 31.0915 15.4129 33.6361C11.347 36.1835 8.09568 39.6634 5.65759 44.0669C2.54913 49.5418 1 56.0792 1 63.6776C1 70.5175 2.14254 77.356 4.43344 84.2003C6.57715 90.7376 9.31691 96.4756 12.6396 101.411C15.5936 105.897 18.1905 109.164 20.4013 111.219C23.584 114.41 26.8324 115.933 30.1638 115.778C32.3061 115.699 35.1129 114.902 38.5886 113.378C41.8384 111.941 45.094 111.218 48.3482 111.218C51.378 111.218 54.5171 111.937 57.7742 113.378C61.3941 114.902 64.3539 115.661 66.6448 115.661C70.0462 115.512 73.2232 114.028 76.1844 111.219C77.2148 110.303 78.3442 109.05 79.5625 107.454C80.969 105.596 82.3195 103.695 83.6124 101.755C84.6897 100.082 85.707 98.3705 86.6626 96.6246C87.6876 94.7446 88.5948 92.8024 89.379 90.8092C89.7448 89.9733 90.077 89.1197 90.3758 88.2457C90.6702 87.3717 90.966 86.4817 91.2618 85.5682C88.5265 84.3552 86.049 82.6379 83.8325 80.4325C78.9592 75.5758 76.4817 69.569 76.4074 62.4251ZM156.818 82.749H156.28L133.76 31.1369H116.076V114.41H131.488V60.4783H132.204L151.024 103.304H161.832L180.592 60.4783H181.311V114.41H196.901V31.1369H179.338L156.818 82.749ZM62.4317 20.2427C66.3519 15.3013 68.312 9.98136 68.312 4.27997V3.14145C68.312 2.75853 68.2741 2.38 68.2013 2C65.4644 2.152 62.5644 3.02745 59.4938 4.6205C56.4276 6.21941 53.8962 8.2363 51.8968 10.6639C47.9067 15.4562 45.9087 20.5832 45.9087 26.0566V27.1367C45.9087 27.4816 45.9466 27.8411 46.0194 28.224C52.1577 28.8306 57.6284 26.1692 62.4317 20.2427ZM377.037 31.1369H394.36V114.411H377.037V31.1369ZM446.681 44.3738C456.955 44.3738 462.388 52.3055 462.388 60.8466H479V59.0767C479 42.9722 466.753 29.5526 446.56 29.5526C424.934 29.5526 412.032 43.8272 412.032 68.1703V77.5664C412.032 101.902 424.814 116 446.499 116C467.229 116 479 102.39 479 87.2636V85.4338H462.389C462.389 94.0392 457.075 101.176 446.804 101.176C436.286 101.176 429.594 93.6709 429.594 77.6234V68.2346C429.594 52.2427 436.347 44.3738 446.681 44.3738ZM263.157 83.7223C263.157 94.8898 256.645 101.049 247.088 101.049C237.47 101.049 230.96 94.9483 230.96 83.7223V31.1369H213.754V86.1631C213.754 103.921 226.297 115.999 247.085 115.999C267.816 115.999 280.419 103.921 280.419 86.1631V31.1369H263.157V83.7223ZM337.734 65.9108L325.37 63.1076C318.083 61.5774 314.259 58.346 314.259 53.5244C314.259 47.1215 319.454 43.0936 327.822 43.0936C337.26 43.0936 341.979 48.5231 342.395 54.3809H358.525C358.346 39.6765 346.101 29.4283 327.879 29.4283C310.617 29.4283 296.996 38.5205 296.996 54.869C296.996 69.0224 306.556 75.6065 318.025 78.1145L330.269 80.9791C338.513 82.8703 342.694 85.6179 342.694 91.2872C342.694 97.7588 337.556 102.152 327.94 102.152C317.605 102.152 312.168 96.6597 311.693 90.4965H295.084C295.327 102.272 303.092 115.999 327.107 115.999C347.296 115.999 359.784 105.933 359.784 89.5772C359.778 74.4475 349.682 68.5298 337.734 65.9108Z" fill="white"/>
</svg>
