<svg width="241" height="81" viewBox="0 0 241 81" fill="none" xmlns="http://www.w3.org/2000/svg">
<g clip-path="url(#clip0_3_13)">
<path d="M241 0H0V81H241V0Z" fill="white"/>
<path fill-rule="evenodd" clip-rule="evenodd" d="M83.9495 33.4571V31.1446C83.9454 30.9935 84.0018 30.8471 84.1062 30.7374C84.2106 30.6277 84.3545 30.5638 84.5063 30.5597H94.7216C94.7954 30.5569 94.8691 30.5686 94.9383 30.5942C95.0076 30.6197 95.0711 30.6587 95.1252 30.7087C95.1793 30.7588 95.223 30.8189 95.2537 30.8858C95.2844 30.9527 95.3015 31.0249 95.3041 31.0984C95.3051 31.111 95.3051 31.1236 95.3051 31.1357V33.115C95.1811 33.6576 94.9194 34.1595 94.545 34.5728L89.243 42.2131C91.2548 42.1013 93.2591 42.5394 95.0489 43.4817C95.2094 43.5722 95.3435 43.7027 95.438 43.8604C95.5324 44.0181 95.5839 44.1976 95.5875 44.3812V46.847C95.5973 47.1504 95.3641 47.4035 95.0663 47.4133C94.9874 47.4157 94.909 47.4006 94.8368 47.369C93.1795 46.498 91.3336 46.0427 89.4594 46.0427C87.5852 46.0427 85.7393 46.498 84.082 47.369C83.7284 47.5582 83.3575 47.1714 83.3575 46.8293V44.4898C83.3254 43.9361 83.4575 43.3853 83.7373 42.9057L89.8616 34.0149H84.5592C84.2431 34.0303 83.9733 33.781 83.9584 33.458V33.4482L83.9495 33.4571ZM42.5097 47.4179C42.3657 47.412 42.2287 47.3544 42.1241 47.2557C42.0195 47.157 41.9543 47.0239 41.9408 46.881V30.5536C41.9419 30.4745 41.9588 30.3964 41.9903 30.3238C42.0219 30.2512 42.0675 30.1856 42.1247 30.1306C42.1818 30.0756 42.2493 30.0323 42.3232 30.0034C42.3972 29.9744 42.4762 29.9602 42.5556 29.9617H45.5551C45.7039 29.9678 45.8455 30.0275 45.9534 30.1297C46.0614 30.2319 46.1283 30.3696 46.1418 30.5173V32.6471H46.1971C46.4636 31.7469 47.0242 30.961 47.7901 30.4136C48.556 29.8663 49.4835 29.5889 50.4258 29.6252C52.4347 29.6252 53.7001 30.5806 54.5992 32.6471C55.5484 30.2143 58.3048 29.0054 60.7568 29.9468C61.544 30.2485 62.2365 30.7533 62.7629 31.4093C63.781 32.7832 63.5698 34.7764 63.5698 36.5241V46.8354C63.5674 46.9143 63.5494 46.992 63.5167 47.0641C63.4841 47.1361 63.4376 47.201 63.3797 47.2551C63.3219 47.3092 63.2539 47.3514 63.1796 47.3794C63.1054 47.4073 63.0263 47.4204 62.947 47.4179H59.7359C59.5835 47.4112 59.4393 47.3474 59.3322 47.2394C59.225 47.1314 59.1628 46.9871 59.158 46.8354V38.1804C59.2058 37.1598 59.1754 36.1382 59.0662 35.1223C59.0041 34.6866 58.7709 34.2933 58.4177 34.0286C58.0645 33.7639 57.6202 33.6496 57.1823 33.7106L57.1767 33.7115C56.761 33.7247 56.3581 33.8583 56.0176 34.096C55.677 34.3337 55.4136 34.6651 55.2595 35.0495C54.991 36.0703 54.8888 37.1274 54.957 38.1804V46.8349C54.9558 46.9128 54.9391 46.9896 54.908 47.061C54.8769 47.1325 54.8319 47.1971 54.7757 47.2512C54.7194 47.3053 54.653 47.3479 54.5802 47.3764C54.5074 47.4049 54.4297 47.4189 54.3515 47.4175H51.132C50.9796 47.4107 50.8354 47.347 50.7282 47.2389C50.6211 47.1309 50.5589 46.9866 50.5541 46.8349V38.1804C50.5541 36.3601 50.8566 33.6752 48.5821 33.6752C46.3071 33.6752 46.3624 36.2874 46.3624 38.1804V46.8349C46.3612 46.9128 46.3447 46.9896 46.3137 47.0611C46.2827 47.1326 46.2378 47.1973 46.1817 47.2515C46.1255 47.3057 46.0592 47.3484 45.9865 47.3771C45.9137 47.4059 45.8361 47.42 45.7578 47.4189C45.7485 47.4189 45.7386 47.4189 45.7293 47.4179H42.5097ZM103.768 29.6224C108.545 29.6224 111.117 33.5959 111.117 38.6497C111.117 43.5432 108.27 47.4189 103.768 47.4189C99.0833 47.4189 96.5292 43.4365 96.5292 38.4894C96.5292 33.5424 99.0833 29.6224 103.741 29.6224H103.768ZM101.235 37.9996C101.235 39.957 101.235 44.1407 103.762 44.1407C106.29 44.1407 106.401 40.7619 106.401 38.7061C106.456 37.2758 106.294 35.8446 105.918 34.4605C105.712 33.5037 104.803 32.8405 103.79 32.9048C101.393 32.9048 101.235 36.0422 101.235 37.9996ZM117.444 47.3811H114.477C114.181 47.3713 113.945 47.1169 113.941 46.8013V30.4967C113.972 30.1878 114.22 29.9561 114.511 29.9622H117.274C117.527 29.9771 117.744 30.1635 117.81 30.4245V32.9062H117.861C118.711 30.6869 119.868 29.6271 121.925 29.6271C123.322 29.5549 124.648 30.2842 125.403 31.5384C126.176 32.834 126.176 35.0258 126.176 36.6019V46.9099C126.137 47.2101 125.891 47.43 125.606 47.4175H122.622C122.352 47.4072 122.127 47.1947 122.087 46.9099V38.0877C122.087 36.2757 122.281 33.7036 120.224 33.7036C119.467 33.7456 118.802 34.2559 118.524 35.0076C118.151 35.99 117.989 37.0392 118.048 38.0877V46.8377C118.034 47.1719 117.768 47.4328 117.454 47.4184L117.444 47.4175V47.3811ZM78.8825 47.1518C78.7805 47.2387 78.654 47.2921 78.5203 47.3048C78.3866 47.3175 78.2523 47.2888 78.1356 47.2227C77.4142 46.6459 76.8045 45.9431 76.3364 45.1488C75.7071 45.9034 74.9089 46.5009 74.0059 46.8935C73.1028 47.2861 72.12 47.4628 71.136 47.4095C68.4372 47.4095 66.4128 45.79 66.4128 42.5589C66.3562 40.3373 67.6964 38.3133 69.7775 37.4767C71.4868 36.738 73.8798 36.5866 75.7061 36.4001V35.99C75.8066 35.2179 75.6718 34.4336 75.3193 33.7386C75.109 33.4672 74.835 33.2514 74.5212 33.1102C74.2075 32.9689 73.8637 32.9066 73.5201 32.9286C72.3189 32.8316 71.232 33.6318 70.9829 34.7974C70.9665 34.939 70.904 35.0715 70.8049 35.1744C70.7058 35.2773 70.5755 35.3451 70.4341 35.3674L67.3845 35.0468C67.2385 35.0173 67.1102 34.9315 67.0276 34.808C66.945 34.6846 66.9149 34.5337 66.9439 34.3882C67.6454 30.7298 70.9923 29.6266 73.9968 29.6266C75.7088 29.5683 77.3859 30.1172 78.7289 31.1753C80.2584 32.5902 80.1146 34.4772 80.1146 36.5157V41.3663C80.1301 42.4423 80.5542 43.4726 81.3017 44.2502C81.4094 44.3595 81.4697 44.5065 81.4697 44.6596C81.4697 44.8127 81.4094 44.9597 81.3017 45.0691C80.6541 45.6031 79.5025 46.5818 78.8821 47.143L78.8825 47.1518ZM75.7876 39.6359V38.989C73.5107 38.989 71.1173 39.4485 71.1173 41.9862C71.1173 43.272 71.8165 44.1407 73.027 44.1407C73.9636 44.109 74.8051 43.5889 75.2139 42.7868C75.7111 41.8153 75.9106 40.7193 75.7876 39.6359ZM37.4335 47.1523C37.3313 47.2382 37.2052 47.291 37.0721 47.3037C36.939 47.3165 36.8051 47.2885 36.6884 47.2236C35.9715 46.6434 35.3638 45.9412 34.8934 45.1497C34.2672 45.9024 33.4727 46.4988 32.5735 46.8913C31.6742 47.2838 30.6951 47.4614 29.7146 47.41C27.0669 47.4105 25.0026 45.791 25.0026 42.5599C24.9683 41.4719 25.2723 40.3999 25.8731 39.4902C26.4738 38.5806 27.3421 37.8778 28.3593 37.4776C30.0649 36.739 32.4429 36.5875 34.2739 36.4006V35.991C34.37 35.219 34.2358 34.436 33.888 33.7395C33.6764 33.4707 33.4027 33.2568 33.0902 33.1158C32.7777 32.9748 32.4356 32.9109 32.093 32.9295C31.5165 32.8839 30.9428 33.0483 30.4789 33.392C30.015 33.7358 29.6923 34.2355 29.5708 34.7983C29.5548 34.9399 29.4926 35.0723 29.3937 35.1753C29.2949 35.2782 29.1647 35.3461 29.0234 35.3683L25.972 35.0477C25.8294 35.0141 25.7057 34.9265 25.627 34.8035C25.5483 34.6806 25.5209 34.5319 25.5505 34.3892C26.2502 30.7298 29.5891 29.6266 32.5862 29.6266C34.2976 29.5667 35.9745 30.1158 37.3159 31.1753C38.851 32.5907 38.6983 34.4777 38.6983 36.5162V41.3668C38.7133 42.4425 39.1366 43.4727 39.8831 44.2507C40.1112 44.4697 40.1172 44.83 39.8967 45.056L39.8831 45.0695C39.2462 45.6036 38.0881 46.5828 37.4779 47.1434L37.4335 47.1523ZM34.3792 38.989C32.1052 38.989 29.7057 39.4485 29.7057 41.9862C29.7057 43.272 30.4128 44.1407 31.6126 44.1407C32.544 44.1034 33.3794 43.5828 33.7883 42.7868C34.2908 41.8169 34.4963 40.7214 34.3792 39.6364V38.989ZM66.1501 60.9994C56.2616 61.0544 46.7089 57.2221 39.3595 50.2482C38.8004 49.7258 39.2963 49.0034 39.9636 49.4121C48.148 54.328 57.4071 56.9061 66.8268 56.8922C73.8493 56.8563 80.7955 55.3612 87.2692 52.4913C88.2339 52.0448 89.0721 53.1857 88.0896 53.9454C82.1564 58.5462 73.5627 60.9994 66.1501 60.9994ZM90.4437 51.1146C89.672 50.1173 85.3365 50.6392 83.3889 50.882C82.7918 50.9464 82.7005 50.4249 83.233 50.052C86.696 47.5927 92.3637 48.3006 93.025 49.1204C93.6862 49.9406 92.8503 55.6977 89.6078 58.4366C89.1025 58.8654 88.6338 58.6324 88.8548 58.0824C89.5807 56.2472 91.215 52.1208 90.4437 51.1146Z" fill="url(#paint0_linear_3_13)"/>
<path fill-rule="evenodd" clip-rule="evenodd" d="M190.324 44.7065C190.928 44.2889 191.273 43.6075 191.24 42.8936C191.25 42.6535 191.208 42.414 191.117 42.1917C191.025 41.9694 190.886 41.7697 190.708 41.6063C190.124 41.1548 189.459 40.8162 188.749 40.6081L185.801 39.5567C183.246 38.681 181.954 37.1048 181.954 34.9242C181.91 33.554 182.562 32.2472 183.704 31.4204C185.028 30.493 186.643 30.027 188.282 30.0983C189.783 30.0983 191.272 30.3565 192.677 30.8603C192.903 30.9184 193.109 31.0365 193.272 31.2019C193.396 31.3962 193.454 31.6227 193.436 31.8497V32.7258C193.436 33.1196 193.291 33.321 192.989 33.321C192.717 33.3011 192.449 33.2451 192.192 33.1546C190.978 32.8054 189.72 32.6286 188.456 32.6294C186.24 32.6294 185.123 33.3387 185.123 34.775C185.11 35.0284 185.153 35.2815 185.249 35.5163C185.346 35.751 185.494 35.9615 185.682 36.1326C186.343 36.6115 187.08 36.9784 187.861 37.2185L190.608 38.2079C191.704 38.581 192.694 39.2121 193.492 40.0474C194.123 40.8027 194.449 41.7639 194.408 42.7449C194.464 44.1975 193.78 45.5878 192.577 46.4756C191.155 47.4706 189.418 47.9646 187.66 47.8779C185.874 47.9017 184.099 47.5863 182.431 46.9486C182.217 46.874 182.023 46.7512 181.864 46.5898C181.748 46.4006 181.693 46.1803 181.708 45.9592V45.0318C181.708 44.6366 181.846 44.4352 182.12 44.4352C182.417 44.4656 182.71 44.5332 182.99 44.6366C184.527 45.1019 186.126 45.3352 187.733 45.3286C188.641 45.3905 189.547 45.1702 190.324 44.6981V44.7065ZM175.063 30.7745C175.041 30.6167 175.083 30.4569 175.18 30.3298C175.276 30.2027 175.419 30.1188 175.577 30.0964C175.632 30.0894 175.686 30.0894 175.74 30.0973H177.728C177.806 30.0866 177.886 30.0913 177.962 30.1113C178.038 30.1312 178.11 30.166 178.173 30.2136C178.236 30.2612 178.289 30.3206 178.328 30.3886C178.368 30.4565 178.394 30.5316 178.404 30.6095C178.412 30.6645 178.412 30.7204 178.405 30.7745V46.6732C178.453 47.0045 178.227 47.3117 177.901 47.3597C177.843 47.3687 177.785 47.3687 177.727 47.3597H176.274C176.092 47.3693 175.912 47.3221 175.758 47.2245C175.609 47.0921 175.517 46.9083 175.5 46.7105L175.268 45.5174C173.443 46.994 171.176 47.8236 168.824 47.8751C168.144 47.9225 167.462 47.8254 166.823 47.5902C166.184 47.355 165.602 46.9871 165.117 46.511C164.208 45.437 163.749 44.0571 163.833 42.6559V30.774C163.811 30.6161 163.854 30.4562 163.95 30.3291C164.047 30.2021 164.19 30.1183 164.349 30.0959C164.403 30.0886 164.457 30.0889 164.511 30.0969H166.498C166.59 30.084 166.684 30.0926 166.773 30.1221C166.861 30.1516 166.941 30.2012 167.007 30.2669C167.072 30.3327 167.122 30.4127 167.151 30.5007C167.18 30.5888 167.188 30.6823 167.175 30.774V41.6082C167.097 42.5643 167.345 43.5187 167.88 44.3169C168.161 44.6319 168.512 44.8774 168.904 45.0341C169.297 45.1908 169.722 45.2543 170.143 45.2196C171.898 45.171 173.599 44.6024 175.028 43.5866L175.063 30.7745ZM156.926 47.4123C156.848 47.4235 156.768 47.4192 156.691 47.3995C156.614 47.3799 156.542 47.3454 156.478 47.2979C156.415 47.2505 156.362 47.191 156.321 47.123C156.281 47.055 156.255 46.9797 156.244 46.9015C156.234 46.8438 156.234 46.785 156.244 46.7263V35.6908C156.311 34.8003 156.084 33.9123 155.596 33.1625C155.344 32.8772 155.028 32.6549 154.674 32.5137C154.32 32.3725 153.937 32.3163 153.556 32.3497C151.78 32.388 150.049 32.9197 148.56 33.8849C148.575 34.0527 148.575 34.2223 148.56 34.3906V46.7258C148.574 46.8186 148.566 46.9133 148.537 47.0024C148.507 47.0915 148.457 47.1726 148.391 47.2391C148.325 47.3057 148.243 47.356 148.154 47.386C148.065 47.416 147.97 47.4248 147.877 47.4119H145.874C145.795 47.4231 145.715 47.4187 145.638 47.3991C145.561 47.3794 145.489 47.3449 145.426 47.2975C145.362 47.25 145.309 47.1906 145.269 47.1226C145.228 47.0545 145.202 46.9793 145.191 46.9011C145.182 46.8433 145.182 46.7846 145.191 46.7258V35.6908C145.256 34.8017 145.032 33.9153 144.553 33.1625C144.3 32.8784 143.983 32.6571 143.629 32.516C143.275 32.3749 142.893 32.3179 142.513 32.3497C140.746 32.3612 139.02 32.8818 137.544 33.8485V46.7254C137.568 46.8837 137.527 47.0449 137.432 47.1735C137.336 47.3021 137.193 47.3877 137.034 47.4114C136.979 47.4193 136.924 47.4194 136.87 47.4119H134.857C134.764 47.4236 134.67 47.4138 134.582 47.3833C134.494 47.3527 134.414 47.3022 134.348 47.2358C134.283 47.1693 134.234 47.0887 134.205 47.0002C134.177 46.9117 134.169 46.8178 134.183 46.7258V30.823C134.159 30.6673 134.199 30.5088 134.292 30.3819C134.386 30.255 134.526 30.1702 134.682 30.1458C134.74 30.1368 134.799 30.1368 134.857 30.1458H136.366C136.55 30.1365 136.732 30.1836 136.888 30.281C137.036 30.4105 137.129 30.5909 137.148 30.7871L137.346 31.8795C139.184 30.4976 141.406 29.7127 143.708 29.6313C145.819 29.6313 147.239 30.4348 147.995 32.051C149.919 30.5469 152.279 29.6986 154.725 29.6313C156.055 29.5479 157.359 30.0293 158.319 30.9586C159.215 32.0099 159.666 33.3662 159.577 34.742V46.7254C159.591 46.8181 159.583 46.9127 159.554 47.0018C159.524 47.0909 159.474 47.1719 159.408 47.2385C159.342 47.305 159.261 47.3553 159.172 47.3853C159.082 47.4154 158.987 47.4243 158.894 47.4114L156.926 47.4123ZM209.006 34.2983C208.175 35.2485 207.759 36.7683 207.759 38.8571V39.2934C207.759 41.3323 208.187 42.8549 209.024 43.745C209.546 44.2582 210.175 44.6522 210.865 44.8997C211.556 45.1472 212.292 45.2424 213.024 45.1786C214.051 45.1646 215.07 45.0061 216.052 44.7065C216.218 44.6574 216.388 44.6247 216.56 44.6086C216.854 44.6086 216.997 44.8314 216.997 45.2764V46.1666C217.013 46.3894 216.967 46.6112 216.863 46.8079C216.722 46.9817 216.533 47.108 216.319 47.1737C215.102 47.6697 213.795 47.9119 212.48 47.8854C209.808 47.8854 207.804 47.1285 206.396 45.6157C204.989 44.1011 204.294 41.9107 204.294 39.044C204.294 36.1769 205.015 33.9958 206.467 32.4374C207.267 31.637 208.229 31.0151 209.288 30.613C210.348 30.2108 211.482 30.0376 212.614 30.1048C213.83 30.1072 215.037 30.3244 216.177 30.7461C216.379 30.8057 216.561 30.9194 216.702 31.0751C216.818 31.2811 216.871 31.5169 216.854 31.7518V32.642C216.854 33.0875 216.702 33.3103 216.417 33.3103C216.233 33.3013 216.05 33.2684 215.874 33.2124C214.966 32.9467 214.023 32.8116 213.077 32.8116C211.207 32.874 209.852 33.3457 209.015 34.2983H209.006ZM200.327 31.0313C200.648 30.9847 200.946 31.2089 200.992 31.5314C201 31.584 201.001 31.6381 200.994 31.6917V47.2091C201.007 47.2996 200.999 47.3919 200.97 47.4788C200.942 47.5657 200.893 47.6447 200.828 47.7097C200.764 47.7746 200.685 47.8236 200.598 47.8529C200.51 47.8822 200.418 47.8909 200.327 47.8784H198.37C198.293 47.8882 198.215 47.8828 198.141 47.8626C198.066 47.8423 197.996 47.8076 197.935 47.7604C197.874 47.7132 197.822 47.6545 197.784 47.5876C197.746 47.5206 197.721 47.4468 197.711 47.3704C197.704 47.3169 197.704 47.2626 197.712 47.2091V31.7005C197.699 31.6112 197.707 31.5201 197.735 31.4343C197.763 31.3485 197.811 31.2705 197.875 31.2064C197.939 31.1423 198.017 31.0939 198.103 31.065C198.189 31.0362 198.28 31.0277 198.37 31.0402L200.327 31.0313ZM200.909 24.5761C201.658 25.4523 201.658 26.7628 200.909 27.639C200.478 28.0105 199.927 28.2151 199.357 28.2151C198.787 28.2151 198.236 28.0105 197.805 27.639C197.045 26.7684 197.045 25.4467 197.805 24.5761C198.236 24.2045 198.787 24 199.357 24C199.927 24 200.478 24.2045 200.909 24.5761Z" fill="#171C29"/>
</g>
<defs>
<linearGradient id="paint0_linear_3_13" x1="126" y1="40" x2="25" y2="40" gradientUnits="userSpaceOnUse">
<stop stop-color="#49BCEC"/>
<stop offset="1" stop-color="#177ABE"/>
</linearGradient>
<clipPath id="clip0_3_13">
<rect width="241" height="81" fill="white"/>
</clipPath>
</defs>
</svg>
