<svg width="241" height="81" viewBox="0 0 241 81" fill="none" xmlns="http://www.w3.org/2000/svg">
<g clip-path="url(#clip0_3_42)">
<path d="M241 0H0V81H241V0Z" fill="white"/>
<mask id="mask0_3_42" style="mask-type:luminance" maskUnits="userSpaceOnUse" x="35" y="27" width="171" height="27">
<path d="M206 27.7006H35V53.2994H206V27.7006Z" fill="white"/>
</mask>
<g mask="url(#mask0_3_42)">
<path d="M97.462 51.8755H93.1181V35.5605H87.5002V31.6174H103.079V35.5605H97.462V51.8755Z" fill="#171C29"/>
<path d="M120.448 51.8753H116.078V31.6174H120.448V51.8753Z" fill="#171C29"/>
<path d="M197.554 47.8779H205.112V51.8761H193.186V31.6182H197.554V47.8779Z" fill="#171C29"/>
<path d="M134.995 31.6136H142.074C147.296 31.6136 152.492 34.5424 152.492 41.6875C152.492 48.4225 147.399 51.8716 142.332 51.8716H134.995V31.6136ZM139.234 47.901H141.945C145.59 47.901 148.02 45.4926 148.02 41.6598C148.02 38.019 145.564 35.5567 142.047 35.5567H139.234V47.901Z" fill="#171C29"/>
<path d="M176.74 51.8755H181.543L173.662 31.6174H169.151L161.193 51.8755H165.866L167.276 47.8785H175.343L176.74 51.8755ZM168.448 44.279L171.329 36.3566L174.184 44.279H168.448Z" fill="#171C29"/>
<path d="M58.2859 34.5693L52.6869 40.4995L47.0868 34.5693L52.6869 28.6416L58.2859 34.5693Z" fill="#171C29"/>
<path d="M58.2859 46.429L52.6869 52.3592L47.0868 46.429L52.6869 40.4988L58.2859 46.429Z" fill="#171C29"/>
<path d="M47.087 34.5698L41.4868 40.5L35.8879 34.5698L41.4868 28.6408L47.087 34.5698Z" fill="#171C29"/>
<path d="M69.4841 34.5698L63.8853 40.5L58.2851 34.5698L63.8853 28.6408L69.4841 34.5698Z" fill="#171C29"/>
</g>
</g>
<defs>
<clipPath id="clip0_3_42">
<rect width="241" height="81" fill="white"/>
</clipPath>
</defs>
</svg>
