<svg width="241" height="81" viewBox="0 0 241 81" fill="none" xmlns="http://www.w3.org/2000/svg">
<g clip-path="url(#clip0_3_17)">
<path d="M241 0H0V81H241V0Z" fill="white"/>
<path d="M169.453 49.4821C169.622 50.4518 169.903 51.3934 169.93 52.3491C170.03 55.2161 168.891 57.9848 165.658 58.5189C163.55 58.8702 161.794 58.2097 160.557 56.4951C159.798 55.4551 159.236 54.2885 158.547 53.1081C157.76 53.3469 156.846 53.5999 155.975 53.9372C155.806 53.9934 155.61 54.401 155.666 54.5556C156.228 56.1859 155.834 57.774 155.258 59.2356C154.724 60.6129 153.671 61.5967 152.125 62.0605C150.073 62.6648 148.33 62.2011 146.798 60.8518C146.123 60.2475 145.646 59.4184 145.055 58.6594C143.523 61.0486 141.302 62.2572 138.435 62.0324C135.554 61.8075 133.642 60.0227 132.041 57.7599C132.139 58.1956 132.294 58.6313 132.322 59.0669C132.462 61.7654 131.549 63.9578 129.272 65.56C127.811 66.5859 126.125 66.8529 124.466 67.2183C122.78 67.5838 121.163 67.3308 119.926 66.1361C119.082 65.321 118.535 64.1827 117.874 63.1708C117.607 62.7632 117.425 62.3134 117.185 61.8496C115.359 63.4519 113.377 63.9156 111.044 63.1848C108.809 62.468 107.306 60.9503 106.013 59.0248C104.677 61.934 102.218 63.1427 99.3084 63.3957C95.8094 63.7049 92.6612 62.5243 89.7942 60.5426C89.3726 60.2475 88.993 59.8962 88.5573 59.6291C88.3325 59.4886 88.0233 59.4324 87.7563 59.4605C86.7725 59.587 85.7887 59.9383 84.819 59.8821C83.6384 59.8118 82.4579 59.4886 81.3195 59.1513C80.912 59.0248 80.6449 58.9967 80.3357 59.2497C78.6914 60.5988 76.6816 61.0767 74.6719 61.0767C72.3951 61.0626 70.2167 60.4161 68.2913 59.0248C65.1713 56.734 63.4708 53.6561 62.6978 49.9458C61.9951 46.6009 62.248 43.3264 63.0491 40.0376C63.6253 37.6485 64.4404 35.3717 66.1551 33.615C67.3497 32.3782 68.8254 31.3803 70.2729 30.4247C71.0881 29.8905 72.0859 29.6376 72.9854 29.23C73.14 29.1598 73.3508 28.9912 73.3649 28.8366C73.7724 25.5057 75.5573 23.0041 78.2276 21.1489C79.7454 20.1089 81.5163 19.8981 83.3434 20.4462C85.1563 20.9802 86.3228 22.2452 87.3628 23.7208C88.445 25.2387 88.8104 27.0095 89.2039 28.7662C89.4147 29.6938 89.5412 30.6214 89.6958 31.5209C91.6915 31.0992 93.7152 30.6073 95.739 30.242C97.8048 29.8765 99.8568 30.1716 101.853 30.6917C102.092 29.6376 102.317 28.6538 102.541 27.6841C103.146 25.0841 104.705 23.51 107.361 22.9338C108.852 22.5965 110.2 22.9759 111.578 23.3554C112.182 23.5241 112.464 23.4679 112.716 22.7792C113.349 21.0084 114.459 19.5748 116.103 18.5911C117.298 17.8743 118.395 17.0029 119.631 16.3845C120.545 15.9349 121.598 15.6256 122.61 15.5835C123.903 15.5132 125.183 15.8365 126.166 16.764C128.317 15.2181 130.692 14.403 133.221 14.7122C138.337 15.3446 141.429 18.31 142.539 23.2008C142.596 23.4679 142.652 23.7489 142.694 24.0159C142.82 24.803 143.088 25.2808 144.029 25.5759C145.589 26.0678 146.643 27.3749 147.43 28.8084C147.5 28.9349 147.557 29.0473 147.669 29.2862C150.044 28.2744 152.433 27.3749 154.724 26.2506C156.51 25.3652 158.35 24.5641 160.304 24.4376C161.864 24.3251 163.438 24.8452 164.534 26.1522C164.927 26.616 165.237 27.1641 165.602 27.7122C166.656 27.1078 167.753 26.3208 168.975 25.843C170.436 25.2527 171.997 24.6484 173.543 24.5501C176.044 24.3955 178.336 25.6182 178.897 28.6257C179.291 30.7198 178.518 32.4625 177.169 33.9522C175.497 35.8214 174.287 37.9436 173.402 40.2625C173.304 40.5014 173.262 40.8669 173.388 41.0636C174.245 42.4409 174.428 43.8604 173.979 45.4203C173.486 47.1068 172.193 48.0063 170.802 48.8356C170.366 49.0885 169.889 49.2713 169.453 49.4821ZM98.8726 44.5772C97.285 43.3404 95.6548 42.3284 93.7996 41.7804C91.0591 40.9652 88.8525 42.0615 87.8547 44.7317C87.6298 45.322 87.4752 45.9404 87.419 46.5588C86.885 52.3209 91.6071 58.2097 97.3693 58.8842C100.503 59.2497 101.937 58.2097 102.485 55.2864C102.823 53.5156 102.71 51.7588 102.274 49.9599C104.199 49.3275 106.097 48.7091 108.037 48.0767C108.107 48.428 108.148 48.681 108.205 48.9198C108.754 51.4074 109.26 53.8951 109.892 56.3545C110.243 57.7459 111.353 58.547 112.675 59.0107C113.377 59.2497 113.897 58.9264 114.01 58.1956C114.094 57.7178 114.08 57.2118 114.023 56.734C113.798 54.9772 113.517 53.2204 113.292 51.4637C113.096 49.8193 112.956 48.175 112.787 46.5167C114.08 46.095 115.303 45.7014 116.553 45.294C116.624 45.5188 116.679 45.7014 116.736 45.8701C117.551 48.7372 118.296 51.6323 119.182 54.4854C120.039 57.1977 121.134 59.8259 122.582 62.2994C122.85 62.7491 123.159 62.9319 123.665 62.8054C124.409 62.6227 125.196 62.5243 125.899 62.2432C127.698 61.5546 128.26 60.2335 127.6 58.4205C127.22 57.3664 126.771 56.3405 126.363 55.3005C125.576 53.2767 124.803 51.2528 124.016 49.2009C129.834 47.0647 134.444 43.7058 136.707 37.7047C137.775 38.2528 138.533 37.7609 139.181 37.0722C140.628 35.5122 142.033 33.9242 143.439 32.336C143.551 32.2095 143.649 32.0127 143.677 31.8441C143.79 31.1976 143.073 30.0451 142.356 29.6798C141.71 29.3425 141.176 29.4971 140.487 30.1576C139.756 30.8744 139.012 31.563 138.267 32.2657C138.281 32.1392 138.309 31.9846 138.323 31.8301C138.731 29.4127 138.913 27.0095 138.365 24.5922C137.887 22.484 136.96 20.671 134.88 19.7013C132.491 18.577 130.327 19.1391 128.345 20.7133C125.899 22.6527 124.171 25.1684 122.78 27.9231C122.68 28.1338 122.568 28.3446 122.47 28.5555C122.47 27.7685 122.61 27.0376 122.723 26.3068C122.99 24.536 123.299 22.7651 123.482 20.9802C123.58 20.0527 123.116 19.7294 122.274 20.0949C119.392 21.3597 116.82 22.9478 116.202 26.3911C116.118 26.8267 115.991 27.2484 115.92 27.6841C115.331 31.2117 115.386 34.7533 115.584 38.309C115.654 39.6301 115.85 40.9511 115.991 42.3144C114.867 42.6376 113.757 42.975 112.59 43.3123C112.534 42.4128 112.477 41.6258 112.45 40.8247C112.295 37.0161 112.112 33.2214 112.745 29.4268C112.773 29.216 112.66 28.9068 112.492 28.7662C111.353 27.8106 110.046 27.2343 108.528 27.2343C107.825 27.2343 107.278 27.5576 107.053 28.2181C106.814 28.9208 106.519 29.6517 106.519 30.3684C106.519 32.842 106.561 35.3155 106.729 37.775C106.87 39.9393 107.221 42.0896 107.446 44.2539C107.474 44.4647 107.361 44.8302 107.235 44.8723C105.732 45.3501 104.214 45.7858 102.541 46.2917C102.738 45.9264 102.893 45.7155 102.977 45.4907C103.525 44.1555 104.228 42.8626 104.565 41.4712C105.366 38.1263 103.736 35.5825 100.503 34.8798C100.067 34.7814 99.6316 34.7393 99.1825 34.6971C95.8796 34.3739 92.7596 35.0906 89.7801 36.4398C88.1077 37.1987 86.4914 38.0701 84.7909 38.9274C84.8893 37.522 84.9736 36.1166 85.072 34.7112C85.2547 32.2938 85.1563 29.9046 84.3131 27.5997C83.9335 26.5598 83.3715 25.6182 82.4579 24.9295C81.9661 24.5501 81.446 24.4938 80.8838 24.7608C79.2114 25.5198 77.6936 28.2463 77.9184 30.0592C78.087 31.3944 78.2416 32.7295 78.4243 34.163C78.1433 33.9803 77.9465 33.8538 77.7638 33.7414C77.0049 33.2635 76.1617 32.9826 75.2903 33.2074C72.2968 34.0084 69.7108 35.4701 68.3335 38.3793C66.6189 42.0052 66.2815 45.842 67.2373 49.7351C67.8838 52.3913 69.3313 54.5696 71.8471 55.8767C74.1237 57.0431 76.499 56.8043 78.3541 55.0615C79.3238 54.148 80.0265 52.9535 80.8276 51.8712C80.9822 51.6604 81.0947 51.3934 81.2773 51.0701C81.7692 52.4755 81.713 54.0637 83.0482 54.921C84.3833 55.7783 85.7606 55.427 87.1519 54.935C87.1239 54.8086 87.1239 54.7383 87.0817 54.6821C84.9876 51.4216 84.5098 47.7815 84.4396 44.029C84.4255 43.4669 84.6222 43.0874 85.0579 42.708C87.658 40.5014 90.7076 39.2646 94.0104 38.6322C95.472 38.3511 96.9477 38.309 98.3677 38.8993C99.674 39.4474 100.363 40.5998 100.167 41.9069C100.012 42.9187 99.5336 43.762 98.8726 44.5772ZM167.625 34.6408C167.668 34.6971 167.696 34.7393 167.738 34.7954C167.457 35.3576 167.106 35.9058 166.923 36.496C166.515 37.7609 166.15 39.0258 165.855 40.3187C165.715 40.9231 165.911 41.4993 166.628 41.696C167.372 41.9069 168.019 41.696 168.384 41.0496C168.61 40.642 168.765 40.1922 168.891 39.7566C169.748 36.749 171.153 34.0506 173.22 31.6755C173.599 31.2398 174.007 30.8041 174.287 30.2981C174.456 30.003 174.568 29.4408 174.4 29.2441C174.232 29.0193 173.655 28.9349 173.346 29.0333C172.306 29.3565 171.266 29.7359 170.296 30.2138C169.369 30.6635 168.525 31.2678 167.64 31.7739C165.673 32.8841 163.719 34.0084 161.541 34.7252C159.138 35.5122 157.971 37.536 158.533 40.0236C158.885 41.5837 159.545 43.0733 160.065 44.5912C160.149 44.8442 160.248 45.0971 160.402 45.5328C156.663 46.3339 153.052 47.1068 149.271 47.908C148.625 45.0409 147.936 42.3707 147.43 39.6723C147.092 37.8312 147.978 36.5944 149.763 35.962C150.845 35.5825 151.927 35.2171 153.01 34.8377C153.193 34.7674 153.389 34.7393 153.712 34.6549C153.544 34.95 153.446 35.1187 153.347 35.3015C152.588 36.7771 151.702 38.1965 151.113 39.7284C150.69 40.8247 150.592 42.0896 150.55 43.2842C150.522 44.1695 151.084 44.6474 151.857 44.7879C152.771 44.9566 153.446 44.6756 153.852 43.8744C154.12 43.3404 154.288 42.7501 154.471 42.1739C155.596 38.562 157.043 35.1046 159.713 32.3079C160.219 31.7739 160.697 31.1695 161.063 30.523C161.259 30.1716 161.4 29.5252 161.203 29.2581C161.007 28.9912 160.361 28.9208 159.953 28.9912C159.292 29.1176 158.645 29.3706 158.056 29.6798C154.105 31.6333 150.073 33.3058 145.799 34.402C143.284 35.0344 142.16 36.6506 142.441 39.2225C142.596 40.5717 143.045 41.8929 143.509 43.1858C144.113 44.9004 144.83 46.5588 145.546 48.3437C144.183 48.4983 142.89 48.6529 141.527 48.8075C141.808 49.7772 142.273 50.6063 143.017 51.281C144.226 52.3772 145.631 52.0117 147.009 51.7869C147.711 53.3188 148.386 54.8086 149.074 56.2842C149.257 56.6778 149.468 57.0994 149.763 57.4086C149.974 57.6334 150.396 57.8442 150.649 57.774C150.902 57.7178 151.211 57.3102 151.239 57.0291C151.295 56.3405 151.295 55.6237 151.168 54.9491C150.915 53.628 150.564 52.3209 150.256 50.9859C153.937 49.8474 157.591 48.7091 161.245 47.5707C161.414 47.9501 161.526 48.2593 161.653 48.5545C162.383 50.1988 163.1 51.8431 163.887 53.4594C164.042 53.7686 164.52 53.9232 164.843 54.148C165.04 53.7826 165.405 53.4172 165.405 53.0658C165.377 52.1945 165.237 51.3091 165.054 50.4377C164.787 49.1729 164.463 47.908 164.155 46.6431C165.012 46.3198 165.813 46.0669 166.586 45.7437C167.5 45.3501 168.399 44.9004 169.284 44.4226C169.495 44.3101 169.594 44.0009 169.748 43.7761C169.509 43.6917 169.256 43.495 169.018 43.5231C168.09 43.6075 167.162 43.734 166.249 43.9026C165.363 44.0572 164.492 44.2961 163.452 44.521C163.115 42.6517 162.735 40.8809 162.511 39.082C162.383 38.0561 162.834 37.1003 163.761 36.5804C165.026 35.8776 166.347 35.2874 167.625 34.6408ZM134.037 48.3858C134.078 50.8594 134.571 53.2627 136.018 55.3566C136.51 56.0734 137.157 56.734 137.859 57.2399C138.913 57.9988 140.459 57.5632 141.063 56.4248C141.218 56.1156 141.191 55.6237 141.05 55.2864C140.755 54.5135 140.249 53.8107 139.996 53.0237C139.026 50.0443 138.66 47.0226 139.785 43.9728C140.009 43.3544 139.855 42.9891 139.251 42.6939C137.522 41.8366 135.864 42.4128 134.866 44.282C134.219 45.5328 134.078 46.9242 134.037 48.3858Z" fill="url(#paint0_linear_3_17)"/>
<path d="M123.384 45.322C123.552 43.4387 123.679 41.5695 123.903 39.6863C124.424 35.3154 125.576 31.1273 127.796 27.2905C128.387 26.2646 129.117 25.3089 129.904 24.4375C130.622 23.6224 131.057 23.7489 131.465 24.7467C132.209 26.5597 132.336 28.4852 132.139 30.3965C131.633 35.3435 129.595 39.63 126.265 43.2841C125.506 44.1133 124.55 44.7599 123.692 45.4906C123.58 45.4344 123.482 45.3782 123.384 45.322Z" fill="url(#paint1_linear_3_17)"/>
<path d="M76.8643 43.0734C77.7919 42.2864 78.7195 41.4853 79.7033 40.6421C79.9141 42.0896 80.1249 43.5794 80.3357 45.055C80.3498 45.1815 80.3076 45.3361 80.2654 45.4626C79.7454 47.4162 78.9584 49.2573 77.7217 50.8734C75.8243 53.3329 73.6459 53.0659 72.5216 50.1708C71.1303 46.5729 71.074 42.8907 72.2265 39.1945C72.2686 39.068 72.3249 38.9274 72.3811 38.801C72.7464 38.028 73.154 37.2128 74.1518 37.2409C75.1497 37.2691 75.5714 38.0702 75.8525 38.8712C76.1194 39.6302 76.2881 40.4453 76.4427 41.2323C76.5551 41.7664 76.5832 42.3286 76.6535 42.8767C76.7238 42.961 76.7941 43.0172 76.8643 43.0734Z" fill="url(#paint2_linear_3_17)"/>
<path d="M97.8193 54.0638C97.8472 56.0454 97.6083 56.2141 96.1326 55.7362C92.8158 54.654 90.2157 50.1146 91.031 46.7837C91.1152 46.4465 91.2277 46.1092 91.3963 45.814C91.7758 45.1253 92.3099 44.9567 93.0407 45.2518C94.0385 45.6594 94.8395 46.334 95.4439 47.2194C96.9196 49.4259 97.6224 51.8573 97.8193 54.0638Z" fill="url(#paint3_linear_3_17)"/>
<path d="M98.9428 44.605C99.6038 43.7898 100.081 42.9326 100.221 41.9487C100.419 40.6417 99.7297 39.5033 98.4223 38.9412C97.0033 38.3509 95.5276 38.393 94.066 38.6741C90.7492 39.3066 87.7136 40.5433 85.1136 42.7499C84.6779 43.1153 84.4952 43.5087 84.4952 44.0709C84.5654 47.8234 85.0432 51.4774 87.1373 54.7239C87.1654 54.7802 87.1654 54.8504 87.2076 54.9769C85.8303 55.4548 84.4389 55.8202 83.1038 54.9629C81.7687 54.1055 81.8108 52.5315 81.333 51.1121C81.1503 51.4353 81.0519 51.6883 80.8832 51.9131C80.0681 52.9953 79.3654 54.1759 78.4097 55.1034C76.5686 56.8461 74.1794 57.0851 71.9027 55.9185C69.3869 54.6256 67.9394 52.4472 67.2929 49.7769C66.3512 45.8839 66.6746 42.0471 68.3891 38.4211C69.7665 35.5119 72.3524 34.0503 75.3459 33.2493C76.2173 33.0103 77.0605 33.3055 77.8194 33.7833C78.0161 33.9098 78.1989 34.0223 78.4799 34.2049C78.3113 32.7573 78.1427 31.4222 77.974 30.1011C77.7352 28.2881 79.2671 25.5475 80.9394 24.8028C81.5016 24.5497 82.0216 24.6059 82.5135 24.9714C83.4271 25.66 83.9751 26.6016 84.3687 27.6416C85.2119 29.9465 85.3243 32.3358 85.1276 34.753C85.0152 36.1585 84.9308 37.5779 84.8465 38.9693C86.5471 38.1119 88.1632 37.2407 89.8357 36.4817C92.8152 35.1325 95.9352 34.4157 99.2382 34.7389C99.674 34.7812 100.123 34.8374 100.559 34.9217C103.778 35.6244 105.408 38.1682 104.621 41.513C104.297 42.9045 103.581 44.1974 103.032 45.5326C102.934 45.7574 102.794 45.9682 102.596 46.3337C104.27 45.8418 105.788 45.4061 107.291 44.9142C107.417 44.872 107.53 44.4926 107.502 44.2958C107.277 42.1314 106.94 39.9811 106.785 37.8168C106.617 35.3573 106.574 32.8838 106.574 30.4103C106.574 29.6935 106.87 28.9628 107.108 28.26C107.334 27.5995 107.881 27.2763 108.584 27.2763C110.102 27.2763 111.408 27.8524 112.548 28.8082C112.701 28.9487 112.828 29.2579 112.801 29.4687C112.154 33.2493 112.336 37.0579 112.505 40.8666C112.533 41.6536 112.603 42.4406 112.646 43.3541C113.812 43.0168 114.923 42.6936 116.046 42.3563C115.906 40.979 115.71 39.6719 115.64 38.3509C115.442 34.8093 115.372 31.2536 115.976 27.726C116.046 27.2903 116.187 26.8687 116.257 26.433C116.876 22.9897 119.448 21.4016 122.329 20.1367C123.172 19.7713 123.636 20.0946 123.538 21.0221C123.34 22.8071 123.046 24.5778 122.779 26.3487C122.666 27.0794 122.525 27.8103 122.525 28.5973C122.624 28.3865 122.736 28.1757 122.835 27.9649C124.226 25.1962 125.941 22.6946 128.401 20.7551C130.382 19.1811 132.546 18.6189 134.935 19.7433C137.002 20.713 137.943 22.526 138.421 24.6341C138.955 27.0513 138.772 29.4687 138.378 31.872C138.351 32.0266 138.336 32.1812 138.323 32.3077C139.067 31.6049 139.812 30.9022 140.543 30.1995C141.232 29.5249 141.766 29.3843 142.412 29.7217C143.129 30.0871 143.846 31.2396 143.733 31.886C143.705 32.0547 143.607 32.2373 143.494 32.3779C142.074 33.966 140.67 35.5542 139.236 37.1142C138.589 37.8168 137.817 38.2947 136.762 37.7466C134.5 43.7477 129.89 47.1066 124.071 49.2429C124.858 51.3088 125.632 53.3326 126.419 55.3423C126.827 56.3823 127.276 57.4224 127.655 58.4624C128.316 60.2754 127.754 61.5964 125.955 62.2851C125.238 62.5662 124.465 62.6645 123.72 62.8472C123.214 62.9737 122.906 62.8051 122.638 62.3413C121.19 59.8678 120.095 57.2397 119.237 54.5272C118.338 51.6743 117.592 48.7791 116.792 45.912C116.735 45.7293 116.679 45.5607 116.609 45.3358C115.358 45.7434 114.149 46.1369 112.842 46.5585C113.011 48.2169 113.137 49.8613 113.348 51.5056C113.559 53.2623 113.854 55.0191 114.079 56.7759C114.135 57.2537 114.149 57.7596 114.065 58.2375C113.939 58.9683 113.418 59.3056 112.73 59.0527C111.408 58.5889 110.313 57.7877 109.947 56.3964C109.315 53.9369 108.823 51.4353 108.261 48.9618C108.204 48.7088 108.163 48.4699 108.093 48.1185C106.152 48.751 104.255 49.3694 102.33 50.0018C102.766 51.8148 102.878 53.5575 102.541 55.3282C101.992 58.2515 100.573 59.3056 97.425 58.9262C91.6627 58.2375 86.9405 52.3488 87.4746 46.6007C87.5308 45.9823 87.6854 45.3498 87.9103 44.7737C88.9081 42.1033 91.1147 41.0071 93.8553 41.8222C95.7244 42.3563 97.3546 43.3683 98.9428 44.605ZM123.453 45.3498C123.552 45.4061 123.65 45.4623 123.763 45.5186C124.62 44.7877 125.575 44.1412 126.334 43.312C129.666 39.6579 131.703 35.3714 132.209 30.4243C132.405 28.513 132.279 26.5876 131.535 24.7746C131.127 23.7768 130.691 23.6503 129.974 24.4654C129.187 25.3508 128.456 26.3065 127.867 27.3184C125.645 31.1552 124.493 35.3433 123.973 39.7142C123.748 41.5974 123.622 43.4806 123.453 45.3498ZM76.934 43.1012C76.8638 43.0449 76.7934 42.9888 76.7232 42.9326C76.653 42.3844 76.6248 41.8222 76.5124 41.2882C76.3438 40.4872 76.1891 39.6861 75.9222 38.9272C75.6411 38.126 75.2194 37.3109 74.2216 37.2968C73.2237 37.2688 72.8162 38.0839 72.4507 38.8568C72.3946 38.9833 72.3383 39.1098 72.2961 39.2504C71.1438 42.9466 71.1859 46.6288 72.5913 50.2266C73.7156 53.1218 75.8941 53.3888 77.7913 50.9294C79.0421 49.3131 79.8151 47.486 80.3351 45.5186C80.3773 45.378 80.4194 45.2375 80.4054 45.111C80.1946 43.6212 79.9837 42.1456 79.773 40.6979C78.7891 41.5272 77.8616 42.3142 76.934 43.1012ZM97.8884 54.0915C97.7056 51.885 96.9893 49.4536 95.5276 47.2612C94.9233 46.3618 94.1222 45.7012 93.1244 45.2936C92.3936 44.9985 91.8596 45.1671 91.48 45.8558C91.3114 46.151 91.1989 46.5023 91.1147 46.8255C90.2995 50.1424 92.8995 54.6958 96.2163 55.778C97.6778 56.2418 97.9163 56.0731 97.8884 54.0915Z" fill="url(#paint4_linear_3_17)"/>
<path d="M167.696 34.6686C166.403 35.3152 165.095 35.9054 163.845 36.6222C162.917 37.1563 162.467 38.1119 162.594 39.1238C162.819 40.9227 163.198 42.6936 163.536 44.5628C164.576 44.3238 165.446 44.099 166.333 43.9444C167.245 43.7758 168.174 43.6493 169.101 43.5649C169.34 43.5368 169.593 43.7335 169.831 43.8179C169.677 44.0427 169.579 44.3519 169.368 44.4644C168.483 44.9422 167.583 45.3919 166.669 45.7855C165.897 46.1228 165.095 46.3758 164.238 46.685C164.547 47.9498 164.87 49.2006 165.138 50.4795C165.32 51.3369 165.475 52.2223 165.489 53.1076C165.503 53.4591 165.123 53.8244 164.927 54.1898C164.604 53.965 164.126 53.8104 163.971 53.5012C163.184 51.8849 162.467 50.2407 161.737 48.5963C161.61 48.3011 161.484 47.992 161.329 47.6125C157.661 48.7509 154.021 49.8752 150.339 51.0277C150.648 52.3769 150.999 53.6698 151.252 54.991C151.379 55.6655 151.379 56.3823 151.322 57.0709C151.294 57.352 150.986 57.7456 150.733 57.8158C150.48 57.886 150.057 57.6752 149.847 57.4504C149.551 57.1412 149.34 56.7196 149.158 56.326C148.47 54.8504 147.795 53.3606 147.092 51.8287C145.729 52.0395 144.309 52.405 143.101 51.3228C142.356 50.6482 141.893 49.805 141.611 48.8493C142.974 48.6947 144.267 48.5401 145.631 48.3855C144.913 46.6006 144.197 44.9422 143.593 43.2276C143.143 41.9347 142.68 40.6135 142.525 39.2643C142.244 36.6783 143.367 35.0762 145.884 34.4438C150.17 33.3616 154.203 31.6751 158.139 29.7216C158.743 29.4264 159.39 29.1594 160.036 29.033C160.444 28.9626 161.091 29.033 161.287 29.2999C161.47 29.5529 161.344 30.1994 161.146 30.5649C160.781 31.2113 160.303 31.8016 159.798 32.3497C157.127 35.1464 155.694 38.6038 154.555 42.2157C154.372 42.7919 154.218 43.3822 153.937 43.9163C153.529 44.7314 152.855 44.9985 151.941 44.8297C151.182 44.6893 150.606 44.2113 150.633 43.326C150.676 42.1314 150.788 40.8806 151.196 39.7703C151.773 38.2384 152.672 36.8189 153.431 35.3433C153.529 35.1606 153.627 34.9918 153.796 34.6967C153.472 34.7811 153.276 34.8232 153.093 34.8795C152.011 35.2449 150.929 35.6102 149.847 36.0038C148.062 36.6362 147.177 37.8589 147.514 39.7141C148.005 42.4125 148.694 45.0827 149.355 47.9498C153.121 47.1488 156.747 46.3758 160.485 45.5746C160.332 45.1389 160.232 44.886 160.149 44.633C159.628 43.1151 158.968 41.6255 158.616 40.0654C158.054 37.5778 159.221 35.554 161.624 34.767C163.802 34.0502 165.756 32.9259 167.724 31.8157C168.623 31.3097 169.467 30.7054 170.38 30.2557C171.364 29.7777 172.389 29.3983 173.429 29.0751C173.752 28.9767 174.315 29.0611 174.484 29.2859C174.652 29.4968 174.54 30.0448 174.371 30.34C174.09 30.8459 173.682 31.2816 173.303 31.7173C171.237 34.0783 169.832 36.7908 168.974 39.7984C168.848 40.2482 168.693 40.6979 168.468 41.0914C168.104 41.7378 167.457 41.9487 166.711 41.7378C165.995 41.5271 165.812 40.9508 165.939 40.3605C166.234 39.0676 166.599 37.8027 167.007 36.5378C167.204 35.9476 167.541 35.3994 167.822 34.8372C167.78 34.767 167.738 34.7249 167.696 34.6686Z" fill="url(#paint5_linear_3_17)"/>
<path d="M134.106 48.4136C134.149 46.952 134.274 45.5607 134.963 44.2958C135.961 42.4265 137.606 41.8504 139.348 42.7076C139.952 43.0028 140.107 43.3683 139.882 43.9866C138.759 47.0223 139.124 50.0439 140.094 53.0375C140.347 53.8245 140.852 54.5272 141.147 55.3001C141.274 55.6375 141.316 56.1435 141.162 56.4386C140.571 57.5769 139.012 57.9986 137.957 57.2537C137.254 56.7478 136.607 56.0872 136.116 55.3705C134.64 53.2904 134.149 50.8872 134.106 48.4136Z" fill="url(#paint6_linear_3_17)"/>
</g>
<defs>
<linearGradient id="paint0_linear_3_17" x1="120.644" y1="14.6473" x2="120.644" y2="67.3728" gradientUnits="userSpaceOnUse">
<stop stop-color="#2F2F2F"/>
<stop offset="1" stop-color="#010101"/>
</linearGradient>
<linearGradient id="paint1_linear_3_17" x1="127.803" y1="23.9025" x2="127.803" y2="45.4906" gradientUnits="userSpaceOnUse">
<stop stop-color="#2F2F2F"/>
<stop offset="1" stop-color="#010101"/>
</linearGradient>
<linearGradient id="paint2_linear_3_17" x1="75.877" y1="37.2402" x2="75.877" y2="52.5466" gradientUnits="userSpaceOnUse">
<stop stop-color="#2F2F2F"/>
<stop offset="1" stop-color="#010101"/>
</linearGradient>
<linearGradient id="paint3_linear_3_17" x1="94.3506" y1="45.1127" x2="94.3506" y2="55.9604" gradientUnits="userSpaceOnUse">
<stop stop-color="#2F2F2F"/>
<stop offset="1" stop-color="#010101"/>
</linearGradient>
<linearGradient id="paint4_linear_3_17" x1="105.259" y1="19.1532" x2="105.259" y2="62.8879" gradientUnits="userSpaceOnUse">
<stop stop-color="#FBFBFB"/>
<stop offset="1" stop-color="#D0D0D0"/>
</linearGradient>
<linearGradient id="paint5_linear_3_17" x1="158.089" y1="29.0075" x2="158.089" y2="57.8295" gradientUnits="userSpaceOnUse">
<stop stop-color="#FBFBFB"/>
<stop offset="1" stop-color="#D0D0D0"/>
</linearGradient>
<linearGradient id="paint6_linear_3_17" x1="137.684" y1="42.3193" x2="137.684" y2="57.6266" gradientUnits="userSpaceOnUse">
<stop stop-color="#FBFBFB"/>
<stop offset="1" stop-color="#D0D0D0"/>
</linearGradient>
<clipPath id="clip0_3_17">
<rect width="241" height="81" fill="white"/>
</clipPath>
</defs>
</svg>
