<svg width="481" height="145" viewBox="0 0 481 145" fill="none" xmlns="http://www.w3.org/2000/svg">
<g clip-path="url(#clip0_9_9)">
<path d="M72.2756 0.237427C32.4799 0.237427 0.217651 32.3743 0.217651 72.0163C0.217651 111.66 32.4799 143.794 72.2756 143.794C112.076 143.794 144.334 111.66 144.334 72.0163C144.334 32.3769 112.076 0.240855 72.2747 0.240855L72.2756 0.237427ZM105.321 103.763C104.03 105.872 101.259 106.54 99.1427 105.246C82.2243 94.9517 60.926 92.6203 35.8435 98.3288C33.4264 98.8774 31.0171 97.3689 30.4664 94.9603C29.9132 92.5517 31.4216 90.1517 33.8446 89.6031C61.2935 83.3563 84.8384 86.046 103.832 97.6088C105.949 98.9031 106.62 101.655 105.321 103.763ZM114.141 84.2186C112.514 86.8517 109.055 87.6831 106.414 86.0631C87.0446 74.2037 57.5195 70.7691 34.6096 77.6966C31.6384 78.5906 28.5003 76.9226 27.5985 73.968C26.7036 71.0083 28.379 67.8883 31.345 66.9883C57.5143 59.0786 90.0476 62.91 112.291 76.5257C114.932 78.1457 115.767 81.5914 114.141 84.2194V84.2186ZM114.898 63.8666C91.6739 50.1257 53.3574 48.8623 31.1841 55.566C27.6235 56.6417 23.8581 54.6394 22.779 51.0926C21.7 47.544 23.7083 43.7957 27.2715 42.7174C52.725 35.0203 95.0383 36.5074 121.776 52.3191C124.986 54.2126 126.036 58.3329 124.134 61.5189C122.241 64.7091 118.094 65.7608 114.901 63.8666H114.898ZM196.263 66.4997C183.821 63.5443 181.61 61.47 181.61 57.1114C181.61 52.9937 185.499 50.2226 191.29 50.2226C196.9 50.2226 202.459 52.3269 208.293 56.6588C208.465 56.79 208.689 56.8423 208.904 56.808C209.127 56.7754 209.317 56.6563 209.446 56.4771L215.521 47.9469C215.77 47.5954 215.701 47.1111 215.366 46.8429C208.422 41.2946 200.609 38.5971 191.471 38.5971C178.039 38.5971 168.651 46.6277 168.651 58.1177C168.651 70.4391 176.748 74.802 190.739 78.1697C202.639 80.9014 204.653 83.19 204.653 87.2803C204.653 91.8146 200.592 94.6346 194.052 94.6346C186.79 94.6346 180.861 92.1917 174.236 86.4831C174.072 86.3374 173.848 86.2774 173.642 86.286C173.418 86.3031 173.22 86.406 173.083 86.5688L166.268 94.6431C165.984 94.986 166.018 95.4831 166.345 95.7746C174.055 102.632 183.537 106.249 193.777 106.249C208.25 106.249 217.603 98.3717 217.603 86.1746C217.629 75.8829 211.442 70.1829 196.289 66.5108L196.263 66.4997ZM250.352 54.2769C244.079 54.2769 238.934 56.7386 234.683 61.7829V56.1051C234.683 55.6569 234.322 55.2917 233.874 55.2917H222.731C222.284 55.2917 221.923 55.6569 221.923 56.1051V119.192C221.923 119.637 222.284 120.006 222.731 120.006H233.874C234.322 120.006 234.683 119.637 234.683 119.192V99.2803C238.934 104.02 244.079 106.343 250.352 106.343C262.012 106.343 273.817 97.4031 273.817 80.3126C273.834 63.2186 262.029 54.276 250.361 54.276L250.352 54.2769ZM260.859 80.3126C260.859 89.0117 255.481 95.0888 247.771 95.0888C240.156 95.0888 234.408 88.7374 234.408 80.3126C234.408 71.8868 240.156 65.5371 247.771 65.5371C255.352 65.5363 260.859 71.7488 260.859 80.3117V80.3126ZM304.062 54.2769C289.047 54.2769 277.285 65.7934 277.285 80.4986C277.285 95.046 288.97 106.437 303.882 106.437C318.949 106.437 330.746 94.9603 330.746 80.3126C330.746 65.7146 319.026 54.2786 304.062 54.2786V54.2769ZM304.062 95.1746C296.077 95.1746 290.054 88.7803 290.054 80.3083C290.054 71.7977 295.871 65.622 303.882 65.622C311.919 65.622 317.976 72.0137 317.976 80.4943C317.976 89.0031 312.125 95.1746 304.062 95.1746ZM362.806 55.2917H350.545V42.8066C350.545 42.3591 350.183 41.994 349.736 41.994H338.593C338.146 41.994 337.776 42.3591 337.776 42.8066V55.2917H332.423C331.976 55.2917 331.615 55.6569 331.615 56.1051V65.6426C331.615 66.09 331.976 66.456 332.423 66.456H337.776V91.1374C337.776 101.106 342.758 106.163 352.593 106.163C356.585 106.163 359.898 105.34 363.022 103.575C363.28 103.437 363.435 103.163 363.435 102.872V93.786C363.435 93.5117 363.288 93.246 363.047 93.1003C362.806 92.946 362.505 92.9374 362.256 93.066C360.113 94.1374 358.039 94.6346 355.716 94.6346C352.145 94.6346 350.545 93.0146 350.545 89.3974V66.4603H362.806C363.254 66.4603 363.615 66.0951 363.615 65.6469V56.1103C363.633 55.662 363.271 55.2969 362.815 55.2969L362.806 55.2917ZM405.52 55.3406V53.8071C405.52 49.296 407.258 47.2843 411.147 47.2843C413.471 47.2843 415.338 47.7437 417.429 48.438C417.687 48.5186 417.954 48.4783 418.16 48.3249C418.375 48.1714 418.496 47.9254 418.496 47.6649V38.3134C418.496 37.956 418.272 37.6397 417.919 37.5343C415.716 36.8803 412.894 36.2091 408.661 36.2091C398.378 36.2091 392.931 41.9811 392.931 52.8951V55.2437H387.579C387.132 55.2437 386.762 55.6089 386.762 56.0563V65.6426C386.762 66.09 387.132 66.456 387.579 66.456H392.931V104.517C392.931 104.972 393.301 105.332 393.749 105.332H404.883C405.339 105.332 405.701 104.972 405.701 104.517V66.4586H416.104L432.039 104.517C430.233 108.512 428.451 109.309 426.025 109.309C424.063 109.309 421.989 108.726 419.881 107.569C419.683 107.466 419.442 107.449 419.236 107.509C419.021 107.586 418.84 107.74 418.754 107.946L414.976 116.2C414.796 116.595 414.951 117.049 415.329 117.255C419.27 119.38 422.824 120.289 427.221 120.289C435.447 120.289 439.999 116.466 444 106.197L463.326 56.4514C463.429 56.2011 463.395 55.9183 463.24 55.6963C463.094 55.476 462.844 55.3431 462.577 55.3431H450.978C450.626 55.3431 450.316 55.5634 450.204 55.8883L438.321 89.6889L425.311 55.866C425.19 55.5514 424.889 55.3431 424.553 55.3431H405.52V55.3406ZM380.756 55.2917H369.613C369.165 55.2917 368.795 55.6569 368.795 56.1051V104.517C368.795 104.972 369.165 105.332 369.613 105.332H380.756C381.203 105.332 381.573 104.972 381.573 104.517V56.1086C381.573 55.6603 381.212 55.2951 380.756 55.2951V55.2917ZM375.249 33.2469C370.835 33.2469 367.255 36.8057 367.255 41.202C367.255 45.6009 370.835 49.164 375.249 49.164C379.663 49.164 383.234 45.6009 383.234 41.202C383.234 36.8066 379.654 33.2469 375.249 33.2469ZM472.843 70.8583C468.437 70.8583 465.004 67.3311 465.004 63.048C465.004 58.7649 468.48 55.1974 472.886 55.1974C477.291 55.1974 480.725 58.7237 480.725 63.0034C480.725 67.2866 477.248 70.8583 472.843 70.8583ZM472.886 55.974C468.867 55.974 465.83 59.154 465.83 63.048C465.83 66.9403 468.85 70.0774 472.843 70.0774C476.861 70.0774 479.899 66.9 479.899 63.0034C479.899 59.1111 476.878 55.974 472.886 55.974ZM474.624 63.8066L476.844 66.8991H474.968L472.972 64.062H471.259V66.8991H469.693V58.7014H473.359C475.278 58.7014 476.534 59.676 476.534 61.3166C476.543 62.6606 475.76 63.4817 474.633 63.8066H474.624ZM473.299 60.108H471.259V62.7009H473.299C474.314 62.7009 474.925 62.2046 474.925 61.4031C474.925 60.5597 474.314 60.108 473.299 60.108Z" fill="white"/>
</g>
<defs>
<clipPath id="clip0_9_9">
<rect width="481" height="144" fill="white"/>
</clipPath>
</defs>
</svg>
