<svg width="428" height="547" viewBox="0 0 428 547" fill="none" xmlns="http://www.w3.org/2000/svg">
<path d="M427.883 212.509C427.009 94.493 330.718 -0.203894 213.058 0.388507C95.042 1.26241 0.345118 97.554 0.937518 215.213C1.87162 329.998 93.64 514.535 207.285 523.184C205.947 526.264 204.328 528.987 202.427 531.352C200.883 533.436 199.059 535.163 197.835 537.285C196.968 539.126 196.74 541.042 198.505 542.548C199.988 543.696 201.791 544.882 203.669 545.429C207.388 546.843 211.579 547.017 215.488 546.834C219.077 546.613 222.667 546.392 226.257 546.17C228.85 546.155 231.481 545.819 233.831 545.127C235.862 544.397 236.766 542.236 236.393 539.925C236.339 537.651 235.328 535.263 234.278 533.194C232.459 529.415 230.246 526.236 228.032 523.058C340.67 510.207 428.612 326.298 427.883 212.509Z" fill="url(#paint0_radial_307_57)"/>
<path d="M212.421 0.30127C192.876 1.21757 191.918 1.10367 179.681 3.21257C198.777 0.62327 199.774 0.41777 212.421 0.30127ZM212.74 0.33927C205.599 0.46227 205.242 0.743771 196.2 3.23227C202.93 1.11677 203.249 1.15477 212.74 0.33927ZM212.74 0.33927C216.292 0.43747 216.611 0.47547 224.088 2.98377C220.764 0.96897 220.764 0.96897 212.74 0.33927ZM212.74 0.33927C224.072 0.39037 225.35 0.54227 243.876 2.74427C232.772 0.77657 231.776 0.98217 212.74 0.33927ZM117.361 23.3399L120.106 22.0465L122.851 20.7531C121.14 21.5216 119.391 22.6094 117.361 23.3399ZM131.766 30.2351C132.124 29.9536 135.188 28.6982 153.181 21.7666C153.203 18.8538 153.241 18.5343 155.294 14.8911C162.29 10.5396 163.286 10.3341 176.183 5.38827C165.506 8.00647 164.472 8.53147 147.833 14.9762C140.069 17.6166 139.749 17.5786 127.886 21.9994C124.632 24.852 124.274 25.1334 121.393 30.2979C114.489 36.6039 114.093 37.2047 105.623 48.5076C115.273 40.9082 116.664 40.1018 131.766 30.2351ZM212.837 29.5051C213.194 29.2236 213.871 28.9801 214.548 28.7366C218.366 26.5988 223.574 23.6547 227.43 21.1975C220.988 18.1642 220.988 18.1642 213.024 14.3023C210.605 10.1275 210.324 9.77007 208.939 5.07037C206.718 7.39797 205.646 8.24237 199.738 14.3428C194.605 16.6481 191.898 17.6221 183.343 21.4643C186.553 24.4373 187.192 24.5133 194.684 29.6149C196.556 35.6683 196.761 36.6645 201.615 47.6074C206.717 40.1154 206.717 40.1154 212.837 29.5051ZM293.551 29.0565C292.577 26.3492 291.96 23.3605 290.309 20.8967C282.871 18.069 281.593 17.9171 269.759 13.919C259.56 9.79127 258.639 9.35797 243.649 4.66077C250.806 7.13117 251.406 7.52647 260.701 13.8143C261.074 16.1262 261.036 16.4456 259.546 20.8036C267.943 23.7452 267.943 23.7452 280.622 28.8155C289.916 35.1032 290.517 35.4986 305.387 46.6602C302.352 39.4967 301.751 39.1013 293.551 29.0565ZM328.931 33.9095C313.871 24.3451 297.305 16.5453 279.873 10.5861L288.871 13.9231C295.069 16.2795 295.351 16.6369 303.276 20.8183C310.395 23.608 310.676 23.9654 320.442 29.0134L328.931 33.9095ZM34.4737 112.937C36.7319 110.29 46.3815 102.69 52.7765 97.9439C51.4675 92.6049 51.5434 91.9659 52.2111 83.6229C57.5405 74.2144 58.6507 73.0506 69.265 60.059C59.859 68.3352 59.1062 69.2175 46.0661 83.5409C42.7357 87.0319 38.5766 92.0449 35.5276 95.8929C34.7369 97.0949 33.9462 98.2969 33.1555 99.4989C31.1028 103.142 28.8223 108.702 27.3705 112.74C22.528 123.503 22.4141 124.461 17.4132 142.007C23.2519 131.039 24.0806 129.518 34.4737 112.937ZM134.976 112.249C134.976 112.249 136.367 111.442 163.971 97.2309C154.92 91.6199 154.319 91.2239 142.621 83.3549C140.809 74.0696 140.923 73.1113 140.563 59.7871C132.078 68.4966 131.682 69.0975 118.642 83.4209C108.262 88.9889 107.943 88.9509 92.316 97.7839C97.496 103.259 98.059 103.974 108.365 112.649C110.025 123.212 110.512 124.566 115.246 141.973C122.119 130.481 123.662 128.397 134.976 112.249ZM291.573 111.101C291.969 110.501 293.003 109.976 293.68 109.732C299.003 105.83 306.15 100.2 311.192 95.9409C301.426 90.8929 298.665 89.5929 283.377 81.9449C275.983 73.2913 274.295 71.147 263.166 58.4865C261.859 66.7536 261.388 67.9933 257.124 82.0639C249.056 87.2599 247.665 88.0659 232.752 96.3359C242.556 101.064 252.322 106.112 262.088 111.16C270.137 122.483 270.137 122.483 281.616 140.368C286.215 128.929 286.61 128.328 291.573 111.101ZM392.075 110.413C390.324 97.8959 390.324 97.8959 389.631 95.5459C384.451 90.0709 383.569 89.3179 373.506 81.3189C364.872 72.1948 363.708 71.0847 348.747 57.9686C354.901 66.1506 355.426 67.1848 362.813 81.3439C361.886 86.4169 361.81 87.0559 358.192 95.6959C367.243 101.307 367.524 101.664 380.067 110.606C387.872 121.251 388.435 121.966 398.956 139.738C397.729 128.254 397.204 127.22 392.075 110.413ZM0.648315 206.745L1.02802 203.551L1.08821 200.319C0.822515 202.555 0.914115 204.509 0.648315 206.745ZM54.3586 220.903C55.5447 219.101 71.156 207.675 77.194 203.21C68.294 196.321 67.693 195.926 55.698 185.106C52.6308 172.755 52.4633 171.44 50.1174 153.021C43.526 164.871 43.0926 165.791 34.9512 185.231C27.9709 192.176 27.6135 192.458 18.8241 203.722C23.2515 210.08 24.1338 210.832 33.6117 221.029C37.0586 230.185 41.7988 242.086 45.6031 250.961C47.6623 241.811 51.379 229.62 54.3586 220.903ZM214.188 219.816C214.903 219.254 215.937 218.729 216.934 218.523C226.241 213.798 238.37 207.142 247.359 202.379C235.509 195.788 232.147 194.092 213.855 184.468C204.459 168.126 204.459 168.126 195.946 152.537C188.207 165.87 188.207 165.87 177.548 184.687C164.704 191.907 164.704 191.907 145.541 203.235C155.589 208.64 159.833 211.088 177.524 220.318C183.245 229.42 190.578 241.305 195.98 250.37C201.347 240.642 208.615 228.548 214.188 219.816ZM373.699 218.691C379.082 211.557 386.397 207.243 392.625 201.181C385.642 194.52 384.798 193.448 371.768 183.153C366.07 171.138 365.02 169.069 354.818 151.336C352.774 163.079 352.265 164.638 347.112 183.462C338.535 190.217 337.105 191.343 322.247 201.886C332.819 208.326 332.819 208.326 348.366 219.244C352.17 228.118 356.591 239.981 359.719 249.099C364.409 239.615 369.723 227.613 373.699 218.691ZM427.603 212.141C427.6 198.535 426.244 185.417 423.572 172.466L424.989 182.352C425.15 189.174 425.074 189.813 422.825 200.559C425.617 207.046 425.617 207.046 427.239 217.928L427.172 226.667C427.422 221.837 427.672 217.008 427.603 212.141ZM35.0708 336.848C34.8496 333.258 37.3199 326.101 39.8282 318.625C33.1648 312.002 32.8834 311.645 23.5193 300.49C19.791 290.976 14.8833 277.759 11.5123 267.965C12.6093 277.813 14.3229 290.65 16.0587 300.575C16.4475 305.48 17.9621 311.815 19.0277 316.476C19.4767 318.15 19.9637 319.503 20.4127 321.176C22.4366 325.952 25.5483 332.477 27.9295 336.971C32.5782 346.917 39.1211 360.005 44.4465 369.708C41.395 359.951 37.7649 346.886 35.0708 336.848ZM136.212 336.236C137.002 335.034 154.682 322.558 161.077 317.811C148.664 310.505 148.664 310.505 130.805 299.96C125.16 290.219 117.621 277.337 112.296 267.634C109.202 277.308 105.052 290.42 102.278 300.133C94.378 306.644 93.982 307.245 82.638 318.206C91.613 324.456 93.096 325.604 109 336.241C114.965 346.02 123.105 359.297 129.069 369.076C131.204 359.288 133.757 345.986 136.212 336.236ZM293.448 335.164C301.257 326.698 312.048 323.122 321.546 316.8C313.886 310.383 313.285 309.987 298.096 298.788C294.405 288.955 289.14 276.02 285.092 266.468C279.725 276.196 272.343 289.248 266.618 299.258C256.482 305.503 246.064 311.392 235.927 317.638C246.819 324.115 247.42 324.51 263.925 335.542C267.296 345.337 271.565 358.478 274.297 368.197C280.341 358.226 287.761 344.854 293.448 335.164ZM394.627 334.233C398.619 327.904 403.492 322.329 407.484 316.001C407.924 309.574 407.68 308.897 405.739 297.977C406.559 288.356 406.837 275.108 407.018 265.411C403.248 275.329 397.501 288.251 393.092 298.093C386.826 304.475 385.792 305 373.094 316.448C377.521 322.805 377.764 323.482 382.618 334.425C381.122 344.289 378.569 357.591 376.754 367.417C382.478 357.408 389.541 344.318 394.627 334.233ZM76.019 431.121L74.087 428.3L72.155 425.479C73.243 427.228 74.612 429.334 76.019 431.121ZM117.668 443.198C117.5 441.882 119.742 436.642 124.357 427.796C115.663 421.904 115.663 421.904 101.318 411.777C94.639 402.56 86.066 390.204 79.425 380.668C81.236 389.953 83.946 402.585 86.397 411.947C85.356 417.978 85.318 418.297 85.457 428.032C91.953 433.339 92.835 434.092 104.701 443.276C111.57 450.896 121.048 461.092 128.236 468.749C124.919 461.228 120.627 451 117.668 443.198ZM215.896 442.564C215.934 442.244 220.146 439.506 237.826 427.03C230.729 421.327 230.128 420.932 215.426 411.086C211.021 401.816 205.079 389.124 200.354 379.816C196.66 389.095 192.266 401.531 189.173 411.205C181.348 417.078 180.953 417.678 170.079 427.4C179.693 433.726 179.693 433.726 193.232 442.461C197.188 450.058 202.438 460.4 206.394 467.997C208.902 460.521 212.711 450.283 215.896 442.564ZM313.485 441.853C320.032 435.829 327.667 431.553 334.457 426.206C333.505 420.585 333.224 420.228 329.252 410.038C330.673 400.813 331.834 388.317 332.334 378.658C326.046 387.953 317.744 400.572 311.456 409.866C303.669 415.42 300.529 417.314 287.815 426.169C292.318 431.887 292.599 432.244 298.32 441.347C296.732 449.256 293.92 459.288 291.374 467.084C298.035 460.101 307.03 449.832 313.485 441.853ZM340.066 449.872C351.867 435.077 362.937 418.253 372.767 400.957L367.476 410.046C363.56 415.735 363.165 416.336 354.527 426.323C352.247 431.883 351.851 432.484 346.202 441.855L340.066 449.872ZM174.56 515.071C171.16 513.695 169.076 512.152 164.026 508.312C157.865 505.636 157.583 505.279 147.498 500.193C139.725 494.734 129.623 487.055 121.888 481.276C128.308 487.222 137.77 494.826 144.547 500.49C147.833 502.824 152.678 505.668 156.002 507.683C157.204 508.473 158.443 508.945 159.645 509.735C163.646 511.507 168.567 513.711 172.567 515.482C180.683 518.067 191.353 520.955 199.864 522.938C192.349 520.749 181.998 517.899 174.56 515.071ZM197.9 514.93C197.846 512.656 197.846 512.656 200.013 508.055C196.088 505.644 194.849 505.173 185.76 499.882C180.617 494.088 173.429 486.431 168.287 480.636C169.839 486.652 172.837 494.135 175.386 499.944C175.006 503.139 174.968 503.458 176.635 508.515C182.157 511.115 183.077 511.548 191.398 515.129C196.281 517.653 202.723 520.686 207.682 522.571C204.639 520.914 200.791 517.865 197.9 514.93ZM234.527 514.748C239.021 512.367 243.477 510.305 247.971 507.924C247.993 505.011 247.993 505.011 246.046 499.597C247.368 493.923 248.279 486.257 248.643 480.469C244.408 486.121 238.949 493.894 234.676 499.865C229.391 503.448 229.391 503.448 222.319 508.438C224.928 511.016 224.89 511.335 227.347 515.191C226.085 517.632 223.751 520.918 221.607 522.607C225.744 520.507 230.671 517.205 234.527 514.748ZM257.867 514.607C262.924 512.941 264.673 511.853 273.585 507.729C278.118 505.028 278.155 504.709 284.946 499.361C291.417 493.976 299.469 486.186 305.377 480.086C298.192 486.034 288.185 493.915 280.398 499.469C274.512 502.656 273.478 503.181 263.493 508.149C261.235 510.796 260.878 511.078 255.235 514.942C248.429 517.696 238.992 520.786 231.661 522.506C239.669 520.542 250.102 517.247 257.867 514.607ZM216.306 523.596L211.158 523.308L216.306 523.596ZM216.306 523.596L215.667 523.521L216.306 523.596ZM216.306 523.596L220.854 523.489L216.306 523.596Z" fill="#1DB8EE" fill-opacity="0.35"/>
<defs>
<radialGradient id="paint0_radial_307_57" cx="0" cy="0" r="1" gradientUnits="userSpaceOnUse" gradientTransform="translate(269.503 216.18) rotate(-0.396507) scale(297.999 297.999)">
<stop offset="0.005618" stop-color="white" stop-opacity="0.51"/>
<stop offset="0.4494" stop-color="#EDF3F8" stop-opacity="0.6"/>
<stop offset="1" stop-color="#E6EEF5" stop-opacity="0.85"/>
</radialGradient>
</defs>
</svg>
