<svg width="175" height="250" viewBox="0 0 175 250" fill="none" xmlns="http://www.w3.org/2000/svg">
<path d="M92.4272 247.242C86.375 248.726 79.9414 248.621 74.1492 246.778C73.3757 246.592 72.9758 245.903 73.3286 245.253C75.6512 240.727 77.9531 236.054 80.2757 231.528C82.4712 232.253 84.8738 232.35 87.1693 231.715C89.2128 236.499 91.381 241.116 93.4245 245.9C93.6349 246.318 93.1574 247.135 92.4272 247.242Z" fill="url(#paint0_linear_149_140)"/>
<path d="M82.8287 249.993C79.236 249.921 75.6824 249.095 72.3352 247.642C71.3939 247.331 71.0763 246.182 71.4075 245.385C71.7178 244.443 72.8655 244.125 73.6605 244.458C79.5599 247.033 85.9936 247.138 92.1057 245.047C92.9607 244.772 94.07 245.208 94.3444 246.066C94.6187 246.922 94.1844 248.032 93.3294 248.307C89.9294 249.552 86.4223 250.065 82.8287 249.993Z" fill="url(#paint1_linear_149_140)"/>
<path d="M90.5745 197.875C84.2264 198.356 82.0582 204.953 84.9703 207.517C88.4502 210.895 95.075 206.188 94.9951 201.565C94.9663 199.326 93.1019 197.805 90.5745 197.875Z" fill="#D8C286"/>
<path d="M72.7624 176.112C66.4751 175.986 65.7889 182.515 69.1225 185.915C72.9583 189.689 78.7785 187.641 78.9057 182.39C78.8937 179.251 76.0848 176.374 72.7624 176.112Z" fill="#BEA261"/>
<path d="M120.78 147.256C114.665 148.301 112.04 155.861 115.705 158.465C118.531 160.443 123.681 157.895 124.998 152.619C122.033 152.754 120.396 150.75 120.78 147.256Z" fill="#987A47"/>
<path d="M133.286 151.107C127.965 152.484 124.965 160.548 128.063 162.338C131.182 164.273 137.318 157.245 136.237 152.918C136.023 151.455 134.872 150.726 133.286 151.107Z" fill="#D8C286"/>
<path d="M127.23 140.331C124.036 140.948 121.457 143.718 120.78 147.256C120.397 150.751 122.033 152.754 124.999 152.619C130.655 151.492 133.361 143.471 130.01 140.971C129.173 140.346 128.253 140.182 127.23 140.331Z" fill="#D8C286"/>
<path d="M51.1896 182.709C46.6343 182.179 46.443 186.992 49.5913 191.166C53.2637 195.861 58.2788 196.472 58.7019 192.224C59.1679 188.269 55.1604 183.324 51.1896 182.709Z" fill="#D8C286"/>
<path d="M36.0691 137.527C31.3462 136.871 30.5315 142.523 33.555 146.865C36.5573 151.06 41.1731 150.982 41.867 146.545C41.9274 145.939 41.9664 145.185 41.9022 144.746C38.8081 144.003 36.6047 141.186 36.0691 137.527Z" fill="#D8C286"/>
<path d="M40.8114 132.197C37.6141 131.768 35.8253 133.824 36.0686 137.526C36.6042 141.186 38.8076 144.002 41.7555 144.767C46.9168 145.357 48.0629 138.91 44.7684 134.758C43.2994 132.88 41.731 132.361 40.8114 132.197Z" fill="#BEA261"/>
<path d="M52.6027 146.469C47.3168 146.047 46.274 152.18 49.8393 156.144C53.3832 159.961 58.5582 158.605 58.6033 153.814C58.6951 150.362 55.8 146.898 52.6027 146.469Z" fill="#D8C286"/>
<path d="M13.898 106.383C9.84152 105.183 8.99148 112.633 11.6196 117.332C13.6379 120.924 16.7709 120.913 17.7181 117.186C18.7686 113.146 16.764 107.608 13.898 106.383Z" fill="#987A47"/>
<path d="M29.1711 50.6222C24.5515 49.6537 21.1745 57.175 23.7773 60.6813C26.045 63.9378 31.0272 61.2649 31.7816 56.2206C32.1267 53.4789 31.0318 51.0975 29.1711 50.6222Z" fill="#D8C286"/>
<path d="M87.2169 96.4002C80.8257 96.5874 79.0565 103.874 82.9955 107.334C87.2705 111.044 93.7962 107.697 93.2739 102.092C93.0947 98.8284 90.4961 96.3682 87.2169 96.4002Z" fill="#D8C286"/>
<path d="M132.922 51.7352C128.937 53.0659 130.426 60.1742 134.172 62.3171C137.416 64.0851 140.099 61.0012 138.748 56.8631C137.816 53.5606 135.092 51.2681 132.922 51.7352Z" fill="#BEA261"/>
<path d="M155.478 102.856C151.141 104.837 150.612 114.482 153.668 115.979C156.701 117.329 160.096 108.909 158.262 104.542C157.589 102.996 156.604 102.393 155.478 102.856Z" fill="#BEA261"/>
<path d="M87.8899 148.93C81.6666 149.243 79.811 155.943 83.5829 159.278C87.3548 162.614 93.4637 159.477 93.4446 154.247C93.3078 151.277 90.8764 148.942 87.8899 148.93Z" fill="#D8C286"/>
<path d="M124.111 178.166C118.205 179.628 113.662 188.367 116.717 189.864C119.918 191.338 127.512 183.051 126.517 179.309C126.178 178.013 124.841 178.059 124.111 178.166Z" fill="#987A47"/>
<path d="M89.8305 0.0311061C41.8688 -1.32217 1.58865 41.6519 0.0517338 95.4024C-1.94803 165.367 54.5239 232.008 83.3096 232.878C112.095 233.749 172.227 170.376 174.081 100.433C175.596 46.5362 137.938 1.36303 89.8305 0.0311061Z" fill="url(#paint2_linear_149_140)"/>
<path opacity="0.35" d="M89.8305 0.0311061C41.8688 -1.32217 1.58865 41.6519 0.0517338 95.4024C-1.94803 165.367 54.5239 232.008 83.3096 232.878C112.095 233.749 172.227 170.376 174.081 100.433C175.596 46.5362 137.938 1.36303 89.8305 0.0311061Z" fill="url(#paint3_radial_149_140)"/>
<path d="M171.131 93.5384C170.145 126.575 149.5 152.771 124.913 152.033C100.326 151.296 81.0931 123.91 82.0793 90.8726C83.0654 57.8354 103.711 31.6396 128.298 32.377C152.884 33.1145 171.971 60.5225 171.131 93.5384Z" fill="url(#paint4_radial_149_140)"/>
<path d="M47.7589 61.3582C39.3836 78.5814 27.1215 89.646 20.2166 86.3212C13.3117 82.9956 14.4623 66.3808 22.8377 49.1573C31.213 31.9337 43.4751 20.8694 50.38 24.1947C57.2849 27.52 56.1343 44.1347 47.7589 61.3582Z" fill="url(#paint5_radial_149_140)"/>
<path opacity="0.2" d="M131.418 205.653C114.516 221.733 95.0742 228.615 87.8407 221.002C80.7744 213.514 88.7253 194.409 105.626 178.33C122.528 162.25 141.969 155.369 149.204 162.981C156.437 170.595 148.486 189.7 131.418 205.653Z" fill="url(#paint6_radial_149_140)"/>
<path d="M71.2808 79.2957C65.7821 112.096 46.2984 136.029 27.9486 133.033C9.57728 129.891 -0.805757 100.76 4.69285 67.96C10.3376 35.1383 29.6536 11.0807 48.0249 14.2229C66.3963 17.3652 76.7794 46.4955 71.2808 79.2957Z" fill="url(#paint7_radial_149_140)"/>
<path opacity="0.6" d="M52.378 119.44C56.5577 142.9 50.7638 163.483 39.4298 165.591C28.0745 167.552 15.5415 150.248 11.3618 126.789C7.1821 103.329 12.976 82.7457 24.3314 80.7846C35.6654 78.6771 48.2197 96.1265 52.378 119.44Z" fill="url(#paint8_radial_149_140)"/>
<path d="M116.574 70.5737C116.086 85.5965 105.873 97.4073 93.5902 97.1121C81.4539 96.7954 71.8626 84.2944 72.2042 69.2932C72.6928 54.2702 82.9048 42.4593 95.0419 42.7763C107.178 43.0932 116.915 55.5727 116.574 70.5737Z" fill="url(#paint9_radial_149_140)"/>
<path d="M65.2619 55.4923C63.8434 60.0174 58.2324 61.2853 56.2013 57.5627C54.3797 54.2562 57.4377 48.7468 61.9525 49.1282C65.4913 49.9502 65.9817 53.3026 65.2619 55.4923Z" fill="#D8C286"/>
<path d="M169.455 121.531C168.682 126.408 166.721 130.269 165.656 129.084C164.235 127.506 165.699 118.21 168.311 115.744C169.972 114.905 169.799 118.801 169.455 121.531Z" fill="#BEA261"/>
<path d="M16.5023 81.8343C15.2742 81.5671 12.8217 82.075 11.6516 86.266C7.60839 84.0289 9.2212 75.7533 12.9192 74.6168C13.771 74.3433 14.3957 74.5496 14.708 74.6528C16.6462 75.7085 17.5094 78.5598 16.8146 81.9374C16.6477 81.8127 16.5023 81.8343 16.5023 81.8343Z" fill="#BEA261"/>
<path d="M85.0785 184.797C84.2035 189.987 77.2611 191.301 74.1051 186.999C71.4913 183.361 73.574 178.293 79.0855 178.379C83.5788 178.614 85.5464 181.9 85.0785 184.797Z" fill="#BEA261"/>
<path d="M64.9907 202.923C65.4211 206.879 61.5388 208.788 57.325 205.385C55.8021 204.118 53.1074 200.94 53.9903 197.833C57.5193 201.634 61.4733 202.246 63.3962 199.136C63.7725 199.676 64.8589 201.006 64.9907 202.923Z" fill="#BEA261"/>
<path d="M157.588 152.151C155.797 157.177 152.44 160.646 151.371 158.421C150.281 156.049 153.208 148.624 156.653 146.78C159.063 145.98 158.41 149.648 157.588 152.151Z" fill="#D8C286"/>
<path d="M5.07623 119.535C5.55316 124.825 7.96058 129.088 9.47214 127.229C11.1078 125.203 10.1014 117.311 7.32522 114.59C5.17757 113.119 4.83773 116.89 5.07623 119.535Z" fill="#D8C286"/>
<path d="M148.285 54.0613C149.88 57.8476 148.56 61.0183 145.727 59.9441C142.104 58.5391 139.248 51.2152 142.591 49.6838C145.022 49.0303 147.361 51.8143 148.285 54.0613Z" fill="#D8C286"/>
<path d="M86.1271 221.417C85.1233 225.732 78.9728 227.377 76.2534 223.011C75.6672 222.054 75.3512 220.91 75.4928 219.847C78.9328 222.023 83.0246 220.53 84.2371 216.631C84.905 217.129 86.7613 218.644 86.1271 221.417Z" fill="#D8C286"/>
<path d="M129.616 198.675C126.658 202.83 121.949 206.199 121.565 203.575C121.479 202.992 121.81 202.2 121.912 201.887C125.028 200.835 128.59 196.741 129.64 193.759C129.786 193.737 129.786 193.737 129.932 193.716C133.09 192.956 130.713 197.026 130.34 197.527C130.092 197.861 129.865 198.341 129.616 198.675Z" fill="#BEA261"/>
<path d="M95.351 150.392C94.3944 156.04 86.6434 157.918 83.4226 153.18C80.9336 149.375 83.3882 143.805 89.1485 143.557C93.9121 143.605 95.7765 147.203 95.351 150.392Z" fill="#D8C286"/>
<path d="M34.1568 183.167C35.0626 186.311 33.7995 187.835 31.3821 186.551C27.1721 184.19 23.5251 176.535 26.2046 175.548C26.6198 175.338 27.099 175.566 27.5568 175.648C30.6805 176.679 33.2936 180.317 34.1568 183.167Z" fill="#D8C286"/>
<path d="M59.3537 214.169C60.8203 217.081 59.7454 218.876 57.0796 217.926C52.664 216.19 47.9169 209.144 50.3868 207.74C50.802 207.53 51.2599 207.612 51.8419 207.526C54.9441 208.413 58.0754 211.527 59.3537 214.169Z" fill="#987A47"/>
<path d="M154.688 166.868C152.623 171.041 150.118 174.236 149.679 173.258C149.174 171.843 153.076 163.977 155.751 161.948C156.021 161.759 156.706 161.362 156.338 162.905C156.051 163.988 155.369 165.428 154.688 166.868Z" fill="#D8C286"/>
<path d="M101.06 209.703C98.8489 213.897 92.3265 216.043 90.9796 211.922C90.1166 209.071 93.0759 204.916 97.7748 204.527C101.789 204.535 102.486 207.261 101.06 209.703Z" fill="#D8C286"/>
<path d="M63.6284 109.327C62.1344 110.29 60.8111 112.42 61.2164 115.189C55.5277 117.957 50.3479 112.016 52.3058 107.114C52.6144 106.175 54.2676 103.254 58.4699 103.532C61.5082 103.981 63.5957 106.057 64.3133 108.93C64.0436 109.118 63.774 109.307 63.6284 109.327Z" fill="#D8C286"/>
<path d="M74.0511 115.545C73.2393 121.171 65.57 122.592 62.3284 117.707C59.6512 113.632 62.1059 108.062 67.9302 108.252C72.7786 108.882 74.3942 112.814 74.0511 115.545Z" fill="#BEA261"/>
<path d="M57.2657 126.785C56.5999 132.391 50.2826 133.911 46.7926 129.36C45.163 127.365 45.1554 125.281 45.0273 124.407C50.6034 124.931 51.2052 118.888 51.2052 118.888C55.9295 119.685 57.6695 123.451 57.2657 126.785Z" fill="#987A47"/>
<path d="M133.114 188.039C131.915 190.002 130.63 191.381 129.967 191.925C129.419 190.218 127.113 190.704 124.086 193.38C123.159 190.092 127.753 183.912 132.179 182.668C135.484 181.886 134.54 185.598 133.114 188.039Z" fill="#987A47"/>
<path d="M99.8782 199.604C98.169 204.171 91.6849 205.566 89.9229 201.656C88.6025 198.722 91.1458 194.778 95.8447 194.387C99.7134 194.417 100.847 197.079 99.8782 199.604Z" fill="#987A47"/>
<path d="M51.2903 119.471C51.2903 119.471 50.3121 124.974 45.1727 124.387C39.1776 123.031 37.8802 115.181 41.8015 112.523C43.2954 111.56 44.9387 111.617 45.5635 111.823C49.0809 112.5 51.2751 115.305 51.3505 118.867C51.3718 119.013 51.269 119.325 51.2903 119.471Z" fill="#D8C286"/>
<path d="M108.618 121.205C108.618 121.205 109.283 126.765 114.461 126.603C120.406 125.584 122.25 117.87 118.412 115.007C116.911 113.888 115.434 113.955 114.707 114.061C111.215 114.572 108.77 117.163 108.554 120.768C108.699 120.747 108.721 120.892 108.618 121.205Z" fill="#D8C286"/>
<path d="M163.692 52.6996C162.811 50.7441 161.554 48.2483 160.549 46.4599C159.921 45.212 159.566 44.8173 159.378 44.5471C159.21 44.4227 159.19 44.2769 159.19 44.2769C159.086 44.5897 160.386 47.3771 160.805 48.209C162.084 50.8506 164.093 54.4274 164.572 54.655C164.428 54.6763 164.406 54.5305 163.692 52.6996Z" fill="#987A47"/>
<path d="M28.7725 155.52C27.2534 155.296 25.1347 156.052 25.8988 160.258C20.8798 158.461 18.4357 149.887 21.4664 148.252C22.1513 147.854 23.067 148.018 23.5249 148.1C26.1906 149.049 28.5516 151.979 29.2091 155.456C29.0849 155.623 28.9394 155.644 28.7725 155.52Z" fill="#987A47"/>
<path d="M123.842 98.2821C123.613 103.824 116.717 106.471 112.876 102.567C109.557 99.1819 111.323 92.9682 117.164 92.262C121.906 92.1636 123.916 95.7404 123.842 98.2821Z" fill="#BEA261"/>
<path d="M117.036 216.297C114.325 220.119 108.885 222.552 108.415 219.345C108.031 216.722 111.594 212.628 115.647 211.885C118.724 211.584 118.607 213.835 117.036 216.297Z" fill="#BEA261"/>
<path d="M84.401 215.714C83.8979 220.403 77.5635 222.819 73.9283 218.289C71.3785 215.089 72.3783 209.732 78.472 209.733C83.1541 210.239 84.5386 213.61 84.401 215.714Z" fill="#BEA261"/>
<path d="M35.2702 163.353C35.7007 167.31 32.6487 168.798 29.436 166.142C28.2468 165.126 26.6598 163.422 25.9209 160.403C25.2633 156.927 26.5051 155.257 29.2524 155.748C32.9793 156.84 35.0531 160.854 35.2702 163.353Z" fill="#BEA261"/>
<path d="M136.976 135.218C138.389 134.713 140.678 135.122 140.693 139.289C145.197 136.545 145.975 127.647 142.706 126.637C141.936 126.453 141.084 126.726 140.669 126.936C138.22 128.485 136.61 131.698 136.54 135.282C136.685 135.26 136.831 135.239 136.976 135.218Z" fill="#987A47"/>
<path d="M132.038 144.129C132.323 148.107 135.716 148.95 138.367 145.733C139.382 144.543 140.56 142.435 140.715 139.435C140.66 136.018 139.095 134.461 136.561 135.427C133.115 137.271 131.821 141.63 132.038 144.129Z" fill="#D8C286"/>
<path d="M128.505 196.158C125.465 200.771 120.525 203.579 119.871 201.143C119.196 198.562 123.645 192.403 128.071 191.159C131.23 190.4 129.953 193.862 128.505 196.158Z" fill="#D8C286"/>
<path d="M19.4644 89.8868C18.17 94.245 14.1597 95.2784 12.3167 91.8264C11.5001 90.3083 11.2227 88.4128 11.6303 86.1205C12.4706 82.7222 14.4613 81.0905 16.7934 81.792C19.8354 83.282 20.1417 87.4058 19.4644 89.8868Z" fill="#D8C286"/>
<path d="M158.903 102.233C160.234 102.187 162.754 103.158 163.124 107.719C167.653 106.163 167.537 97.2476 163.973 95.2377C163.159 94.7618 162.432 94.8682 161.996 94.9322C159.731 95.7096 158.369 98.5889 158.444 102.151C158.612 102.275 158.757 102.254 158.903 102.233Z" fill="#BEA261"/>
<path d="M154.251 110.06C154.665 114.913 158.789 116.691 161.418 113.328C162.536 111.825 163.153 109.948 163.103 107.574C162.86 103.886 161.064 101.768 158.444 102.151C155.017 103.099 154.013 107.415 154.251 110.06Z" fill="#D8C286"/>
<path d="M63.7602 196.551C64.212 200.654 60.2267 202.875 55.8888 199.639C51.2171 196.155 50.6549 190.282 54.8321 189.372C55.4141 189.288 56.0175 189.348 56.6209 189.408C60.7417 190.145 63.4791 193.615 63.7602 196.551Z" fill="#D8C286"/>
<defs>
<linearGradient id="paint0_linear_149_140" x1="77.518" y1="232.579" x2="85.2281" y2="250.401" gradientUnits="userSpaceOnUse">
<stop stop-color="#CDB67B"/>
<stop offset="1" stop-color="#E6D6A5"/>
</linearGradient>
<linearGradient id="paint1_linear_149_140" x1="80.6093" y1="240.887" x2="85.3185" y2="251.773" gradientUnits="userSpaceOnUse">
<stop stop-color="#F0E6C9"/>
<stop offset="1" stop-color="#E6D6A5"/>
</linearGradient>
<linearGradient id="paint2_linear_149_140" x1="47.6263" y1="10.3054" x2="135.331" y2="213.041" gradientUnits="userSpaceOnUse">
<stop offset="0.2101" stop-color="#F0E6C9" stop-opacity="0.45"/>
<stop offset="0.578" stop-color="#E6D6A5" stop-opacity="0.5"/>
<stop offset="0.8622" stop-color="#CDB67B" stop-opacity="0.5"/>
<stop offset="1" stop-color="#BEA261" stop-opacity="0.6"/>
</linearGradient>
<radialGradient id="paint3_radial_149_140" cx="0" cy="0" r="1" gradientUnits="userSpaceOnUse" gradientTransform="translate(86.3129 107.041) rotate(2.11297) scale(114.357 145.271)">
<stop offset="0.3244" stop-color="white" stop-opacity="0"/>
<stop offset="0.6632" stop-color="#D8C286"/>
<stop offset="0.7122" stop-color="#DBC68E" stop-opacity="0.8544"/>
<stop offset="0.7898" stop-color="#E2D2A5" stop-opacity="0.624"/>
<stop offset="0.8863" stop-color="#EEE4CA" stop-opacity="0.3376"/>
<stop offset="0.9969" stop-color="#FEFEFD" stop-opacity="0.01"/>
<stop offset="1" stop-color="white" stop-opacity="0"/>
</radialGradient>
<radialGradient id="paint4_radial_149_140" cx="0" cy="0" r="1" gradientUnits="userSpaceOnUse" gradientTransform="translate(126.552 92.2899) rotate(1.6469) scale(44.5748 59.8577)">
<stop stop-color="white"/>
<stop offset="0.304" stop-color="#FFFBED" stop-opacity="0.696"/>
<stop offset="0.7034" stop-color="#FFF7DC" stop-opacity="0.2966"/>
<stop offset="1" stop-color="#FFF6D6" stop-opacity="0"/>
</radialGradient>
<radialGradient id="paint5_radial_149_140" cx="0" cy="0" r="1" gradientUnits="userSpaceOnUse" gradientTransform="translate(35.2941 55.2944) rotate(25.9809) scale(13.8665 34.5399)">
<stop stop-color="#FFF9DE"/>
<stop offset="0.2649" stop-color="#FFF8DB" stop-opacity="0.7351"/>
<stop offset="1" stop-color="#FFF6D6" stop-opacity="0"/>
</radialGradient>
<radialGradient id="paint6_radial_149_140" cx="0" cy="0" r="1" gradientUnits="userSpaceOnUse" gradientTransform="translate(118.629 192.044) rotate(46.6724) scale(18.7502 42.2093)">
<stop stop-color="white"/>
<stop offset="0.0944777" stop-color="#FFFEFB" stop-opacity="0.9055"/>
<stop offset="0.6404" stop-color="#FFFAE6" stop-opacity="0.3596"/>
<stop offset="1" stop-color="#FFF9DE" stop-opacity="0"/>
</radialGradient>
<radialGradient id="paint7_radial_149_140" cx="0" cy="0" r="1" gradientUnits="userSpaceOnUse" gradientTransform="translate(37.9989 73.605) rotate(9.66812) scale(33.7564 60.181)">
<stop stop-color="white"/>
<stop offset="0.0944777" stop-color="#FFFEFB" stop-opacity="0.9055"/>
<stop offset="0.6404" stop-color="#FFFAE6" stop-opacity="0.3596"/>
<stop offset="1" stop-color="#FFF9DE" stop-opacity="0"/>
</radialGradient>
<radialGradient id="paint8_radial_149_140" cx="0" cy="0" r="1" gradientUnits="userSpaceOnUse" gradientTransform="translate(31.8528 123.151) rotate(-10.1017) scale(20.7841 43.1016)">
<stop stop-color="white"/>
<stop offset="0.0944777" stop-color="#FFFEFB" stop-opacity="0.9055"/>
<stop offset="0.6404" stop-color="#FFFAE6" stop-opacity="0.3596"/>
<stop offset="1" stop-color="#FFF9DE" stop-opacity="0"/>
</radialGradient>
<radialGradient id="paint9_radial_149_140" cx="0" cy="0" r="1" gradientUnits="userSpaceOnUse" gradientTransform="translate(94.4268 69.981) rotate(1.6469) scale(22.086 27.1561)">
<stop stop-color="white"/>
<stop offset="0.0126123" stop-color="#FFFFFE" stop-opacity="0.9874"/>
<stop offset="0.363" stop-color="#FFFAE8" stop-opacity="0.637"/>
<stop offset="0.6983" stop-color="#FFF7DB" stop-opacity="0.3017"/>
<stop offset="1" stop-color="#FFF6D6" stop-opacity="0"/>
</radialGradient>
</defs>
</svg>
