<svg width="175" height="250" viewBox="0 0 175 250" fill="none" xmlns="http://www.w3.org/2000/svg">
<path d="M92.4277 247.243C86.3755 248.726 79.9419 248.622 74.1497 246.778C73.3762 246.592 72.9763 245.903 73.3291 245.254C75.6517 240.727 77.9535 236.054 80.2762 231.528C82.4717 232.254 84.8743 232.35 87.1697 231.715C89.2133 236.5 91.3815 241.116 93.425 245.901C93.6354 246.318 93.1579 247.136 92.4277 247.243Z" fill="url(#paint0_linear_151_264)"/>
<path d="M82.8292 249.993C79.2365 249.921 75.6829 249.095 72.3357 247.642C71.3944 247.331 71.0768 246.182 71.408 245.385C71.7183 244.443 72.866 244.125 73.661 244.458C79.5604 247.033 85.9941 247.138 92.1062 245.047C92.9612 244.772 94.0705 245.208 94.3449 246.066C94.6192 246.922 94.1849 248.032 93.3299 248.307C89.9299 249.552 86.4228 250.065 82.8292 249.993Z" fill="url(#paint1_linear_151_264)"/>
<path d="M90.575 197.875C84.2269 198.356 82.0587 204.953 84.9708 207.517C88.4507 210.895 95.0755 206.188 94.9956 201.565C94.9668 199.326 93.1024 197.805 90.575 197.875Z" fill="#BCEBFF"/>
<path d="M72.7629 176.113C66.4756 175.986 65.7893 182.516 69.1229 185.915C72.9588 189.689 78.779 187.642 78.9062 182.39C78.8942 179.252 76.0853 176.374 72.7629 176.113Z" fill="#87DCFF"/>
<path d="M120.78 147.256C114.665 148.301 112.04 155.861 115.705 158.465C118.531 160.444 123.681 157.895 124.999 152.619C122.033 152.754 120.396 150.751 120.78 147.256Z" fill="#68ACC9"/>
<path d="M133.285 151.107C127.964 152.484 124.965 160.548 128.062 162.338C131.182 164.273 137.318 157.245 136.237 152.918C136.023 151.455 134.871 150.726 133.285 151.107Z" fill="#BCEBFF"/>
<path d="M127.23 140.331C124.036 140.948 121.457 143.718 120.78 147.256C120.397 150.751 122.033 152.754 124.999 152.619C130.655 151.492 133.361 143.471 130.01 140.971C129.173 140.346 128.253 140.182 127.23 140.331Z" fill="#BCEBFF"/>
<path d="M51.1896 182.709C46.6343 182.179 46.443 186.992 49.5913 191.166C53.2637 195.861 58.2788 196.472 58.7019 192.224C59.1679 188.269 55.1604 183.324 51.1896 182.709Z" fill="#BCEBFF"/>
<path d="M36.0691 137.527C31.3462 136.871 30.5314 142.523 33.555 146.865C36.5573 151.06 41.1731 150.982 41.867 146.545C41.9274 145.939 41.9664 145.185 41.9022 144.746C38.8081 144.003 36.6047 141.186 36.0691 137.527Z" fill="#BCEBFF"/>
<path d="M40.8116 132.198C37.6143 131.768 35.8256 133.824 36.0689 137.526C36.6044 141.186 38.8079 144.003 41.7557 144.767C46.9171 145.358 48.0631 138.91 44.7686 134.758C43.2997 132.88 41.7313 132.362 40.8116 132.198Z" fill="#87DCFF"/>
<path d="M52.6029 146.469C47.317 146.047 46.2742 152.18 49.8395 156.144C53.3834 159.961 58.5584 158.605 58.6036 153.814C58.6953 150.362 55.8003 146.898 52.6029 146.469Z" fill="#BCEBFF"/>
<path d="M13.8985 106.383C9.842 105.183 8.99197 112.634 11.6201 117.332C13.6384 120.924 16.7714 120.914 17.7186 117.187C18.7691 113.146 16.7645 107.608 13.8985 106.383Z" fill="#68ACC9"/>
<path d="M29.1716 50.6227C24.552 49.6541 21.175 57.1755 23.7778 60.6818C26.0455 63.9382 31.0277 61.2654 31.7821 56.2211C32.1271 53.4794 31.0323 51.098 29.1716 50.6227Z" fill="#BCEBFF"/>
<path d="M87.2172 96.4005C80.8259 96.5876 79.0567 103.874 82.9958 107.334C87.2708 111.044 93.7964 107.697 93.2741 102.092C93.095 98.8287 90.4964 96.3685 87.2172 96.4005Z" fill="#BCEBFF"/>
<path d="M132.922 51.7352C128.937 53.0659 130.426 60.1742 134.172 62.3171C137.416 64.0851 140.099 61.0012 138.748 56.8631C137.816 53.5606 135.093 51.2681 132.922 51.7352Z" fill="#87DCFF"/>
<path d="M155.479 102.857C151.141 104.837 150.613 114.483 153.668 115.979C156.701 117.329 160.096 108.909 158.263 104.542C157.589 102.996 156.605 102.393 155.479 102.857Z" fill="#87DCFF"/>
<path d="M87.8901 148.93C81.6668 149.243 79.8113 155.943 83.5832 159.278C87.3551 162.614 93.464 159.477 93.4448 154.247C93.308 151.277 90.8766 148.942 87.8901 148.93Z" fill="#BCEBFF"/>
<path d="M124.111 178.166C118.205 179.628 113.662 188.367 116.717 189.864C119.918 191.338 127.512 183.051 126.517 179.309C126.178 178.013 124.841 178.059 124.111 178.166Z" fill="#68ACC9"/>
<path d="M89.8305 0.0311061C41.8688 -1.32217 1.58865 41.6519 0.0517338 95.4024C-1.94803 165.367 54.5239 232.008 83.3096 232.878C112.095 233.749 172.227 170.376 174.081 100.433C175.596 46.5362 137.938 1.36303 89.8305 0.0311061Z" fill="url(#paint2_linear_151_264)"/>
<path opacity="0.35" d="M89.8305 0.0562526C41.8688 -1.29702 1.58865 41.6771 0.0517338 95.4275C-1.94803 165.392 54.5239 232.033 83.3096 232.903C112.095 233.774 172.227 170.402 174.081 100.458C175.596 46.5614 137.938 1.38817 89.8305 0.0562526Z" fill="url(#paint3_radial_151_264)"/>
<path d="M171.131 93.5386C170.145 126.576 149.5 152.771 124.914 152.033C100.327 151.296 81.0936 123.91 82.0797 90.8729C83.0659 57.8356 103.711 31.6398 128.298 32.3773C152.884 33.1148 171.971 60.5228 171.131 93.5386Z" fill="url(#paint4_radial_151_264)"/>
<path d="M47.7589 61.3582C39.3836 78.5814 27.1215 89.646 20.2166 86.3212C13.3117 82.9956 14.4623 66.3808 22.8377 49.1573C31.213 31.9337 43.4751 20.8694 50.38 24.1947C57.2849 27.52 56.1343 44.1347 47.7589 61.3582Z" fill="url(#paint5_radial_151_264)"/>
<path opacity="0.2" d="M131.418 205.654C114.516 221.733 95.0742 228.615 87.8407 221.002C80.7744 213.514 88.7253 194.409 105.626 178.33C122.528 162.25 141.969 155.369 149.204 162.981C156.437 170.595 148.486 189.7 131.418 205.654Z" fill="url(#paint6_radial_151_264)"/>
<path d="M71.2808 86.1687C65.7821 118.969 46.2984 142.902 27.9486 139.906C9.57728 136.764 -0.805757 107.633 4.69285 74.8331C10.3376 42.0114 29.6536 17.9537 48.0249 21.096C66.3963 24.2382 76.7794 53.3686 71.2808 86.1687Z" fill="url(#paint7_radial_151_264)"/>
<path opacity="0.6" d="M52.378 119.441C56.5577 142.901 50.7638 163.484 39.4298 165.591C28.0745 167.552 15.5415 150.248 11.3618 126.789C7.1821 103.329 12.976 82.7462 24.3314 80.7851C35.6654 78.6776 48.2197 96.127 52.378 119.441Z" fill="url(#paint8_radial_151_264)"/>
<path d="M116.574 70.5739C116.086 85.5967 105.873 97.4075 93.5902 97.1124C81.4539 96.7957 71.8626 84.2947 72.2042 69.2934C72.6928 54.2705 82.9048 42.4595 95.0419 42.7765C107.178 43.0935 116.915 55.573 116.574 70.5739Z" fill="url(#paint9_radial_151_264)"/>
<path d="M65.2619 55.4925C63.8434 60.0177 58.2324 61.2855 56.2013 57.563C54.3797 54.2565 57.4377 48.7471 61.9525 49.1284C65.4913 49.9505 65.9817 53.3029 65.2619 55.4925Z" fill="#BCEBFF"/>
<path d="M169.456 121.532C168.683 126.409 166.722 130.269 165.657 129.085C164.236 127.506 165.7 118.211 168.312 115.744C169.972 114.905 169.8 118.802 169.456 121.532Z" fill="#87DCFF"/>
<path d="M16.5027 81.8345C15.2746 81.5674 12.8222 82.0753 11.6521 86.2662C7.60888 84.0292 9.22169 75.7536 12.9197 74.617C13.7715 74.3435 14.3962 74.5498 14.7085 74.653C16.6467 75.7088 17.5099 78.5601 16.8151 81.9377C16.6482 81.8129 16.5027 81.8345 16.5027 81.8345Z" fill="#87DCFF"/>
<path d="M124.067 20.0408C123.192 25.2308 116.25 26.5449 113.094 22.2427C110.48 18.6052 112.563 13.5368 118.074 13.6232C122.567 13.8583 124.535 17.1439 124.067 20.0408Z" fill="#87DCFF"/>
<path d="M64.991 202.923C65.4214 206.88 61.539 208.788 57.3252 205.385C55.8023 204.119 53.1076 200.94 53.9906 197.833C57.5195 201.634 61.4735 202.246 63.3964 199.137C63.7727 199.677 64.8592 201.007 64.991 202.923Z" fill="#87DCFF"/>
<path d="M157.588 152.151C155.797 157.177 152.44 160.646 151.371 158.421C150.281 156.05 153.208 148.624 156.653 146.78C159.063 145.98 158.41 149.649 157.588 152.151Z" fill="#BCEBFF"/>
<path d="M5.07623 119.535C5.55316 124.825 7.96058 129.088 9.47214 127.229C11.1078 125.203 10.1014 117.311 7.32522 114.59C5.17757 113.119 4.83773 116.89 5.07623 119.535Z" fill="#BCEBFF"/>
<path d="M148.285 54.0613C149.88 57.8476 148.56 61.0183 145.727 59.9441C142.104 58.5391 139.248 51.2152 142.591 49.6838C145.022 49.0303 147.361 51.8143 148.285 54.0613Z" fill="#BCEBFF"/>
<path d="M86.1273 221.417C85.1236 225.733 78.973 227.377 76.2537 223.011C75.6674 222.055 75.3515 220.91 75.4931 219.847C78.933 222.023 83.0249 220.531 84.2374 216.632C84.9052 217.129 86.7616 218.644 86.1273 221.417Z" fill="#BCEBFF"/>
<path d="M129.617 198.675C126.658 202.83 121.949 206.199 121.565 203.576C121.48 202.993 121.81 202.2 121.912 201.887C125.028 200.836 128.591 196.741 129.641 193.759C129.787 193.737 129.787 193.737 129.932 193.716C133.091 192.956 130.713 197.026 130.341 197.528C130.093 197.861 129.866 198.341 129.617 198.675Z" fill="#87DCFF"/>
<path d="M95.3512 150.392C94.3946 156.04 86.6437 157.918 83.4229 153.18C80.9339 149.375 83.3885 143.805 89.1487 143.557C93.9124 143.605 95.7767 147.203 95.3512 150.392Z" fill="#BCEBFF"/>
<path d="M16.7419 66.4846C14.3242 68.6881 12.3981 68.2301 12.4793 65.4943C12.7332 60.6741 17.9834 54.0157 20.055 55.9812C20.4267 56.2607 20.4344 56.7914 20.5639 57.238C21.0212 60.4957 18.9159 64.4489 16.7419 66.4846Z" fill="#BCEBFF"/>
<path d="M59.354 214.169C60.8206 217.081 59.7456 218.876 57.0799 217.927C52.6642 216.19 47.9171 209.144 50.387 207.74C50.8023 207.53 51.2601 207.612 51.8422 207.527C54.9444 208.413 58.0756 211.527 59.354 214.169Z" fill="#68ACC9"/>
<path d="M154.687 166.868C152.623 171.041 150.118 174.236 149.678 173.258C149.174 171.843 153.076 163.977 155.751 161.948C156.021 161.759 156.706 161.362 156.337 162.905C156.05 163.988 155.369 165.428 154.687 166.868Z" fill="#BCEBFF"/>
<path d="M101.06 209.703C98.8492 213.897 92.3267 216.043 90.9798 211.923C90.1169 209.071 93.0761 204.916 97.775 204.527C101.789 204.535 102.486 207.261 101.06 209.703Z" fill="#BCEBFF"/>
<path d="M63.6286 109.328C62.1347 110.291 60.8113 112.42 61.2167 115.189C55.5279 117.958 50.3481 112.016 52.3061 107.114C52.6146 106.176 54.2678 103.254 58.4702 103.532C61.5084 103.981 63.5959 106.057 64.3136 108.93C64.0439 109.118 63.7742 109.307 63.6286 109.328Z" fill="#BCEBFF"/>
<path d="M137.574 86.5037C136.762 92.1304 129.093 93.5508 125.852 88.6656C123.174 84.5914 125.629 79.0207 131.453 79.211C136.302 79.8413 137.917 83.7732 137.574 86.5037Z" fill="#87DCFF"/>
<path d="M57.2662 126.785C56.6003 132.391 50.2831 133.911 46.7931 129.36C45.1635 127.365 45.1559 125.282 45.0278 124.407C50.6039 124.931 51.2057 118.888 51.2057 118.888C55.9299 119.685 57.67 123.451 57.2662 126.785Z" fill="#68ACC9"/>
<path d="M133.114 188.039C131.915 190.002 130.63 191.381 129.967 191.925C129.419 190.218 127.113 190.704 124.086 193.381C123.159 190.092 127.753 183.912 132.179 182.668C135.484 181.886 134.54 185.598 133.114 188.039Z" fill="#68ACC9"/>
<path d="M99.8784 199.604C98.1692 204.172 91.6852 205.566 89.9232 201.656C88.6027 198.722 91.1461 194.778 95.845 194.387C99.7136 194.417 100.847 197.08 99.8784 199.604Z" fill="#68ACC9"/>
<path d="M36.521 108.573C36.521 108.573 35.5428 114.077 30.4034 113.489C24.4083 112.133 23.1109 104.283 27.0322 101.625C28.5262 100.662 30.1695 100.719 30.7942 100.925C34.3117 101.602 36.5058 104.407 36.5812 107.969C36.6025 108.115 36.4997 108.428 36.521 108.573Z" fill="#BCEBFF"/>
<path d="M108.618 121.205C108.618 121.205 109.284 126.765 114.462 126.603C120.407 125.584 122.25 117.87 118.413 115.007C116.911 113.888 115.435 113.955 114.707 114.061C111.215 114.572 108.77 117.163 108.554 120.768C108.7 120.747 108.721 120.892 108.618 121.205Z" fill="#BCEBFF"/>
<path d="M163.692 52.6996C162.811 50.7441 161.554 48.2483 160.55 46.4599C159.921 45.212 159.566 44.8173 159.378 44.5471C159.211 44.4227 159.19 44.2769 159.19 44.2769C159.087 44.5897 160.386 47.3771 160.806 48.209C162.084 50.8506 164.094 54.4274 164.573 54.655C164.428 54.6763 164.406 54.5305 163.692 52.6996Z" fill="#68ACC9"/>
<path d="M28.773 155.52C27.2539 155.296 25.1352 156.053 25.8993 160.258C20.8803 158.462 18.4362 149.887 21.4669 148.252C22.1517 147.854 23.0675 148.018 23.5254 148.1C26.1911 149.05 28.5521 151.979 29.2096 155.456C29.0854 155.623 28.9399 155.645 28.773 155.52Z" fill="#68ACC9"/>
<path d="M122.202 42.8385C121.972 48.3804 115.077 51.0278 111.236 47.1231C107.916 43.7383 109.682 37.5246 115.524 36.8184C120.265 36.72 122.275 40.2968 122.202 42.8385Z" fill="#87DCFF"/>
<path d="M117.036 216.298C114.326 220.119 108.886 222.553 108.416 219.346C108.032 216.722 111.595 212.628 115.648 211.886C118.725 211.584 118.608 213.835 117.036 216.298Z" fill="#87DCFF"/>
<path d="M84.4008 215.714C83.8977 220.403 77.5632 222.819 73.9281 218.289C71.3783 215.089 72.3781 209.732 78.4718 209.733C83.1539 210.24 84.5383 213.61 84.4008 215.714Z" fill="#87DCFF"/>
<path d="M35.2697 163.353C35.7002 167.31 32.6482 168.799 29.4355 166.142C28.2463 165.126 26.6593 163.422 25.9204 160.404C25.2629 156.927 26.5046 155.257 29.2519 155.748C32.9789 156.84 35.0526 160.854 35.2697 163.353Z" fill="#87DCFF"/>
<path d="M136.976 135.218C138.389 134.713 140.678 135.122 140.693 139.289C145.197 136.545 145.975 127.647 142.706 126.637C141.936 126.453 141.084 126.726 140.669 126.936C138.22 128.485 136.61 131.698 136.54 135.282C136.685 135.26 136.831 135.239 136.976 135.218Z" fill="#68ACC9"/>
<path d="M132.038 144.129C132.323 148.107 135.716 148.95 138.367 145.733C139.382 144.543 140.56 142.435 140.715 139.435C140.66 136.018 139.095 134.461 136.561 135.427C133.115 137.271 131.821 141.63 132.038 144.129Z" fill="#BCEBFF"/>
<path d="M164.458 75.163C166.424 80.3264 165.814 85.9752 163.456 85.0823C160.967 84.1212 158.571 76.9107 160.148 72.5932C161.379 69.5858 163.441 72.6462 164.458 75.163Z" fill="#BCEBFF"/>
<path d="M19.4644 89.8868C18.17 94.245 14.1597 95.2784 12.3167 91.8264C11.5001 90.3083 11.2227 88.4128 11.6303 86.1205C12.4706 82.7222 14.4613 81.0905 16.7934 81.792C19.8354 83.282 20.1417 87.4058 19.4644 89.8868Z" fill="#BCEBFF"/>
<path d="M158.902 102.233C160.233 102.187 162.753 103.158 163.124 107.719C167.652 106.163 167.536 97.2476 163.972 95.2377C163.159 94.7618 162.432 94.8682 161.995 94.9322C159.731 95.7096 158.369 98.5889 158.444 102.151C158.611 102.275 158.757 102.254 158.902 102.233Z" fill="#87DCFF"/>
<path d="M154.397 126.35C154.81 131.203 158.935 132.981 161.564 129.618C162.681 128.115 163.298 126.238 163.248 123.864C163.006 120.177 161.209 118.058 158.59 118.441C155.162 119.39 154.158 123.705 154.397 126.35Z" fill="#BCEBFF"/>
<path d="M63.7605 196.552C64.2123 200.655 60.227 202.876 55.8891 199.64C51.2174 196.155 50.6551 190.282 54.8324 189.373C55.4144 189.288 56.0177 189.348 56.6211 189.409C60.742 190.145 63.4793 193.616 63.7605 196.552Z" fill="#BCEBFF"/>
<defs>
<linearGradient id="paint0_linear_151_264" x1="77.5184" y1="232.579" x2="85.2286" y2="250.401" gradientUnits="userSpaceOnUse">
<stop stop-color="#7DD8FF"/>
<stop offset="1" stop-color="#8AE3FF"/>
</linearGradient>
<linearGradient id="paint1_linear_151_264" x1="80.6097" y1="240.887" x2="85.319" y2="251.773" gradientUnits="userSpaceOnUse">
<stop stop-color="#94D8FF"/>
<stop offset="1" stop-color="#44C7FF"/>
</linearGradient>
<linearGradient id="paint2_linear_151_264" x1="47.6263" y1="10.3054" x2="135.331" y2="213.041" gradientUnits="userSpaceOnUse">
<stop offset="0.2101" stop-color="#A4DEFF" stop-opacity="0.45"/>
<stop offset="0.578" stop-color="#83DAFF" stop-opacity="0.5"/>
<stop offset="0.8622" stop-color="#55D6FF" stop-opacity="0.5"/>
<stop offset="1" stop-color="#45C7FF" stop-opacity="0.6"/>
</linearGradient>
<radialGradient id="paint3_radial_151_264" cx="0" cy="0" r="1" gradientUnits="userSpaceOnUse" gradientTransform="translate(86.3129 107.066) rotate(2.11297) scale(114.357 145.271)">
<stop offset="0.3244" stop-color="white" stop-opacity="0"/>
<stop offset="0.6632" stop-color="#86C4D8"/>
<stop offset="0.7122" stop-color="#8EC4DB" stop-opacity="0.8544"/>
<stop offset="0.7898" stop-color="#A5D3E2" stop-opacity="0.624"/>
<stop offset="0.8863" stop-color="#CAE3EE" stop-opacity="0.3376"/>
<stop offset="0.9969" stop-color="#FEFEFD" stop-opacity="0.01"/>
<stop offset="1" stop-color="white" stop-opacity="0"/>
</radialGradient>
<radialGradient id="paint4_radial_151_264" cx="0" cy="0" r="1" gradientUnits="userSpaceOnUse" gradientTransform="translate(126.552 92.2901) rotate(1.6469) scale(44.5749 59.8577)">
<stop stop-color="white"/>
<stop offset="0.304" stop-color="#EDFAFF" stop-opacity="0.696"/>
<stop offset="0.7034" stop-color="#DCF5FF" stop-opacity="0.2966"/>
<stop offset="1" stop-color="#D6F3FF" stop-opacity="0"/>
</radialGradient>
<radialGradient id="paint5_radial_151_264" cx="0" cy="0" r="1" gradientUnits="userSpaceOnUse" gradientTransform="translate(35.2941 55.2944) rotate(25.9809) scale(13.8665 34.5399)">
<stop stop-color="#BCEFFF"/>
<stop offset="0.2649" stop-color="#AEE2FF" stop-opacity="0.7351"/>
<stop offset="1" stop-color="#82D2FF" stop-opacity="0"/>
</radialGradient>
<radialGradient id="paint6_radial_151_264" cx="0" cy="0" r="1" gradientUnits="userSpaceOnUse" gradientTransform="translate(118.629 192.044) rotate(46.6724) scale(18.7502 42.2093)">
<stop stop-color="white"/>
<stop offset="0.0944777" stop-color="#FFFEFB" stop-opacity="0.9055"/>
<stop offset="0.6404" stop-color="#FFFAE6" stop-opacity="0.3596"/>
<stop offset="1" stop-color="#FFF9DE" stop-opacity="0"/>
</radialGradient>
<radialGradient id="paint7_radial_151_264" cx="0" cy="0" r="1" gradientUnits="userSpaceOnUse" gradientTransform="translate(37.9989 80.4781) rotate(9.66812) scale(33.7564 60.181)">
<stop stop-color="white"/>
<stop offset="0.0944777" stop-color="#FBFEFF" stop-opacity="0.9055"/>
<stop offset="0.6404" stop-color="#E6F9FF" stop-opacity="0.3596"/>
<stop offset="1" stop-color="#DEF3FF" stop-opacity="0"/>
</radialGradient>
<radialGradient id="paint8_radial_151_264" cx="0" cy="0" r="1" gradientUnits="userSpaceOnUse" gradientTransform="translate(31.8528 123.152) rotate(-10.1017) scale(20.7841 43.1016)">
<stop stop-color="white"/>
<stop offset="0.0944777" stop-color="#FBFDFF" stop-opacity="0.9055"/>
<stop offset="0.6404" stop-color="#E6F8FF" stop-opacity="0.3596"/>
<stop offset="1" stop-color="#DEF5FF" stop-opacity="0"/>
</radialGradient>
<radialGradient id="paint9_radial_151_264" cx="0" cy="0" r="1" gradientUnits="userSpaceOnUse" gradientTransform="translate(94.4268 69.9813) rotate(1.6469) scale(22.086 27.1561)">
<stop stop-color="white"/>
<stop offset="0.0126123" stop-color="#FEFFFF" stop-opacity="0.9874"/>
<stop offset="0.363" stop-color="#E8F9FF" stop-opacity="0.637"/>
<stop offset="0.6983" stop-color="#DBF4FF" stop-opacity="0.3017"/>
<stop offset="1" stop-color="#D6F0FF" stop-opacity="0"/>
</radialGradient>
</defs>
</svg>
