<svg width="400" height="102" viewBox="0 0 400 102" fill="none" xmlns="http://www.w3.org/2000/svg">
<path fill-rule="evenodd" clip-rule="evenodd" d="M24.913 14.2856L0 0V102L88 50.7384L76.9732 44.3671L11.0938 82.7426V61.9451L58.9781 33.9692L24.913 14.2856ZM37.039 33.9827L11.0938 49.141V19.1053L37.039 33.9827Z" fill="#0995C6"/>
<path d="M183.427 75.3434V86.9793H125V15.0717H181.342V26.7076H140.001V44.7738H178.241V56.4097H140.001V75.3434H183.427Z" fill="#0995C6"/>
<path d="M209.463 59.6759V86.9793H194.462V15.0717H230.261C238.804 15.0717 245.397 16.926 250.042 20.6345C254.686 24.309 257.008 29.5995 257.008 36.5062C257.008 41.5416 255.584 45.8966 252.737 49.571C249.889 53.2115 246.041 55.6101 241.194 56.7669L260.568 86.9793H243.685L227.057 59.6759H209.463ZM241.906 37.1186C241.906 33.6823 240.804 31.0966 238.6 29.3614C236.397 27.6262 233.091 26.7586 228.684 26.7586H209.463V47.989H229.091C233.295 47.989 236.481 47.0363 238.651 45.131C240.821 43.2257 241.906 40.5549 241.906 37.1186Z" fill="#0995C6"/>
<path d="M328.148 66.2593C328.148 73.3021 325.538 78.6947 320.317 82.4372C315.13 86.1457 307.503 88 297.434 88C279.298 88 268.738 81.4166 265.754 68.2497L280.247 65.851C281.23 69.6616 283.145 72.4345 285.993 74.1697C288.841 75.8708 292.79 76.7214 297.841 76.7214C303.096 76.7214 307.028 75.9218 309.639 74.3228C312.249 72.7237 313.554 70.3251 313.554 67.1269C313.554 65.0855 312.961 63.4014 311.774 62.0745C310.588 60.7476 308.893 59.6418 306.689 58.7572C305.604 58.3149 304.011 57.8386 301.909 57.3283C299.807 56.7839 297.197 56.1885 294.078 55.5421C290.485 54.6915 287.671 53.977 285.637 53.3986C283.603 52.7862 281.976 52.2078 280.755 51.6634C279.535 51.0851 278.348 50.4556 277.196 49.7752C274.653 48.2441 272.67 46.2028 271.246 43.651C269.822 41.0993 269.111 37.9182 269.111 34.1076C269.111 27.6092 271.534 22.6418 276.382 19.2055C281.264 15.7352 288.349 14 297.638 14C306.52 14 313.181 15.3949 317.622 18.1848C322.097 20.9747 324.978 25.5848 326.267 32.0152L311.723 34.0055C310.978 30.9094 309.452 28.5789 307.147 27.0138C304.875 25.4487 301.604 24.6662 297.333 24.6662C292.79 24.6662 289.383 25.3807 287.112 26.8097C284.84 28.2386 283.705 30.3821 283.705 33.24C283.705 35.1113 284.179 36.6423 285.129 37.8331C286.112 39.0239 287.552 40.0446 289.451 40.8952C291.248 41.7117 295.095 42.7494 300.994 44.0083C304.418 44.7568 307.367 45.4713 309.842 46.1517C312.317 46.7982 314.3 47.4276 315.791 48.04C317.283 48.6864 318.605 49.3669 319.758 50.0814C320.944 50.7959 321.961 51.5614 322.809 52.3779C324.538 54.0451 325.86 56.0354 326.775 58.349C327.69 60.6285 328.148 63.2653 328.148 66.2593Z" fill="#0995C6"/>
<path d="M374.473 57.4814V86.9793H359.523V57.4814L333.996 15.0717H349.709L366.896 45.4883L384.287 15.0717H400L374.473 57.4814Z" fill="#0995C6"/>
</svg>
