<svg width="1121" height="576" viewBox="0 0 1121 576" fill="none" xmlns="http://www.w3.org/2000/svg">
<path fill-rule="evenodd" clip-rule="evenodd" d="M693 0H427V266H693V0ZM483.974 42.2222L528.004 67.5877L588.277 102.577L503.593 152.282V189.235L620.101 121.051L639.602 132.371L483.974 223.449V42.2222ZM503.593 129.533L549.478 102.601L503.593 76.1671V129.533Z" fill="#0995C6"/>
<path d="M0 370.1H62.25V388.4H20.55V412.85H58.5V431.15H20.55V456.8H63V475.1H0V370.1Z" fill="#0995C6"/>
<path d="M78.3691 371.15C80.6691 370.75 83.1191 370.4 85.7191 370.1C88.4191 369.7 91.0691 369.4 93.6691 369.2C96.3691 369 98.9691 368.85 101.469 368.75C103.969 368.65 106.269 368.6 108.369 368.6C113.269 368.6 118.069 369.05 122.769 369.95C127.569 370.85 131.819 372.4 135.519 374.6C139.319 376.8 142.319 379.85 144.519 383.75C146.819 387.55 147.969 392.35 147.969 398.15C147.969 406.75 145.969 413.75 141.969 419.15C137.969 424.55 132.619 428.3 125.919 430.4L133.269 435.05L157.269 475.1H133.569L109.719 434L98.9191 432.05V475.1H78.3691V371.15ZM109.869 386.9C107.769 386.9 105.669 386.95 103.569 387.05C101.569 387.15 100.019 387.35 98.9191 387.65V418.1H107.619C113.319 418.1 117.869 416.8 121.269 414.2C124.669 411.6 126.369 407.3 126.369 401.3C126.369 396.8 124.969 393.3 122.169 390.8C119.369 388.2 115.269 386.9 109.869 386.9Z" fill="#0995C6"/>
<path d="M213.904 446.9C213.904 443.7 212.704 441.1 210.304 439.1C208.004 437.1 205.054 435.3 201.454 433.7C197.954 432 194.104 430.3 189.904 428.6C185.804 426.8 181.954 424.65 178.354 422.15C174.854 419.55 171.904 416.35 169.504 412.55C167.204 408.75 166.054 403.9 166.054 398C166.054 392.9 166.904 388.5 168.604 384.8C170.304 381 172.704 377.85 175.804 375.35C179.004 372.85 182.754 371 187.054 369.8C191.354 368.6 196.154 368 201.454 368C207.554 368 213.304 368.55 218.704 369.65C224.104 370.65 228.554 372.15 232.054 374.15L225.604 391.4C223.404 390 220.104 388.75 215.704 387.65C211.304 386.45 206.554 385.85 201.454 385.85C196.654 385.85 192.954 386.8 190.354 388.7C187.854 390.6 186.604 393.15 186.604 396.35C186.604 399.35 187.754 401.85 190.054 403.85C192.454 405.85 195.404 407.7 198.904 409.4C202.504 411.1 206.354 412.85 210.454 414.65C214.654 416.45 218.504 418.65 222.004 421.25C225.604 423.75 228.554 426.9 230.854 430.7C233.254 434.4 234.454 439.05 234.454 444.65C234.454 450.25 233.504 455.1 231.604 459.2C229.804 463.2 227.204 466.55 223.804 469.25C220.504 471.95 216.454 473.95 211.654 475.25C206.954 476.55 201.754 477.2 196.054 477.2C188.554 477.2 181.954 476.5 176.254 475.1C170.554 473.7 166.354 472.3 163.654 470.9L170.254 453.35C171.354 453.95 172.754 454.6 174.454 455.3C176.254 456 178.254 456.65 180.454 457.25C182.654 457.85 184.954 458.35 187.354 458.75C189.854 459.15 192.404 459.35 195.004 459.35C201.104 459.35 205.754 458.35 208.954 456.35C212.254 454.25 213.904 451.1 213.904 446.9Z" fill="#0995C6"/>
<path d="M273.345 436.1L238.845 370.1H263.295L282.495 409.55L284.595 420.65H285.345L287.595 409.25L306.195 370.1H328.245L293.895 435.95V475.1H273.345V436.1Z" fill="#0995C6"/>
<path d="M394.243 428.75L396.193 447.35H396.793L398.893 428.45L417.193 370.1H430.693L448.693 428.75L450.793 447.35H451.393L453.643 428.45L466.393 370.1H487.243L458.293 475.85H444.493L425.743 417.5L423.193 401.45H422.443L419.893 417.65L401.293 475.85H386.743L357.943 370.1H380.293L394.243 428.75Z" fill="#0995C6"/>
<path d="M498.389 370.1H518.939V475.1H498.389V370.1Z" fill="#0995C6"/>
<path d="M565.013 430.25H559.612V475.1H539.062V370.1H559.612V416.6L564.412 414.5L593.362 370.1H616.763L586.162 414.2L578.062 419.9L586.463 425.75L621.412 475.1H596.062L565.013 430.25Z" fill="#0995C6"/>
<path d="M634.18 370.1H654.73V475.1H634.18V370.1Z" fill="#0995C6"/>
<path d="M794.243 420.65L796.493 399.8H795.593L789.143 416.6L766.793 455.75H760.193L736.643 416.45L730.043 399.8H729.293L732.293 420.5V475.1H712.793V370.1H731.543L759.593 418.1L764.543 430.1H765.143L769.643 417.8L796.193 370.1H814.793V475.1H794.243V420.65Z" fill="#0995C6"/>
<path d="M889.764 370.1H909.264V437.9C909.264 444.7 908.364 450.55 906.564 455.45C904.764 460.35 902.264 464.4 899.064 467.6C895.864 470.8 891.964 473.15 887.364 474.65C882.764 476.15 877.714 476.9 872.214 476.9C845.614 476.9 832.314 464.75 832.314 440.45V370.1H852.864V436.4C852.864 440.5 853.214 444 853.914 446.9C854.714 449.7 855.914 452 857.514 453.8C859.114 455.5 861.114 456.75 863.514 457.55C865.914 458.25 868.714 458.6 871.914 458.6C878.214 458.6 882.764 456.85 885.564 453.35C888.364 449.85 889.764 444.2 889.764 436.4V370.1Z" fill="#0995C6"/>
<path d="M972.107 446.9C972.107 443.7 970.907 441.1 968.507 439.1C966.207 437.1 963.257 435.3 959.657 433.7C956.157 432 952.307 430.3 948.107 428.6C944.007 426.8 940.157 424.65 936.557 422.15C933.057 419.55 930.107 416.35 927.707 412.55C925.407 408.75 924.257 403.9 924.257 398C924.257 392.9 925.107 388.5 926.807 384.8C928.507 381 930.907 377.85 934.007 375.35C937.207 372.85 940.957 371 945.257 369.8C949.557 368.6 954.357 368 959.657 368C965.757 368 971.507 368.55 976.907 369.65C982.307 370.65 986.757 372.15 990.257 374.15L983.807 391.4C981.607 390 978.307 388.75 973.907 387.65C969.507 386.45 964.757 385.85 959.657 385.85C954.857 385.85 951.157 386.8 948.557 388.7C946.057 390.6 944.807 393.15 944.807 396.35C944.807 399.35 945.957 401.85 948.257 403.85C950.657 405.85 953.607 407.7 957.107 409.4C960.707 411.1 964.557 412.85 968.657 414.65C972.857 416.45 976.707 418.65 980.207 421.25C983.807 423.75 986.757 426.9 989.057 430.7C991.457 434.4 992.657 439.05 992.657 444.65C992.657 450.25 991.707 455.1 989.807 459.2C988.007 463.2 985.407 466.55 982.007 469.25C978.707 471.95 974.657 473.95 969.857 475.25C965.157 476.55 959.957 477.2 954.257 477.2C946.757 477.2 940.157 476.5 934.457 475.1C928.757 473.7 924.557 472.3 921.857 470.9L928.457 453.35C929.557 453.95 930.957 454.6 932.657 455.3C934.457 456 936.457 456.65 938.657 457.25C940.857 457.85 943.157 458.35 945.557 458.75C948.057 459.15 950.607 459.35 953.207 459.35C959.307 459.35 963.957 458.35 967.157 456.35C970.457 454.25 972.107 451.1 972.107 446.9Z" fill="#0995C6"/>
<path d="M1008.45 370.1H1029V475.1H1008.45V370.1Z" fill="#0995C6"/>
<path d="M1120.22 470.75C1117.02 473.05 1112.92 474.7 1107.92 475.7C1103.02 476.7 1097.97 477.2 1092.77 477.2C1086.47 477.2 1080.47 476.25 1074.77 474.35C1069.17 472.35 1064.22 469.2 1059.92 464.9C1055.62 460.5 1052.17 454.85 1049.57 447.95C1047.07 440.95 1045.82 432.5 1045.82 422.6C1045.82 412.3 1047.22 403.7 1050.02 396.8C1052.92 389.8 1056.62 384.2 1061.12 380C1065.72 375.7 1070.82 372.65 1076.42 370.85C1082.02 368.95 1087.62 368 1093.22 368C1099.22 368 1104.27 368.4 1108.37 369.2C1112.57 370 1116.02 370.95 1118.72 372.05L1114.67 389.45C1112.37 388.35 1109.62 387.55 1106.42 387.05C1103.32 386.55 1099.52 386.3 1095.02 386.3C1086.72 386.3 1080.02 389.25 1074.92 395.15C1069.92 401.05 1067.42 410.2 1067.42 422.6C1067.42 428 1068.02 432.95 1069.22 437.45C1070.42 441.85 1072.22 445.65 1074.62 448.85C1077.12 451.95 1080.17 454.4 1083.77 456.2C1087.47 457.9 1091.72 458.75 1096.52 458.75C1101.02 458.75 1104.82 458.3 1107.92 457.4C1111.02 456.5 1113.72 455.35 1116.02 453.95L1120.22 470.75Z" fill="#0995C6"/>
<path d="M325.216 575.504H313.674L287.541 535.867V575.504H276V517.662H287.541L313.674 557.381V517.662H325.216V575.504Z" fill="#171C29"/>
<path d="M348.162 527.095V541.576H367.536V550.762H348.162V566.07H370.009V575.504H336.621V517.662H370.009V527.095H348.162Z" fill="#171C29"/>
<path d="M457.412 517.745L441.336 575.504H427.734L416.935 534.377L405.641 575.504L392.121 575.586L376.622 517.745H388.988L399.128 562.595L410.834 517.745H423.695L434.741 562.346L444.964 517.745H457.412Z" fill="#171C29"/>
<path d="M519.875 564.498H496.957L493.165 575.504H481.047L501.739 517.662H515.176L535.868 575.504H523.667L519.875 564.498ZM516.742 555.23L508.416 531.067L500.09 555.23H516.742Z" fill="#171C29"/>
<path d="M583.668 535.122C582.349 532.695 580.535 530.847 578.227 529.578C575.918 528.309 573.225 527.675 570.148 527.675C566.74 527.675 563.717 528.447 561.079 529.992C558.441 531.536 556.38 533.743 554.897 536.612C553.413 539.48 552.671 542.79 552.671 546.541C552.671 550.403 553.413 553.768 554.897 556.637C556.435 559.505 558.551 561.712 561.244 563.257C563.937 564.801 567.07 565.574 570.642 565.574C575.039 565.574 578.639 564.415 581.442 562.098C584.245 559.726 586.086 556.444 586.965 552.251H567.18V543.397H598.342V553.492C597.572 557.519 595.923 561.243 593.395 564.663C590.867 568.084 587.597 570.842 583.585 572.938C579.628 574.979 575.176 576 570.23 576C564.679 576 559.65 574.759 555.144 572.276C550.692 569.739 547.175 566.236 544.592 561.767C542.064 557.299 540.8 552.223 540.8 546.541C540.8 540.859 542.064 535.784 544.592 531.316C547.175 526.792 550.692 523.289 555.144 520.806C559.65 518.269 564.652 517 570.148 517C576.633 517 582.266 518.6 587.047 521.799C591.829 524.944 595.126 529.385 596.94 535.122H583.668Z" fill="#171C29"/>
<path d="M618.422 527.095V541.576H637.795V550.762H618.422V566.07H640.268V575.504H606.88V517.662H640.268V527.095H618.422Z" fill="#171C29"/>
<path d="M747.315 517.745L731.239 575.504H717.637L706.837 534.377L695.543 575.504L682.024 575.586L666.525 517.745H678.891L689.031 562.595L700.737 517.745H713.597L724.644 562.346L734.866 517.745H747.315Z" fill="#171C29"/>
<path d="M766.392 517.745V575.504H754.851V517.745H766.392Z" fill="#171C29"/>
<path d="M810.276 575.504L789.336 549.769V575.504H777.795V517.745H789.336V543.645L810.276 517.745H824.208L800.465 546.376L824.867 575.504H810.276Z" fill="#171C29"/>
<path d="M844 517.745V575.504H832.459V517.745H844Z" fill="#171C29"/>
</svg>
