<svg width="24" height="24" viewBox="0 0 24 24" fill="none" xmlns="http://www.w3.org/2000/svg">
<path d="M5.92378 6.49889C6.23595 3.37723 8.86276 1 12 1V1C15.1372 1 17.764 3.37723 18.0762 6.49889L18.393 9.66673C18.433 10.0668 18.453 10.2668 18.4825 10.4629C18.6373 11.4925 18.9915 12.4819 19.5254 13.3757C19.6271 13.546 19.7386 13.7132 19.9616 14.0477L20.9797 15.5748C21.8922 16.9436 22.3484 17.6279 22.0658 18.1561C21.7831 18.6842 20.9606 18.6842 19.3156 18.6842H4.68439C3.03936 18.6842 2.21685 18.6842 1.9342 18.1561C1.65155 17.6279 2.10779 16.9436 3.02029 15.5748L4.03835 14.0477C4.26136 13.7132 4.37286 13.546 4.47457 13.3757C5.00843 12.4819 5.3627 11.4925 5.5175 10.4629C5.54699 10.2668 5.567 10.0668 5.607 9.66673L5.92378 6.49889Z" fill="#333333"/>
<path d="M9.86478 21.5904C9.99072 21.7079 10.2682 21.8117 10.6543 21.8858C11.0404 21.9599 11.5134 22 12 22C12.4866 22 12.9596 21.9599 13.3457 21.8858C13.7317 21.8117 14.0092 21.7079 14.1352 21.5904" stroke="#333333" stroke-opacity="0.65" stroke-width="2" stroke-linecap="round"/>
</svg>
