<svg width="256" height="256" viewBox="0 0 256 256" fill="none" xmlns="http://www.w3.org/2000/svg">
<path fill-rule="evenodd" clip-rule="evenodd" d="M198.935 20.259C185 20.259 173.704 31.5556 173.704 45.4907C173.704 59.4257 185 70.7223 198.935 70.7223C212.871 70.7223 224.167 59.4257 224.167 45.4907C224.167 31.5556 212.871 20.259 198.935 20.259ZM153.445 45.4907C153.445 20.3669 173.812 0 198.935 0C224.059 0 244.426 20.3669 244.426 45.4907C244.426 70.6145 224.059 90.9813 198.935 90.9813C173.812 90.9813 153.445 70.6145 153.445 45.4907Z" fill="#333333"/>
<path fill-rule="evenodd" clip-rule="evenodd" d="M57.4907 102.768C43.5556 102.768 32.259 114.065 32.259 128C32.259 141.935 43.5556 153.232 57.4907 153.232C71.4257 153.232 82.7223 141.935 82.7223 128C82.7223 114.065 71.4257 102.768 57.4907 102.768ZM12 128C12 102.876 32.3669 82.5094 57.4907 82.5094C82.6145 82.5094 102.981 102.876 102.981 128C102.981 153.124 82.6145 173.491 57.4907 173.491C32.3669 173.491 12 153.124 12 128Z" fill="#333333"/>
<path fill-rule="evenodd" clip-rule="evenodd" d="M198.935 185.278C185 185.278 173.704 196.574 173.704 210.509C173.704 224.444 185 235.741 198.935 235.741C212.871 235.741 224.167 224.444 224.167 210.509C224.167 196.574 212.871 185.278 198.935 185.278ZM153.445 210.509C153.445 185.386 173.812 165.019 198.935 165.019C224.059 165.019 244.426 185.386 244.426 210.509C244.426 235.633 224.059 256 198.935 256C173.812 256 153.445 235.633 153.445 210.509Z" fill="#333333"/>
<path fill-rule="evenodd" clip-rule="evenodd" d="M177.155 58.1835C179.975 63.0153 178.344 69.2181 173.512 72.0378L93.1244 118.95C88.2926 121.77 82.0899 120.139 79.2701 115.307C76.4504 110.475 78.0815 104.273 82.9133 101.453L163.301 54.5404C168.133 51.7207 174.336 53.3518 177.155 58.1835ZM79.2669 140.698C82.0835 135.865 88.2852 134.23 93.1188 137.046L173.624 183.959C178.458 186.776 180.093 192.977 177.276 197.811C174.46 202.644 168.258 204.28 163.424 201.463L82.9189 154.55C78.0853 151.734 76.4502 145.532 79.2669 140.698Z" fill="#333333"/>
</svg>
