<svg width="256" height="256" viewBox="0 0 256 256" fill="none" xmlns="http://www.w3.org/2000/svg">
<g clip-path="url(#clip0_33_105)">
<path d="M161.777 154.191C152.965 162.91 140.996 167.822 128.5 167.822C116.004 167.822 104.035 162.91 95.2228 154.191C86.4133 145.474 81.4789 133.669 81.4789 121.377V53.9453C81.4789 41.6531 86.4133 29.848 95.2228 21.1316C104.035 12.4125 116.004 7.5 128.5 7.5C140.996 7.5 152.965 12.4125 161.777 21.1316C170.586 29.848 175.521 41.6531 175.521 53.9453V121.377C175.521 133.669 170.586 145.474 161.777 154.191Z" fill="#B5A17D" stroke="#333333" stroke-width="15"/>
<path d="M48.322 117.594V119.732C48.322 164.013 84.2189 199.91 128.5 199.91V199.91C172.781 199.91 208.678 164.013 208.678 119.732V117.594" stroke="#333333" stroke-width="15" stroke-linecap="round"/>
<path d="M129.569 199.91V255.5" stroke="#333333" stroke-width="15" stroke-linecap="round"/>
<path d="M84.6693 255.5H171.261" stroke="#333333" stroke-width="15" stroke-linecap="round"/>
</g>
<defs>
<clipPath id="clip0_33_105">
<rect width="256" height="256" fill="white"/>
</clipPath>
</defs>
</svg>
