<svg width="256" height="256" viewBox="0 0 256 256" fill="none" xmlns="http://www.w3.org/2000/svg">
<g clip-path="url(#clip0_293_4)">
<path d="M233.327 69.2953C221.166 69.5014 211.066 80.2196 211.684 92.3806C211.89 99.1826 215.188 104.954 220.135 108.87C194.576 143.086 168.605 145.766 138.512 89.0827C149.23 83.7236 155.208 70.1198 147.375 56.5159C143.665 49.9201 136.039 46.6222 128.412 47.0344C128.206 47.0344 128.206 47.0344 128 47.0344C128 47.0344 127.794 47.0344 127.588 47.0344C119.961 46.8283 112.541 49.9201 108.625 56.5159C100.792 70.1198 106.77 83.7236 117.488 89.0827C87.3945 145.766 61.4235 143.086 35.8647 108.87C40.8116 104.954 44.1095 98.9765 44.3156 92.3806C44.7279 80.2196 34.8341 69.5014 22.6731 69.2953C10.0998 69.0892 0 78.9829 0 91.5562C0 103.717 9.89372 113.817 22.2609 113.817C23.0853 113.817 24.1159 113.817 24.9404 113.611L33.3913 196.471C34.0097 203.067 39.5749 208.013 46.1707 208.013H128H209.829C216.425 208.013 221.99 203.067 222.609 196.471L231.06 113.611C231.884 113.817 232.709 113.817 233.739 113.817C245.9 113.817 256 103.923 256 91.5562C256 78.9829 245.694 69.0892 233.327 69.2953Z" fill="#333333"/>
</g>
<defs>
<clipPath id="clip0_293_4">
<rect width="256" height="256" fill="white"/>
</clipPath>
</defs>
</svg>
