<svg width="109" height="109" viewBox="0 0 109 109" fill="none" xmlns="http://www.w3.org/2000/svg">
<path d="M84.5345 0H24.4655C10.9536 0 0 10.9536 0 24.4655V84.5345C0 98.0464 10.9536 109 24.4655 109H84.5345C98.0464 109 109 98.0464 109 84.5345V24.4655C109 10.9536 98.0464 0 84.5345 0Z" fill="#FD3832"/>
<path fill-rule="evenodd" clip-rule="evenodd" d="M30.2046 74.6426C29.1151 74.3123 28.1209 73.7249 27.3061 72.9298C26.4913 72.1347 25.8797 71.1553 25.5229 70.0741C23.4841 64.4863 22.88 41.1535 26.8066 36.5473C28.1134 35.0489 29.9585 34.1263 31.9413 33.9799C42.4751 32.8473 75.0203 32.9983 78.7581 34.3575C79.8094 34.6985 80.7699 35.2731 81.5676 36.0381C82.3653 36.8031 82.9795 37.7387 83.3643 38.7749C85.5918 44.5515 85.6673 65.5435 83.0622 71.0935C82.3712 72.5382 81.2142 73.7085 79.7775 74.416C75.8509 76.3793 35.4148 76.3415 30.2046 74.6426V74.6426ZM46.9303 63.6935L65.808 53.8771L46.9303 43.9851V63.6935Z" fill="white"/>
</svg>
