<svg width="110" height="109" viewBox="0 0 110 109" fill="none" xmlns="http://www.w3.org/2000/svg">
<path d="M85.31 0H24.69C11.0541 0 0 10.9536 0 24.4655V84.5345C0 98.0464 11.0541 109 24.69 109H85.31C98.9459 109 110 98.0464 110 84.5345V24.4655C110 10.9536 98.9459 0 85.31 0Z" fill="#00C7FF"/>
<path fill-rule="evenodd" clip-rule="evenodd" d="M44.7318 68.3751C42.1331 68.3114 39.6187 67.4486 37.5367 65.9064C35.4546 64.3641 33.9079 62.2186 33.1107 59.7669C34.8801 60.1552 36.7137 60.1552 38.4831 59.7669C36.8097 59.3773 35.2354 58.6497 33.8587 57.6298C32.4819 56.6099 31.3323 55.3195 30.4817 53.8393C29.2374 51.8597 28.6019 49.5638 28.6528 47.2321C30.3607 48.1637 32.2671 48.6812 34.2157 48.7423C31.6006 46.959 29.7631 44.2614 29.0719 41.1912C28.3732 38.1395 28.8775 34.9386 30.4817 32.2432C33.6203 36.0778 37.5326 39.2206 41.968 41.4701C46.4033 43.7196 51.264 45.0264 56.2385 45.3066C56.2385 44.8157 56.2385 44.4004 56.048 43.9474C55.7053 41.3776 56.1851 38.7661 57.4196 36.4808C58.6541 34.1955 60.5812 32.3516 62.9293 31.2091C65.2774 30.0666 67.928 29.683 70.5078 30.1124C73.0876 30.5417 75.4663 31.7624 77.3089 33.6024C77.3889 33.6898 77.4917 33.7537 77.6059 33.787C77.7202 33.8203 77.8415 33.8217 77.9566 33.7911C80.5122 33.2526 82.9674 32.3228 85.234 31.035C84.3236 33.8022 82.4806 36.175 80.0141 37.7555C82.4191 37.4906 84.7699 36.8669 86.9867 35.9055L85.7294 37.7555C84.4078 39.3634 82.884 40.7971 81.1952 42.0218C81.1323 42.0621 81.0815 42.1184 81.048 42.1848C81.0145 42.2512 80.9995 42.3253 81.0047 42.3994C81.0779 44.2399 81.0015 46.0833 80.7761 47.9117C80.2908 51.7329 79.1977 55.4539 77.5375 58.9363C75.8556 62.5457 73.5761 65.8509 70.7934 68.7149C66.1545 73.5103 60.1671 76.8122 53.6095 78.1916C51.3168 78.6851 48.9823 78.9632 46.6369 79.0222C39.5949 79.2608 32.6418 77.4068 26.6715 73.6987L26.3667 73.5099C30.5918 73.9615 34.8636 73.3512 38.7879 71.7354C40.9159 70.8919 42.9161 69.7612 44.7318 68.3751Z" fill="white"/>
</svg>
