<svg width="109" height="109" viewBox="0 0 109 109" fill="none" xmlns="http://www.w3.org/2000/svg">
<path d="M84.5345 0H24.4655C10.9536 0 0 10.9536 0 24.4655V84.5345C0 98.0464 10.9536 109 24.4655 109H84.5345C98.0464 109 109 98.0464 109 84.5345V24.4655C109 10.9536 98.0464 0 84.5345 0Z" fill="#4C76BE"/>
<path fill-rule="evenodd" clip-rule="evenodd" d="M63.6555 35.0748H69.8851V25.5227C68.9035 25.5227 67.8841 25.2961 66.8647 25.2206H61.2391C58.4068 25.2044 55.6384 26.0614 53.3105 27.6747C52.0214 28.6082 50.9327 29.791 50.1091 31.1529C49.2855 32.5148 48.7436 34.0282 48.5155 35.6034C48.3026 36.9524 48.189 38.3153 48.1757 39.681V46.8923H39.0767V57.5015H48.138V84.1946H59.2003V57.4638H68.2239L69.6208 46.779H59.1248V39.2279C59.3136 36.0942 61.1636 35.1503 63.6555 35.0748V35.0748Z" fill="white"/>
</svg>
