<svg width="109" height="109" viewBox="0 0 109 109" fill="none" xmlns="http://www.w3.org/2000/svg">
<path d="M84.5345 0H24.4655C10.9536 0 0 10.9536 0 24.4655V84.5345C0 98.0464 10.9536 109 24.4655 109H84.5345C98.0464 109 109 98.0464 109 84.5345V24.4655C109 10.9536 98.0464 0 84.5345 0Z" fill="#FF5500"/>
<path d="M27.184 66.2608H27.5616L27.9391 60.824L27.5616 55.3872C27.5802 55.3305 27.5851 55.2702 27.576 55.2112C27.5668 55.1522 27.5437 55.0963 27.5087 55.0479C27.4737 54.9996 27.4278 54.9602 27.3746 54.9331C27.3214 54.9059 27.2626 54.8918 27.2029 54.8918C27.1432 54.8918 27.0844 54.9059 27.0312 54.9331C26.9781 54.9602 26.9321 54.9996 26.8971 55.0479C26.8621 55.0963 26.839 55.1522 26.8298 55.2112C26.8207 55.2702 26.8256 55.3305 26.8442 55.3872L26.4289 60.824L26.8065 66.2608H27.184ZM25.032 64.4485V64.1842L25.7493 60.9373L25.032 57.1617H24.6544L24.2769 60.9373L24.6544 64.1842C24.6544 64.4485 24.6544 64.4485 25.032 64.4485ZM29.7136 54.3301C29.7136 53.9525 29.7136 53.9525 29.3361 53.9525V54.3301L28.6187 60.824L29.3361 66.9781V67.3557C29.7136 67.3557 29.7136 67.3557 29.7136 66.9781L30.431 60.824L29.7136 54.3301ZM31.9035 67.6955C31.9545 67.7016 32.0063 67.696 32.0548 67.6792C32.1034 67.6623 32.1475 67.6347 32.1839 67.5984C32.2202 67.562 32.2478 67.5179 32.2647 67.4693C32.2815 67.4207 32.2871 67.369 32.281 67.3179L32.9984 60.824L32.281 53.9525C32.2871 53.9015 32.2815 53.8497 32.2647 53.8011C32.2478 53.7526 32.2202 53.7085 32.1839 53.6721C32.1475 53.6358 32.1034 53.6081 32.0548 53.5913C32.0063 53.5745 31.9545 53.5689 31.9035 53.575L31.5259 53.9525L31.1483 60.824L31.5259 67.3179L31.9035 67.6955ZM34.4331 67.6955C34.4841 67.7016 34.5359 67.696 34.5844 67.6792C34.633 67.6623 34.6771 67.6347 34.7135 67.5984C34.7498 67.562 34.7775 67.5179 34.7943 67.4693C34.8111 67.4207 34.8167 67.369 34.8106 67.3179L35.528 60.824L34.8106 54.6699C34.8167 54.6188 34.8111 54.5671 34.7943 54.5185C34.7775 54.4699 34.7498 54.4258 34.7135 54.3895C34.6771 54.3531 34.633 54.3255 34.5844 54.3087C34.5359 54.2918 34.4841 54.2862 34.4331 54.2923C34.0555 54.2923 34.0555 54.2923 34.0555 54.6699L33.3382 60.824L33.98 67.3557C33.98 67.6955 33.98 67.6955 34.4331 67.6955ZM37.7556 60.824L37.378 50.7056C37.3841 50.6545 37.3785 50.6028 37.3617 50.5542C37.3448 50.5056 37.3172 50.4615 37.2809 50.4251C37.2445 50.3888 37.2004 50.3612 37.1518 50.3443C37.1032 50.3275 37.0515 50.3219 37.0004 50.328C36.6229 50.328 36.2831 50.328 36.2831 50.7056L35.9055 60.824L36.2831 67.3179C36.2831 67.6955 36.6606 67.6955 37.0004 67.6955C37.0515 67.7016 37.1032 67.696 37.1518 67.6792C37.2004 67.6623 37.2445 67.6347 37.2809 67.5984C37.3172 67.562 37.3448 67.5179 37.3617 67.4693C37.3785 67.4207 37.3841 67.369 37.378 67.3179L37.7556 60.824ZM39.1147 67.6955C39.4923 67.6955 39.8321 67.6955 39.8321 67.3179L40.2097 60.824L39.8321 48.1759C39.6418 47.9736 39.3893 47.8408 39.1147 47.7984L38.7372 48.1759L38.3596 60.824L38.7372 67.3179C38.7311 67.369 38.7367 67.4207 38.7535 67.4693C38.7704 67.5179 38.798 67.562 38.8343 67.5984C38.8707 67.6347 38.9148 67.6623 38.9634 67.6792C39.012 67.696 39.0637 67.7016 39.1147 67.6955V67.6955ZM41.5311 46.7412C41.1535 46.7412 41.1535 47.1188 41.1535 47.4586L40.776 60.824L41.1535 67.3179C41.1535 67.6955 41.1535 67.6955 41.5311 67.6955C41.9087 67.6955 42.2485 67.6955 42.2485 67.3179L42.626 60.824L42.2485 47.4586C42.2316 47.274 42.1506 47.1012 42.0195 46.9702C41.8885 46.8391 41.7157 46.7581 41.5311 46.7412ZM44.2117 67.6955C44.5893 67.6955 44.9291 67.6955 44.9291 67.3179L45.3066 60.824L44.9291 46.7035C44.9291 46.3259 44.5515 46.3259 44.2117 46.3259C43.8719 46.3259 43.4944 46.3259 43.4944 46.7035L43.1168 60.824L43.4944 67.3179C43.4566 67.6955 43.8342 67.6955 44.2117 67.6955ZM46.7414 67.6955C46.9259 67.6786 47.0987 67.5976 47.2298 67.4666C47.3608 67.3355 47.4418 67.1627 47.4587 66.9781L47.8363 60.824L47.4587 47.081C47.4587 46.8908 47.3831 46.7083 47.2486 46.5738C47.1141 46.4393 46.9316 46.3637 46.7414 46.3637C46.5511 46.3637 46.3686 46.4393 46.2341 46.5738C46.0996 46.7083 46.024 46.8908 46.024 47.081L45.6464 60.824L46.024 66.9781C46.0409 67.1627 46.1219 67.3355 46.2529 67.4666C46.384 67.5976 46.5568 67.6786 46.7414 67.6955V67.6955ZM50.3281 60.824L49.9506 47.7984C49.9506 47.7042 49.932 47.6109 49.896 47.5239C49.8599 47.4368 49.8071 47.3578 49.7405 47.2911C49.6738 47.2245 49.5948 47.1717 49.5077 47.1356C49.4207 47.0996 49.3274 47.081 49.2332 47.081C49.139 47.081 49.0457 47.0996 48.9587 47.1356C48.8717 47.1717 48.7926 47.2245 48.726 47.2911C48.6594 47.3578 48.6065 47.4368 48.5705 47.5239C48.5344 47.6109 48.5159 47.7042 48.5159 47.7984L48.1383 60.824L48.5159 66.9781C48.5159 67.0724 48.5344 67.1656 48.5705 67.2527C48.6065 67.3397 48.6594 67.4188 48.726 67.4854C48.7926 67.552 48.8717 67.6048 48.9587 67.6409C49.0457 67.6769 49.139 67.6955 49.2332 67.6955C49.3274 67.6955 49.4207 67.6769 49.5077 67.6409C49.5948 67.6048 49.6738 67.552 49.7405 67.4854C49.8071 67.4188 49.8599 67.3397 49.896 67.2527C49.932 67.1656 49.9506 67.0724 49.9506 66.9781L50.3281 60.824ZM51.8006 67.6955C51.9851 67.6786 52.158 67.5976 52.289 67.4666C52.4201 67.3355 52.5011 67.1627 52.5179 66.9781L52.8955 60.824L52.5179 45.3065C52.5179 45.1163 52.4424 44.9338 52.3078 44.7993C52.1733 44.6647 51.9908 44.5892 51.8006 44.5892C51.6103 44.5892 51.4279 44.6647 51.2933 44.7993C51.1588 44.9338 51.0832 45.1163 51.0832 45.3065L50.7057 60.8618L51.0832 67.0159C51.1082 67.1937 51.1928 67.3577 51.3231 67.4811C51.4534 67.6046 51.6217 67.6802 51.8006 67.6955V67.6955ZM54.3302 43.1167C54.1456 43.1336 53.9728 43.2146 53.8418 43.3456C53.7107 43.4767 53.6297 43.6495 53.6128 43.8341L53.2353 60.824L53.6128 66.9781C53.6128 67.1684 53.6884 67.3509 53.823 67.4854C53.9575 67.6199 54.1399 67.6955 54.3302 67.6955C54.5205 67.6955 54.7029 67.6199 54.8374 67.4854C54.972 67.3509 55.0475 67.1684 55.0475 66.9781L55.4251 60.824L55.0475 43.8341C55.0307 43.6495 54.9497 43.4767 54.8186 43.3456C54.6876 43.2146 54.5148 43.1336 54.3302 43.1167V43.1167ZM56.8598 67.6955H77.4743C78.4294 67.6955 79.3752 67.5068 80.2571 67.1401C81.1391 66.7735 81.9399 66.2361 82.6135 65.559C83.2872 64.8818 83.8203 64.0782 84.1824 63.1944C84.5445 62.3105 84.7283 61.3638 84.7233 60.4087C84.7535 59.4343 84.5889 58.4636 84.2391 57.5536C83.8893 56.6436 83.3613 55.8126 82.6861 55.1093C82.011 54.406 81.2022 53.8446 80.3073 53.458C79.4123 53.0713 78.4492 52.8672 77.4743 52.8576C76.4895 52.7787 75.4991 52.9073 74.5671 53.2352C74.2345 49.9961 72.7243 46.9919 70.3232 44.7927C67.9221 42.5934 64.7972 41.3522 61.5415 41.3044C59.8324 41.34 58.1338 41.5808 56.4823 42.0218C56.1047 42.3994 55.7649 42.3994 55.7649 43.1167V66.9781C55.7649 67.3557 56.1425 67.6955 56.8598 67.6955V67.6955Z" fill="white"/>
</svg>
