<svg width="256" height="256" viewBox="0 0 256 256" fill="none" xmlns="http://www.w3.org/2000/svg">
<path fill-rule="evenodd" clip-rule="evenodd" d="M78 43.3951C78 27.7129 90.6779 15 106.317 15H227.683C243.322 15 256 27.7129 256 43.3951V123.992C256 139.675 243.322 152.388 227.683 152.388H223.448V172.754C223.448 176.225 221.28 179.325 218.024 180.507C214.769 181.689 211.124 180.7 208.908 178.033C206.409 175.025 199.845 169.93 188.618 165.001L195.214 149.894C199.557 151.8 203.502 153.823 207.002 155.894V144.142C207.002 139.588 210.684 135.896 215.225 135.896H227.683C234.239 135.896 239.554 130.567 239.554 123.992V43.3951C239.554 36.821 234.239 31.4916 227.683 31.4916H106.317C99.7608 31.4916 94.4461 36.821 94.4461 43.3951V59.1116H78V43.3951Z" fill="#333333"/>
<path fill-rule="evenodd" clip-rule="evenodd" d="M35.4859 82C20.3059 82 8 94.2641 8 109.393V175.093C8 190.221 20.3059 202.485 35.4859 202.485H40.6418V231C49.3731 220.558 82.1493 202.485 135.343 202.485L142.514 202.485C157.694 202.485 170 190.221 170 175.093V109.393C170 94.2641 157.694 82 142.514 82H35.4859Z" fill="#B5A17D"/>
<path fill-rule="evenodd" clip-rule="evenodd" d="M35.6333 90.4916C25.0365 90.4916 16.4461 99.1057 16.4461 109.732V175.656C16.4461 186.282 25.0365 194.896 35.6333 194.896H40.775C45.3164 194.896 48.998 198.588 48.998 203.142V214.894C54.4474 211.669 61.0088 208.545 68.5366 205.777C85.3666 199.588 107.761 194.896 135.216 194.896L142.367 194.896C152.963 194.896 161.554 186.282 161.554 175.656V109.732C161.554 99.1057 152.963 90.4916 142.367 90.4916H35.6333ZM0 109.732C0 89.9976 15.9536 74 35.6333 74H142.367C162.046 74 178 89.9977 178 109.732V175.656C178 195.39 162.046 211.387 142.367 211.387L135.216 211.388C109.623 211.388 89.1505 215.762 74.1988 221.26C58.9562 226.865 50.1333 233.373 47.0921 237.033C44.8757 239.7 41.2309 240.689 37.9756 239.507C34.7203 238.325 32.5519 235.225 32.5519 231.754V211.256C14.3149 209.689 0 194.349 0 175.656V109.732Z" fill="#333333"/>
<path fill-rule="evenodd" clip-rule="evenodd" d="M128 135H44V119H128V135Z" fill="#776B54"/>
<path fill-rule="evenodd" clip-rule="evenodd" d="M86 165H44V149H86V165Z" fill="#86795F"/>
</svg>
