<svg width="109" height="109" viewBox="0 0 109 109" fill="none" xmlns="http://www.w3.org/2000/svg">
<path d="M84.5345 0H24.4655C10.9536 0 0 10.9536 0 24.4655V84.5345C0 98.0464 10.9536 109 24.4655 109H84.5345C98.0464 109 109 98.0464 109 84.5345V24.4655C109 10.9536 98.0464 0 84.5345 0Z" fill="url(#paint0_linear_219_43)"/>
<path d="M37.7553 18.8777H71.7352C72.4904 19.2553 73.623 19.2553 74.3781 19.6329C77.6917 20.1699 80.7898 21.6204 83.3242 23.8214C85.8587 26.0224 87.7291 28.8866 88.7252 32.0922C89.2828 33.9394 89.6621 35.8359 89.8579 37.7555V70.9803C89.3181 75.1911 87.7633 79.2077 85.3272 82.6845C83.2373 85.1058 80.6172 87.0127 77.6706 88.2568C74.7239 89.501 71.5301 90.0489 68.3373 89.858H40.0207C34.9673 90.1033 29.9987 88.4918 26.0511 85.3274C23.6507 83.2533 21.7563 80.6578 20.513 77.7392C19.2696 74.8206 18.7103 71.6564 18.8776 68.4884V42.0596C18.8152 40.164 18.9417 38.2668 19.2552 36.3963C19.6364 32.5255 21.2279 28.8734 23.8035 25.9589C26.3791 23.0444 29.8078 21.0158 33.6022 20.1614L37.7553 18.8777ZM26.0511 54.7454V69.4701C25.8902 71.3451 26.141 73.2327 26.7861 75.0007C27.4312 76.7686 28.455 78.3742 29.7858 79.705C31.1165 81.0357 32.7221 82.0595 34.49 82.7046C36.258 83.3497 38.1456 83.6006 40.0207 83.4396C49.8371 83.8171 59.6535 83.8171 69.4699 83.4396C78.1537 83.4396 83.0619 78.1538 83.4394 69.4701C83.817 59.6536 83.817 49.8372 83.4394 40.0208C83.5373 38.1605 83.2429 36.3005 82.5755 34.5613C81.9081 32.8221 80.8825 31.2427 79.5652 29.9255C78.248 28.6082 76.6686 27.5827 74.9294 26.9152C73.1902 26.2478 71.3302 25.9535 69.4699 26.0513C59.6535 25.6737 49.8371 25.6737 40.0207 26.0513C38.1456 25.8903 36.258 26.1412 34.49 26.7863C32.7221 27.4314 31.1165 28.4551 29.7858 29.7859C28.455 31.1167 27.4312 32.7222 26.7861 34.4902C26.141 36.2581 25.8902 38.1457 26.0511 40.0208V54.7454Z" fill="white"/>
<path d="M36.396 54.8965C36.406 49.993 38.3583 45.2932 41.8256 41.8259C45.2929 38.3586 49.9927 36.4063 54.8962 36.3963C59.7725 36.4929 64.4221 38.473 67.8709 41.9218C71.3196 45.3705 73.2998 50.0202 73.3963 54.8965C73.3864 59.8 71.434 64.4998 67.9667 67.967C64.4994 71.4343 59.7997 73.3867 54.8962 73.3966C50.0199 73.3001 45.3702 71.3199 41.9214 67.8712C38.4727 64.4225 36.4926 59.7728 36.396 54.8965V54.8965ZM54.8962 43.1923C52.603 43.155 50.3509 43.8033 48.4285 45.0541C46.5062 46.305 45.0011 48.1014 44.1062 50.2131C43.2114 52.3248 42.9674 54.6556 43.4057 56.9068C43.844 59.158 44.9445 61.2271 46.5663 62.8488C48.188 64.4705 50.2571 65.5711 52.5083 66.0094C54.7595 66.4477 57.0903 66.2037 59.202 65.3088C61.3137 64.414 63.1101 62.9089 64.3609 60.9865C65.6118 59.0642 66.2601 56.8121 66.2228 54.5189C66.2228 51.5149 65.0295 48.6339 62.9053 46.5098C60.7812 44.3856 57.9002 43.1923 54.8962 43.1923V43.1923Z" fill="white"/>
<path d="M69.2434 35.6411C69.2223 35.0405 69.3251 34.4419 69.5453 33.8827C69.7655 33.3235 70.0985 32.8155 70.5235 32.3906C70.9485 31.9656 71.4564 31.6326 72.0156 31.4124C72.5748 31.1922 73.1734 31.0894 73.7741 31.1105C74.9495 31.19 76.0563 31.6929 76.8893 32.5259C77.7224 33.359 78.2252 34.4657 78.3047 35.6411C78.3047 36.8427 77.8274 37.9951 76.9777 38.8448C76.1281 39.6945 74.9757 40.1718 73.7741 40.1718C72.5725 40.1718 71.4201 39.6945 70.5704 38.8448C69.7208 37.9951 69.2434 36.8427 69.2434 35.6411V35.6411Z" fill="white"/>
<defs>
<linearGradient id="paint0_linear_219_43" x1="-6.947" y1="115.041" x2="121.422" y2="-11.4399" gradientUnits="userSpaceOnUse">
<stop stop-color="#FED576"/>
<stop offset="0.26" stop-color="#F47133"/>
<stop offset="0.61" stop-color="#BC3081"/>
<stop offset="1" stop-color="#4C63D2"/>
</linearGradient>
</defs>
</svg>
