<svg width="256" height="256" viewBox="0 0 256 256" fill="none" xmlns="http://www.w3.org/2000/svg">
<circle cx="171" cy="66" r="58" fill="#B5A17D"/>
<path d="M170.5 132C153.73 132 136.919 125.548 124.152 112.685C98.6161 86.9583 98.6161 45.0619 124.152 19.2949C149.687 -6.43165 191.273 -6.43165 216.848 19.2949C242.384 45.0215 242.384 86.918 216.848 112.685C204.081 125.589 187.31 132 170.5 132ZM170.5 15.1819C157.572 15.1819 144.644 20.1417 134.798 30.0614C115.106 49.9007 115.106 82.1598 134.798 101.959C154.49 121.798 186.51 121.798 206.162 101.959C225.854 82.1194 225.854 49.8604 206.162 30.0614C196.356 20.1417 183.428 15.1819 170.5 15.1819Z" fill="#333333"/>
<path d="M61.0361 208C60.0329 208 59.0298 207.92 58.0266 207.719C41.6954 204.629 31.3831 194.316 28.2533 177.903C27.4106 173.248 28.6947 168.392 31.7442 164.941L108.826 76.5757C111.554 73.4456 116.329 73.1245 119.499 75.8533C122.629 78.5821 122.95 83.3576 120.222 86.5278L43.0998 174.853C45.066 185.407 50.5632 190.905 60.8756 192.831L149.473 115.742C152.603 113.013 158.231 116.37 161 119.5C163.729 122.63 162.554 124.37 159.425 127.139L71.0274 204.228C68.2186 206.676 64.6875 208 61.0361 208Z" fill="#333333"/>
<path d="M56.0012 256C46.3448 256 37.2894 252.219 30.5179 245.381C16.494 231.263 16.494 208.335 30.5179 194.217L38.4514 186.253C41.4164 183.276 46.1845 183.276 49.1095 186.253C52.0745 189.229 52.0745 194.016 49.1095 196.952L41.176 204.916C33.0021 213.122 33.0021 226.436 41.176 234.641C45.1427 238.623 50.3917 240.796 56.0012 240.796C61.6107 240.796 66.8596 238.623 70.8264 234.641L110.534 194.78C117.466 187.821 126.641 184 136.418 184C146.194 184 155.37 187.821 162.302 194.78C176.566 209.099 176.566 232.429 162.302 246.749C159.337 249.725 154.569 249.725 151.644 246.749C148.679 243.772 148.679 238.985 151.644 236.049C160.018 227.642 160.018 213.926 151.644 205.479C147.597 201.417 142.188 199.164 136.418 199.164C130.688 199.164 125.279 201.417 121.192 205.479L81.4845 245.341C74.6729 252.219 65.6175 256 56.0012 256Z" fill="#333333"/>
</svg>
