<svg width="48" height="48" viewBox="0 0 48 48" fill="none" xmlns="http://www.w3.org/2000/svg">
<path d="M35.2 6H12.8C10.1536 6 8 8.1653 8 10.8261V41.3913C8 42.0058 8.3488 42.5657 8.8976 42.8359C9.448 43.1046 10.1008 43.0386 10.5824 42.6606L24 32.1687L37.4176 42.6606C37.704 42.8858 38.0512 43 38.4 43C38.6384 43 38.88 42.9453 39.1024 42.8359C39.6512 42.5657 40 42.0058 40 41.3913V10.8261C40 8.1653 37.8464 6 35.2 6ZM36.8 38.1031L24.9824 28.8612C24.6944 28.6343 24.3472 28.5217 24 28.5217C23.6528 28.5217 23.3056 28.6343 23.0176 28.8596L11.2 38.1031V10.8261C11.2 9.9397 11.9184 9.21739 12.8 9.21739H35.2C36.0816 9.21739 36.8 9.9397 36.8 10.8261V38.1031Z" fill="white" stroke="white"/>
</svg>
