<svg width="128" height="128" viewBox="0 0 128 128" fill="none" xmlns="http://www.w3.org/2000/svg">
<g clip-path="url(#clip0_108_104)">
<rect x="7" y="21" width="114" height="93" fill="white"/>
<path d="M0 0V128H128V0H0ZM111.582 30.9594C111.582 31.5396 111.112 32.0102 110.532 32.0102H107.591C106.519 32.0102 105.553 32.6589 105.149 33.6522L78.3174 99.4854L64.8036 69.15L50.3445 99.4854L22.6723 33.6263C22.2609 32.6473 21.3025 32.0107 20.2407 32.0107H17.4683C16.8881 32.0107 16.4176 31.5402 16.4176 30.96V28.5141H40.3268L40.2598 30.9884C40.2445 31.5576 39.7788 32.0112 39.2091 32.0112H35.2077C33.7186 32.0112 32.698 33.5119 33.2455 34.8965L52.6733 84.0437L62.4991 62.748L50.0824 33.6137C49.6678 32.6415 48.7131 32.0102 47.656 32.0102H45.7244C45.1442 32.0102 44.6737 31.5396 44.6737 30.9594V28.5135H62.6294V30.9594C62.6294 31.5396 62.1589 32.0102 61.5786 32.0102C60.0632 32.0102 59.042 33.5599 59.6397 34.9524L66.9768 52.0451L74.4685 34.9682C75.0798 33.5741 74.0586 32.0107 72.5363 32.0107H69.7291C69.1489 32.0107 68.6784 31.5402 68.6784 30.96V28.5141H87.4844V30.96C87.4844 31.5402 87.0139 32.0107 86.4336 32.0107H83.3036C82.2798 32.0107 81.3483 32.6036 80.9147 33.5309L69.3404 58.2825L80.1472 83.6776L99.0571 34.8727C99.584 33.4918 98.5639 32.0112 97.0859 32.0112H92.4109C91.8307 32.0112 91.3602 31.5407 91.3602 30.9605V28.5146H111.584V30.9594H111.582Z" fill="#171717"/>
</g>
<defs>
<clipPath id="clip0_108_104">
<rect width="128" height="128" fill="white"/>
</clipPath>
</defs>
</svg>
