<svg width="94" height="27" viewBox="0 0 94 27" fill="none" xmlns="http://www.w3.org/2000/svg">
<rect width="94" height="27" rx="6" fill="#202121"/>
<path d="M19.5314 13.5585C19.5063 12.0914 20.1701 10.9493 21.5214 10.1317C20.7593 9.0738 19.6353 8.47917 18.1491 8.34623C17.6204 8.29883 16.9445 8.41812 16.1223 8.70712C15.2378 9.02016 14.7399 9.17575 14.6294 9.17575C14.396 9.17575 13.9477 9.0442 13.2834 8.77903C12.6205 8.51454 12.0551 8.38229 11.5881 8.38229C10.802 8.39455 10.0706 8.60192 9.39518 9.00445C8.7195 9.40742 8.17918 9.95789 7.77401 10.6545C7.25744 11.5205 7 12.5547 7 13.7566C7 14.8386 7.18987 15.9204 7.57058 17.0031C7.92683 18.0372 8.38213 18.9449 8.9343 19.7256C9.42521 20.4352 9.85677 20.952 10.2242 21.2771C10.7531 21.7819 11.2929 22.0228 11.8465 21.9983C12.2025 21.9858 12.669 21.8597 13.2466 21.6186C13.7867 21.3913 14.3277 21.277 14.8685 21.277C15.372 21.277 15.8936 21.3907 16.4349 21.6186C17.0365 21.8597 17.5283 21.9798 17.9091 21.9798C18.4743 21.9562 19.0023 21.7215 19.4944 21.2771C19.6656 21.1322 19.8533 20.934 20.0558 20.6815C20.2895 20.3876 20.5139 20.0869 20.7288 19.78C20.9078 19.5154 21.0769 19.2446 21.2357 18.9685C21.406 18.6711 21.5568 18.3638 21.6871 18.0485C21.7479 17.9163 21.8031 17.7813 21.8527 17.643C21.9017 17.5048 21.9508 17.364 22 17.2195C21.5454 17.0276 21.1337 16.7559 20.7653 16.4071C19.9555 15.6388 19.5438 14.6886 19.5314 13.5585ZM17.2089 6.88577C17.8604 6.1041 18.1861 5.26255 18.1861 4.36066V4.18056C18.1861 4.11999 18.1798 4.06011 18.1677 4C17.7129 4.02404 17.231 4.16253 16.7207 4.41453C16.2111 4.66746 15.7905 4.98651 15.4582 5.37052C14.7951 6.12861 14.4631 6.93964 14.4631 7.80546V7.97632C14.4631 8.03088 14.4694 8.08775 14.4815 8.14832C15.5015 8.24428 16.4107 7.82327 17.2089 6.88577Z" fill="white"/>
<path d="M33.2659 18.5432H33.2096L30.8516 13.1776H29V21.8347H30.6137V16.228H30.6887L32.6592 20.6801H33.7909L35.7552 16.228H35.8304V21.8347H37.4628V13.1776H35.6239L33.2659 18.5432ZM56.3239 13.1776H58.1378V21.8348H56.3239V13.1776ZM63.616 14.5537C64.6918 14.5537 65.2606 15.3783 65.2606 16.2662H67V16.0822C67 14.408 65.7177 13.0129 63.6034 13.0129C61.339 13.0129 59.9881 14.4969 59.9881 17.0276V18.0044C59.9881 20.5344 61.3264 22 63.597 22C65.7675 22 67 20.5851 67 19.0126V18.8223H65.2607C65.2607 19.717 64.7043 20.4589 63.6289 20.4589C62.5276 20.4589 61.8269 19.6787 61.8269 18.0104V17.0343C61.8269 15.3718 62.534 14.5537 63.616 14.5537ZM44.4001 18.6444C44.4001 19.8054 43.7183 20.4457 42.7176 20.4457C41.7106 20.4457 41.0289 19.8115 41.0289 18.6444V13.1776H39.2274V18.8982C39.2274 20.7443 40.5407 21.9999 42.7173 21.9999C44.888 21.9999 46.2076 20.7443 46.2076 18.8982V13.1776H44.4001V18.6444ZM52.2087 16.7927L50.9142 16.5013C50.1512 16.3422 49.7508 16.0063 49.7508 15.505C49.7508 14.8394 50.2947 14.4206 51.1709 14.4206C52.1591 14.4206 52.6532 14.9851 52.6968 15.5941H54.3856C54.3669 14.0654 53.0848 13 51.1769 13C49.3694 13 47.9432 13.9452 47.9432 15.6448C47.9432 17.1162 48.9442 17.8007 50.1451 18.0614L51.4271 18.3592C52.2903 18.5558 52.7281 18.8415 52.7281 19.4309C52.7281 20.1036 52.1901 20.5604 51.1832 20.5604C50.1011 20.5604 49.5318 19.9894 49.4821 19.3487H47.7431C47.7685 20.5728 48.5815 21.9999 51.096 21.9999C53.2099 21.9999 54.5175 20.9534 54.5175 19.2531C54.5168 17.6802 53.4597 17.065 52.2087 16.7927Z" fill="white"/>
<path d="M32.0236 8.27675V8.93395H29.6001V8.27675H32.0236ZM29.8321 4.1255V8.93395H29V4.1255H29.8321Z" fill="white"/>
<path d="M33.4425 5.36063V8.93395H32.6402V5.36063H33.4425ZM32.5872 4.42272C32.5872 4.30163 32.627 4.20145 32.7065 4.12219C32.7883 4.04073 32.901 4 33.0447 4C33.1861 4 33.2978 4.04073 33.3795 4.12219C33.4613 4.20145 33.5022 4.30163 33.5022 4.42272C33.5022 4.54161 33.4613 4.64069 33.3795 4.71995C33.2978 4.79921 33.1861 4.83884 33.0447 4.83884C32.901 4.83884 32.7883 4.79921 32.7065 4.71995C32.627 4.64069 32.5872 4.54161 32.5872 4.42272Z" fill="white"/>
<path d="M36.3302 7.96631C36.3302 7.88705 36.3103 7.8155 36.2705 7.75165C36.2307 7.6856 36.1545 7.62616 36.0417 7.57332C35.9312 7.52048 35.7677 7.47204 35.5511 7.42801C35.361 7.38617 35.1864 7.33664 35.0273 7.27939C34.8703 7.21995 34.7355 7.14839 34.6228 7.06473C34.5101 6.98107 34.4228 6.88199 34.3609 6.7675C34.299 6.65302 34.2681 6.52092 34.2681 6.3712C34.2681 6.22589 34.3001 6.08829 34.3642 5.95839C34.4283 5.82849 34.52 5.714 34.6394 5.61493C34.7587 5.51585 34.9035 5.43769 35.0737 5.38045C35.2461 5.32321 35.4384 5.29458 35.6505 5.29458C35.9511 5.29458 36.2086 5.34522 36.423 5.4465C36.6396 5.54557 36.8054 5.68098 36.9203 5.85271C37.0352 6.02224 37.0927 6.21378 37.0927 6.42734H36.2937C36.2937 6.33267 36.2694 6.24461 36.2208 6.16314C36.1744 6.07948 36.1036 6.01233 36.0086 5.96169C35.9136 5.90885 35.7942 5.88243 35.6505 5.88243C35.5135 5.88243 35.3997 5.90445 35.3091 5.94848C35.2207 5.99031 35.1543 6.04535 35.1101 6.11361C35.0681 6.18186 35.0472 6.25672 35.0472 6.33818C35.0472 6.39762 35.0582 6.45156 35.0803 6.5C35.1046 6.54624 35.1444 6.58917 35.1997 6.6288C35.2549 6.66623 35.3301 6.70145 35.4251 6.73448C35.5223 6.7675 35.6439 6.79943 35.7898 6.83025C36.0639 6.88749 36.2992 6.96125 36.4959 7.05152C36.6949 7.13959 36.8474 7.25407 36.9535 7.39498C37.0596 7.53369 37.1126 7.70982 37.1126 7.92338C37.1126 8.0819 37.0783 8.22721 37.0098 8.35931C36.9435 8.48921 36.8463 8.6026 36.7181 8.69947C36.5899 8.79414 36.4363 8.8679 36.2572 8.92074C36.0804 8.97358 35.8815 9 35.6605 9C35.3356 9 35.0604 8.94276 34.835 8.82827C34.6095 8.71158 34.4382 8.56297 34.3211 8.38243C34.2062 8.19969 34.1487 8.01035 34.1487 7.8144H34.9212C34.93 7.96191 34.9709 8.0797 35.0438 8.16777C35.119 8.25363 35.2118 8.31638 35.3223 8.35601C35.435 8.39344 35.5511 8.41215 35.6704 8.41215C35.8141 8.41215 35.9346 8.39344 36.0318 8.35601C36.1291 8.31638 36.2031 8.26354 36.2539 8.19749C36.3048 8.12924 36.3302 8.05218 36.3302 7.96631Z" fill="white"/>
<path d="M39.4565 5.36063V5.94188H37.4342V5.36063H39.4565ZM38.0177 4.48547H38.8167V7.9465C38.8167 8.05658 38.8321 8.14135 38.8631 8.20079C38.8962 8.25804 38.9416 8.29657 38.999 8.31638C39.0565 8.3362 39.1239 8.3461 39.2013 8.3461C39.2565 8.3461 39.3096 8.3428 39.3604 8.3362C39.4112 8.32959 39.4521 8.32299 39.4831 8.31638L39.4864 8.92404C39.4201 8.94386 39.3427 8.96147 39.2543 8.97688C39.1681 8.99229 39.0686 9 38.9559 9C38.7725 9 38.61 8.96808 38.4686 8.90423C38.3271 8.83818 38.2166 8.7314 38.137 8.58388C38.0575 8.43637 38.0177 8.24042 38.0177 7.99604V4.48547Z" fill="white"/>
<path d="M41.6546 9C41.3894 9 41.1496 8.95707 40.9352 8.8712C40.723 8.78314 40.5417 8.66094 40.3915 8.50462C40.2434 8.3483 40.1295 8.16447 40.05 7.9531C39.9704 7.74174 39.9306 7.51387 39.9306 7.26948V7.13738C39.9306 6.85777 39.9715 6.60458 40.0533 6.37781C40.1351 6.15103 40.2489 5.95729 40.3948 5.79657C40.5406 5.63364 40.713 5.50925 40.912 5.42338C41.1109 5.33752 41.3264 5.29458 41.5584 5.29458C41.8148 5.29458 42.0392 5.33752 42.2315 5.42338C42.4237 5.50925 42.5829 5.63034 42.7089 5.78666C42.8371 5.94078 42.9321 6.12461 42.994 6.33818C43.0581 6.55174 43.0901 6.78732 43.0901 7.04491V7.38507H40.3185V6.81374H42.3011V6.75099C42.2967 6.60788 42.2679 6.47358 42.2149 6.34808C42.164 6.22259 42.0856 6.12131 41.9795 6.04425C41.8734 5.9672 41.732 5.92867 41.5551 5.92867C41.4225 5.92867 41.3043 5.95729 41.2004 6.01453C41.0987 6.06957 41.0136 6.14993 40.9451 6.25561C40.8766 6.36129 40.8236 6.48899 40.786 6.63871C40.7506 6.78622 40.7329 6.95244 40.7329 7.13738V7.26948C40.7329 7.4258 40.7539 7.57111 40.7959 7.70542C40.8401 7.83752 40.9042 7.9531 40.9882 8.05218C41.0722 8.15126 41.1739 8.22941 41.2932 8.28666C41.4126 8.3417 41.5485 8.36922 41.701 8.36922C41.8933 8.36922 42.0646 8.33069 42.2149 8.25363C42.3652 8.17657 42.4956 8.06759 42.6061 7.92668L43.0271 8.33289C42.9498 8.44518 42.8492 8.55306 42.7254 8.65654C42.6017 8.75782 42.4503 8.84038 42.2712 8.90423C42.0944 8.96808 41.8889 9 41.6546 9Z" fill="white"/>
<path d="M44.5058 6.12351V8.93395H43.7068V5.36063H44.4594L44.5058 6.12351ZM44.3632 7.01519L44.1046 7.01189C44.1068 6.7587 44.1422 6.52642 44.2107 6.31506C44.2814 6.1037 44.3787 5.92206 44.5025 5.77015C44.6284 5.61823 44.7787 5.50154 44.9533 5.42008C45.1279 5.33642 45.3224 5.29458 45.5368 5.29458C45.7092 5.29458 45.8651 5.3188 46.0043 5.36724C46.1458 5.41347 46.2662 5.48943 46.3657 5.59511C46.4673 5.70079 46.5447 5.8384 46.5977 6.00793C46.6508 6.17525 46.6773 6.38111 46.6773 6.6255V8.93395H45.875V6.62219C45.875 6.45046 45.8496 6.31506 45.7987 6.21598C45.7501 6.11471 45.6783 6.04315 45.5833 6.00132C45.4904 5.95729 45.3744 5.93527 45.2351 5.93527C45.0981 5.93527 44.9754 5.96389 44.8671 6.02114C44.7588 6.07838 44.6671 6.15654 44.592 6.25561C44.519 6.35469 44.4627 6.46918 44.4229 6.59908C44.3831 6.72897 44.3632 6.86768 44.3632 7.01519Z" fill="white"/>
<path d="M49.0312 7.18692V7.11096C49.0312 6.85337 49.0688 6.61449 49.1439 6.39432C49.2191 6.17195 49.3274 5.9793 49.4688 5.81638C49.6125 5.65126 49.7871 5.52356 49.9926 5.43329C50.2004 5.34082 50.4347 5.29458 50.6955 5.29458C50.9585 5.29458 51.1928 5.34082 51.3983 5.43329C51.6061 5.52356 51.7818 5.65126 51.9255 5.81638C52.0691 5.9793 52.1785 6.17195 52.2537 6.39432C52.3288 6.61449 52.3664 6.85337 52.3664 7.11096V7.18692C52.3664 7.44452 52.3288 7.6834 52.2537 7.90357C52.1785 8.12373 52.0691 8.31638 51.9255 8.48151C51.7818 8.64443 51.6072 8.77213 51.4016 8.8646C51.1961 8.95487 50.9629 9 50.7021 9C50.4391 9 50.2037 8.95487 49.9959 8.8646C49.7904 8.77213 49.6158 8.64443 49.4721 8.48151C49.3285 8.31638 49.2191 8.12373 49.1439 7.90357C49.0688 7.6834 49.0312 7.44452 49.0312 7.18692ZM49.8302 7.11096V7.18692C49.8302 7.34764 49.8468 7.49956 49.8799 7.64267C49.9131 7.78578 49.965 7.91127 50.0357 8.01915C50.1065 8.12704 50.1971 8.2118 50.3076 8.27345C50.4181 8.33509 50.5496 8.36592 50.7021 8.36592C50.8502 8.36592 50.9784 8.33509 51.0867 8.27345C51.1972 8.2118 51.2878 8.12704 51.3585 8.01915C51.4293 7.91127 51.4812 7.78578 51.5144 7.64267C51.5497 7.49956 51.5674 7.34764 51.5674 7.18692V7.11096C51.5674 6.95244 51.5497 6.80273 51.5144 6.66182C51.4812 6.51871 51.4282 6.39212 51.3552 6.28203C51.2845 6.17195 51.1939 6.08609 51.0834 6.02444C50.9751 5.96059 50.8458 5.92867 50.6955 5.92867C50.5452 5.92867 50.4148 5.96059 50.3043 6.02444C50.196 6.08609 50.1065 6.17195 50.0357 6.28203C49.965 6.39212 49.9131 6.51871 49.8799 6.66182C49.8468 6.80273 49.8302 6.95244 49.8302 7.11096Z" fill="white"/>
<path d="M53.8285 6.12351V8.93395H53.0295V5.36063H53.782L53.8285 6.12351ZM53.6859 7.01519L53.4273 7.01189C53.4295 6.7587 53.4649 6.52642 53.5334 6.31506C53.6041 6.1037 53.7014 5.92206 53.8251 5.77015C53.9511 5.61823 54.1014 5.50154 54.276 5.42008C54.4506 5.33642 54.6451 5.29458 54.8595 5.29458C55.0319 5.29458 55.1877 5.3188 55.327 5.36724C55.4684 5.41347 55.5889 5.48943 55.6884 5.59511C55.79 5.70079 55.8674 5.8384 55.9204 6.00793C55.9735 6.17525 56 6.38111 56 6.6255V8.93395H55.1977V6.62219C55.1977 6.45046 55.1723 6.31506 55.1214 6.21598C55.0728 6.11471 55.001 6.04315 54.9059 6.00132C54.8131 5.95729 54.6971 5.93527 54.5578 5.93527C54.4208 5.93527 54.2981 5.96389 54.1898 6.02114C54.0815 6.07838 53.9898 6.15654 53.9147 6.25561C53.8417 6.35469 53.7854 6.46918 53.7456 6.59908C53.7058 6.72897 53.6859 6.86768 53.6859 7.01519Z" fill="white"/>
</svg>
