<svg width="94" height="27" viewBox="0 0 94 27" fill="none" xmlns="http://www.w3.org/2000/svg">
<rect width="94" height="27" rx="6" fill="#202121"/>
<path d="M61.0407 16.2113C60.8047 17.4076 60.6259 18.8658 60.5319 19.4686H60.4656C60.39 18.8474 60.2112 17.3966 59.966 16.2205L59.3632 13.2931H57.5271V21.1922H58.6664V14.6812L58.7788 15.2895L59.9365 21.1922H61.0757L62.215 15.2895L62.3366 14.6775V18.5911V21.1922H63.4759V13.2931H61.6214L61.0407 16.2113Z" fill="white"/>
<path d="M66.5581 20.005C66.4549 20.2207 66.2281 20.3719 66.0032 20.3719C65.7396 20.3719 65.6364 20.1654 65.6364 19.6566V15.4204H64.3368V19.7322C64.3368 20.7959 64.6852 21.2862 65.4576 21.2862C65.9848 21.2862 66.4088 21.0503 66.7 20.4862H66.7277L66.8402 21.1922H67.8577V15.4204H66.5581V20.005Z" fill="white"/>
<path d="M70.3703 17.6989C69.9463 17.3874 69.6827 17.1809 69.6827 16.7293C69.6827 16.4085 69.8339 16.2297 70.1915 16.2297C70.5584 16.2297 70.6819 16.4841 70.6911 17.3505L71.7824 17.3026C71.8672 15.8997 71.4063 15.3153 70.2099 15.3153C69.0984 15.3153 68.5527 15.8149 68.5527 16.8399C68.5527 17.7726 69.0043 18.1948 69.7399 18.7515C70.3703 19.2419 70.7372 19.5147 70.7372 19.9092C70.7372 20.2097 70.5491 20.418 70.2192 20.418C69.8339 20.418 69.6071 20.0511 69.6643 19.4114L68.5619 19.4299C68.3923 20.6263 68.8735 21.3231 70.1528 21.3231C71.2736 21.3231 71.8561 20.8051 71.8561 19.7691C71.858 18.8289 71.3879 18.451 70.3703 17.6989Z" fill="white"/>
<path d="M73.8157 15.4204H72.5732V21.1922H73.8157V15.4204Z" fill="white"/>
<path d="M73.2037 13.1419C72.7244 13.1419 72.4976 13.3208 72.4976 13.942C72.4976 14.5817 72.7244 14.742 73.2037 14.742C73.694 14.742 73.9097 14.5817 73.9097 13.942C73.9097 13.3484 73.694 13.1419 73.2037 13.1419Z" fill="white"/>
<path d="M77.9966 19.111L76.8574 19.0538C76.8574 20.0714 76.7449 20.3995 76.3578 20.3995C75.9725 20.3995 75.9062 20.0327 75.9062 18.8363V17.7155C75.9062 16.5578 75.9817 16.191 76.367 16.191C76.7246 16.191 76.8187 16.5394 76.8187 17.6123L77.9487 17.5367C78.0243 16.6426 77.9118 16.0306 77.5634 15.6822C77.309 15.4278 76.9237 15.3061 76.3873 15.3061C75.1264 15.3061 74.6084 15.9845 74.6084 17.8851V18.6944C74.6084 20.6521 75.0508 21.2825 76.3412 21.2825C76.8869 21.2825 77.2629 21.1701 77.5173 20.9249C77.8842 20.5894 78.0243 20.005 77.9966 19.111Z" fill="white"/>
<path d="M33.6436 21.0226C33.3837 20.8475 33.1975 20.5747 33.0887 20.2041C32.9781 19.8336 32.9247 19.3414 32.9247 18.7257V17.8869C32.9247 17.2657 32.9874 16.7661 33.1127 16.3901C33.2381 16.014 33.4335 15.7393 33.7008 15.5661C33.9681 15.3928 34.3183 15.308 34.7515 15.308C35.1792 15.308 35.5202 15.3965 35.7783 15.5716C36.0364 15.7467 36.2244 16.0214 36.3424 16.3956C36.4622 16.7698 36.5212 17.2657 36.5212 17.8888V18.7276C36.5212 19.3433 36.4622 19.8373 36.3461 20.2115C36.23 20.5857 36.0419 20.8586 35.782 21.03C35.5221 21.2033 35.1681 21.2881 34.722 21.2881C34.263 21.2862 33.9035 21.1978 33.6436 21.0226ZM35.1036 20.1193C35.1755 19.9313 35.2124 19.6235 35.2124 19.1958V17.3966C35.2124 16.9818 35.1755 16.6795 35.1036 16.4878C35.0317 16.2961 34.9045 16.2002 34.722 16.2002C34.5469 16.2002 34.4215 16.2961 34.3496 16.4878C34.2778 16.6795 34.2409 16.9818 34.2409 17.3966V19.1958C34.2409 19.6235 34.2759 19.9295 34.3441 20.1193C34.4123 20.3074 34.5377 20.4014 34.7202 20.4014C34.9027 20.4014 35.0299 20.3074 35.1036 20.1193Z" fill="white"/>
<path d="M53.643 18.7386V19.0299C53.643 19.4004 53.6541 19.6788 53.6762 19.8631C53.6983 20.0474 53.7444 20.1839 53.8126 20.2687C53.8808 20.3535 53.9877 20.3959 54.1334 20.3959C54.3269 20.3959 54.4615 20.3203 54.5334 20.1691C54.6053 20.0179 54.644 19.7672 54.6514 19.4151L55.7722 19.4815C55.7777 19.5313 55.7814 19.6013 55.7814 19.688C55.7814 20.2207 55.6358 20.6207 55.3427 20.8844C55.0514 21.148 54.6385 21.2807 54.1039 21.2807C53.4642 21.2807 53.0144 21.0798 52.7582 20.6779C52.5001 20.276 52.3729 19.6548 52.3729 18.8142V17.8058C52.3729 16.9394 52.5056 16.3071 52.7729 15.9089C53.0402 15.5108 53.4955 15.3117 54.1426 15.3117C54.5887 15.3117 54.9297 15.3928 55.1694 15.5568C55.4072 15.7209 55.5749 15.9735 55.6726 16.32C55.7703 16.6647 55.8183 17.1422 55.8183 17.7505V18.7386H53.643ZM53.8071 16.309C53.7407 16.3901 53.6965 16.5246 53.6762 16.709C53.6541 16.8933 53.643 17.1754 53.643 17.5514V17.9662H54.5942V17.5514C54.5942 17.1809 54.5813 16.9007 54.5574 16.709C54.5316 16.5173 54.4873 16.3827 54.4209 16.3034C54.3546 16.2242 54.2532 16.1854 54.1149 16.1854C53.9748 16.1873 53.8735 16.2278 53.8071 16.309Z" fill="white"/>
<path d="M30.4784 18.6298L29 13.2913H30.2904L30.8084 15.7117C30.9411 16.309 31.037 16.8159 31.0997 17.2362H31.1365C31.1808 16.9357 31.2785 16.4288 31.4278 15.7209L31.9642 13.2913H33.2546L31.7578 18.6298V21.1904H30.4766V18.6298H30.4784Z" fill="white"/>
<path d="M40.715 15.4204V21.1922H39.6974L39.585 20.4862H39.5573C39.2808 21.0189 38.8661 21.2862 38.3149 21.2862C37.9314 21.2862 37.6494 21.1609 37.4669 20.9102C37.2844 20.6595 37.1941 20.2668 37.1941 19.7322V15.4204H38.4937V19.6585C38.4937 19.9166 38.5213 20.0991 38.5785 20.2097C38.6356 20.3203 38.7296 20.3737 38.8605 20.3737C38.973 20.3737 39.0817 20.3387 39.185 20.2705C39.2882 20.2023 39.3656 20.1138 39.4154 20.0069V15.4204H40.715Z" fill="white"/>
<path d="M47.3809 15.4204V21.1922H46.3633L46.2508 20.4862H46.2232C45.9467 21.0189 45.5319 21.2862 44.9807 21.2862C44.5973 21.2862 44.3152 21.1609 44.1327 20.9102C43.9502 20.6595 43.8599 20.2668 43.8599 19.7322V15.4204H45.1595V19.6585C45.1595 19.9166 45.1872 20.0991 45.2443 20.2097C45.3015 20.3203 45.3955 20.3737 45.5264 20.3737C45.6388 20.3737 45.7476 20.3387 45.8508 20.2705C45.9541 20.2023 46.0315 20.1138 46.0813 20.0069V15.4204H47.3809Z" fill="white"/>
<path d="M44.247 14.3365H42.9566V21.1922H41.6847V14.3365H40.3943V13.2913H44.247V14.3365Z" fill="white"/>
<path d="M51.6816 16.3421C51.6023 15.979 51.4751 15.7154 51.3 15.5513C51.1249 15.3872 50.8816 15.3061 50.5755 15.3061C50.3377 15.3061 50.1147 15.3743 49.9064 15.5089C49.6999 15.6435 49.5395 15.8205 49.4252 16.0417H49.416V13H48.1643V21.1922H49.2372L49.3699 20.6466H49.3976C49.4971 20.842 49.6483 20.995 49.8492 21.1074C50.0502 21.2199 50.2732 21.277 50.5184 21.277C50.9571 21.277 51.2816 21.0742 51.488 20.6705C51.6945 20.265 51.7996 19.6327 51.7996 18.7736V17.8611C51.7996 17.2122 51.7609 16.7071 51.6816 16.3421ZM50.4907 18.6962C50.4907 19.1165 50.4742 19.4465 50.4391 19.6843C50.4041 19.9221 50.347 20.0917 50.264 20.1931C50.1829 20.2945 50.0723 20.3442 49.934 20.3442C49.8271 20.3442 49.7276 20.3184 49.6372 20.2687C49.5469 20.2189 49.4732 20.1433 49.416 20.0419V16.7661C49.4603 16.6094 49.5358 16.4804 49.6428 16.3809C49.7497 16.2813 49.8658 16.2297 49.9912 16.2297C50.1239 16.2297 50.2253 16.2813 50.2972 16.3845C50.3691 16.4878 50.4188 16.6629 50.4483 16.9081C50.476 17.1533 50.4907 17.5017 50.4907 17.9533V18.6962Z" fill="white"/>
<path d="M12.7339 15.8944L17.2122 13.4453L12.7339 10.9963V15.8944Z" fill="white"/>
<path d="M14.5037 22.0075C19.2002 22.0075 23.0075 18.2002 23.0075 13.5037C23.0075 8.80726 19.2002 5 14.5037 5C9.80726 5 6 8.80726 6 13.5037C6 18.2002 9.80726 22.0075 14.5037 22.0075Z" fill="#FF0000"/>
<path d="M14.5037 9.44513C16.736 9.44513 18.5624 11.2618 18.5624 13.5037C18.5624 15.7456 16.7456 17.5623 14.5037 17.5623C12.2619 17.5623 10.4451 15.7456 10.4451 13.5037C10.4451 11.2618 12.2715 9.44513 14.5037 9.44513ZM14.5037 9.05859C12.0493 9.05859 10.0586 11.0492 10.0586 13.5037C10.0586 15.9582 12.0493 17.9489 14.5037 17.9489C16.9582 17.9489 18.9489 15.9582 18.9489 13.5037C18.9489 11.0492 16.9582 9.05859 14.5037 9.05859Z" fill="white"/>
<path d="M12.9576 15.7263L16.7263 13.4071L12.9576 11.2812V15.7263Z" fill="white"/>
<path d="M32.0236 8.27675V8.93395H29.6001V8.27675H32.0236ZM29.8321 4.1255V8.93395H29V4.1255H29.8321Z" fill="white"/>
<path d="M33.4425 5.36063V8.93395H32.6402V5.36063H33.4425ZM32.5872 4.42272C32.5872 4.30163 32.627 4.20145 32.7065 4.12219C32.7883 4.04073 32.901 4 33.0447 4C33.1861 4 33.2978 4.04073 33.3795 4.12219C33.4613 4.20145 33.5022 4.30163 33.5022 4.42272C33.5022 4.54161 33.4613 4.64069 33.3795 4.71995C33.2978 4.79921 33.1861 4.83884 33.0447 4.83884C32.901 4.83884 32.7883 4.79921 32.7065 4.71995C32.627 4.64069 32.5872 4.54161 32.5872 4.42272Z" fill="white"/>
<path d="M36.3302 7.96631C36.3302 7.88705 36.3103 7.8155 36.2705 7.75165C36.2307 7.6856 36.1545 7.62616 36.0417 7.57332C35.9312 7.52048 35.7677 7.47204 35.5511 7.42801C35.361 7.38617 35.1864 7.33664 35.0273 7.27939C34.8703 7.21995 34.7355 7.14839 34.6228 7.06473C34.5101 6.98107 34.4228 6.88199 34.3609 6.7675C34.299 6.65302 34.2681 6.52092 34.2681 6.3712C34.2681 6.22589 34.3001 6.08829 34.3642 5.95839C34.4283 5.82849 34.52 5.714 34.6394 5.61493C34.7587 5.51585 34.9035 5.43769 35.0737 5.38045C35.2461 5.32321 35.4384 5.29458 35.6505 5.29458C35.9511 5.29458 36.2086 5.34522 36.423 5.4465C36.6396 5.54557 36.8054 5.68098 36.9203 5.85271C37.0352 6.02224 37.0927 6.21378 37.0927 6.42734H36.2937C36.2937 6.33267 36.2694 6.24461 36.2208 6.16314C36.1744 6.07948 36.1036 6.01233 36.0086 5.96169C35.9136 5.90885 35.7942 5.88243 35.6505 5.88243C35.5135 5.88243 35.3997 5.90445 35.3091 5.94848C35.2207 5.99031 35.1543 6.04535 35.1101 6.11361C35.0681 6.18186 35.0472 6.25672 35.0472 6.33818C35.0472 6.39762 35.0582 6.45156 35.0803 6.5C35.1046 6.54624 35.1444 6.58917 35.1997 6.6288C35.2549 6.66623 35.3301 6.70145 35.4251 6.73448C35.5223 6.7675 35.6439 6.79943 35.7898 6.83025C36.0639 6.88749 36.2992 6.96125 36.4959 7.05152C36.6949 7.13959 36.8474 7.25407 36.9535 7.39498C37.0596 7.53369 37.1126 7.70982 37.1126 7.92338C37.1126 8.0819 37.0783 8.22721 37.0098 8.35931C36.9435 8.48921 36.8463 8.6026 36.7181 8.69947C36.5899 8.79414 36.4363 8.8679 36.2572 8.92074C36.0804 8.97358 35.8815 9 35.6605 9C35.3356 9 35.0604 8.94276 34.835 8.82827C34.6095 8.71158 34.4382 8.56297 34.3211 8.38243C34.2062 8.19969 34.1487 8.01035 34.1487 7.8144H34.9212C34.93 7.96191 34.9709 8.0797 35.0438 8.16777C35.119 8.25363 35.2118 8.31638 35.3223 8.35601C35.435 8.39344 35.5511 8.41215 35.6704 8.41215C35.8141 8.41215 35.9346 8.39344 36.0318 8.35601C36.1291 8.31638 36.2031 8.26354 36.2539 8.19749C36.3048 8.12924 36.3302 8.05218 36.3302 7.96631Z" fill="white"/>
<path d="M39.4565 5.36063V5.94188H37.4342V5.36063H39.4565ZM38.0177 4.48547H38.8167V7.9465C38.8167 8.05658 38.8321 8.14135 38.8631 8.20079C38.8962 8.25804 38.9416 8.29657 38.999 8.31638C39.0565 8.3362 39.1239 8.3461 39.2013 8.3461C39.2565 8.3461 39.3096 8.3428 39.3604 8.3362C39.4112 8.32959 39.4521 8.32299 39.4831 8.31638L39.4864 8.92404C39.4201 8.94386 39.3427 8.96147 39.2543 8.97688C39.1681 8.99229 39.0686 9 38.9559 9C38.7725 9 38.61 8.96808 38.4686 8.90423C38.3271 8.83818 38.2166 8.7314 38.137 8.58388C38.0575 8.43637 38.0177 8.24042 38.0177 7.99604V4.48547Z" fill="white"/>
<path d="M41.6546 9C41.3894 9 41.1496 8.95707 40.9352 8.8712C40.723 8.78314 40.5417 8.66094 40.3915 8.50462C40.2434 8.3483 40.1295 8.16447 40.05 7.9531C39.9704 7.74174 39.9306 7.51387 39.9306 7.26948V7.13738C39.9306 6.85777 39.9715 6.60458 40.0533 6.37781C40.1351 6.15103 40.2489 5.95729 40.3948 5.79657C40.5406 5.63364 40.713 5.50925 40.912 5.42338C41.1109 5.33752 41.3264 5.29458 41.5584 5.29458C41.8148 5.29458 42.0392 5.33752 42.2315 5.42338C42.4237 5.50925 42.5829 5.63034 42.7089 5.78666C42.8371 5.94078 42.9321 6.12461 42.994 6.33818C43.0581 6.55174 43.0901 6.78732 43.0901 7.04491V7.38507H40.3185V6.81374H42.3011V6.75099C42.2967 6.60788 42.2679 6.47358 42.2149 6.34808C42.164 6.22259 42.0856 6.12131 41.9795 6.04425C41.8734 5.9672 41.732 5.92867 41.5551 5.92867C41.4225 5.92867 41.3043 5.95729 41.2004 6.01453C41.0987 6.06957 41.0136 6.14993 40.9451 6.25561C40.8766 6.36129 40.8236 6.48899 40.786 6.63871C40.7506 6.78622 40.7329 6.95244 40.7329 7.13738V7.26948C40.7329 7.4258 40.7539 7.57111 40.7959 7.70542C40.8401 7.83752 40.9042 7.9531 40.9882 8.05218C41.0722 8.15126 41.1739 8.22941 41.2932 8.28666C41.4126 8.3417 41.5485 8.36922 41.701 8.36922C41.8933 8.36922 42.0646 8.33069 42.2149 8.25363C42.3652 8.17657 42.4956 8.06759 42.6061 7.92668L43.0271 8.33289C42.9498 8.44518 42.8492 8.55306 42.7254 8.65654C42.6017 8.75782 42.4503 8.84038 42.2712 8.90423C42.0944 8.96808 41.8889 9 41.6546 9Z" fill="white"/>
<path d="M44.5058 6.12351V8.93395H43.7068V5.36063H44.4594L44.5058 6.12351ZM44.3632 7.01519L44.1046 7.01189C44.1068 6.7587 44.1422 6.52642 44.2107 6.31506C44.2814 6.1037 44.3787 5.92206 44.5025 5.77015C44.6284 5.61823 44.7787 5.50154 44.9533 5.42008C45.1279 5.33642 45.3224 5.29458 45.5368 5.29458C45.7092 5.29458 45.8651 5.3188 46.0043 5.36724C46.1458 5.41347 46.2662 5.48943 46.3657 5.59511C46.4673 5.70079 46.5447 5.8384 46.5977 6.00793C46.6508 6.17525 46.6773 6.38111 46.6773 6.6255V8.93395H45.875V6.62219C45.875 6.45046 45.8496 6.31506 45.7987 6.21598C45.7501 6.11471 45.6783 6.04315 45.5833 6.00132C45.4904 5.95729 45.3744 5.93527 45.2351 5.93527C45.0981 5.93527 44.9754 5.96389 44.8671 6.02114C44.7588 6.07838 44.6671 6.15654 44.592 6.25561C44.519 6.35469 44.4627 6.46918 44.4229 6.59908C44.3831 6.72897 44.3632 6.86768 44.3632 7.01519Z" fill="white"/>
<path d="M49.0312 7.18692V7.11096C49.0312 6.85337 49.0688 6.61449 49.1439 6.39432C49.2191 6.17195 49.3274 5.9793 49.4688 5.81638C49.6125 5.65126 49.7871 5.52356 49.9926 5.43329C50.2004 5.34082 50.4347 5.29458 50.6955 5.29458C50.9585 5.29458 51.1928 5.34082 51.3983 5.43329C51.6061 5.52356 51.7818 5.65126 51.9255 5.81638C52.0691 5.9793 52.1785 6.17195 52.2537 6.39432C52.3288 6.61449 52.3664 6.85337 52.3664 7.11096V7.18692C52.3664 7.44452 52.3288 7.6834 52.2537 7.90357C52.1785 8.12373 52.0691 8.31638 51.9255 8.48151C51.7818 8.64443 51.6072 8.77213 51.4016 8.8646C51.1961 8.95487 50.9629 9 50.7021 9C50.4391 9 50.2037 8.95487 49.9959 8.8646C49.7904 8.77213 49.6158 8.64443 49.4721 8.48151C49.3285 8.31638 49.2191 8.12373 49.1439 7.90357C49.0688 7.6834 49.0312 7.44452 49.0312 7.18692ZM49.8302 7.11096V7.18692C49.8302 7.34764 49.8468 7.49956 49.8799 7.64267C49.9131 7.78578 49.965 7.91127 50.0357 8.01915C50.1065 8.12704 50.1971 8.2118 50.3076 8.27345C50.4181 8.33509 50.5496 8.36592 50.7021 8.36592C50.8502 8.36592 50.9784 8.33509 51.0867 8.27345C51.1972 8.2118 51.2878 8.12704 51.3585 8.01915C51.4293 7.91127 51.4812 7.78578 51.5144 7.64267C51.5497 7.49956 51.5674 7.34764 51.5674 7.18692V7.11096C51.5674 6.95244 51.5497 6.80273 51.5144 6.66182C51.4812 6.51871 51.4282 6.39212 51.3552 6.28203C51.2845 6.17195 51.1939 6.08609 51.0834 6.02444C50.9751 5.96059 50.8458 5.92867 50.6955 5.92867C50.5452 5.92867 50.4148 5.96059 50.3043 6.02444C50.196 6.08609 50.1065 6.17195 50.0357 6.28203C49.965 6.39212 49.9131 6.51871 49.8799 6.66182C49.8468 6.80273 49.8302 6.95244 49.8302 7.11096Z" fill="white"/>
<path d="M53.8285 6.12351V8.93395H53.0295V5.36063H53.782L53.8285 6.12351ZM53.6859 7.01519L53.4273 7.01189C53.4295 6.7587 53.4649 6.52642 53.5334 6.31506C53.6041 6.1037 53.7014 5.92206 53.8251 5.77015C53.9511 5.61823 54.1014 5.50154 54.276 5.42008C54.4506 5.33642 54.6451 5.29458 54.8595 5.29458C55.0319 5.29458 55.1877 5.3188 55.327 5.36724C55.4684 5.41347 55.5889 5.48943 55.6884 5.59511C55.79 5.70079 55.8674 5.8384 55.9204 6.00793C55.9735 6.17525 56 6.38111 56 6.6255V8.93395H55.1977V6.62219C55.1977 6.45046 55.1723 6.31506 55.1214 6.21598C55.0728 6.11471 55.001 6.04315 54.9059 6.00132C54.8131 5.95729 54.6971 5.93527 54.5578 5.93527C54.4208 5.93527 54.2981 5.96389 54.1898 6.02114C54.0815 6.07838 53.9898 6.15654 53.9147 6.25561C53.8417 6.35469 53.7854 6.46918 53.7456 6.59908C53.7058 6.72897 53.6859 6.86768 53.6859 7.01519Z" fill="white"/>
</svg>
