<svg width="24" height="24" viewBox="0 0 24 24" fill="none" xmlns="http://www.w3.org/2000/svg">
<g clip-path="url(#clip0_113_2)">
<path d="M13.5 9C12.837 9 12.2011 8.73661 11.7322 8.26777C11.2634 7.79893 11 7.16304 11 6.5C11 5.83696 11.2634 5.20107 11.7322 4.73223C12.2011 4.26339 12.837 4 13.5 4C14.163 4 14.7989 4.26339 15.2678 4.73223C15.7366 5.20107 16 5.83696 16 6.5C16 7.16304 15.7366 7.79893 15.2678 8.26777C14.7989 8.73661 14.163 9 13.5 9Z" fill="#DAF5FF"/>
<path d="M20.4 0H3.6C2.6461 0.00291194 1.73208 0.391524 1.05756 1.08096C0.383048 1.7704 0.00284891 2.70464 0 3.67965V14.5469L4.656 9.78788C5.34204 9.12046 6.25289 8.74823 7.2 8.74823C8.14711 8.74823 9.05796 9.12046 9.744 9.78788L13.1892 13.3289L14.2548 12.2398C14.9311 11.5523 15.8462 11.1664 16.8 11.1664C17.7538 11.1664 18.6689 11.5523 19.3452 12.2398L24 17V3.67965C23.9972 2.70464 23.617 1.7704 22.9424 1.08096C22.2679 0.391524 21.3539 0.00291194 20.4 0V0ZM13.8 8.58586C13.3226 8.58586 12.8648 8.39202 12.5272 8.04699C12.1896 7.70195 12 7.23398 12 6.74603C12 6.25808 12.1896 5.79011 12.5272 5.44508C12.8648 5.10004 13.3226 4.90621 13.8 4.90621C14.2774 4.90621 14.7352 5.10004 15.0728 5.44508C15.4104 5.79011 15.6 6.25808 15.6 6.74603C15.6 7.23398 15.4104 7.70195 15.0728 8.04699C14.7352 8.39202 14.2774 8.58586 13.8 8.58586Z" fill="#99DAF1"/>
<path d="M24 16.7209L19.2637 12.053C18.5756 11.3786 17.6445 11 16.674 11C15.7035 11 14.7724 11.3786 14.0842 12.053L13 13.1216L22.9695 23C23.6313 22.3321 24.0012 21.4356 24 20.5018V16.7209Z" fill="#DAF5FF"/>
<path d="M9.74739 9.05396C9.06111 8.37736 8.14995 8 7.20251 8C6.25507 8 5.3439 8.37736 4.65762 9.05396L0 13.8785V20.2697C0.0028499 21.2581 0.383182 22.2052 1.05793 22.9042C1.73268 23.6031 2.64702 23.997 3.60125 24H20.4071C21.3854 24 22.3218 23.5859 23 22.856L9.74739 9.05396Z" fill="#0995C6"/>
</g>
<defs>
<clipPath id="clip0_113_2">
<rect width="24" height="24" fill="white"/>
</clipPath>
</defs>
</svg>
