<svg width="128" height="128" viewBox="0 0 128 128" fill="none" xmlns="http://www.w3.org/2000/svg">
<path d="M128 0H0V128H128V0Z" fill="#FF0000"/>
<path d="M102 44.5C101 41 98.5001 38.5 95.0001 37.5C89.0001 36 63.5 36 63.5 36C63.5 36 38.5 36 32 37.5C28.5 38.5 26 41 25 44.5C24 51 24 64 24 64C24 64 24 77 25.5 83.5C26.5 87 29 89.5 32.5 90.5C38.5 92 64 92 64 92C64 92 88.9999 92 95.4999 90.5C98.9999 89.5 101.5 87 102.5 83.5C104 77 104 64 104 64C104 64 104 51 102 44.5ZM56 76V52L77 64L56 76Z" fill="white"/>
</svg>
