<svg width="94" height="27" viewBox="0 0 94 27" fill="none" xmlns="http://www.w3.org/2000/svg">
<rect width="94" height="27" rx="6" fill="#202121"/>
<path d="M33.0236 8.27675V8.93395H30.6001V8.27675H33.0236ZM30.8321 4.1255V8.93395H30V4.1255H30.8321Z" fill="white"/>
<path d="M34.4425 5.36063V8.93395H33.6402V5.36063H34.4425ZM33.5872 4.42272C33.5872 4.30163 33.627 4.20145 33.7065 4.12219C33.7883 4.04073 33.901 4 34.0447 4C34.1861 4 34.2978 4.04073 34.3795 4.12219C34.4613 4.20145 34.5022 4.30163 34.5022 4.42272C34.5022 4.54161 34.4613 4.64069 34.3795 4.71995C34.2978 4.79921 34.1861 4.83884 34.0447 4.83884C33.901 4.83884 33.7883 4.79921 33.7065 4.71995C33.627 4.64069 33.5872 4.54161 33.5872 4.42272Z" fill="white"/>
<path d="M37.3302 7.96631C37.3302 7.88705 37.3103 7.8155 37.2705 7.75165C37.2307 7.6856 37.1545 7.62616 37.0417 7.57332C36.9312 7.52048 36.7677 7.47204 36.5511 7.42801C36.361 7.38617 36.1864 7.33664 36.0273 7.27939C35.8703 7.21995 35.7355 7.14839 35.6228 7.06473C35.5101 6.98107 35.4228 6.88199 35.3609 6.7675C35.299 6.65302 35.2681 6.52092 35.2681 6.3712C35.2681 6.22589 35.3001 6.08829 35.3642 5.95839C35.4283 5.82849 35.52 5.714 35.6394 5.61493C35.7587 5.51585 35.9035 5.43769 36.0737 5.38045C36.2461 5.32321 36.4384 5.29458 36.6505 5.29458C36.9511 5.29458 37.2086 5.34522 37.423 5.4465C37.6396 5.54557 37.8054 5.68098 37.9203 5.85271C38.0352 6.02224 38.0927 6.21378 38.0927 6.42734H37.2937C37.2937 6.33267 37.2694 6.24461 37.2208 6.16314C37.1744 6.07948 37.1036 6.01233 37.0086 5.96169C36.9136 5.90885 36.7942 5.88243 36.6505 5.88243C36.5135 5.88243 36.3997 5.90445 36.3091 5.94848C36.2207 5.99031 36.1543 6.04535 36.1101 6.11361C36.0681 6.18186 36.0472 6.25672 36.0472 6.33818C36.0472 6.39762 36.0582 6.45156 36.0803 6.5C36.1046 6.54624 36.1444 6.58917 36.1997 6.6288C36.2549 6.66623 36.3301 6.70145 36.4251 6.73448C36.5223 6.7675 36.6439 6.79943 36.7898 6.83025C37.0639 6.88749 37.2992 6.96125 37.4959 7.05152C37.6949 7.13959 37.8474 7.25407 37.9535 7.39498C38.0596 7.53369 38.1126 7.70982 38.1126 7.92338C38.1126 8.0819 38.0783 8.22721 38.0098 8.35931C37.9435 8.48921 37.8463 8.6026 37.7181 8.69947C37.5899 8.79414 37.4363 8.8679 37.2572 8.92074C37.0804 8.97358 36.8815 9 36.6605 9C36.3356 9 36.0604 8.94276 35.835 8.82827C35.6095 8.71158 35.4382 8.56297 35.3211 8.38243C35.2062 8.19969 35.1487 8.01035 35.1487 7.8144H35.9212C35.93 7.96191 35.9709 8.0797 36.0438 8.16777C36.119 8.25363 36.2118 8.31638 36.3223 8.35601C36.435 8.39344 36.5511 8.41215 36.6704 8.41215C36.8141 8.41215 36.9346 8.39344 37.0318 8.35601C37.1291 8.31638 37.2031 8.26354 37.2539 8.19749C37.3048 8.12924 37.3302 8.05218 37.3302 7.96631Z" fill="white"/>
<path d="M40.4565 5.36063V5.94188H38.4342V5.36063H40.4565ZM39.0177 4.48547H39.8167V7.9465C39.8167 8.05658 39.8321 8.14135 39.8631 8.20079C39.8962 8.25804 39.9416 8.29657 39.999 8.31638C40.0565 8.3362 40.1239 8.3461 40.2013 8.3461C40.2565 8.3461 40.3096 8.3428 40.3604 8.3362C40.4112 8.32959 40.4521 8.32299 40.4831 8.31638L40.4864 8.92404C40.4201 8.94386 40.3427 8.96147 40.2543 8.97688C40.1681 8.99229 40.0686 9 39.9559 9C39.7725 9 39.61 8.96808 39.4686 8.90423C39.3271 8.83818 39.2166 8.7314 39.137 8.58388C39.0575 8.43637 39.0177 8.24042 39.0177 7.99604V4.48547Z" fill="white"/>
<path d="M42.6546 9C42.3894 9 42.1496 8.95707 41.9352 8.8712C41.723 8.78314 41.5417 8.66094 41.3915 8.50462C41.2434 8.3483 41.1295 8.16447 41.05 7.9531C40.9704 7.74174 40.9306 7.51387 40.9306 7.26948V7.13738C40.9306 6.85777 40.9715 6.60458 41.0533 6.37781C41.1351 6.15103 41.2489 5.95729 41.3948 5.79657C41.5406 5.63364 41.713 5.50925 41.912 5.42338C42.1109 5.33752 42.3264 5.29458 42.5584 5.29458C42.8148 5.29458 43.0392 5.33752 43.2315 5.42338C43.4237 5.50925 43.5829 5.63034 43.7089 5.78666C43.8371 5.94078 43.9321 6.12461 43.994 6.33818C44.0581 6.55174 44.0901 6.78732 44.0901 7.04491V7.38507H41.3185V6.81374H43.3011V6.75099C43.2967 6.60788 43.2679 6.47358 43.2149 6.34808C43.164 6.22259 43.0856 6.12131 42.9795 6.04425C42.8734 5.9672 42.732 5.92867 42.5551 5.92867C42.4225 5.92867 42.3043 5.95729 42.2004 6.01453C42.0987 6.06957 42.0136 6.14993 41.9451 6.25561C41.8766 6.36129 41.8236 6.48899 41.786 6.63871C41.7506 6.78622 41.7329 6.95244 41.7329 7.13738V7.26948C41.7329 7.4258 41.7539 7.57111 41.7959 7.70542C41.8401 7.83752 41.9042 7.9531 41.9882 8.05218C42.0722 8.15126 42.1739 8.22941 42.2932 8.28666C42.4126 8.3417 42.5485 8.36922 42.701 8.36922C42.8933 8.36922 43.0646 8.33069 43.2149 8.25363C43.3652 8.17657 43.4956 8.06759 43.6061 7.92668L44.0271 8.33289C43.9498 8.44518 43.8492 8.55306 43.7254 8.65654C43.6017 8.75782 43.4503 8.84038 43.2712 8.90423C43.0944 8.96808 42.8889 9 42.6546 9Z" fill="white"/>
<path d="M45.5058 6.12351V8.93395H44.7068V5.36063H45.4594L45.5058 6.12351ZM45.3632 7.01519L45.1046 7.01189C45.1068 6.7587 45.1422 6.52642 45.2107 6.31506C45.2814 6.1037 45.3787 5.92206 45.5025 5.77015C45.6284 5.61823 45.7787 5.50154 45.9533 5.42008C46.1279 5.33642 46.3224 5.29458 46.5368 5.29458C46.7092 5.29458 46.8651 5.3188 47.0043 5.36724C47.1458 5.41347 47.2662 5.48943 47.3657 5.59511C47.4673 5.70079 47.5447 5.8384 47.5977 6.00793C47.6508 6.17525 47.6773 6.38111 47.6773 6.6255V8.93395H46.875V6.62219C46.875 6.45046 46.8496 6.31506 46.7987 6.21598C46.7501 6.11471 46.6783 6.04315 46.5833 6.00132C46.4904 5.95729 46.3744 5.93527 46.2351 5.93527C46.0981 5.93527 45.9754 5.96389 45.8671 6.02114C45.7588 6.07838 45.6671 6.15654 45.592 6.25561C45.519 6.35469 45.4627 6.46918 45.4229 6.59908C45.3831 6.72897 45.3632 6.86768 45.3632 7.01519Z" fill="white"/>
<path d="M50.0312 7.18692V7.11096C50.0312 6.85337 50.0688 6.61449 50.1439 6.39432C50.2191 6.17195 50.3274 5.9793 50.4688 5.81638C50.6125 5.65126 50.7871 5.52356 50.9926 5.43329C51.2004 5.34082 51.4347 5.29458 51.6955 5.29458C51.9585 5.29458 52.1928 5.34082 52.3983 5.43329C52.6061 5.52356 52.7818 5.65126 52.9255 5.81638C53.0691 5.9793 53.1785 6.17195 53.2537 6.39432C53.3288 6.61449 53.3664 6.85337 53.3664 7.11096V7.18692C53.3664 7.44452 53.3288 7.6834 53.2537 7.90357C53.1785 8.12373 53.0691 8.31638 52.9255 8.48151C52.7818 8.64443 52.6072 8.77213 52.4016 8.8646C52.1961 8.95487 51.9629 9 51.7021 9C51.4391 9 51.2037 8.95487 50.9959 8.8646C50.7904 8.77213 50.6158 8.64443 50.4721 8.48151C50.3285 8.31638 50.2191 8.12373 50.1439 7.90357C50.0688 7.6834 50.0312 7.44452 50.0312 7.18692ZM50.8302 7.11096V7.18692C50.8302 7.34764 50.8468 7.49956 50.8799 7.64267C50.9131 7.78578 50.965 7.91127 51.0357 8.01915C51.1065 8.12704 51.1971 8.2118 51.3076 8.27345C51.4181 8.33509 51.5496 8.36592 51.7021 8.36592C51.8502 8.36592 51.9784 8.33509 52.0867 8.27345C52.1972 8.2118 52.2878 8.12704 52.3585 8.01915C52.4293 7.91127 52.4812 7.78578 52.5144 7.64267C52.5497 7.49956 52.5674 7.34764 52.5674 7.18692V7.11096C52.5674 6.95244 52.5497 6.80273 52.5144 6.66182C52.4812 6.51871 52.4282 6.39212 52.3552 6.28203C52.2845 6.17195 52.1939 6.08609 52.0834 6.02444C51.9751 5.96059 51.8458 5.92867 51.6955 5.92867C51.5452 5.92867 51.4148 5.96059 51.3043 6.02444C51.196 6.08609 51.1065 6.17195 51.0357 6.28203C50.965 6.39212 50.9131 6.51871 50.8799 6.66182C50.8468 6.80273 50.8302 6.95244 50.8302 7.11096Z" fill="white"/>
<path d="M54.8285 6.12351V8.93395H54.0295V5.36063H54.782L54.8285 6.12351ZM54.6859 7.01519L54.4273 7.01189C54.4295 6.7587 54.4649 6.52642 54.5334 6.31506C54.6041 6.1037 54.7014 5.92206 54.8251 5.77015C54.9511 5.61823 55.1014 5.50154 55.276 5.42008C55.4506 5.33642 55.6451 5.29458 55.8595 5.29458C56.0319 5.29458 56.1877 5.3188 56.327 5.36724C56.4684 5.41347 56.5889 5.48943 56.6884 5.59511C56.79 5.70079 56.8674 5.8384 56.9204 6.00793C56.9735 6.17525 57 6.38111 57 6.6255V8.93395H56.1977V6.62219C56.1977 6.45046 56.1723 6.31506 56.1214 6.21598C56.0728 6.11471 56.001 6.04315 55.9059 6.00132C55.8131 5.95729 55.6971 5.93527 55.5578 5.93527C55.4208 5.93527 55.2981 5.96389 55.1898 6.02114C55.0815 6.07838 54.9898 6.15654 54.9147 6.25561C54.8417 6.35469 54.7854 6.46918 54.7456 6.59908C54.7058 6.72897 54.6859 6.86768 54.6859 7.01519Z" fill="white"/>
<path d="M14.5 5C9.80566 5 6 8.80565 6 13.5001C6 18.1947 9.80566 22 14.5 22C19.1948 22 23 18.1947 23 13.5001C23 8.80596 19.1948 5.00041 14.4999 5.00041L14.5 5ZM18.398 17.2595C18.2457 17.5093 17.9189 17.5884 17.6692 17.4351C15.6735 16.2161 13.1612 15.94 10.2024 16.616C9.91731 16.681 9.63311 16.5023 9.56815 16.2171C9.50289 15.9319 9.68083 15.6477 9.96664 15.5827C13.2045 14.843 15.9819 15.1615 18.2224 16.5307C18.4721 16.684 18.5512 17.0099 18.398 17.2595ZM19.4384 14.9451C19.2465 15.2569 18.8385 15.3553 18.5269 15.1635C16.2421 13.7591 12.7593 13.3524 10.0569 14.1727C9.7064 14.2786 9.33623 14.0811 9.22985 13.7312C9.12429 13.3807 9.32192 13.0112 9.67179 12.9047C12.7587 11.968 16.5964 12.4217 19.2202 14.0341C19.5317 14.2259 19.6302 14.6339 19.4384 14.9451ZM19.5277 12.535C16.7882 10.9078 12.2684 10.7582 9.65281 11.552C9.2328 11.6794 8.78863 11.4423 8.66134 11.0223C8.53406 10.6021 8.77096 10.1582 9.19128 10.0305C12.1938 9.11899 17.1851 9.2951 20.3391 11.1675C20.7177 11.3918 20.8416 11.8797 20.6172 12.257C20.3939 12.6347 19.9047 12.7593 19.5281 12.535H19.5277Z" fill="#1ED760"/>
<path d="M33.0295 15.5844C31.3687 15.1769 31.0736 14.891 31.0736 14.2901C31.0736 13.7224 31.5927 13.3403 32.3657 13.3403C33.1145 13.3403 33.8565 13.6304 34.6353 14.2277C34.6582 14.2458 34.6881 14.253 34.7168 14.2482C34.7466 14.2437 34.772 14.2273 34.7892 14.2026L35.6001 13.0266C35.6333 12.9781 35.6241 12.9114 35.5794 12.8744C34.6525 12.1095 33.6096 11.7376 32.3898 11.7376C30.5969 11.7376 29.3438 12.8447 29.3438 14.4288C29.3438 16.1275 30.4246 16.729 32.2921 17.1933C33.8806 17.5699 34.1494 17.8854 34.1494 18.4493C34.1494 19.0744 33.6073 19.4632 32.7344 19.4632C31.765 19.4632 30.9736 19.1264 30.0893 18.3394C30.0674 18.3193 30.0375 18.311 30.01 18.3122C29.9801 18.3146 29.9537 18.3287 29.9354 18.3512L29.0257 19.4643C28.9878 19.5116 28.9923 19.5802 29.036 19.6203C30.0651 20.5657 31.3308 21.0644 32.6976 21.0644C34.6295 21.0644 35.878 19.9784 35.878 18.2968C35.8815 16.878 35.0556 16.0922 33.033 15.5859L33.0295 15.5844ZM40.2494 13.8993C39.4122 13.8993 38.7253 14.2387 38.1579 14.9341V14.1513C38.1579 14.0895 38.1097 14.0392 38.0499 14.0392H36.5625C36.5028 14.0392 36.4546 14.0895 36.4546 14.1513V22.8488C36.4546 22.9101 36.5028 22.961 36.5625 22.961H38.0499C38.1097 22.961 38.1579 22.9101 38.1579 22.8488V20.1036C38.7253 20.7571 39.4122 21.0773 40.2494 21.0773C41.8058 21.0773 43.3815 19.8449 43.3815 17.4887C43.3838 15.132 41.8081 13.8992 40.2506 13.8992L40.2494 13.8993ZM41.6519 17.4887C41.6519 18.688 40.934 19.5258 39.9049 19.5258C38.8884 19.5258 38.1211 18.6502 38.1211 17.4887C38.1211 16.3271 38.8884 15.4517 39.9049 15.4517C40.9168 15.4516 41.6519 16.3082 41.6519 17.4887ZM47.4188 13.8993C45.4145 13.8993 43.8445 15.487 43.8445 17.5143C43.8445 19.5199 45.4042 21.0903 47.3947 21.0903C49.4058 21.0903 50.9805 19.5081 50.9805 17.4887C50.9805 15.4761 49.4161 13.8993 47.4188 13.8993ZM47.4188 19.5376C46.3528 19.5376 45.5489 18.6561 45.5489 17.4881C45.5489 16.3148 46.3253 15.4634 47.3947 15.4634C48.4675 15.4634 49.276 16.3446 49.276 17.5137C49.276 18.6868 48.495 19.5376 47.4188 19.5376ZM55.26 14.0392H53.6233V12.3179C53.6233 12.2562 53.575 12.2059 53.5153 12.2059H52.028C51.9683 12.2059 51.9189 12.2562 51.9189 12.3179V14.0392H51.2044C51.1447 14.0392 51.0965 14.0895 51.0965 14.1513V15.4662C51.0965 15.5279 51.1447 15.5784 51.2044 15.5784H51.9189V18.981C51.9189 20.3553 52.5839 21.0525 53.8967 21.0525C54.4296 21.0525 54.8718 20.9391 55.2888 20.6957C55.3232 20.6767 55.3439 20.6389 55.3439 20.5988V19.3462C55.3439 19.3084 55.3243 19.2717 55.2921 19.2517C55.26 19.2304 55.2198 19.2292 55.1865 19.2469C54.9005 19.3946 54.6236 19.4632 54.3136 19.4632C53.8369 19.4632 53.6233 19.2398 53.6233 18.7412V15.5789H55.26C55.3198 15.5789 55.3679 15.5286 55.3679 15.4668V14.152C55.3703 14.0902 55.322 14.0399 55.2612 14.0399L55.26 14.0392ZM60.9615 14.0459V13.8345C60.9615 13.2126 61.1935 12.9353 61.7126 12.9353C62.0228 12.9353 62.272 12.9986 62.5511 13.0943C62.5856 13.1054 62.6212 13.0999 62.6487 13.0787C62.6774 13.0576 62.6936 13.0236 62.6936 12.9877V11.6985C62.6936 11.6492 62.6637 11.6056 62.6165 11.5911C62.3225 11.5009 61.9458 11.4084 61.3808 11.4084C60.0082 11.4084 59.2811 12.2041 59.2811 13.7088V14.0326H58.5667C58.507 14.0326 58.4576 14.0829 58.4576 14.1446V15.4662C58.4576 15.5279 58.507 15.5784 58.5667 15.5784H59.2811V20.8256C59.2811 20.8883 59.3305 20.938 59.3903 20.938H60.8765C60.9373 20.938 60.9857 20.8883 60.9857 20.8256V15.5787H62.3743L64.5013 20.8256C64.2602 21.3764 64.0224 21.4863 63.6985 21.4863C63.4367 21.4863 63.1598 21.4059 62.8784 21.2464C62.852 21.2322 62.8198 21.2298 62.7923 21.2381C62.7636 21.2487 62.7395 21.2699 62.728 21.2983L62.2237 22.4363C62.1997 22.4907 62.2204 22.5533 62.2708 22.5817C62.7969 22.8747 63.2713 23 63.8582 23C64.9562 23 65.5638 22.4729 66.0979 21.0572L68.6775 14.1991C68.6913 14.1646 68.6868 14.1256 68.6661 14.095C68.6466 14.0646 68.6132 14.0463 68.5776 14.0463H67.0293C66.9823 14.0463 66.941 14.0766 66.926 14.1214L65.3398 18.7813L63.6032 14.1184C63.5871 14.075 63.5469 14.0463 63.5021 14.0463H60.9615V14.0459ZM57.656 14.0392H56.1686C56.1088 14.0392 56.0594 14.0895 56.0594 14.1513V20.8256C56.0594 20.8883 56.1088 20.938 56.1686 20.938H57.656C57.7156 20.938 57.765 20.8883 57.765 20.8256V14.1518C57.765 14.09 57.7168 14.0397 57.656 14.0397V14.0392ZM56.9209 11C56.3317 11 55.8538 11.4906 55.8538 12.0967C55.8538 12.7032 56.3317 13.1944 56.9209 13.1944C57.5101 13.1944 57.9867 12.7032 57.9867 12.0967C57.9867 11.4908 57.5089 11 56.9209 11ZM69.9479 16.1853C69.3598 16.1853 68.9015 15.699 68.9015 15.1085C68.9015 14.518 69.3655 14.0262 69.9536 14.0262C70.5416 14.0262 71 14.5123 71 15.1024C71 15.6929 70.5359 16.1853 69.9479 16.1853ZM69.9536 14.1333C69.4172 14.1333 69.0118 14.5717 69.0118 15.1085C69.0118 15.6451 69.4149 16.0776 69.9479 16.0776C70.4842 16.0776 70.8897 15.6396 70.8897 15.1024C70.8897 14.5658 70.4865 14.1333 69.9536 14.1333ZM70.1856 15.2131L70.482 15.6394H70.2315L69.9651 15.2483H69.7365V15.6394H69.5274V14.5093H70.0168C70.2729 14.5093 70.4406 14.6436 70.4406 14.8698C70.4418 15.0551 70.3373 15.1683 70.1867 15.2131H70.1856ZM70.0088 14.7032H69.7365V15.0607H70.0088C70.1442 15.0607 70.2258 14.9922 70.2258 14.8817C70.2258 14.7655 70.1442 14.7032 70.0088 14.7032Z" fill="white"/>
</svg>
