<svg width="94" height="27" viewBox="0 0 94 27" fill="none" xmlns="http://www.w3.org/2000/svg">
<rect width="94" height="27" rx="6" fill="#202121"/>
<path d="M82.4009 16.1325C82.4644 16.4981 82.5704 16.8531 82.581 17.2133C82.6181 18.2942 82.1889 19.338 80.9703 19.5393C80.1756 19.6718 79.5133 19.4227 79.047 18.7764C78.7609 18.3843 78.549 17.9445 78.2894 17.4995C77.9926 17.5895 77.6483 17.6849 77.3198 17.8121C77.2562 17.8332 77.182 17.9869 77.2032 18.0452C77.4151 18.6598 77.2668 19.2585 77.0495 19.8095C76.8482 20.3288 76.4508 20.6996 75.868 20.8745C75.0945 21.1023 74.4375 20.9275 73.86 20.4188C73.6056 20.191 73.4255 19.8784 73.203 19.5923C72.6254 20.493 71.7883 20.9487 70.7075 20.8639C69.6213 20.7791 68.9007 20.1062 68.2967 19.2532C68.3338 19.4174 68.3921 19.5817 68.4027 19.7459C68.4557 20.7632 68.1113 21.5898 67.2529 22.1938C66.7019 22.5805 66.0661 22.6812 65.4409 22.819C64.8051 22.9567 64.1958 22.8614 63.7296 22.411C63.4117 22.1037 63.205 21.6745 62.956 21.2931C62.8553 21.1394 62.7865 20.9699 62.6964 20.795C62.0076 21.399 61.2605 21.5739 60.381 21.2984C59.5386 21.0281 58.9717 20.4559 58.4842 19.73C57.9809 20.8268 57.0537 21.2825 55.9569 21.3778C54.6376 21.4944 53.4508 21.0493 52.37 20.3023C52.211 20.191 52.068 20.0585 51.9037 19.9579C51.8189 19.9049 51.7024 19.8837 51.6017 19.8943C51.2308 19.942 50.8599 20.0744 50.4944 20.0532C50.0493 20.0268 49.6042 19.9049 49.1751 19.7777C49.0214 19.73 48.9208 19.7195 48.8042 19.8148C48.1843 20.3235 47.4266 20.5036 46.669 20.5036C45.8106 20.4983 44.9894 20.2546 44.2635 19.73C43.0873 18.8664 42.4462 17.7061 42.1548 16.3073C41.8899 15.0463 41.9853 13.8118 42.2873 12.572C42.5045 11.6713 42.8118 10.813 43.4582 10.1507C43.9085 9.68443 44.4649 9.30825 45.0106 8.94796C45.3179 8.74663 45.6941 8.65126 46.0332 8.49761C46.0915 8.47112 46.1709 8.40754 46.1762 8.34925C46.3299 7.09355 47.0028 6.15045 48.0094 5.45107C48.5817 5.059 49.2493 4.97952 49.938 5.18616C50.6215 5.38749 51.0613 5.86434 51.4534 6.42067C51.8613 6.99288 51.9991 7.66047 52.1474 8.32276C52.2269 8.67245 52.2746 9.02214 52.3329 9.36123C53.0852 9.20228 53.8482 9.01684 54.6112 8.87909C55.39 8.74133 56.1636 8.85259 56.9159 9.04863C57.006 8.65126 57.0908 8.28038 57.1755 7.91479C57.4034 6.9346 57.9915 6.34119 58.9929 6.12396C59.5545 5.9968 60.0631 6.13985 60.5824 6.28291C60.8102 6.34649 60.9162 6.3253 61.0115 6.06568C61.25 5.39809 61.6685 4.85766 62.2884 4.48678C62.7388 4.21656 63.152 3.88807 63.6183 3.65494C63.9627 3.4854 64.3601 3.36883 64.7415 3.35294C65.229 3.32645 65.7111 3.44831 66.082 3.798C66.8927 3.21518 67.7881 2.90788 68.7418 3.02444C70.6704 3.26287 71.836 4.38081 72.2546 6.22463C72.2758 6.3253 72.297 6.43126 72.3128 6.53193C72.3605 6.82864 72.4612 7.00878 72.8162 7.12004C73.4043 7.30548 73.8017 7.79823 74.0984 8.33866C74.1249 8.38634 74.1461 8.42873 74.1885 8.5188C75.0839 8.13732 75.9846 7.79823 76.8482 7.37436C77.5211 7.04057 78.2152 6.73856 78.9516 6.69088C79.5398 6.64849 80.1332 6.84453 80.5464 7.33727C80.6948 7.51212 80.8114 7.71875 80.9491 7.92539C81.3465 7.69756 81.7598 7.40085 82.2207 7.22071C82.7717 6.99818 83.3598 6.77035 83.9427 6.73327C84.8858 6.67498 85.7494 7.13594 85.9613 8.26978C86.1097 9.05923 85.8183 9.71622 85.3096 10.2778C84.6791 10.9825 84.2235 11.7826 83.8897 12.6568C83.8526 12.7469 83.8367 12.8846 83.8844 12.9588C84.2076 13.478 84.2765 14.0132 84.1069 14.6013C83.9215 15.2371 83.434 15.5762 82.9095 15.8888C82.7452 15.9841 82.5651 16.053 82.4009 16.1325ZM55.7927 14.2834C55.194 13.8171 54.5794 13.4356 53.88 13.229C52.8468 12.9217 52.015 13.335 51.6388 14.3417C51.554 14.5642 51.4957 14.7973 51.4745 15.0304C51.2732 17.2027 53.0534 19.4227 55.2258 19.6771C56.4073 19.8148 56.9477 19.4227 57.1543 18.3207C57.2815 17.6531 57.2391 16.9908 57.0749 16.3126C57.8007 16.0742 58.516 15.8411 59.2472 15.6027C59.2737 15.7351 59.2896 15.8305 59.3108 15.9206C59.5174 16.8584 59.7081 17.7962 59.9466 18.7234C60.079 19.2479 60.4976 19.5499 60.9956 19.7248C61.2605 19.8148 61.4566 19.693 61.499 19.4174C61.5308 19.2373 61.5255 19.0466 61.5043 18.8664C61.4195 18.2041 61.3135 17.5418 61.2288 16.8796C61.1546 16.2596 61.1016 15.6397 61.038 15.0145C61.5255 14.8556 61.9864 14.7072 62.458 14.5536C62.4845 14.6384 62.5057 14.7072 62.5268 14.7708C62.8341 15.8517 63.115 16.9431 63.4488 18.0187C63.772 19.0413 64.1852 20.0321 64.7309 20.9646C64.8316 21.1341 64.9482 21.203 65.1389 21.1553C65.4197 21.0864 65.7164 21.0493 65.9814 20.9434C66.6595 20.6837 66.8715 20.1857 66.6224 19.5022C66.4794 19.1048 66.3098 18.7181 66.1562 18.326C65.8595 17.563 65.5681 16.8001 65.2714 16.0265C67.4649 15.2212 69.2027 13.9549 70.0558 11.6925C70.4584 11.8991 70.7445 11.7137 70.9883 11.4541C71.534 10.866 72.0638 10.2672 72.5937 9.66854C72.636 9.62085 72.6731 9.54667 72.6837 9.4831C72.7261 9.23937 72.4559 8.80491 72.1857 8.66715C71.942 8.53999 71.7406 8.59828 71.481 8.8473C71.2055 9.11751 70.9247 9.37713 70.6439 9.64204C70.6492 9.59436 70.6598 9.53608 70.6651 9.4778C70.8187 8.56649 70.8876 7.66047 70.681 6.74916C70.5008 5.95441 70.1511 5.27093 69.367 4.90535C68.4663 4.48148 67.6503 4.69341 66.9033 5.28682C65.9814 6.01799 65.3297 6.96639 64.8051 8.00486C64.768 8.08434 64.7256 8.16381 64.6886 8.24329C64.6886 7.94658 64.7415 7.67107 64.7839 7.39556C64.8846 6.72797 65.0012 6.06038 65.07 5.38749C65.1071 5.0378 64.9323 4.91594 64.6144 5.0537C63.5282 5.53055 62.5586 6.12926 62.3255 7.42735C62.2937 7.59159 62.246 7.75054 62.2195 7.91479C61.997 9.24467 62.0182 10.5798 62.0924 11.9203C62.1189 12.4184 62.1931 12.9164 62.246 13.4303C61.8222 13.5522 61.4036 13.6794 60.9638 13.8065C60.9426 13.4674 60.9215 13.1707 60.9109 12.8687C60.8526 11.4329 60.7837 10.0023 61.0221 8.57178C61.0327 8.49231 60.9903 8.37575 60.9268 8.32276C60.4976 7.96248 60.0048 7.74525 59.4326 7.74525C59.1677 7.74525 58.9611 7.86711 58.8763 8.11613C58.7862 8.38104 58.675 8.65656 58.675 8.92677C58.675 9.85928 58.6909 10.7918 58.7544 11.719C58.8074 12.5349 58.9399 13.3456 59.0247 14.1615C59.0353 14.241 58.9929 14.3787 58.9452 14.3946C58.3783 14.5748 57.806 14.739 57.1755 14.9298C57.2497 14.792 57.308 14.7125 57.3398 14.6278C57.5464 14.1244 57.8113 13.637 57.9385 13.1124C58.2405 11.8514 57.6259 10.8924 56.4073 10.6275C56.243 10.5904 56.0788 10.5745 55.9092 10.5587C54.6641 10.4368 53.4879 10.707 52.3647 11.2156C51.7342 11.5018 51.1249 11.8303 50.4838 12.1534C50.5208 11.6236 50.5526 11.0938 50.5897 10.564C50.6586 9.65264 50.6215 8.75193 50.3036 7.883C50.1606 7.49093 49.9486 7.13594 49.6042 6.87632C49.4188 6.73327 49.2228 6.71207 49.0108 6.81274C48.3803 7.09885 47.8081 8.12672 47.8929 8.81021C47.9565 9.31355 48.0147 9.81689 48.0836 10.3573C47.9777 10.2884 47.9035 10.2408 47.8346 10.1984C47.5485 10.0182 47.2306 9.91226 46.9021 9.99703C45.7736 10.299 44.7987 10.8501 44.2794 11.9468C43.633 13.3138 43.5059 14.7602 43.8662 16.2279C44.1099 17.2292 44.6556 18.0505 45.604 18.5432C46.4623 18.983 47.3578 18.8929 48.0571 18.2359C48.4227 17.8915 48.6876 17.4412 48.9896 17.0332C49.0479 16.9537 49.0903 16.8531 49.1592 16.7312C49.3446 17.261 49.3234 17.8597 49.8268 18.1829C50.3301 18.5061 50.8493 18.3737 51.3739 18.1882C51.3633 18.1406 51.3633 18.1141 51.3474 18.0929C50.5579 16.8637 50.3778 15.4914 50.3513 14.0767C50.346 13.8648 50.4202 13.7218 50.5844 13.5787C51.5646 12.7469 52.7144 12.2806 53.9595 12.0422C54.5105 11.9362 55.0668 11.9203 55.6019 12.1429C56.0947 12.3495 56.3543 12.7839 56.2801 13.2767C56.2218 13.6582 56.0417 13.9761 55.7927 14.2834ZM81.7121 10.5375C81.728 10.5587 81.7386 10.5745 81.7545 10.5957C81.6485 10.8077 81.516 11.0143 81.4472 11.2368C81.2935 11.7137 81.1557 12.1905 81.0445 12.678C80.9915 12.9058 81.0657 13.123 81.3359 13.1972C81.6167 13.2767 81.8604 13.1972 81.9982 12.9535C82.083 12.7998 82.1412 12.6303 82.1889 12.4661C82.5121 11.3322 83.042 10.3149 83.8208 9.41952C83.9639 9.25527 84.1175 9.09102 84.2235 8.90028C84.2871 8.78902 84.3294 8.57708 84.2659 8.50291C84.2023 8.41813 83.985 8.38634 83.8685 8.42343C83.4764 8.54529 83.0843 8.68835 82.7188 8.86849C82.3691 9.03804 82.0512 9.26586 81.7174 9.4566C80.9756 9.87517 80.2391 10.299 79.4179 10.5693C78.5119 10.866 78.0721 11.6289 78.2841 12.5667C78.4165 13.1548 78.6655 13.7165 78.8616 14.2887C78.8934 14.384 78.9305 14.4794 78.9887 14.6437C77.5794 14.9457 76.2177 15.2371 74.7925 15.5391C74.5487 14.4582 74.2891 13.4515 74.0984 12.4343C73.9712 11.7402 74.305 11.2739 74.9779 11.0355C75.3859 10.8924 75.7938 10.7547 76.2018 10.6116C76.2707 10.5851 76.3449 10.5745 76.4667 10.5428C76.4032 10.654 76.3661 10.7176 76.329 10.7865C76.0429 11.3428 75.7091 11.8779 75.4865 12.4555C75.3276 12.8687 75.2905 13.3456 75.2746 13.7959C75.264 14.1297 75.4759 14.3099 75.7674 14.3628C76.1117 14.4264 76.3661 14.3205 76.5197 14.0185C76.6204 13.8171 76.684 13.5946 76.7528 13.3774C77.1767 12.0157 77.7224 10.7123 78.7291 9.65794C78.9199 9.4566 79.1 9.22878 79.2378 8.98505C79.3119 8.85259 79.3649 8.60887 79.2907 8.5082C79.2166 8.40754 78.9728 8.38104 78.8192 8.40754C78.5702 8.45522 78.3264 8.55059 78.1039 8.66715C76.6151 9.40362 75.0945 10.0341 73.4838 10.4474C72.5354 10.6858 72.1115 11.2951 72.2175 12.2647C72.2758 12.7734 72.4453 13.2714 72.6202 13.7588C72.848 14.4052 73.1182 15.0304 73.3884 15.7033C72.8745 15.7616 72.387 15.8199 71.8731 15.8782C71.9791 16.2438 72.1539 16.5564 72.4347 16.8107C72.8904 17.2239 73.4202 17.0862 73.9394 17.0014C74.2043 17.5789 74.4587 18.1406 74.7183 18.6969C74.7872 18.8452 74.8666 19.0042 74.9779 19.1207C75.0574 19.2055 75.2163 19.285 75.3117 19.2585C75.4071 19.2373 75.5236 19.0837 75.5342 18.9777C75.5554 18.7181 75.5554 18.4479 75.5077 18.1935C75.4124 17.6955 75.2799 17.2027 75.1633 16.6994C76.5515 16.2702 77.9291 15.8411 79.3066 15.4119C79.3702 15.555 79.4126 15.6715 79.4603 15.7828C79.7358 16.4027 80.006 17.0226 80.3027 17.6319C80.361 17.7485 80.5411 17.8068 80.663 17.8915C80.7372 17.7538 80.8749 17.616 80.8749 17.4836C80.8643 17.1551 80.8114 16.8213 80.7425 16.4928C80.6418 16.0159 80.5199 15.5391 80.4034 15.0622C80.7266 14.9404 81.0286 14.845 81.32 14.7231C81.6644 14.5748 82.0035 14.4052 82.3373 14.2251C82.4167 14.1827 82.4538 14.0661 82.5121 13.9814C82.422 13.9496 82.3267 13.8754 82.2366 13.886C81.8869 13.9178 81.5372 13.9655 81.1928 14.0291C80.859 14.0873 80.5305 14.1774 80.1385 14.2622C80.0113 13.5575 79.8683 12.8899 79.7835 12.2117C79.7358 11.825 79.9053 11.4647 80.255 11.2686C80.7319 11.0037 81.2299 10.7812 81.7121 10.5375ZM69.0491 15.7192C69.065 16.6517 69.2504 17.5577 69.7961 18.3472C69.9816 18.6174 70.2253 18.8664 70.4902 19.0572C70.8876 19.3433 71.4704 19.179 71.6982 18.7499C71.7565 18.6333 71.7459 18.4479 71.6929 18.3207C71.5817 18.0293 71.3909 17.7644 71.2956 17.4677C70.93 16.3444 70.7922 15.2053 71.2161 14.0555C71.3009 13.8224 71.2426 13.6847 71.0148 13.5734C70.3631 13.2502 69.7379 13.4674 69.3617 14.1721C69.118 14.6437 69.065 15.1682 69.0491 15.7192Z" fill="url(#paint0_linear_21_358)"/>
<path d="M65.033 14.5642C65.0965 13.8542 65.1442 13.1495 65.229 12.4395C65.425 10.7918 65.8595 9.21286 66.6966 7.76641C66.9192 7.37964 67.1947 7.01935 67.4914 6.69086C67.7616 6.38355 67.9258 6.43124 68.0795 6.80742C68.3603 7.4909 68.408 8.21677 68.3338 8.93734C68.1431 10.8024 67.3748 12.4183 66.1191 13.7959C65.833 14.1085 65.4727 14.3522 65.1495 14.6277C65.1071 14.6065 65.07 14.5854 65.033 14.5642Z" fill="url(#paint1_linear_21_358)"/>
<path d="M47.4955 13.7165C47.8452 13.4198 48.1949 13.1178 48.5658 12.7999C48.6452 13.3456 48.7247 13.9072 48.8042 14.4635C48.8095 14.5112 48.7936 14.5695 48.7777 14.6172C48.5817 15.3536 48.285 16.0477 47.8187 16.657C47.1034 17.5842 46.2822 17.4836 45.8583 16.3921C45.3338 15.0357 45.3126 13.6476 45.7471 12.2541C45.763 12.2064 45.7841 12.1535 45.8053 12.1058C45.9431 11.8144 46.0968 11.5071 46.4729 11.5177C46.8491 11.5283 47.0081 11.8303 47.114 12.1323C47.2147 12.4184 47.2783 12.7257 47.3366 13.0224C47.3789 13.2237 47.3895 13.4357 47.416 13.6423C47.4425 13.6741 47.469 13.6953 47.4955 13.7165Z" fill="url(#paint2_linear_21_358)"/>
<path d="M55.3953 17.8598C55.4059 18.6068 55.3158 18.6704 54.7595 18.4903C53.5091 18.0823 52.5289 16.371 52.8362 15.1152C52.868 14.9881 52.9104 14.8609 52.974 14.7497C53.117 14.49 53.3184 14.4265 53.5939 14.5377C53.9701 14.6914 54.2721 14.9457 54.4999 15.2795C55.0562 16.1113 55.3211 17.0279 55.3953 17.8598Z" fill="url(#paint3_linear_21_358)"/>
<path d="M55.8189 14.2939C56.068 13.9866 56.2481 13.6634 56.3011 13.2925C56.3753 12.7997 56.1156 12.3706 55.6229 12.1587C55.0878 11.9361 54.5315 11.952 53.9804 12.058C52.73 12.2964 51.5856 12.7627 50.6054 13.5945C50.4411 13.7323 50.3723 13.8806 50.3723 14.0925C50.3988 15.5072 50.5789 16.8848 51.3684 18.1087C51.3789 18.1299 51.3789 18.1564 51.3948 18.204C50.8756 18.3842 50.3511 18.5219 49.8477 18.1987C49.3444 17.8755 49.3603 17.2821 49.1801 16.747C49.1113 16.8689 49.0742 16.9642 49.0106 17.049C48.7033 17.457 48.4384 17.902 48.0781 18.2517C47.384 18.9087 46.4833 18.9988 45.625 18.559C44.6766 18.0716 44.1308 17.2503 43.8871 16.2437C43.5321 14.776 43.654 13.3296 44.3004 11.9626C44.8196 10.8659 45.7945 10.3148 46.9231 10.0128C47.2516 9.92276 47.5695 10.034 47.8556 10.2142C47.9297 10.2619 47.9986 10.3042 48.1046 10.3731C48.041 9.82739 47.9774 9.32405 47.9138 8.82601C47.8238 8.14252 48.4013 7.10935 49.0318 6.82854C49.2437 6.73317 49.4398 6.75436 49.6252 6.89212C49.9696 7.15174 50.1762 7.50672 50.3246 7.8988C50.6425 8.76772 50.6849 9.66844 50.6107 10.5798C50.5683 11.1096 50.5365 11.6447 50.5047 12.1692C51.1458 11.8461 51.7551 11.5176 52.3856 11.2314C53.5089 10.7228 54.6851 10.4526 55.9302 10.5745C56.0945 10.5903 56.264 10.6115 56.4282 10.6433C57.6416 10.9082 58.2562 11.8672 57.9595 13.1282C57.8376 13.6528 57.5674 14.1402 57.3608 14.6436C57.3237 14.7283 57.2707 14.8078 57.1965 14.9456C57.827 14.7601 58.3992 14.5959 58.9661 14.4104C59.0138 14.3945 59.0562 14.2515 59.0456 14.1773C58.9608 13.3614 58.8337 12.5507 58.7754 11.7348C58.7118 10.8076 58.6959 9.87507 58.6959 8.94257C58.6959 8.67236 58.8072 8.39684 58.8973 8.13193C58.982 7.8829 59.1887 7.76104 59.4536 7.76104C60.0258 7.76104 60.5186 7.97827 60.9477 8.33856C61.006 8.39154 61.0537 8.50811 61.0431 8.58758C60.7994 10.0128 60.8682 11.4487 60.9318 12.8845C60.9424 13.1812 60.9689 13.4779 60.9848 13.8223C61.4246 13.6952 61.8431 13.5733 62.267 13.4461C62.214 12.9269 62.1398 12.4342 62.1133 11.9361C62.0392 10.6009 62.0127 9.26047 62.2405 7.93059C62.267 7.76634 62.32 7.60739 62.3465 7.44314C62.5796 6.14506 63.5492 5.54635 64.6353 5.0695C64.9532 4.93174 65.1281 5.0536 65.091 5.40329C65.0168 6.07618 64.9056 6.74377 64.8049 7.41135C64.7625 7.68687 64.7095 7.96238 64.7095 8.25909C64.7466 8.17961 64.789 8.10014 64.8261 8.02066C65.3506 6.97689 65.997 6.03379 66.9242 5.30262C67.6713 4.70921 68.4872 4.49728 69.3879 4.92114C70.1668 5.28673 70.5218 5.97021 70.7019 6.76496C70.9033 7.67627 70.8344 8.58758 70.686 9.49359C70.6754 9.55188 70.6701 9.61016 70.6648 9.65784C70.9456 9.39293 71.2265 9.12801 71.502 8.86309C71.7616 8.60878 71.9629 8.55579 72.2067 8.68295C72.4769 8.82071 72.7471 9.25517 72.7047 9.49889C72.6941 9.56247 72.657 9.63135 72.6146 9.68433C72.0795 10.283 71.5497 10.8818 71.0092 11.4699C70.7655 11.7348 70.4741 11.9149 70.0767 11.7083C69.2237 13.9707 67.4858 15.237 65.2923 16.0423C65.589 16.8212 65.8805 17.5841 66.1772 18.3418C66.3308 18.7339 66.5004 19.1259 66.6434 19.518C66.8924 20.2015 66.6805 20.6995 66.0023 20.9592C65.7321 21.0651 65.4407 21.1022 65.1599 21.1711C64.9691 21.2188 64.8526 21.1552 64.7519 20.9804C64.2062 20.0479 63.7929 19.0571 63.4697 18.0345C63.1306 16.9589 62.8498 15.8675 62.5478 14.7866C62.5266 14.7177 62.5054 14.6542 62.4789 14.5694C62.0074 14.723 61.5517 14.8714 61.059 15.0303C61.1226 15.6555 61.1702 16.2754 61.2497 16.8954C61.3292 17.5576 61.4405 18.2199 61.5252 18.8822C61.5464 19.0624 61.5517 19.2531 61.5199 19.4332C61.4723 19.7088 61.2762 19.8359 61.0166 19.7405C60.5186 19.5657 60.1053 19.2637 59.9675 18.7392C59.7291 17.812 59.5437 16.8689 59.3317 15.9364C59.3105 15.841 59.2946 15.7509 59.2681 15.6185C58.537 15.8569 57.8217 16.09 57.0958 16.3284C57.2601 17.0119 57.3025 17.6689 57.1753 18.3365C56.9687 19.4385 56.4335 19.8359 55.2467 19.6929C53.0744 19.4332 51.2942 17.2133 51.4955 15.0462C51.5167 14.8131 51.575 14.5747 51.6598 14.3575C52.0359 13.3508 52.8678 12.9375 53.901 13.2448C54.6056 13.4461 55.2202 13.8276 55.8189 14.2939ZM65.0592 14.5747C65.0963 14.5959 65.1334 14.6171 65.1758 14.6383C65.499 14.3628 65.8593 14.119 66.1454 13.8064C67.4011 12.4289 68.1693 10.8129 68.3601 8.94787C68.4342 8.2273 68.3866 7.50143 68.1057 6.81794C67.9521 6.44176 67.7879 6.39408 67.5176 6.70138C67.2209 7.03517 66.9454 7.39546 66.7229 7.77694C65.8858 9.22338 65.4513 10.8023 65.2553 12.4501C65.1705 13.16 65.1228 13.87 65.0592 14.5747ZM47.5218 13.727C47.4953 13.7058 47.4688 13.6846 47.4423 13.6634C47.4158 13.4567 47.4052 13.2448 47.3628 13.0435C47.2992 12.7415 47.241 12.4395 47.1403 12.1534C47.0343 11.8513 46.8754 11.544 46.4992 11.5387C46.123 11.5282 45.9694 11.8355 45.8316 12.1269C45.8104 12.1745 45.7892 12.2222 45.7733 12.2752C45.3389 13.6687 45.3548 15.0568 45.8846 16.4132C46.3085 17.5047 47.1297 17.6053 47.845 16.6781C48.3165 16.0688 48.6079 15.38 48.804 14.6383C48.8199 14.5853 48.8358 14.5323 48.8305 14.4846C48.751 13.923 48.6715 13.3667 48.592 12.8209C48.2211 13.1335 47.8715 13.4302 47.5218 13.727ZM55.4216 17.8702C55.3527 17.0384 55.0825 16.1218 54.5315 15.2953C54.3036 14.9562 54.0016 14.7071 53.6254 14.5535C53.3499 14.4422 53.1486 14.5058 53.0055 14.7654C52.942 14.8767 52.8996 15.0091 52.8678 15.131C52.5605 16.3814 53.5407 18.0981 54.7911 18.506C55.3421 18.6809 55.4322 18.6173 55.4216 17.8702Z" fill="url(#paint4_linear_21_358)"/>
<path d="M81.7383 10.5479C81.2509 10.7916 80.7581 11.0141 80.2866 11.2844C79.9369 11.4857 79.7673 11.846 79.815 12.2275C79.8998 12.9056 80.0429 13.5732 80.17 14.2779C80.5621 14.1878 80.8906 14.1031 81.2244 14.0448C81.5688 13.9812 81.9185 13.9335 82.2681 13.9017C82.3582 13.8911 82.4536 13.9653 82.5437 13.9971C82.4854 14.0819 82.4483 14.1984 82.3688 14.2408C82.035 14.421 81.6959 14.5905 81.3515 14.7389C81.0601 14.866 80.7581 14.9614 80.4349 15.078C80.5515 15.5548 80.6734 16.0264 80.774 16.5085C80.8429 16.8317 80.9012 17.1655 80.9065 17.4993C80.9118 17.6317 80.7687 17.7695 80.6946 17.9073C80.5727 17.8225 80.3925 17.7642 80.3343 17.6476C80.0376 17.0383 79.7673 16.4184 79.4918 15.7985C79.4441 15.6873 79.3965 15.5707 79.3382 15.4276C77.9553 15.8568 76.583 16.2807 75.1949 16.7151C75.3115 17.2238 75.4439 17.7112 75.5393 18.2093C75.587 18.4636 75.587 18.7338 75.5658 18.9934C75.5552 19.0994 75.4386 19.2477 75.3432 19.2742C75.2479 19.3007 75.0889 19.2212 75.0094 19.1365C74.8982 19.0199 74.8187 18.861 74.7498 18.7126C74.4902 18.1563 74.2359 17.5947 73.971 17.0171C73.457 17.0966 72.9219 17.2344 72.4663 16.8264C72.1854 16.5721 72.0106 16.2542 71.9046 15.8939C72.4186 15.8356 72.906 15.7773 73.42 15.719C73.1497 15.0462 72.8795 14.421 72.6517 13.7746C72.4821 13.2871 72.3073 12.7891 72.249 12.2804C72.1431 11.3055 72.5669 10.7015 73.5153 10.4631C75.1313 10.0551 76.6519 9.41935 78.1355 8.68288C78.3633 8.57161 78.607 8.47095 78.8507 8.42326C79.0044 8.39677 79.2481 8.42326 79.3223 8.52393C79.3912 8.6193 79.3435 8.86302 79.2693 9.00078C79.1315 9.2445 78.9514 9.46703 78.7607 9.67366C77.754 10.728 77.2136 12.0314 76.7844 13.3931C76.7155 13.6103 76.6572 13.8328 76.5513 14.0342C76.3976 14.3415 76.1433 14.4422 75.7989 14.3786C75.5128 14.3256 75.2956 14.1454 75.3062 13.8117C75.3221 13.3613 75.3644 12.8897 75.5181 12.4712C75.7353 11.8937 76.0744 11.3585 76.3605 10.8022C76.3976 10.7333 76.4347 10.6697 76.4983 10.5585C76.3764 10.5903 76.3022 10.6062 76.2334 10.6274C75.8254 10.7651 75.4174 10.9029 75.0094 11.0512C74.3366 11.2897 74.0028 11.7506 74.1299 12.45C74.3154 13.4673 74.575 14.4739 74.824 15.5548C76.244 15.2528 77.6109 14.9614 79.0203 14.6594C78.962 14.4951 78.9249 14.3998 78.8931 14.3044C78.6971 13.7322 78.4481 13.1706 78.3156 12.5824C78.1037 11.6446 78.5434 10.8817 79.4494 10.585C80.2707 10.3148 81.0071 9.8909 81.7489 9.47233C82.088 9.28159 82.4059 9.05376 82.7503 8.88422C83.1212 8.70407 83.508 8.56102 83.9 8.43916C84.0219 8.40207 84.2338 8.43386 84.2974 8.51863C84.361 8.59811 84.3186 8.80474 84.255 8.91601C84.1491 9.10674 83.9954 9.27099 83.8523 9.43524C83.0735 10.3254 82.5437 11.3479 82.2205 12.4818C82.1728 12.6513 82.1145 12.8209 82.0297 12.9692C81.892 13.2129 81.6482 13.2924 81.3674 13.2129C81.0972 13.1335 81.0283 12.9162 81.076 12.6937C81.1873 12.2063 81.325 11.7294 81.4787 11.2526C81.5529 11.03 81.68 10.8234 81.786 10.6115C81.7701 10.585 81.7542 10.5691 81.7383 10.5479Z" fill="url(#paint5_linear_21_358)"/>
<path d="M69.0753 15.7297C69.0912 15.1787 69.1389 14.6541 69.3985 14.1773C69.7747 13.4726 70.3946 13.2554 71.0516 13.5786C71.2794 13.6898 71.3377 13.8276 71.2529 14.0607C70.8291 15.2052 70.9668 16.3443 71.3324 17.4728C71.4278 17.7695 71.6185 18.0345 71.7298 18.3259C71.7775 18.453 71.7934 18.6438 71.7351 18.755C71.5126 19.1842 70.9245 19.3431 70.5271 19.0623C70.2622 18.8716 70.0184 18.6226 69.833 18.3524C69.2767 17.5682 69.0912 16.6622 69.0753 15.7297Z" fill="url(#paint6_linear_21_358)"/>
<path d="M12.0236 15.2768V15.9339H9.60007V15.2768H12.0236ZM9.83215 11.1255V15.9339H9V11.1255H9.83215Z" fill="white"/>
<path d="M13.4425 12.3606V15.9339H12.6402V12.3606H13.4425ZM12.5872 11.4227C12.5872 11.3016 12.627 11.2015 12.7065 11.1222C12.7883 11.0407 12.901 11 13.0447 11C13.1861 11 13.2978 11.0407 13.3795 11.1222C13.4613 11.2015 13.5022 11.3016 13.5022 11.4227C13.5022 11.5416 13.4613 11.6407 13.3795 11.7199C13.2978 11.7992 13.1861 11.8388 13.0447 11.8388C12.901 11.8388 12.7883 11.7992 12.7065 11.7199C12.627 11.6407 12.5872 11.5416 12.5872 11.4227Z" fill="white"/>
<path d="M16.3302 14.9663C16.3302 14.8871 16.3103 14.8155 16.2705 14.7517C16.2307 14.6856 16.1545 14.6262 16.0417 14.5733C15.9312 14.5205 15.7677 14.472 15.5511 14.428C15.361 14.3862 15.1864 14.3366 15.0273 14.2794C14.8703 14.2199 14.7355 14.1484 14.6228 14.0647C14.5101 13.9811 14.4228 13.882 14.3609 13.7675C14.299 13.653 14.2681 13.5209 14.2681 13.3712C14.2681 13.2259 14.3001 13.0883 14.3642 12.9584C14.4283 12.8285 14.52 12.714 14.6394 12.6149C14.7587 12.5159 14.9035 12.4377 15.0737 12.3804C15.2461 12.3232 15.4384 12.2946 15.6505 12.2946C15.9511 12.2946 16.2086 12.3452 16.423 12.4465C16.6396 12.5456 16.8054 12.681 16.9203 12.8527C17.0352 13.0222 17.0927 13.2138 17.0927 13.4273H16.2937C16.2937 13.3327 16.2694 13.2446 16.2208 13.1631C16.1744 13.0795 16.1036 13.0123 16.0086 12.9617C15.9136 12.9089 15.7942 12.8824 15.6505 12.8824C15.5135 12.8824 15.3997 12.9044 15.3091 12.9485C15.2207 12.9903 15.1543 13.0454 15.1101 13.1136C15.0681 13.1819 15.0472 13.2567 15.0472 13.3382C15.0472 13.3976 15.0582 13.4516 15.0803 13.5C15.1046 13.5462 15.1444 13.5892 15.1997 13.6288C15.2549 13.6662 15.3301 13.7015 15.4251 13.7345C15.5223 13.7675 15.6439 13.7994 15.7898 13.8303C16.0639 13.8875 16.2992 13.9613 16.4959 14.0515C16.6949 14.1396 16.8474 14.2541 16.9535 14.395C17.0596 14.5337 17.1126 14.7098 17.1126 14.9234C17.1126 15.0819 17.0783 15.2272 17.0098 15.3593C16.9435 15.4892 16.8463 15.6026 16.7181 15.6995C16.5899 15.7941 16.4363 15.8679 16.2572 15.9207C16.0804 15.9736 15.8815 16 15.6605 16C15.3356 16 15.0604 15.9428 14.835 15.8283C14.6095 15.7116 14.4382 15.563 14.3211 15.3824C14.2062 15.1997 14.1487 15.0103 14.1487 14.8144H14.9212C14.93 14.9619 14.9709 15.0797 15.0438 15.1678C15.119 15.2536 15.2118 15.3164 15.3223 15.356C15.435 15.3934 15.5511 15.4122 15.6704 15.4122C15.8141 15.4122 15.9346 15.3934 16.0318 15.356C16.1291 15.3164 16.2031 15.2635 16.2539 15.1975C16.3048 15.1292 16.3302 15.0522 16.3302 14.9663Z" fill="white"/>
<path d="M19.4565 12.3606V12.9419H17.4342V12.3606H19.4565ZM18.0177 11.4855H18.8167V14.9465C18.8167 15.0566 18.8321 15.1413 18.8631 15.2008C18.8962 15.258 18.9416 15.2966 18.999 15.3164C19.0565 15.3362 19.1239 15.3461 19.2013 15.3461C19.2565 15.3461 19.3096 15.3428 19.3604 15.3362C19.4112 15.3296 19.4521 15.323 19.4831 15.3164L19.4864 15.924C19.4201 15.9439 19.3427 15.9615 19.2543 15.9769C19.1681 15.9923 19.0686 16 18.9559 16C18.7725 16 18.61 15.9681 18.4686 15.9042C18.3271 15.8382 18.2166 15.7314 18.137 15.5839C18.0575 15.4364 18.0177 15.2404 18.0177 14.996V11.4855Z" fill="white"/>
<path d="M21.6546 16C21.3894 16 21.1496 15.9571 20.9352 15.8712C20.723 15.7831 20.5417 15.6609 20.3915 15.5046C20.2434 15.3483 20.1295 15.1645 20.05 14.9531C19.9704 14.7417 19.9306 14.5139 19.9306 14.2695V14.1374C19.9306 13.8578 19.9715 13.6046 20.0533 13.3778C20.1351 13.151 20.2489 12.9573 20.3948 12.7966C20.5406 12.6336 20.713 12.5092 20.912 12.4234C21.1109 12.3375 21.3264 12.2946 21.5584 12.2946C21.8148 12.2946 22.0392 12.3375 22.2315 12.4234C22.4237 12.5092 22.5829 12.6303 22.7089 12.7867C22.8371 12.9408 22.9321 13.1246 22.994 13.3382C23.0581 13.5517 23.0901 13.7873 23.0901 14.0449V14.3851H20.3185V13.8137H22.3011V13.751C22.2967 13.6079 22.2679 13.4736 22.2149 13.3481C22.164 13.2226 22.0856 13.1213 21.9795 13.0443C21.8734 12.9672 21.732 12.9287 21.5551 12.9287C21.4225 12.9287 21.3043 12.9573 21.2004 13.0145C21.0987 13.0696 21.0136 13.1499 20.9451 13.2556C20.8766 13.3613 20.8236 13.489 20.786 13.6387C20.7506 13.7862 20.7329 13.9524 20.7329 14.1374V14.2695C20.7329 14.4258 20.7539 14.5711 20.7959 14.7054C20.8401 14.8375 20.9042 14.9531 20.9882 15.0522C21.0722 15.1513 21.1739 15.2294 21.2932 15.2867C21.4126 15.3417 21.5485 15.3692 21.701 15.3692C21.8933 15.3692 22.0646 15.3307 22.2149 15.2536C22.3652 15.1766 22.4956 15.0676 22.6061 14.9267L23.0271 15.3329C22.9498 15.4452 22.8492 15.5531 22.7254 15.6565C22.6017 15.7578 22.4503 15.8404 22.2712 15.9042C22.0944 15.9681 21.8889 16 21.6546 16Z" fill="white"/>
<path d="M24.5058 13.1235V15.9339H23.7068V12.3606H24.4594L24.5058 13.1235ZM24.3632 14.0152L24.1046 14.0119C24.1068 13.7587 24.1422 13.5264 24.2107 13.3151C24.2814 13.1037 24.3787 12.9221 24.5025 12.7701C24.6284 12.6182 24.7787 12.5015 24.9533 12.4201C25.1279 12.3364 25.3224 12.2946 25.5368 12.2946C25.7092 12.2946 25.8651 12.3188 26.0043 12.3672C26.1458 12.4135 26.2662 12.4894 26.3657 12.5951C26.4673 12.7008 26.5447 12.8384 26.5977 13.0079C26.6508 13.1753 26.6773 13.3811 26.6773 13.6255V15.9339H25.875V13.6222C25.875 13.4505 25.8496 13.3151 25.7987 13.216C25.7501 13.1147 25.6783 13.0432 25.5833 13.0013C25.4904 12.9573 25.3744 12.9353 25.2351 12.9353C25.0981 12.9353 24.9754 12.9639 24.8671 13.0211C24.7588 13.0784 24.6671 13.1565 24.592 13.2556C24.519 13.3547 24.4627 13.4692 24.4229 13.5991C24.3831 13.729 24.3632 13.8677 24.3632 14.0152Z" fill="white"/>
<path d="M29.0312 14.1869V14.111C29.0312 13.8534 29.0688 13.6145 29.1439 13.3943C29.2191 13.172 29.3274 12.9793 29.4688 12.8164C29.6125 12.6513 29.7871 12.5236 29.9926 12.4333C30.2004 12.3408 30.4347 12.2946 30.6955 12.2946C30.9585 12.2946 31.1928 12.3408 31.3983 12.4333C31.6061 12.5236 31.7818 12.6513 31.9255 12.8164C32.0691 12.9793 32.1785 13.172 32.2537 13.3943C32.3288 13.6145 32.3664 13.8534 32.3664 14.111V14.1869C32.3664 14.4445 32.3288 14.6834 32.2537 14.9036C32.1785 15.1237 32.0691 15.3164 31.9255 15.4815C31.7818 15.6444 31.6072 15.7721 31.4016 15.8646C31.1961 15.9549 30.9629 16 30.7021 16C30.4391 16 30.2037 15.9549 29.9959 15.8646C29.7904 15.7721 29.6158 15.6444 29.4721 15.4815C29.3285 15.3164 29.2191 15.1237 29.1439 14.9036C29.0688 14.6834 29.0312 14.4445 29.0312 14.1869ZM29.8302 14.111V14.1869C29.8302 14.3476 29.8468 14.4996 29.8799 14.6427C29.9131 14.7858 29.965 14.9113 30.0357 15.0192C30.1065 15.127 30.1971 15.2118 30.3076 15.2734C30.4181 15.3351 30.5496 15.3659 30.7021 15.3659C30.8502 15.3659 30.9784 15.3351 31.0867 15.2734C31.1972 15.2118 31.2878 15.127 31.3585 15.0192C31.4293 14.9113 31.4812 14.7858 31.5144 14.6427C31.5497 14.4996 31.5674 14.3476 31.5674 14.1869V14.111C31.5674 13.9524 31.5497 13.8027 31.5144 13.6618C31.4812 13.5187 31.4282 13.3921 31.3552 13.282C31.2845 13.172 31.1939 13.0861 31.0834 13.0244C30.9751 12.9606 30.8458 12.9287 30.6955 12.9287C30.5452 12.9287 30.4148 12.9606 30.3043 13.0244C30.196 13.0861 30.1065 13.172 30.0357 13.282C29.965 13.3921 29.9131 13.5187 29.8799 13.6618C29.8468 13.8027 29.8302 13.9524 29.8302 14.111Z" fill="white"/>
<path d="M33.8285 13.1235V15.9339H33.0295V12.3606H33.782L33.8285 13.1235ZM33.6859 14.0152L33.4273 14.0119C33.4295 13.7587 33.4649 13.5264 33.5334 13.3151C33.6041 13.1037 33.7014 12.9221 33.8251 12.7701C33.9511 12.6182 34.1014 12.5015 34.276 12.4201C34.4506 12.3364 34.6451 12.2946 34.8595 12.2946C35.0319 12.2946 35.1877 12.3188 35.327 12.3672C35.4684 12.4135 35.5889 12.4894 35.6884 12.5951C35.79 12.7008 35.8674 12.8384 35.9204 13.0079C35.9735 13.1753 36 13.3811 36 13.6255V15.9339H35.1977V13.6222C35.1977 13.4505 35.1723 13.3151 35.1214 13.216C35.0728 13.1147 35.001 13.0432 34.9059 13.0013C34.8131 12.9573 34.6971 12.9353 34.5578 12.9353C34.4208 12.9353 34.2981 12.9639 34.1898 13.0211C34.0815 13.0784 33.9898 13.1565 33.9147 13.2556C33.8417 13.3547 33.7854 13.4692 33.7456 13.5991C33.7058 13.729 33.6859 13.8677 33.6859 14.0152Z" fill="white"/>
<defs>
<linearGradient id="paint0_linear_21_358" x1="64" y1="3" x2="64" y2="22.8772" gradientUnits="userSpaceOnUse">
<stop stop-color="#2F2F2F"/>
<stop offset="1" stop-color="#010101"/>
</linearGradient>
<linearGradient id="paint1_linear_21_358" x1="66.699" y1="6.48914" x2="66.699" y2="14.6277" gradientUnits="userSpaceOnUse">
<stop stop-color="#2F2F2F"/>
<stop offset="1" stop-color="#010101"/>
</linearGradient>
<linearGradient id="paint2_linear_21_358" x1="47.1233" y1="11.5174" x2="47.1233" y2="17.2878" gradientUnits="userSpaceOnUse">
<stop stop-color="#2F2F2F"/>
<stop offset="1" stop-color="#010101"/>
</linearGradient>
<linearGradient id="paint3_linear_21_358" x1="54.0877" y1="14.4853" x2="54.0877" y2="18.5748" gradientUnits="userSpaceOnUse">
<stop stop-color="#2F2F2F"/>
<stop offset="1" stop-color="#010101"/>
</linearGradient>
<linearGradient id="paint4_linear_21_358" x1="58.2002" y1="4.6987" x2="58.2002" y2="21.1864" gradientUnits="userSpaceOnUse">
<stop stop-color="#FBFBFB"/>
<stop offset="1" stop-color="#D0D0D0"/>
</linearGradient>
<linearGradient id="paint5_linear_21_358" x1="78.1167" y1="8.41364" x2="78.1167" y2="19.2794" gradientUnits="userSpaceOnUse">
<stop stop-color="#FBFBFB"/>
<stop offset="1" stop-color="#D0D0D0"/>
</linearGradient>
<linearGradient id="paint6_linear_21_358" x1="70.424" y1="13.4322" x2="70.424" y2="19.2029" gradientUnits="userSpaceOnUse">
<stop stop-color="#FBFBFB"/>
<stop offset="1" stop-color="#D0D0D0"/>
</linearGradient>
</defs>
</svg>
