<svg width="94" height="27" viewBox="0 0 94 27" fill="none" xmlns="http://www.w3.org/2000/svg">
<rect width="94" height="27" rx="6" fill="#202121"/>
<path d="M11.0236 8.27675V8.93395H8.60007V8.27675H11.0236ZM8.83215 4.1255V8.93395H8V4.1255H8.83215Z" fill="white"/>
<path d="M12.4425 5.36063V8.93395H11.6402V5.36063H12.4425ZM11.5872 4.42272C11.5872 4.30163 11.627 4.20145 11.7065 4.12219C11.7883 4.04073 11.901 4 12.0447 4C12.1861 4 12.2978 4.04073 12.3795 4.12219C12.4613 4.20145 12.5022 4.30163 12.5022 4.42272C12.5022 4.54161 12.4613 4.64069 12.3795 4.71995C12.2978 4.79921 12.1861 4.83884 12.0447 4.83884C11.901 4.83884 11.7883 4.79921 11.7065 4.71995C11.627 4.64069 11.5872 4.54161 11.5872 4.42272Z" fill="white"/>
<path d="M15.3302 7.96631C15.3302 7.88705 15.3103 7.8155 15.2705 7.75165C15.2307 7.6856 15.1545 7.62616 15.0417 7.57332C14.9312 7.52048 14.7677 7.47204 14.5511 7.42801C14.361 7.38617 14.1864 7.33664 14.0273 7.27939C13.8703 7.21995 13.7355 7.14839 13.6228 7.06473C13.5101 6.98107 13.4228 6.88199 13.3609 6.7675C13.299 6.65302 13.2681 6.52092 13.2681 6.3712C13.2681 6.22589 13.3001 6.08829 13.3642 5.95839C13.4283 5.82849 13.52 5.714 13.6394 5.61493C13.7587 5.51585 13.9035 5.43769 14.0737 5.38045C14.2461 5.32321 14.4384 5.29458 14.6505 5.29458C14.9511 5.29458 15.2086 5.34522 15.423 5.4465C15.6396 5.54557 15.8054 5.68098 15.9203 5.85271C16.0352 6.02224 16.0927 6.21378 16.0927 6.42734H15.2937C15.2937 6.33267 15.2694 6.24461 15.2208 6.16314C15.1744 6.07948 15.1036 6.01233 15.0086 5.96169C14.9136 5.90885 14.7942 5.88243 14.6505 5.88243C14.5135 5.88243 14.3997 5.90445 14.3091 5.94848C14.2207 5.99031 14.1543 6.04535 14.1101 6.11361C14.0681 6.18186 14.0472 6.25672 14.0472 6.33818C14.0472 6.39762 14.0582 6.45156 14.0803 6.5C14.1046 6.54624 14.1444 6.58917 14.1997 6.6288C14.2549 6.66623 14.3301 6.70145 14.4251 6.73448C14.5223 6.7675 14.6439 6.79943 14.7898 6.83025C15.0639 6.88749 15.2992 6.96125 15.4959 7.05152C15.6949 7.13959 15.8474 7.25407 15.9535 7.39498C16.0596 7.53369 16.1126 7.70982 16.1126 7.92338C16.1126 8.0819 16.0783 8.22721 16.0098 8.35931C15.9435 8.48921 15.8463 8.6026 15.7181 8.69947C15.5899 8.79414 15.4363 8.8679 15.2572 8.92074C15.0804 8.97358 14.8815 9 14.6605 9C14.3356 9 14.0604 8.94276 13.835 8.82827C13.6095 8.71158 13.4382 8.56297 13.3211 8.38243C13.2062 8.19969 13.1487 8.01035 13.1487 7.8144H13.9212C13.93 7.96191 13.9709 8.0797 14.0438 8.16777C14.119 8.25363 14.2118 8.31638 14.3223 8.35601C14.435 8.39344 14.5511 8.41215 14.6704 8.41215C14.8141 8.41215 14.9346 8.39344 15.0318 8.35601C15.1291 8.31638 15.2031 8.26354 15.2539 8.19749C15.3048 8.12924 15.3302 8.05218 15.3302 7.96631Z" fill="white"/>
<path d="M18.4565 5.36063V5.94188H16.4342V5.36063H18.4565ZM17.0177 4.48547H17.8167V7.9465C17.8167 8.05658 17.8321 8.14135 17.8631 8.20079C17.8962 8.25804 17.9416 8.29657 17.999 8.31638C18.0565 8.3362 18.1239 8.3461 18.2013 8.3461C18.2565 8.3461 18.3096 8.3428 18.3604 8.3362C18.4112 8.32959 18.4521 8.32299 18.4831 8.31638L18.4864 8.92404C18.4201 8.94386 18.3427 8.96147 18.2543 8.97688C18.1681 8.99229 18.0686 9 17.9559 9C17.7725 9 17.61 8.96808 17.4686 8.90423C17.3271 8.83818 17.2166 8.7314 17.137 8.58388C17.0575 8.43637 17.0177 8.24042 17.0177 7.99604V4.48547Z" fill="white"/>
<path d="M20.6546 9C20.3894 9 20.1496 8.95707 19.9352 8.8712C19.723 8.78314 19.5417 8.66094 19.3915 8.50462C19.2434 8.3483 19.1295 8.16447 19.05 7.9531C18.9704 7.74174 18.9306 7.51387 18.9306 7.26948V7.13738C18.9306 6.85777 18.9715 6.60458 19.0533 6.37781C19.1351 6.15103 19.2489 5.95729 19.3948 5.79657C19.5406 5.63364 19.713 5.50925 19.912 5.42338C20.1109 5.33752 20.3264 5.29458 20.5584 5.29458C20.8148 5.29458 21.0392 5.33752 21.2315 5.42338C21.4237 5.50925 21.5829 5.63034 21.7089 5.78666C21.8371 5.94078 21.9321 6.12461 21.994 6.33818C22.0581 6.55174 22.0901 6.78732 22.0901 7.04491V7.38507H19.3185V6.81374H21.3011V6.75099C21.2967 6.60788 21.2679 6.47358 21.2149 6.34808C21.164 6.22259 21.0856 6.12131 20.9795 6.04425C20.8734 5.9672 20.732 5.92867 20.5551 5.92867C20.4225 5.92867 20.3043 5.95729 20.2004 6.01453C20.0987 6.06957 20.0136 6.14993 19.9451 6.25561C19.8766 6.36129 19.8236 6.48899 19.786 6.63871C19.7506 6.78622 19.7329 6.95244 19.7329 7.13738V7.26948C19.7329 7.4258 19.7539 7.57111 19.7959 7.70542C19.8401 7.83752 19.9042 7.9531 19.9882 8.05218C20.0722 8.15126 20.1739 8.22941 20.2932 8.28666C20.4126 8.3417 20.5485 8.36922 20.701 8.36922C20.8933 8.36922 21.0646 8.33069 21.2149 8.25363C21.3652 8.17657 21.4956 8.06759 21.6061 7.92668L22.0271 8.33289C21.9498 8.44518 21.8492 8.55306 21.7254 8.65654C21.6017 8.75782 21.4503 8.84038 21.2712 8.90423C21.0944 8.96808 20.8889 9 20.6546 9Z" fill="white"/>
<path d="M23.5058 6.12351V8.93395H22.7068V5.36063H23.4594L23.5058 6.12351ZM23.3632 7.01519L23.1046 7.01189C23.1068 6.7587 23.1422 6.52642 23.2107 6.31506C23.2814 6.1037 23.3787 5.92206 23.5025 5.77015C23.6284 5.61823 23.7787 5.50154 23.9533 5.42008C24.1279 5.33642 24.3224 5.29458 24.5368 5.29458C24.7092 5.29458 24.8651 5.3188 25.0043 5.36724C25.1458 5.41347 25.2662 5.48943 25.3657 5.59511C25.4673 5.70079 25.5447 5.8384 25.5977 6.00793C25.6508 6.17525 25.6773 6.38111 25.6773 6.6255V8.93395H24.875V6.62219C24.875 6.45046 24.8496 6.31506 24.7987 6.21598C24.7501 6.11471 24.6783 6.04315 24.5833 6.00132C24.4904 5.95729 24.3744 5.93527 24.2351 5.93527C24.0981 5.93527 23.9754 5.96389 23.8671 6.02114C23.7588 6.07838 23.6671 6.15654 23.592 6.25561C23.519 6.35469 23.4627 6.46918 23.4229 6.59908C23.3831 6.72897 23.3632 6.86768 23.3632 7.01519Z" fill="white"/>
<path d="M28.0312 7.18692V7.11096C28.0312 6.85337 28.0688 6.61449 28.1439 6.39432C28.2191 6.17195 28.3274 5.9793 28.4688 5.81638C28.6125 5.65126 28.7871 5.52356 28.9926 5.43329C29.2004 5.34082 29.4347 5.29458 29.6955 5.29458C29.9585 5.29458 30.1928 5.34082 30.3983 5.43329C30.6061 5.52356 30.7818 5.65126 30.9255 5.81638C31.0691 5.9793 31.1785 6.17195 31.2537 6.39432C31.3288 6.61449 31.3664 6.85337 31.3664 7.11096V7.18692C31.3664 7.44452 31.3288 7.6834 31.2537 7.90357C31.1785 8.12373 31.0691 8.31638 30.9255 8.48151C30.7818 8.64443 30.6072 8.77213 30.4016 8.8646C30.1961 8.95487 29.9629 9 29.7021 9C29.4391 9 29.2037 8.95487 28.9959 8.8646C28.7904 8.77213 28.6158 8.64443 28.4721 8.48151C28.3285 8.31638 28.2191 8.12373 28.1439 7.90357C28.0688 7.6834 28.0312 7.44452 28.0312 7.18692ZM28.8302 7.11096V7.18692C28.8302 7.34764 28.8468 7.49956 28.8799 7.64267C28.9131 7.78578 28.965 7.91127 29.0357 8.01915C29.1065 8.12704 29.1971 8.2118 29.3076 8.27345C29.4181 8.33509 29.5496 8.36592 29.7021 8.36592C29.8502 8.36592 29.9784 8.33509 30.0867 8.27345C30.1972 8.2118 30.2878 8.12704 30.3585 8.01915C30.4293 7.91127 30.4812 7.78578 30.5144 7.64267C30.5497 7.49956 30.5674 7.34764 30.5674 7.18692V7.11096C30.5674 6.95244 30.5497 6.80273 30.5144 6.66182C30.4812 6.51871 30.4282 6.39212 30.3552 6.28203C30.2845 6.17195 30.1939 6.08609 30.0834 6.02444C29.9751 5.96059 29.8458 5.92867 29.6955 5.92867C29.5452 5.92867 29.4148 5.96059 29.3043 6.02444C29.196 6.08609 29.1065 6.17195 29.0357 6.28203C28.965 6.39212 28.9131 6.51871 28.8799 6.66182C28.8468 6.80273 28.8302 6.95244 28.8302 7.11096Z" fill="white"/>
<path d="M32.8285 6.12351V8.93395H32.0295V5.36063H32.782L32.8285 6.12351ZM32.6859 7.01519L32.4273 7.01189C32.4295 6.7587 32.4649 6.52642 32.5334 6.31506C32.6041 6.1037 32.7014 5.92206 32.8251 5.77015C32.9511 5.61823 33.1014 5.50154 33.276 5.42008C33.4506 5.33642 33.6451 5.29458 33.8595 5.29458C34.0319 5.29458 34.1877 5.3188 34.327 5.36724C34.4684 5.41347 34.5889 5.48943 34.6884 5.59511C34.79 5.70079 34.8674 5.8384 34.9204 6.00793C34.9735 6.17525 35 6.38111 35 6.6255V8.93395H34.1977V6.62219C34.1977 6.45046 34.1723 6.31506 34.1214 6.21598C34.0728 6.11471 34.001 6.04315 33.9059 6.00132C33.8131 5.95729 33.6971 5.93527 33.5578 5.93527C33.4208 5.93527 33.2981 5.96389 33.1898 6.02114C33.0815 6.07838 32.9898 6.15654 32.9147 6.25561C32.8417 6.35469 32.7854 6.46918 32.7456 6.59908C32.7058 6.72897 32.6859 6.86768 32.6859 7.01519Z" fill="white"/>
<path fill-rule="evenodd" clip-rule="evenodd" d="M28.2639 14.2509V13.4559C28.2625 13.404 28.2819 13.3537 28.3178 13.316C28.3537 13.2783 28.4031 13.2563 28.4553 13.2549H31.9668C31.9922 13.2539 32.0175 13.258 32.0413 13.2667C32.0651 13.2755 32.0869 13.2889 32.1056 13.3061C32.1242 13.3233 32.1392 13.344 32.1497 13.367C32.1603 13.39 32.1662 13.4148 32.1671 13.4401C32.1674 13.4444 32.1674 13.4487 32.1674 13.4529V14.1333C32.1248 14.3198 32.0348 14.4923 31.9061 14.6344L30.0835 17.2608C30.7751 17.2223 31.4641 17.3729 32.0793 17.6968C32.1345 17.7279 32.1806 17.7728 32.2131 17.827C32.2455 17.8812 32.2632 17.9429 32.2644 18.006V18.8537C32.2678 18.958 32.1877 19.0449 32.0853 19.0483C32.0582 19.0492 32.0312 19.044 32.0064 19.0331C31.4367 18.7337 30.8022 18.5772 30.1579 18.5772C29.5137 18.5772 28.8791 18.7337 28.3094 19.0331C28.1879 19.0981 28.0604 18.9652 28.0604 18.8476V18.0434C28.0494 17.853 28.0948 17.6637 28.191 17.4988L30.2962 14.4426H28.4735C28.3648 14.4479 28.2721 14.3622 28.2669 14.2512V14.2478L28.2639 14.2509ZM14.019 19.0499C13.9695 19.0479 13.9224 19.0281 13.8864 18.9941C13.8504 18.9602 13.8281 18.9145 13.8234 18.8654V13.2528C13.8238 13.2256 13.8296 13.1988 13.8404 13.1738C13.8513 13.1489 13.867 13.1263 13.8866 13.1074C13.9062 13.0885 13.9294 13.0736 13.9549 13.0637C13.9803 13.0537 14.0074 13.0488 14.0348 13.0493H15.0658C15.117 13.0514 15.1656 13.0719 15.2027 13.1071C15.2398 13.1422 15.2629 13.1895 15.2675 13.2403V13.9724H15.2865C15.3781 13.663 15.5708 13.3928 15.8341 13.2047C16.0974 13.0165 16.4162 12.9212 16.7401 12.9337C17.4307 12.9337 17.8657 13.2621 18.1747 13.9724C18.501 13.1362 19.4485 12.7206 20.2914 13.0442C20.562 13.1479 20.8 13.3214 20.981 13.5469C21.331 14.0192 21.2584 14.7044 21.2584 15.3052V18.8497C21.2575 18.8768 21.2513 18.9035 21.2401 18.9283C21.2289 18.953 21.2129 18.9753 21.193 18.9939C21.1731 19.0125 21.1498 19.0271 21.1243 19.0367C21.0987 19.0463 21.0716 19.0508 21.0443 19.0499H19.9405C19.8881 19.0476 19.8385 19.0257 19.8017 18.9885C19.7649 18.9514 19.7435 18.9018 19.7418 18.8497V15.8745C19.7582 15.5237 19.7478 15.1725 19.7103 14.8233C19.6889 14.6735 19.6087 14.5383 19.4873 14.4473C19.3659 14.3564 19.2132 14.317 19.0627 14.338L19.0607 14.3383C18.9178 14.3429 18.7794 14.3888 18.6623 14.4705C18.5452 14.5522 18.4547 14.6661 18.4017 14.7983C18.3094 15.1492 18.2743 15.5126 18.2977 15.8745V18.8495C18.2973 18.8763 18.2916 18.9027 18.2809 18.9272C18.2702 18.9518 18.2547 18.974 18.2354 18.9926C18.2161 19.0112 18.1932 19.0258 18.1682 19.0356C18.1432 19.0454 18.1165 19.0502 18.0896 19.0498H16.9829C16.9305 19.0474 16.8809 19.0255 16.8441 18.9884C16.8073 18.9513 16.7859 18.9017 16.7842 18.8495V15.8745C16.7842 15.2488 16.8882 14.3258 16.1063 14.3258C15.3243 14.3258 15.3433 15.2238 15.3433 15.8745V18.8495C15.3429 18.8763 15.3372 18.9027 15.3266 18.9273C15.3159 18.9518 15.3005 18.9741 15.2812 18.9927C15.2619 19.0113 15.2391 19.026 15.2141 19.0359C15.1891 19.0458 15.1624 19.0506 15.1355 19.0502C15.1323 19.0502 15.1289 19.0502 15.1257 19.0499H14.019ZM35.0765 12.9327C36.7186 12.9327 37.6029 14.2986 37.6029 16.0359C37.6029 17.718 36.624 19.0502 35.0765 19.0502C33.4661 19.0502 32.5882 17.6813 32.5882 15.9807C32.5882 14.2802 33.4661 12.9327 35.0672 12.9327H35.0765ZM34.2058 15.8124C34.2058 16.4852 34.2058 17.9234 35.0746 17.9234C35.9434 17.9234 35.9817 16.7619 35.9817 16.0552C36.0005 15.5636 35.9447 15.0716 35.8156 14.5958C35.7447 14.2669 35.4324 14.0389 35.0841 14.061C34.2601 14.061 34.2058 15.1395 34.2058 15.8124ZM39.7777 19.0373H38.7576C38.6561 19.0339 38.575 18.9464 38.5734 18.838V13.2333C38.584 13.127 38.6693 13.0474 38.7693 13.0495H39.7191C39.8063 13.0546 39.8809 13.1187 39.9034 13.2084V14.0615H39.9209C40.2131 13.2986 40.6107 12.9343 41.318 12.9343C41.7982 12.9095 42.2541 13.1602 42.5134 13.5913C42.7794 14.0367 42.7794 14.7901 42.7794 15.3319V18.8753C42.7659 18.9785 42.6812 19.0541 42.5835 19.0498H41.5576C41.4647 19.0462 41.3876 18.9732 41.3736 18.8753V15.8426C41.3736 15.2198 41.4404 14.3356 40.7334 14.3356C40.4729 14.35 40.2445 14.5255 40.1489 14.7839C40.0207 15.1216 39.9649 15.4822 39.9852 15.8426V18.8505C39.9805 18.9653 39.8891 19.055 39.7812 19.0501L39.7777 19.0498V19.0373ZM26.5221 18.9584C26.487 18.9883 26.4436 19.0067 26.3976 19.011C26.3517 19.0154 26.3055 19.0055 26.2654 18.9828C26.0174 18.7845 25.8078 18.543 25.6469 18.2699C25.4306 18.5293 25.1562 18.7347 24.8458 18.8696C24.5354 19.0046 24.1975 19.0653 23.8593 19.047C22.9316 19.047 22.2357 18.4903 22.2357 17.3796C22.2162 16.6159 22.6769 15.9202 23.3923 15.6326C23.9798 15.3787 24.8024 15.3266 25.4302 15.2626V15.1216C25.4648 14.8562 25.4184 14.5865 25.2973 14.3476C25.225 14.2544 25.1308 14.1802 25.0229 14.1316C24.9151 14.0831 24.7969 14.0616 24.6788 14.0692C24.2659 14.0359 23.8923 14.3109 23.8066 14.7116C23.801 14.7603 23.7795 14.8058 23.7454 14.8412C23.7114 14.8766 23.6666 14.8999 23.618 14.9075L22.5697 14.7973C22.5195 14.7872 22.4754 14.7577 22.447 14.7153C22.4186 14.6728 22.4082 14.621 22.4182 14.571C22.6593 13.3134 23.8098 12.9342 24.8427 12.9342C25.4311 12.9141 26.0076 13.1028 26.4693 13.4665C26.9951 13.9529 26.9456 14.6016 26.9456 15.3023V16.9697C26.951 17.3396 27.0968 17.6937 27.3537 17.961C27.3907 17.9986 27.4115 18.0491 27.4115 18.1018C27.4115 18.1544 27.3907 18.2049 27.3537 18.2425C27.1311 18.4261 26.7353 18.7625 26.522 18.9554L26.5221 18.9584ZM25.4582 16.3748V16.1525C24.6756 16.1525 23.8528 16.3104 23.8528 17.1827C23.8528 17.6247 24.0932 17.9234 24.5093 17.9234C24.8312 17.9125 25.1205 17.7337 25.261 17.458C25.432 17.124 25.5005 16.7473 25.4582 16.3748ZM12.274 18.9586C12.2389 18.9881 12.1956 19.0063 12.1498 19.0107C12.104 19.015 12.058 19.0054 12.0179 18.9831C11.7715 18.7837 11.5626 18.5423 11.4009 18.2702C11.1856 18.5289 10.9125 18.734 10.6034 18.8689C10.2943 19.0038 9.95771 19.0649 9.62064 19.0472C8.71048 19.0474 8.0009 18.4906 8.0009 17.38C7.9891 17.006 8.09359 16.6375 8.30011 16.3248C8.50663 16.0121 8.80511 15.7705 9.15477 15.6329C9.74105 15.379 10.5585 15.327 11.1879 15.2627V15.1219C11.221 14.8565 11.1748 14.5874 11.0553 14.348C10.9825 14.2556 10.8884 14.182 10.781 14.1335C10.6736 14.0851 10.556 14.0631 10.4382 14.0695C10.24 14.0538 10.0429 14.1103 9.88337 14.2285C9.72389 14.3467 9.61297 14.5185 9.57122 14.7119C9.56573 14.7606 9.54434 14.8061 9.51035 14.8415C9.47636 14.8769 9.43163 14.9002 9.38304 14.9079L8.33412 14.7976C8.28512 14.7861 8.24258 14.756 8.21553 14.7137C8.18848 14.6714 8.17905 14.6203 8.18924 14.5713C8.42974 13.3134 9.5775 12.9342 10.6077 12.9342C11.1961 12.9135 11.7725 13.1023 12.2336 13.4665C12.7613 13.9531 12.7088 14.6017 12.7088 15.3024V16.9698C12.714 17.3396 12.8594 17.6937 13.1161 17.9612C13.1945 18.0365 13.1966 18.1603 13.1207 18.238L13.1161 18.2426C12.8971 18.4262 12.499 18.7628 12.2893 18.9556L12.274 18.9586ZM11.2241 16.1525C10.4424 16.1525 9.61758 16.3104 9.61758 17.1827C9.61758 17.6247 9.86065 17.9234 10.2731 17.9234C10.5933 17.9105 10.8804 17.7316 11.021 17.458C11.1937 17.1245 11.2643 16.748 11.2241 16.375V16.1525ZM22.1454 23.7186C18.7462 23.7375 15.4624 22.4201 12.9361 20.0228C12.7439 19.8432 12.9144 19.5949 13.1438 19.7354C15.9571 21.4252 19.1399 22.3115 22.378 22.3067C24.792 22.2943 27.1797 21.7804 29.405 20.7939C29.7366 20.6404 30.0248 21.0326 29.6871 21.2937C27.6475 22.8752 24.6934 23.7186 22.1454 23.7186ZM30.4963 20.3206C30.231 19.9778 28.7407 20.1572 28.0712 20.2407C27.8659 20.2628 27.8346 20.0835 28.0176 19.9554C29.208 19.11 31.1563 19.3533 31.3836 19.6351C31.6109 19.9171 31.3235 21.8961 30.2089 22.8376C30.0353 22.985 29.8741 22.9049 29.9501 22.7158C30.1996 22.085 30.7614 20.6665 30.4963 20.3206Z" fill="white"/>
<path fill-rule="evenodd" clip-rule="evenodd" d="M64.8301 18.1179C65.0378 17.9743 65.1563 17.7401 65.1448 17.4947C65.1485 17.4121 65.1341 17.3298 65.1026 17.2534C65.071 17.177 65.0232 17.1083 64.9623 17.0522C64.7613 16.897 64.5328 16.7806 64.2888 16.709L63.2753 16.3476C62.3972 16.0466 61.953 15.5048 61.953 14.7552C61.9377 14.2842 62.1618 13.835 62.5546 13.5508C63.0097 13.232 63.5649 13.0718 64.1283 13.0963C64.6442 13.0963 65.156 13.185 65.639 13.3582C65.7167 13.3782 65.7874 13.4188 65.8436 13.4756C65.8861 13.5424 65.9059 13.6203 65.9 13.6983V13.9995C65.9 14.1349 65.8501 14.2041 65.7461 14.2041C65.6527 14.1972 65.5606 14.178 65.4723 14.1469C65.0549 14.0269 64.6226 13.9661 64.1882 13.9663C63.4264 13.9663 63.0423 14.2102 63.0423 14.7039C63.0377 14.791 63.0525 14.878 63.0857 14.9587C63.1189 15.0394 63.1697 15.1118 63.2344 15.1706C63.4618 15.3352 63.7149 15.4613 63.9836 15.5439L64.9277 15.884C65.3046 16.0122 65.6447 16.2291 65.9193 16.5163C66.136 16.7759 66.2481 17.1063 66.234 17.4436C66.2532 17.9429 66.0183 18.4208 65.6046 18.726C65.1157 19.068 64.5188 19.2378 63.9143 19.208C63.3003 19.2162 62.6903 19.1078 62.1171 18.8886C62.0434 18.8629 61.9766 18.8207 61.922 18.7652C61.8821 18.7002 61.8634 18.6245 61.8683 18.5485V18.2297C61.8683 18.0938 61.9157 18.0246 62.01 18.0246C62.1122 18.035 62.2127 18.0583 62.3091 18.0938C62.8375 18.2538 63.3871 18.334 63.9395 18.3317C64.2517 18.353 64.563 18.2773 64.8301 18.115V18.1179ZM59.5841 13.3287C59.5767 13.2745 59.5911 13.2195 59.6242 13.1759C59.6574 13.1322 59.7066 13.1034 59.761 13.0956C59.7797 13.0932 59.7984 13.0932 59.817 13.096H60.5002C60.5271 13.0923 60.5545 13.0939 60.5807 13.1007C60.607 13.1076 60.6316 13.1196 60.6532 13.1359C60.6748 13.1523 60.6929 13.1727 60.7066 13.1961C60.7202 13.2194 60.7291 13.2452 60.7327 13.272C60.7354 13.2909 60.7354 13.3102 60.733 13.3287V18.7939C60.7496 18.9078 60.6718 19.0134 60.5596 19.0299C60.5399 19.033 60.5198 19.033 60.5001 19.0299H60.0005C59.938 19.0332 59.876 19.017 59.8232 18.9834C59.772 18.9379 59.7403 18.8747 59.7343 18.8067L59.6546 18.3966C59.0273 18.9042 58.2479 19.1893 57.4396 19.2071C57.2059 19.2234 56.9714 19.19 56.7516 19.1091C56.5319 19.0283 56.332 18.9018 56.1651 18.7382C55.8529 18.369 55.6949 17.8946 55.7237 17.413V13.3286C55.7164 13.2743 55.7309 13.2193 55.7642 13.1756C55.7974 13.132 55.8466 13.1032 55.9011 13.0955C55.9196 13.093 55.9384 13.0931 55.9568 13.0958H56.64C56.6717 13.0914 56.704 13.0943 56.7344 13.1045C56.7647 13.1146 56.7923 13.1317 56.8149 13.1543C56.8374 13.1769 56.8544 13.2044 56.8644 13.2346C56.8745 13.2649 56.8773 13.2971 56.8726 13.3286V17.0528C56.8457 17.3815 56.9311 17.7096 57.1149 17.9839C57.2115 18.0922 57.3321 18.1766 57.4672 18.2305C57.6022 18.2843 57.748 18.3062 57.8931 18.2942C58.4964 18.2775 59.081 18.0821 59.572 17.7329L59.5841 13.3287ZM53.3497 19.048C53.3227 19.0518 53.2952 19.0503 53.2688 19.0436C53.2423 19.0368 53.2175 19.025 53.1957 19.0087C53.1739 18.9924 53.1556 18.9719 53.1417 18.9485C53.1278 18.9252 53.1188 18.8993 53.115 18.8724C53.1118 18.8525 53.1118 18.8324 53.115 18.8122V15.0187C53.1382 14.7126 53.06 14.4074 52.8925 14.1496C52.8059 14.0515 52.6972 13.9751 52.5754 13.9266C52.4536 13.8781 52.322 13.8587 52.1913 13.8702C51.5806 13.8834 50.9857 14.0662 50.4738 14.3979C50.4788 14.4556 50.4788 14.5139 50.4738 14.5718V18.812C50.4786 18.8439 50.4758 18.8764 50.4657 18.9071C50.4556 18.9377 50.4384 18.9656 50.4156 18.9885C50.3928 19.0113 50.365 19.0286 50.3343 19.0389C50.3036 19.0492 50.2709 19.0523 50.2388 19.0478H49.5503C49.5233 19.0517 49.4958 19.0502 49.4694 19.0434C49.443 19.0367 49.4182 19.0248 49.3964 19.0085C49.3746 18.9922 49.3562 18.9718 49.3423 18.9484C49.3285 18.925 49.3194 18.8991 49.3156 18.8722C49.3124 18.8524 49.3124 18.8322 49.3156 18.812V15.0187C49.3381 14.7131 49.2612 14.4084 49.0962 14.1496C49.0092 14.052 48.9006 13.9759 48.7788 13.9274C48.6571 13.8789 48.5257 13.8593 48.395 13.8702C47.7876 13.8742 47.1944 14.0531 46.687 14.3854V18.8119C46.6952 18.8663 46.6812 18.9217 46.6483 18.9659C46.6154 19.0101 46.5663 19.0395 46.5116 19.0477C46.4929 19.0504 46.4739 19.0504 46.4552 19.0478H45.7634C45.7315 19.0519 45.6991 19.0485 45.6688 19.038C45.6385 19.0275 45.611 19.0101 45.5885 18.9873C45.5661 18.9644 45.5492 18.9367 45.5394 18.9063C45.5295 18.8759 45.5268 18.8436 45.5316 18.812V13.3454C45.5235 13.2919 45.5371 13.2374 45.5692 13.1938C45.6014 13.1502 45.6496 13.121 45.7033 13.1126C45.7232 13.1095 45.7435 13.1095 45.7634 13.1126H46.2822C46.3453 13.1094 46.4078 13.1256 46.4614 13.1591C46.5124 13.2036 46.5444 13.2656 46.551 13.3331L46.619 13.7086C47.2509 13.2336 48.0145 12.9637 48.806 12.9358C49.5315 12.9358 50.0197 13.2119 50.2794 13.7675C50.941 13.2505 51.7521 12.9589 52.5929 12.9358C53.0501 12.9071 53.4983 13.0726 53.8284 13.392C54.1364 13.7534 54.2915 14.2196 54.261 14.6925V18.8119C54.2657 18.8437 54.2629 18.8763 54.2528 18.9069C54.2427 18.9375 54.2256 18.9653 54.2028 18.9882C54.18 19.0111 54.1522 19.0284 54.1215 19.0387C54.0908 19.049 54.0582 19.0521 54.0261 19.0477L53.3497 19.048ZM71.2521 14.54C70.9664 14.8667 70.8234 15.3891 70.8234 16.1071V16.2571C70.8234 16.958 70.9704 17.4814 71.2582 17.7874C71.4378 17.9638 71.6538 18.0992 71.8912 18.1843C72.1286 18.2694 72.3818 18.3021 72.6331 18.2801C72.9861 18.2753 73.3366 18.2209 73.6741 18.1179C73.7311 18.101 73.7896 18.0897 73.8488 18.0842C73.9497 18.0842 73.9988 18.1608 73.9988 18.3138V18.6198C74.0046 18.6963 73.9887 18.7726 73.9528 18.8402C73.9045 18.9 73.8396 18.9434 73.7661 18.966C73.3476 19.1365 72.8985 19.2197 72.4464 19.2106C71.5277 19.2106 70.8387 18.9504 70.355 18.4304C69.8711 17.9097 69.6322 17.1568 69.6322 16.1714C69.6322 15.1858 69.8803 14.4361 70.3795 13.9003C70.6544 13.6252 70.9849 13.4115 71.3492 13.2732C71.7134 13.135 72.1031 13.0754 72.4923 13.0985C72.9104 13.0994 73.3251 13.174 73.7171 13.319C73.7867 13.3395 73.8491 13.3786 73.8977 13.4321C73.9375 13.5029 73.9557 13.5839 73.9497 13.6647V13.9707C73.9497 14.1238 73.8977 14.2004 73.7997 14.2004C73.7363 14.1973 73.6735 14.186 73.613 14.1668C73.3007 14.0754 72.9766 14.029 72.6515 14.029C72.0085 14.0505 71.543 14.2126 71.2552 14.54H71.2521ZM68.2686 13.417C68.379 13.401 68.4816 13.478 68.4972 13.5889C68.4999 13.607 68.5004 13.6256 68.4978 13.644V18.9781C68.5024 19.0092 68.4997 19.041 68.4898 19.0708C68.4799 19.1007 68.4632 19.1279 68.441 19.1502C68.4187 19.1725 68.3916 19.1894 68.3617 19.1994C68.3317 19.2095 68.2999 19.2125 68.2686 19.2082H67.596C67.5696 19.2116 67.5428 19.2097 67.5171 19.2028C67.4915 19.1958 67.4674 19.1839 67.4464 19.1676C67.4253 19.1514 67.4077 19.1312 67.3945 19.1082C67.3813 19.0852 67.3729 19.0599 67.3695 19.0336C67.3669 19.0152 67.367 18.9965 67.3699 18.9781V13.6471C67.3653 13.6164 67.3679 13.585 67.3777 13.5555C67.3874 13.5261 67.4039 13.4992 67.4258 13.4772C67.4478 13.4552 67.4746 13.4385 67.5041 13.4286C67.5337 13.4187 67.5651 13.4158 67.596 13.4201L68.2686 13.417ZM68.4688 11.198C68.7261 11.4992 68.7261 11.9497 68.4688 12.2509C68.3207 12.3786 68.1312 12.4489 67.9352 12.4489C67.7392 12.4489 67.5497 12.3786 67.4016 12.2509C67.1406 11.9516 67.1406 11.4973 67.4016 11.198C67.5497 11.0703 67.7392 11 67.9352 11C68.1312 11 68.3207 11.0703 68.4688 11.198Z" fill="white"/>
</svg>
