<svg width="809" height="388" viewBox="0 0 809 388" fill="none" xmlns="http://www.w3.org/2000/svg">
<path d="M19.5552 232.181V256.625H52.3801V272.129H19.5552V297.97H56.5705V313.894H0V216.257H56.5705V232.181H19.5552Z" fill="#0995C6"/>
<path d="M124.626 313.894L103.116 275.901H93.8967V313.894H74.3415V216.397H110.938C118.48 216.397 124.906 217.747 130.214 220.448C135.521 223.055 139.479 226.64 142.086 231.203C144.787 235.673 146.137 240.701 146.137 246.288C146.137 252.714 144.275 258.534 140.55 263.748C136.825 268.87 131.284 272.409 123.928 274.364L147.255 313.894H124.626ZM93.8967 261.234H110.239C115.547 261.234 119.505 259.977 122.112 257.463C124.719 254.855 126.023 251.27 126.023 246.707C126.023 242.238 124.719 238.792 122.112 236.371C119.505 233.857 115.547 232.6 110.239 232.6H93.8967V261.234Z" fill="#0995C6"/>
<path d="M197.487 314.871C190.689 314.871 184.543 313.707 179.049 311.379C173.648 309.051 169.365 305.699 166.199 301.322C163.033 296.946 161.403 291.778 161.31 285.818H182.262C182.541 289.822 183.938 292.988 186.452 295.316C189.06 297.644 192.598 298.808 197.068 298.808C201.631 298.808 205.216 297.737 207.823 295.595C210.431 293.361 211.734 290.474 211.734 286.935C211.734 284.049 210.85 281.674 209.08 279.812C207.311 277.949 205.076 276.506 202.376 275.482C199.768 274.364 196.137 273.154 191.481 271.85C185.149 269.987 179.98 268.172 175.976 266.402C172.065 264.54 168.666 261.793 165.78 258.161C162.986 254.436 161.589 249.501 161.589 243.355C161.589 237.582 163.033 232.553 165.919 228.27C168.806 223.986 172.857 220.727 178.071 218.492C183.286 216.164 189.246 215 195.951 215C206.008 215 214.156 217.468 220.395 222.403C226.727 227.245 230.219 234.043 230.871 242.796H209.36C209.174 239.444 207.73 236.697 205.03 234.555C202.422 232.32 198.93 231.203 194.554 231.203C190.736 231.203 187.663 232.181 185.335 234.136C183.1 236.092 181.983 238.932 181.983 242.657C181.983 245.264 182.821 247.452 184.497 249.222C186.266 250.898 188.408 252.295 190.922 253.412C193.529 254.436 197.161 255.647 201.817 257.044C208.149 258.906 213.317 260.769 217.322 262.631C221.326 264.493 224.771 267.287 227.658 271.012C230.545 274.737 231.988 279.625 231.988 285.678C231.988 290.893 230.638 295.735 227.937 300.205C225.237 304.675 221.279 308.26 216.064 310.96C210.85 313.568 204.657 314.871 197.487 314.871Z" fill="#0995C6"/>
<path d="M326.464 216.397L293.5 279.951V313.894H273.944V279.951L240.84 216.397H262.91L283.862 260.955L304.674 216.397H326.464Z" fill="#0995C6"/>
<path d="M477.322 216.397V313.894H457.767V250.479L431.647 313.894H416.841L390.581 250.479V313.894H371.025V216.397H393.235L424.244 288.891L455.253 216.397H477.322Z" fill="#0995C6"/>
<path d="M515.932 216.397V276.739C515.932 283.35 517.654 288.425 521.1 291.964C524.545 295.409 529.388 297.132 535.627 297.132C541.959 297.132 546.848 295.409 550.293 291.964C553.738 288.425 555.461 283.35 555.461 276.739V216.397H575.156V276.599C575.156 284.887 573.34 291.917 569.709 297.691C566.17 303.371 561.374 307.655 555.321 310.541C549.362 313.428 542.704 314.871 535.347 314.871C528.084 314.871 521.472 313.428 515.513 310.541C509.646 307.655 504.99 303.371 501.545 297.691C498.099 291.917 496.376 284.887 496.376 276.599V216.397H515.932Z" fill="#0995C6"/>
<path d="M627.713 314.871C620.915 314.871 614.769 313.707 609.275 311.379C603.874 309.051 599.591 305.699 596.425 301.322C593.258 296.946 591.629 291.778 591.536 285.818H612.488C612.767 289.822 614.164 292.988 616.678 295.316C619.286 297.644 622.824 298.808 627.294 298.808C631.857 298.808 635.442 297.737 638.049 295.595C640.657 293.361 641.96 290.474 641.96 286.935C641.96 284.049 641.076 281.674 639.306 279.812C637.537 277.949 635.302 276.506 632.602 275.482C629.994 274.364 626.363 273.154 621.707 271.85C615.374 269.987 610.206 268.172 606.202 266.402C602.291 264.54 598.892 261.793 596.006 258.161C593.212 254.436 591.815 249.501 591.815 243.355C591.815 237.582 593.258 232.553 596.145 228.27C599.032 223.986 603.083 220.727 608.297 218.492C613.512 216.164 619.472 215 626.176 215C636.233 215 644.381 217.468 650.62 222.403C656.953 227.245 660.445 234.043 661.096 242.796H639.586C639.399 239.444 637.956 236.697 635.256 234.555C632.648 232.32 629.156 231.203 624.78 231.203C620.962 231.203 617.889 232.181 615.561 234.136C613.326 236.092 612.208 238.932 612.208 242.657C612.208 245.264 613.046 247.452 614.723 249.222C616.492 250.898 618.634 252.295 621.148 253.412C623.755 254.436 627.387 255.647 632.043 257.044C638.375 258.906 643.543 260.769 647.547 262.631C651.552 264.493 654.997 267.287 657.884 271.012C660.771 274.737 662.214 279.625 662.214 285.678C662.214 290.893 660.864 295.735 658.163 300.205C655.463 304.675 651.505 308.26 646.29 310.96C641.076 313.568 634.883 314.871 627.713 314.871Z" fill="#0995C6"/>
<path d="M698.723 216.397V313.894H679.168V216.397H698.723Z" fill="#0995C6"/>
<path d="M713.294 265.006C713.294 255.414 715.436 246.847 719.72 239.304C724.096 231.668 730.009 225.755 737.459 221.565C745.002 217.281 753.429 215.14 762.741 215.14C773.636 215.14 783.181 217.933 791.376 223.52C799.57 229.108 805.297 236.837 808.556 246.707H786.068C783.833 242.051 780.667 238.559 776.569 236.231C772.565 233.903 767.909 232.739 762.601 232.739C756.921 232.739 751.846 234.09 747.376 236.79C743 239.397 739.554 243.122 737.04 247.965C734.619 252.807 733.408 258.487 733.408 265.006C733.408 271.431 734.619 277.111 737.04 282.046C739.554 286.889 743 290.66 747.376 293.361C751.846 295.968 756.921 297.272 762.601 297.272C767.909 297.272 772.565 296.108 776.569 293.78C780.667 291.358 783.833 287.82 786.068 283.164H808.556C805.297 293.128 799.57 300.903 791.376 306.491C783.274 311.985 773.729 314.732 762.741 314.732C753.429 314.732 745.002 312.636 737.459 308.446C730.009 304.163 724.096 298.249 719.72 290.707C715.436 283.164 713.294 274.597 713.294 265.006Z" fill="#0995C6"/>
<path d="M245.356 387.665H237.534L219.822 360.902V387.665H212V348.61H219.822L237.534 375.429V348.61H245.356V387.665Z" fill="black"/>
<path d="M260.908 354.98V364.757H274.038V370.959H260.908V381.295H275.714V387.665H253.086V348.61H275.714V354.98H260.908Z" fill="black"/>
<path d="M334.951 348.666L324.056 387.665H314.837L307.518 359.896L299.863 387.665L290.7 387.721L280.196 348.666H288.577L295.449 378.949L303.383 348.666H312.099L319.586 378.781L326.514 348.666H334.951Z" fill="black"/>
<path d="M377.285 380.234H361.752L359.182 387.665H350.969L364.993 348.61H374.1L388.124 387.665H379.855L377.285 380.234ZM375.162 373.976L369.519 357.661L363.876 373.976H375.162Z" fill="black"/>
<path d="M420.52 360.399C419.626 358.76 418.397 357.512 416.832 356.656C415.268 355.799 413.443 355.371 411.357 355.371C409.047 355.371 406.999 355.892 405.211 356.935C403.423 357.978 402.026 359.468 401.02 361.405C400.015 363.342 399.512 365.577 399.512 368.11C399.512 370.717 400.015 372.989 401.02 374.926C402.063 376.863 403.497 378.353 405.323 379.396C407.148 380.439 409.271 380.96 411.692 380.96C414.672 380.96 417.112 380.178 419.011 378.613C420.911 377.012 422.159 374.796 422.755 371.965H409.345V365.986H430.465V372.803C429.944 375.522 428.826 378.036 427.113 380.346C425.399 382.655 423.183 384.517 420.464 385.933C417.782 387.311 414.765 388 411.413 388C407.651 388 404.242 387.162 401.188 385.486C398.171 383.772 395.787 381.407 394.036 378.39C392.323 375.373 391.466 371.946 391.466 368.11C391.466 364.273 392.323 360.846 394.036 357.829C395.787 354.775 398.171 352.409 401.188 350.733C404.242 349.02 407.632 348.163 411.357 348.163C415.752 348.163 419.57 349.243 422.811 351.404C426.051 353.527 428.286 356.525 429.515 360.399H420.52Z" fill="black"/>
<path d="M444.074 354.98V364.757H457.204V370.959H444.074V381.295H458.88V387.665H436.252V348.61H458.88V354.98H444.074Z" fill="black"/>
<path d="M531.431 348.666L520.536 387.665H511.317L503.997 359.896L496.343 387.665L487.18 387.721L476.676 348.666H485.057L491.929 378.949L499.863 348.666H508.579L516.066 378.781L522.994 348.666H531.431Z" fill="black"/>
<path d="M544.36 348.666V387.665H536.538V348.666H544.36Z" fill="black"/>
<path d="M574.102 387.665L559.911 370.289V387.665H552.088V348.666H559.911V366.154L574.102 348.666H583.544L567.453 367.998L583.991 387.665H574.102Z" fill="black"/>
<path d="M596.959 348.666V387.665H589.136V348.666H596.959Z" fill="black"/>
<rect x="319" width="170" height="170" fill="#0995C6"/>
<path fill-rule="evenodd" clip-rule="evenodd" d="M383.57 43.2055L355.412 26.9841V142.806L454.874 84.598L442.411 77.3633L367.951 120.939V97.3233L422.072 65.5564L383.57 43.2055ZM397.275 65.5718L367.951 82.7841V48.6783L397.275 65.5718Z" fill="white"/>
</svg>
