<svg xmlns="http://www.w3.org/2000/svg" width="32" height="32" viewBox="0 0 8.467 8.467"><g transform="translate(1585.027 -213.36) scale(.26458)"><path d="M-5966.4805 808.0332a.50004997.50004997 0 0 0-.5019.54492l.064.86719a.50050226.50050226 0 1 0 .9981-.0762l-.066-.86719a.50004997.50004997 0 0 0-.4942-.46875zM-5966.5039 810.84766a.50005.50005 0 0 0-.4902.45703l-.088.89258a.50043993.50043993 0 1 0 .9961.0977l.088-.89258a.50005.50005 0 0 0-.5059-.55468zM-5964.6699 809.89258a.50005.50005 0 0 0-.035.002l-.832.0664a.50005.50005 0 1 0 .078.99609l.834-.0664a.50005.50005 0 0 0-.045-.99804zM-5968.25 809.83789a.50005.50005 0 1 0 0 1h.8555a.50005.50005 0 1 0 0-1zM-5962.709 816.01367a.50004997.50004997 0 0 0-.5039.54492l.066.86719a.50050226.50050226 0 1 0 .9981-.0762l-.066-.86719a.50004997.50004997 0 0 0-.4942-.46875zM-5962.7324 818.82812a.50005.50005 0 0 0-.4903.45704l-.088.89257a.50039017.50039017 0 1 0 .996.0977l.088-.89062a.50005.50005 0 0 0-.5058-.55665zM-5960.8984 817.87305a.50005.50005 0 0 0-.035.002l-.832.0664a.50005.50005 0 1 0 .078.99609l.834-.0644a.50050599.50050599 0 0 0-.045-1zM-5964.4785 817.81836a.50005.50005 0 1 0 0 1h.8555a.50005.50005 0 1 0 0-1zM-5986.6523 808.38281a.50004997.50004997 0 0 0-.502.54492l.065.86719a.50045241.50045241 0 1 0 .998-.0762l-.066-.86719a.50004997.50004997 0 0 0-.4941-.46875zM-5986.6758 811.19727a.50005.50005 0 0 0-.4883.45898l-.09.89258a.50043993.50043993 0 1 0 .9961.0977l.088-.89257a.50005.50005 0 0 0-.5059-.55664zM-5984.8418 810.24219a.50005.50005 0 0 0-.033.002l-.834.0664a.50054557.50054557 0 1 0 .078.99804l.834-.0664a.50050599.50050599 0 0 0-.045-1zM-5988.4219 810.18945a.50005.50005 0 1 0 0 1h.8555a.50005.50005 0 1 0 0-1z" color="#000" font-family="sans-serif" font-weight="400" overflow="visible" style="line-height:normal;font-variant-ligatures:normal;font-variant-position:normal;font-variant-caps:normal;font-variant-numeric:normal;font-variant-alternates:normal;font-feature-settings:normal;text-indent:0;text-align:start;text-decoration-line:none;text-decoration-style:solid;text-decoration-color:#000;text-transform:none;text-orientation:mixed;shape-padding:0;isolation:auto;mix-blend-mode:normal"/><path d="M-5963.851 814.15684c.2519 0 .5471.2902.5274.5414-.02.2537-.3581.4791-.6117.457-.2214-.019-.4633-.263-.4571-.4851.01-.2487.2928-.5183.5414-.5133zM-5962.1146 822.34289c.2519 0 .5471.2902.5274.5414-.02.2537-.3581.4791-.6117.457-.2214-.019-.4633-.263-.4571-.4851.01-.2487.2928-.5183.5414-.5133zM-5985.0603 814.40491c.2519 0 .5471.2902.5274.5414-.02.2537-.3581.4791-.6117.457-.2214-.019-.4633-.263-.4571-.4851.01-.2487.2928-.5183.5414-.5133zM-5986.7347 817.81576c.2519 0 .5471.2902.5274.5414-.02.2537-.3581.4791-.6117.457-.2214-.019-.4633-.263-.4571-.4851.01-.2487.2928-.5183.5414-.5133z"/><path style="line-height:normal;font-variant-ligatures:normal;font-variant-position:normal;font-variant-caps:normal;font-variant-numeric:normal;font-variant-alternates:normal;font-feature-settings:normal;text-indent:0;text-align:start;text-decoration-line:none;text-decoration-style:solid;text-decoration-color:#000;text-transform:none;text-orientation:mixed;shape-padding:0;isolation:auto;mix-blend-mode:normal" d="m 142.68555,466.23242 c -0.60433,0.051 -1.18411,0.34295 -1.69141,0.61328 -0.5218,0.27807 -0.75869,0.45929 -0.92969,0.58008 -0.1726,-0.10091 -0.39423,-0.24125 -0.89453,-0.4668 -0.6589,-0.29701 -1.43546,-0.61705 -2.19336,-0.50781 -1.2112,0.17459 -2.61672,0.89144 -3.01172,2.21094 -0.3676,1.22764 0.26296,2.63644 0.88086,3.80664 0.1768,0.33497 0.20255,0.32103 0.37305,0.59961 -0.6489,-0.26665 -1.36471,-0.50871 -2.06641,-0.3457 -0.8606,0.19991 -1.76598,0.6556 -2.49218,1.29492 -0.7262,0.63932 -1.29234,1.48571 -1.30664,2.4707 -0.024,1.64774 0.75118,2.70332 1.52148,3.26953 0.5654,0.41569 0.87863,0.44689 1.14453,0.51563 -0.082,0.55281 -0.30185,2.50878 1.37305,3.81054 0.8417,0.65418 1.91645,0.75049 2.91015,0.5586 0.83609,-0.16146 1.62678,-0.52679 2.28125,-0.98633 l 0.01,4.74805 c 5e-4,0.26292 0.2045,0.48056 0.4668,0.49804 l 2.29492,0.1543 c 0.289,0.0192 0.5338,-0.21037 0.5332,-0.5 l -0.0176,-5.03711 c 0.68745,0.50008 1.51286,0.90299 2.39453,1.09375 1.02811,0.22244 2.14345,0.15569 3.09376,-0.4375 1.1306,-0.70567 1.48775,-1.74903 1.50585,-2.55078 0.012,-0.54115 -0.095,-0.71981 -0.17578,-0.96094 0.2219,-0.11223 0.56847,-0.27335 1.16797,-0.68554 0.7656,-0.52647 1.64167,-1.1845 1.82227,-2.1504 0.3513,-1.87922 -0.88717,-3.89219 -2.47657,-4.80468 -0.98739,-0.56685 -2.34064,-0.43798 -3.49414,-0.26172 -0.2533,0.0387 -0.23679,0.0563 -0.46289,0.10156 0.069,-0.0788 0.0709,-0.0627 0.14063,-0.14648 0.6487,-0.78027 1.36369,-1.73256 1.27539,-2.77539 -0.074,-0.87634 -0.52287,-1.68898 -1.13477,-2.33789 -0.6119,-0.6489 -1.39546,-1.14317 -2.23046,-1.33204 -0.20486,-0.0463 -0.40989,-0.056 -0.61133,-0.0391 z" color="#000" font-family="sans-serif" font-weight="400" overflow="visible" transform="translate(-6116.78 347.71)"/><path fill="#3ab37c" style="line-height:normal;font-variant-ligatures:normal;font-variant-position:normal;font-variant-caps:normal;font-variant-numeric:normal;font-variant-alternates:normal;font-feature-settings:normal;text-indent:0;text-align:start;text-decoration-line:none;text-decoration-style:solid;text-decoration-color:#000;text-transform:none;text-orientation:mixed;shape-padding:0;isolation:auto;mix-blend-mode:normal" d="m 143.07617,467.24805 c 0.5918,0.13387 1.23581,0.52261 1.72461,1.04101 0.4889,0.5184 0.81594,1.15696 0.86524,1.73828 0.037,0.43119 -0.45703,1.33911 -1.04883,2.05078 -0.5917,0.71169 -1.20313,1.25196 -1.20313,1.25196 a 0.50005,0.50005 0 0 0 0.47461,0.85351 c 0,0 0.8964,-0.26748 1.97071,-0.43164 1.0743,-0.16415 2.3255,-0.16001 2.8457,0.13867 1.201,0.68953 2.23013,2.47027 1.99023,3.75391 -0.067,0.35882 -0.71249,1.03409 -1.40429,1.50977 -0.6918,0.47569 -1.35938,0.79882 -1.35938,0.79882 a 0.50005,0.50005 0 0 0 -0.24023,0.65235 c 0,0 0.18652,0.43323 0.17382,0.99609 -0.013,0.56286 -0.18035,1.19304 -1.03515,1.72656 -0.6815,0.42539 -1.50922,0.49126 -2.35352,0.3086 -0.8442,-0.18266 -1.68553,-0.62152 -2.30273,-1.13672 -0.4292,-0.35826 -0.8793,-1.44162 -1.125,-2.42188 -0.2457,-0.98024 -0.3418,-1.83984 -0.3418,-1.83984 a 0.50005,0.50005 0 0 0 -0.99414,0.0156 c 0,0 -0.075,0.88289 -0.30273,1.89062 -0.2272,1.00772 -0.66451,2.11777 -1.09961,2.47852 -0.5691,0.47187 -1.39347,0.88385 -2.19727,1.03906 -0.8037,0.1552 -1.55562,0.0616 -2.10742,-0.36719 -1.3625,-1.05895 -0.99414,-3.23242 -0.99414,-3.23242 a 0.50005,0.50005 0 0 0 -0.4043,-0.58594 c 0,0 -0.56652,-0.1034 -1.14062,-0.52539 -0.574,-0.42199 -1.13298,-1.10205 -1.11328,-2.44726 0.01,-0.60024 0.37985,-1.21787 0.96875,-1.73633 0.589,-0.51847 1.37728,-0.91296 2.05468,-1.07031 0.3105,-0.0721 1.10556,0.1196 1.75196,0.40039 0.6463,0.2808 1.16406,0.59375 1.16406,0.59375 a 0.50005,0.50005 0 0 0 0.66015,-0.72657 c 0,0 -0.64635,-0.87147 -1.22265,-1.96289 -0.5762,-1.09142 -1.00039,-2.41215 -0.80859,-3.05273 0.21699,-0.72473 1.29646,-1.37796 2.19726,-1.50781 0.3033,-0.0437 1.04543,0.16133 1.64063,0.42968 0.5953,0.26836 1.0664,0.55664 1.0664,0.55664 a 0.50005,0.50005 0 0 0 0.55664,-0.0254 c 0,0 0.47943,-0.35271 1.08203,-0.67382 0.6026,-0.3211 1.34503,-0.54071 1.61133,-0.48047 z" color="#000" font-family="sans-serif" font-weight="400" overflow="visible" transform="translate(-6116.78 347.71)"/><path fill="#71c598" style="line-height:normal;font-variant-ligatures:normal;font-variant-position:normal;font-variant-caps:normal;font-variant-numeric:normal;font-variant-alternates:normal;font-feature-settings:normal;text-indent:0;text-align:start;text-decoration-line:none;text-decoration-style:solid;text-decoration-color:#000;text-transform:none;text-orientation:mixed;shape-padding:0;isolation:auto;mix-blend-mode:normal" d="m 140.24609,480.83594 c 0.17325,0.61277 0.39481,1.23028 0.72266,1.75 l -0.082,5.4375 -1.20508,-0.24219 -0.20898,-4.99805 c 0.37358,-0.56514 0.60034,-1.2642 0.77343,-1.94726 z" color="#000" font-family="sans-serif" font-weight="400" overflow="visible" transform="translate(-6116.78 347.71)"/><path d="M-5979.9434 815.75391a.250025.250025 0 0 0-.1523.0605l-.9609.80664a.250025.250025 0 1 0 .3203.38282l.9609-.80664a.250025.250025 0 0 0-.168-.44336zM-5978.8301 815.93945a.250025.250025 0 0 0-.1523.0625l-2.0606 1.76758a.250025.250025 0 1 0 .3242.37891l2.0626-1.76758a.250025.250025 0 0 0-.1739-.44141zM-5977.8066 816.3125a.250025.250025 0 0 0-.1289.0566l-2.8848 2.30859a.25012399.25012399 0 1 0 .3125.39063l2.8848-2.30859a.250025.250025 0 0 0-.1836-.44727z" color="#000" font-family="sans-serif" font-weight="400" overflow="visible" style="line-height:normal;font-variant-ligatures:normal;font-variant-position:normal;font-variant-caps:normal;font-variant-numeric:normal;font-variant-alternates:normal;font-feature-settings:normal;text-indent:0;text-align:start;text-decoration-line:none;text-decoration-style:solid;text-decoration-color:#000;text-transform:none;text-orientation:mixed;shape-padding:0;isolation:auto;mix-blend-mode:normal"/></g></svg>