<svg class="link_icon-img" width="100%" height="100%" viewBox="0 0 24 24" fill="none" xmlns="http://www.w3.org/2000/svg">
    <path fill-rule="evenodd" clip-rule="evenodd" d="M3 8C1.89543 8 1 8.89543 1 10V22C1 23.1046 1.89543 24 3 24H21C22.1046 24 23 23.1046 23 22V10C23 8.89543 22.1046 8 21 8H3ZM9.70833 13.5788C9.70833 12.7938 10.5713 12.3149 11.2373 12.7301L14.7637 14.9284C15.3917 15.3198 15.3917 16.2341 14.7637 16.6256L11.2373 18.8238C10.5713 19.2391 9.70833 18.7601 9.70833 17.9752V13.5788Z" fill="currentColor"></path>
    <rect x="4" y="4" width="16" height="2" rx="1" fill="currentColor"></rect>
    <rect x="5" width="14" height="2" rx="1" fill="currentColor"></rect>
</svg>