<svg width="542" height="109" viewBox="0 0 542 109" fill="none" xmlns="http://www.w3.org/2000/svg">
<path d="M108.974 0H0V109H108.974V0Z" fill="#0995C6"/>
<path fill-rule="evenodd" clip-rule="evenodd" d="M41.3909 27.7023L23.3409 17.3015V91.5638L87.0987 54.2422L79.1096 49.6035L31.3786 77.5432V62.4014L66.0718 42.0332L41.3909 27.7023ZM50.1765 42.043L31.3786 53.0792V31.2113L50.1765 42.043Z" fill="white"/>
<path d="M168.151 45.5681H220.788V61.7667H168.151V45.5681ZM169.663 90.9847H229.41V107.486H150V1.51389H227.292V18.0153H169.663V90.9847Z" fill="#25B9ED"/>
<path d="M251.33 107.486V1.51389H294.892C304.27 1.51389 312.286 3.02778 318.942 6.05556C325.698 9.08333 330.891 13.4231 334.521 19.075C338.151 24.7269 339.966 31.4384 339.966 39.2097C339.966 46.981 338.151 53.6926 334.521 59.3444C330.891 64.8954 325.698 69.1847 318.942 72.2125C312.286 75.1394 304.27 76.6028 294.892 76.6028H262.22L270.993 67.6708V107.486H251.33ZM320.605 107.486L293.833 69.0333H314.858L341.781 107.486H320.605ZM270.993 69.7903L262.22 60.4042H293.984C302.656 60.4042 309.16 58.537 313.496 54.8028C317.933 51.0685 320.152 45.8708 320.152 39.2097C320.152 32.4477 317.933 27.25 313.496 23.6167C309.16 19.9833 302.656 18.1667 293.984 18.1667H262.22L270.993 8.47778V69.7903Z" fill="#25B9ED"/>
<path d="M394.788 109C386.52 109 378.604 107.839 371.041 105.518C363.478 103.096 357.479 100.018 353.042 96.2833L359.848 80.9931C364.083 84.3236 369.327 87.0991 375.579 89.3194C381.831 91.5398 388.234 92.65 394.788 92.65C400.335 92.65 404.822 92.0444 408.25 90.8333C411.679 89.6222 414.2 88.0074 415.813 85.9889C417.427 83.8694 418.233 81.4977 418.233 78.8736C418.233 75.644 417.074 73.0704 414.754 71.1528C412.435 69.1343 409.41 67.5699 405.679 66.4597C402.049 65.2486 397.965 64.1384 393.427 63.1292C388.99 62.1199 384.503 60.9593 379.965 59.6472C375.529 58.2343 371.445 56.4681 367.714 54.3486C364.083 52.1282 361.109 49.2014 358.789 45.5681C356.47 41.9347 355.311 37.2921 355.311 31.6403C355.311 25.8875 356.823 20.6394 359.848 15.8958C362.974 11.0514 367.663 7.2162 373.915 4.39028C380.268 1.46343 388.284 0 397.965 0C404.318 0 410.62 0.80741 416.872 2.42223C423.124 4.03704 428.569 6.35834 433.208 9.38612L427.006 24.6764C422.267 21.8505 417.376 19.7815 412.334 18.4694C407.292 17.0565 402.452 16.35 397.814 16.35C392.368 16.35 387.932 17.006 384.503 18.3181C381.175 19.6301 378.705 21.3458 377.091 23.4653C375.579 25.5847 374.823 28.0069 374.823 30.7319C374.823 33.9616 375.932 36.5857 378.15 38.6042C380.47 40.5218 383.444 42.0356 387.074 43.1458C390.805 44.256 394.94 45.3662 399.477 46.4764C404.015 47.4857 408.502 48.6463 412.939 49.9583C417.477 51.2704 421.561 52.9861 425.191 55.1056C428.922 57.225 431.897 60.1014 434.115 63.7347C436.434 67.3681 437.594 71.9602 437.594 77.5111C437.594 83.163 436.031 88.4111 432.905 93.2556C429.88 97.9991 425.191 101.834 418.838 104.761C412.485 107.587 404.469 109 394.788 109Z" fill="#25B9ED"/>
<path d="M480.892 107.486V65.5514L485.279 77.6625L439.297 1.51389H460.322L497.228 62.8264H485.43L522.639 1.51389H542L496.018 77.6625L500.556 65.5514V107.486H480.892Z" fill="#25B9ED"/>
</svg>
