<svg width="1250" height="1042" viewBox="0 0 1250 1042" fill="none" xmlns="http://www.w3.org/2000/svg">
<g clip-path="url(#clip0_11_494)">
<path d="M727.092 1046C1015.89 1046 1250 811.845 1250 523C1250 234.155 1015.89 0 727.092 0C438.297 0 204.183 234.155 204.183 523C204.183 811.845 438.297 1046 727.092 1046Z" fill="url(#paint0_radial_11_494)" fill-opacity="0.7"/>
<path d="M727.092 1046C1015.89 1046 1250 811.845 1250 523C1250 234.155 1015.89 0 727.092 0C438.297 0 204.183 234.155 204.183 523C204.183 811.845 438.297 1046 727.092 1046Z" fill="url(#paint1_radial_11_494)"/>
<path opacity="0.6" d="M247.779 420.731C336.876 396.854 389.75 305.257 365.877 216.144C342.003 127.031 250.422 74.1471 161.325 98.0248C72.2275 121.903 19.3532 213.5 43.2268 302.613C67.1003 391.725 158.681 444.609 247.779 420.731Z" fill="url(#paint2_radial_11_494)"/>
</g>
<defs>
<radialGradient id="paint0_radial_11_494" cx="0" cy="0" r="1" gradientUnits="userSpaceOnUse" gradientTransform="translate(1111.55 875.651) rotate(-143.353) scale(826.154 826.196)">
<stop offset="0.114583" stop-color="white"/>
<stop offset="0.322917" stop-color="white" stop-opacity="0.6"/>
<stop offset="0.666667" stop-color="white" stop-opacity="0.39"/>
<stop offset="0.802083" stop-color="white" stop-opacity="0.24"/>
<stop offset="1" stop-color="white" stop-opacity="0"/>
</radialGradient>
<radialGradient id="paint1_radial_11_494" cx="0" cy="0" r="1" gradientUnits="userSpaceOnUse" gradientTransform="translate(425.299 237.093) rotate(-132.924) scale(360.514 360.509)">
<stop stop-color="white"/>
<stop offset="1" stop-color="white" stop-opacity="0"/>
</radialGradient>
<radialGradient id="paint2_radial_11_494" cx="0" cy="0" r="1" gradientUnits="userSpaceOnUse" gradientTransform="translate(352.312 336.389) rotate(-158.355) scale(263.862 263.895)">
<stop offset="0.114583" stop-color="white" stop-opacity="0"/>
<stop offset="0.322917" stop-color="white" stop-opacity="0.11"/>
<stop offset="0.666667" stop-color="white" stop-opacity="0.6"/>
<stop offset="0.802083" stop-color="white" stop-opacity="0.5"/>
<stop offset="0.875" stop-color="white" stop-opacity="0.684211"/>
<stop offset="1" stop-color="white"/>
</radialGradient>
<clipPath id="clip0_11_494">
<rect width="1250" height="1046" fill="white"/>
</clipPath>
</defs>
</svg>
