<svg width="128" height="128" viewBox="0 0 128 128" fill="none" xmlns="http://www.w3.org/2000/svg">
<path d="M128 0H0V128H128V0Z" fill="#1DA1F2"/>
<path d="M104 39.5C101 41 98 41.5 94.5 42C98 40 100.5 37 101.5 33C98.5 35 95 36 91 37C88 34 83.5 32 79 32C68.5 32 60.5 42 63 52C49.5 51.5 37.5 45 29 35C24.5 42.5 27 52 34 57C31.5 57 29 56 26.5 55C26.5 62.5 32 69.5 39.5 71.5C37 72 34.5 72.5 32 72C34 78.5 40 83.5 47.5 83.5C41.5 88 32.5 90.5 24 89.5C31.5 94 40 97 49 97C79.5 97 96.5 71.5 95.5 48C99 46 102 43 104 39.5Z" fill="white"/>
</svg>
