<svg width="128" height="128" viewBox="0 0 128 128" fill="none" xmlns="http://www.w3.org/2000/svg">
<path d="M128 0H0V128H128V0Z" fill="#E43D83"/>
<path d="M64 31.2289C74.6024 31.2289 76.0482 31.2289 80.3855 31.2289C84.241 31.2289 86.1687 32.1928 87.6145 32.6747C89.5422 33.6386 90.988 34.1205 92.4337 35.5663C93.8795 37.0121 94.8434 38.4578 95.3253 40.3855C95.8072 41.8313 96.2892 43.759 96.7711 47.6145C96.7711 51.9518 96.7711 52.9157 96.7711 64C96.7711 75.0843 96.7711 76.0482 96.7711 80.3855C96.7711 84.241 95.8072 86.1687 95.3253 87.6145C94.3615 89.5422 93.8795 90.988 92.4337 92.4337C90.988 93.8795 89.5422 94.8434 87.6145 95.3253C86.1687 95.8072 84.241 96.2892 80.3855 96.7711C76.0482 96.7711 75.0843 96.7711 64 96.7711C52.9157 96.7711 51.9518 96.7711 47.6145 96.7711C43.759 96.7711 41.8313 95.8072 40.3855 95.3253C38.4578 94.3615 37.0121 93.8795 35.5663 92.4337C34.1205 90.988 33.1566 89.5422 32.6747 87.6145C32.1928 86.1687 31.7108 84.241 31.2289 80.3855C31.2289 76.0482 31.2289 75.0843 31.2289 64C31.2289 52.9157 31.2289 51.9518 31.2289 47.6145C31.2289 43.759 32.1928 41.8313 32.6747 40.3855C33.6386 38.4578 34.1205 37.0121 35.5663 35.5663C37.0121 34.1205 38.4578 33.1566 40.3855 32.6747C41.8313 32.1928 43.759 31.7108 47.6145 31.2289C51.9518 31.2289 53.3976 31.2289 64 31.2289ZM64 24C52.9157 24 51.9518 24 47.6145 24C43.2771 24 40.3855 24.9639 37.9759 25.9277C35.5663 26.8916 33.1566 28.3374 30.747 30.747C28.3374 33.1566 27.3735 35.0843 25.9277 37.9759C24.9639 40.3855 24.4819 43.2771 24 47.6145C24 51.9518 24 53.3976 24 64C24 75.0843 24 76.0482 24 80.3855C24 84.7229 24.9639 87.6145 25.9277 90.0241C26.8916 92.4337 28.3374 94.8434 30.747 97.253C33.1566 99.6627 35.0843 100.627 37.9759 102.072C40.3855 103.036 43.2771 103.518 47.6145 104C51.9518 104 53.3976 104 64 104C74.6024 104 76.0482 104 80.3855 104C84.7229 104 87.6145 103.036 90.0241 102.072C92.4337 101.108 94.8434 99.6627 97.253 97.253C99.6627 94.8434 100.627 92.9157 102.072 90.0241C103.036 87.6145 103.518 84.7229 104 80.3855C104 76.0482 104 74.6024 104 64C104 53.3976 104 51.9518 104 47.6145C104 43.2771 103.036 40.3855 102.072 37.9759C101.108 35.5663 99.6627 33.1566 97.253 30.747C94.8434 28.3374 92.9157 27.3735 90.0241 25.9277C87.6145 24.9639 84.7229 24.4819 80.3855 24C76.0482 24 75.0843 24 64 24Z" fill="white"/>
<path d="M64 43.2771C52.4337 43.2771 43.2771 52.4337 43.2771 64C43.2771 75.5663 52.4337 84.7229 64 84.7229C75.5663 84.7229 84.7229 75.5663 84.7229 64C84.7229 52.4337 75.5663 43.2771 64 43.2771ZM64 77.494C56.7711 77.494 50.506 71.7109 50.506 64C50.506 56.7711 56.2892 50.506 64 50.506C71.2289 50.506 77.494 56.2892 77.494 64C77.494 71.2289 71.2289 77.494 64 77.494Z" fill="white"/>
<path d="M85.2048 47.6145C87.8664 47.6145 90.0241 45.4568 90.0241 42.7952C90.0241 40.1336 87.8664 37.9759 85.2048 37.9759C82.5432 37.9759 80.3855 40.1336 80.3855 42.7952C80.3855 45.4568 82.5432 47.6145 85.2048 47.6145Z" fill="white"/>
</svg>
