<svg width="128" height="128" viewBox="0 0 128 128" fill="none" xmlns="http://www.w3.org/2000/svg">
<path d="M128 0H0V128H128V0Z" fill="#FF7223"/>
<path d="M24 78.4076C24 79.4004 24.3599 80.151 25.0796 80.6598C25.7993 81.1686 26.5686 81.3485 27.3876 81.1996C28.1569 81.0507 28.6967 80.7777 29.0071 80.3806C29.3172 79.9836 29.4724 79.3259 29.4724 78.4076V67.6119C29.4724 66.8425 29.2056 66.191 28.672 65.6575C28.1385 65.1239 27.487 64.8571 26.7176 64.8571C25.9731 64.8571 25.3341 65.1239 24.8004 65.6575C24.2668 66.191 24 66.8425 24 67.6119V78.4076ZM32.5621 83.0237C32.5621 83.7435 32.8165 84.2833 33.3253 84.6432C33.8341 85.0031 34.4855 85.183 35.2797 85.183C36.0987 85.183 36.7625 85.003 37.2713 84.6432C37.78 84.2833 38.0344 83.7435 38.0344 83.0237V57.8585C38.0344 57.114 37.7676 56.4749 37.2341 55.9414C36.7005 55.4078 36.049 55.141 35.2797 55.141C34.5351 55.141 33.896 55.4078 33.3625 55.9414C32.8289 56.475 32.5621 57.114 32.5621 57.8585V83.0237V83.0237ZM41.087 84.215C41.087 84.9347 41.3476 85.4745 41.8688 85.8344C42.3899 86.1942 43.06 86.3742 43.8791 86.3742C44.6732 86.3742 45.3247 86.1942 45.8334 85.8344C46.3422 85.4745 46.5966 84.9347 46.5966 84.215V61.2462C46.5966 60.4768 46.3298 59.8191 45.7963 59.2731C45.2627 58.7272 44.6236 58.4542 43.8791 58.4542C43.1097 58.4542 42.452 58.7272 41.9061 59.2731C41.3601 59.8191 41.0871 60.4768 41.0871 61.2462V84.215H41.087ZM49.6491 84.3267C49.6491 85.6917 50.5674 86.3742 52.4039 86.3742C54.2404 86.3742 55.1586 85.6917 55.1586 84.3267V47.1C55.1586 45.0154 54.5257 43.8365 53.26 43.5635C52.4411 43.365 51.6344 43.6007 50.8403 44.2708C50.0461 44.9409 49.6491 45.8839 49.6491 47.1V84.3267H49.6491ZM58.3602 85.4062V44.9037C58.3602 43.6132 58.7449 42.8439 59.5143 42.5956C61.177 42.1986 62.8274 42 64.4654 42C68.2624 42 71.7991 42.8934 75.0749 44.6803C78.3509 46.4672 81.0002 48.9055 83.0228 51.9953C85.0455 55.0852 86.2181 58.4914 86.5407 62.2141C88.0546 61.5688 89.6677 61.2462 91.3801 61.2462C94.8546 61.2462 97.8266 62.4747 100.296 64.9317C102.765 67.3887 104 70.342 104 73.7917C104 77.2662 102.765 80.2319 100.296 82.6888C97.8266 85.1458 94.867 86.3743 91.4173 86.3743L59.0302 86.337C58.8067 86.2626 58.6392 86.1261 58.5275 85.9276C58.4159 85.7291 58.3602 85.5551 58.3602 85.4062V85.4062Z" fill="white"/>
</svg>
