<svg width="24" height="24" viewBox="0 0 24 24" fill="none" xmlns="http://www.w3.org/2000/svg">
<path d="M17.3067 2.55667L17.4283 2.79943L18.3456 5.23872C18.4176 5.43081 18.5692 5.58238 18.7612 5.65446L21.1164 6.538C22.1499 6.92574 22.7052 8.03008 22.4298 9.07495L22.3635 9.28291L21.2679 11.706C21.183 11.8928 21.183 12.1072 21.2679 12.294L22.3084 14.584C22.765 15.589 22.3768 16.7626 21.4432 17.3067L21.2005 17.4283L18.7612 18.3456C18.5692 18.4176 18.4176 18.5692 18.3456 18.7612L17.4619 21.1164C17.0742 22.1499 15.9699 22.7052 14.925 22.4298L14.7171 22.3635L12.294 21.2679C12.1072 21.183 11.8928 21.183 11.706 21.2679L9.41596 22.3084C8.41101 22.765 7.23741 22.3768 6.69331 21.4432L6.57171 21.2005L5.65446 18.7612C5.58238 18.5692 5.43081 18.4176 5.23872 18.3456L2.88363 17.4619C1.85013 17.0742 1.29477 15.9699 1.57017 14.925L1.63642 14.7171L2.73207 12.294C2.81694 12.1072 2.81694 11.8928 2.73207 11.706L1.69153 9.41596C1.23492 8.41101 1.6231 7.23741 2.55667 6.69331L2.79943 6.57171L5.23872 5.65446C5.43081 5.58238 5.58238 5.43081 5.65446 5.23872L6.538 2.88363C6.92574 1.85013 8.03008 1.29477 9.07495 1.57017L9.28291 1.63642L11.706 2.73207C11.8928 2.81694 12.1072 2.81694 12.294 2.73207L14.584 1.69153C15.589 1.23492 16.7626 1.6231 17.3067 2.55667ZM15.4432 8.34964L10.3742 14.1428L8.52448 12.2931C8.24697 12.0156 7.79703 12.0156 7.5195 12.2931C7.24198 12.5706 7.24198 13.0206 7.5195 13.2981L9.9063 15.6849C10.197 15.9756 10.6729 15.9597 10.9436 15.6504L16.5127 9.28555C16.7712 8.99019 16.7413 8.54124 16.446 8.28279C16.1506 8.02434 15.7017 8.05428 15.4432 8.34964Z" fill="#0995C6"/>
</svg>
