<svg width="241" height="81" viewBox="0 0 241 81" fill="none" xmlns="http://www.w3.org/2000/svg">
<rect width="241" height="81" fill="#F6F6F6"/>
<path d="M117.281 36.3215C116.392 40.6167 115.8 45.6526 115.504 47.8743H115.207C114.911 45.6526 114.319 40.6167 113.43 36.4696L111.208 26.1017H104.543V54.095H108.69V30.9894L109.135 33.2111L113.43 54.095H117.577L121.724 33.2111L122.021 30.9894V53.9469H126.168V26.1017H119.355C119.503 26.1017 117.281 36.3215 117.281 36.3215V36.3215Z" fill="#AAAAAA"/>
<path d="M137.424 49.7998C136.98 50.5404 136.239 51.1328 135.351 51.1328C134.462 51.1328 134.018 50.3923 134.018 48.6149V33.6555H129.278V48.763C129.278 52.4658 130.611 54.2432 133.425 54.2432C135.351 54.2432 136.832 53.3545 138.017 51.429H138.165L138.609 53.947H142.312V33.6555H137.424V49.7998Z" fill="#AAAAAA"/>
<path d="M151.347 41.6537C149.866 40.6169 148.829 39.8763 148.829 38.2471C148.829 37.0622 149.421 36.4697 150.606 36.4697C151.939 36.4697 152.384 37.3584 152.384 40.4688L156.383 40.3207C156.679 35.433 155.05 33.3594 150.606 33.3594C146.607 33.3594 144.534 35.1367 144.534 38.6914C144.534 41.9499 146.163 43.431 148.829 45.5046C151.199 47.282 152.532 48.1706 152.532 49.6518C152.532 50.6886 151.791 51.4291 150.606 51.4291C149.125 51.4291 148.385 50.0961 148.533 47.8744H144.534C143.941 52.1697 145.719 54.5395 150.31 54.5395C154.457 54.5395 156.531 52.7621 156.531 49.0593C156.827 45.6527 155.05 44.3197 151.347 41.6537V41.6537Z" fill="#AAAAAA"/>
<path d="M159.345 33.6555H163.936V53.947H159.345V33.6555Z" fill="#AAAAAA"/>
<path d="M161.715 25.5094C159.937 25.5094 159.197 26.1018 159.197 28.3235C159.197 30.5452 160.086 31.1377 161.715 31.1377C163.492 31.1377 164.233 30.5452 164.233 28.3235C164.233 26.25 163.492 25.5094 161.715 25.5094V25.5094Z" fill="#AAAAAA"/>
<path d="M179.192 46.6895L175.045 46.5414C175.045 50.0961 174.601 51.281 173.268 51.281C171.935 51.281 171.638 49.948 171.638 45.8008V41.8018C171.638 37.6546 171.935 36.4697 173.268 36.4697C174.601 36.4697 174.897 37.6546 174.897 41.5056L179.044 41.2093C179.34 38.099 178.896 35.8773 177.711 34.6924C176.822 33.8037 175.341 33.3594 173.416 33.3594C168.824 33.3594 166.899 35.7292 166.899 42.5424V45.3565C166.899 52.3178 168.528 54.5395 173.268 54.5395C175.193 54.5395 176.674 54.0952 177.563 53.2065C178.748 51.8735 179.192 49.7999 179.192 46.6895V46.6895Z" fill="#AAAAAA"/>
<path fill-rule="evenodd" clip-rule="evenodd" d="M98 40C98 49.9411 89.9411 58 80 58C70.0589 58 62 49.9411 62 40C62 30.0589 70.0589 22 80 22C89.9411 22 98 30.0589 98 40ZM88.5909 40C88.5909 35.2545 84.7249 31.4091 80 31.4091C75.275 31.4091 71.4091 35.2545 71.4091 40C71.4091 44.7454 75.2545 48.5909 80 48.5909C84.7454 48.5909 88.5909 44.7454 88.5909 40ZM70.5909 40C70.5909 34.8045 74.8045 30.5909 80 30.5909C85.1954 30.5909 89.4091 34.8045 89.4091 40C89.4091 45.1954 85.1954 49.4091 80 49.4091C74.8045 49.4091 70.5909 45.1954 70.5909 40ZM85.7329 39.8763L76.2537 45.0602V34.6923L85.7329 39.8763Z" fill="#AAAAAA"/>
</svg>
