<svg width="704" height="654" viewBox="0 0 704 654" fill="none" xmlns="http://www.w3.org/2000/svg">
<path d="M465.442 1.30945H317.594C218.611 1.30945 127.146 54.1837 77.5297 139.885L16.8871 228.093C-4.1624 264.679 -4.1624 309.534 16.8871 346.12L31.1707 370.928C117.624 520.53 263.968 652.591 436.624 652.591H465.191C507.29 652.591 546.382 630.038 567.431 593.702L687.213 386.214C708.262 349.628 708.262 304.773 687.213 268.187L567.431 60.1979C546.382 23.8625 507.541 1.30945 465.442 1.30945Z" stroke="#968056" stroke-width="0.9" stroke-miterlimit="10"/>
<path d="M90.8109 141.89L31.6718 227.341C20.8965 246.135 15.6341 267.185 16.3859 287.983C16.8871 306.527 21.1471 325.572 31.6718 341.61L45.4542 365.666C70.2626 411.273 103.09 454.124 139.175 492.464C169.245 524.54 202.574 553.107 238.658 576.161C259.708 589.693 281.76 601.47 304.814 610.993C346.913 628.534 391.768 638.558 438.629 638.558H466.444C468.95 638.558 471.205 638.558 473.711 638.307C512.051 636.052 546.632 614.501 565.928 581.173L578.708 559.121C578.708 559.121 681.951 380.2 681.951 379.95C702.248 344.617 702.248 301.014 681.951 265.681C681.951 265.681 578.708 86.7604 578.708 86.5098L565.928 64.4579C545.63 29.3755 507.791 7.57422 466.945 7.57422H385.754H323.608C246.427 7.57422 174.257 40.4014 123.889 96.0322C111.359 110.065 100.333 125.351 90.8109 141.89Z" stroke="#968056" stroke-width="0.9" stroke-miterlimit="10"/>
<path d="M103.842 143.644L46.7072 226.589C36.1825 244.631 31.1707 265.18 31.6719 285.477C32.173 303.52 36.433 321.813 46.4566 337.6L59.9884 360.905C83.7944 405.259 115.619 446.606 150.702 483.693C179.77 514.766 212.096 542.331 247.178 564.884C267.727 578.166 289.027 589.442 311.079 598.714C351.925 615.754 395.277 625.527 440.884 625.527H467.947C470.203 625.527 472.709 625.527 474.964 625.276C512.302 623.021 545.881 602.222 564.675 569.646L576.954 548.345C576.954 548.095 676.939 375.188 676.939 374.938C696.735 340.607 696.735 298.508 676.939 264.177C676.939 263.927 576.954 91.0203 576.954 90.7697L564.675 69.4697C544.628 35.1389 508.042 13.8389 468.198 13.8389C467.947 13.8389 389.513 13.8389 389.262 13.8389H328.871C254.446 13.8389 184.531 45.6637 135.917 99.7909C123.889 112.822 113.113 127.606 103.842 143.644Z" stroke="#968056" stroke-width="0.9" stroke-miterlimit="10"/>
<path d="M117.123 145.648L61.492 225.837C51.4684 243.378 46.206 263.175 46.9578 282.721C47.459 300.011 51.4684 317.803 61.2414 333.089L74.272 355.642C97.3262 398.493 128.149 438.587 161.978 474.672C190.044 504.743 221.368 531.556 255.197 553.357C274.994 566.137 295.793 577.163 317.093 586.184C356.686 602.723 398.534 612.245 442.638 612.245H468.95C471.205 612.245 473.46 612.245 475.716 611.995C511.801 609.739 544.878 589.692 563.171 557.868L575.2 537.319C575.45 537.069 671.676 369.926 671.927 369.675C690.972 336.597 690.972 295.751 671.927 262.674C671.927 262.423 575.45 95.2801 575.2 95.0295L563.422 74.4812C543.625 40.9023 508.292 20.1034 469.702 20.1034C469.451 20.1034 393.523 19.8528 393.272 19.8528H334.634C262.966 19.8528 195.307 50.6752 148.196 102.798C136.418 115.828 126.144 130.112 117.123 145.648Z" stroke="#968056" stroke-width="0.9" stroke-miterlimit="10"/>
<path d="M130.153 147.403L76.5273 225.085C66.7543 241.875 61.7425 261.17 62.2437 279.964C62.7449 296.754 66.5037 314.044 75.7755 328.579L88.305 350.38C110.607 391.727 140.428 430.568 173.004 465.4C200.318 494.469 230.389 520.53 263.216 541.329C282.512 553.608 302.308 564.383 323.107 573.154C361.196 589.191 402.042 598.463 444.392 598.463H469.952C472.207 598.463 474.463 598.463 476.467 598.212C511.55 595.957 543.625 576.411 561.417 545.589L572.944 525.542C573.195 525.291 666.163 363.912 666.163 363.661C684.456 331.586 684.456 292.243 666.163 260.418C666.163 260.168 573.195 98.7884 572.944 98.5378L561.417 78.7413C542.874 46.4153 508.543 26.6187 471.205 26.3681C470.955 26.1176 397.532 26.1176 397.281 26.1176H340.648C271.235 26.1176 205.831 55.9377 160.475 106.306C148.948 118.836 138.924 132.618 130.153 147.403Z" stroke="#968056" stroke-width="0.9" stroke-miterlimit="10"/>
<path d="M143.435 149.408L91.3121 224.334C82.0403 240.622 77.0285 259.416 77.2791 277.459C77.7803 293.747 81.2885 310.286 90.3097 324.57C90.3097 324.57 102.338 345.368 102.338 345.619C123.889 385.463 152.456 423.051 184.03 456.881C210.342 484.947 239.41 510.006 270.984 530.303C289.528 542.081 308.823 552.606 328.871 560.875C365.707 576.412 405.05 585.433 445.896 585.433H470.704C472.709 585.433 474.964 585.433 476.969 585.182C511.049 583.178 542.122 564.133 559.413 534.313L570.438 515.017C570.689 514.516 660.4 359.151 660.4 358.65C678.192 327.827 678.192 289.738 660.4 258.915C660.4 258.414 570.689 103.049 570.438 102.548L559.413 83.2523C541.37 51.9286 508.292 32.6333 472.208 32.3827C471.706 32.1321 401.04 32.1321 400.539 32.1321H345.66C278.502 32.1321 215.604 60.6992 171.751 109.564C161.477 121.843 151.704 135.124 143.435 149.408Z" stroke="#968056" stroke-width="0.9" stroke-miterlimit="10"/>
<path d="M156.465 151.412L106.097 223.582C97.0756 239.119 92.0638 257.412 92.565 274.702C92.8156 290.239 96.3238 306.527 105.094 320.059C105.094 320.059 116.622 340.106 116.872 340.357C137.671 378.947 165.236 415.032 195.557 447.609C220.867 474.672 248.933 498.979 279.504 518.525C297.296 530.052 316.09 540.076 335.135 548.095C370.719 563.13 408.558 571.65 448.151 571.65H472.207C474.212 571.65 476.467 571.65 478.472 571.4C511.55 569.395 541.621 550.851 558.41 522.034L569.185 503.49C569.436 502.989 655.639 353.387 655.639 352.886C672.679 323.066 672.679 286.48 655.639 256.91C655.639 256.409 569.436 106.808 569.185 106.306L558.41 87.7628C540.869 57.6921 509.044 38.8979 474.212 38.6473C473.711 38.3967 405.551 38.3967 405.05 38.3967H352.175C287.523 38.3967 226.881 65.9615 184.531 113.072C174.006 124.599 164.484 137.379 156.465 151.412Z" stroke="#968056" stroke-width="0.9" stroke-miterlimit="10"/>
<path d="M169.746 153.167L121.132 222.83C112.612 237.866 107.6 255.407 107.851 272.196C108.102 287.232 111.359 302.768 119.879 316.05C119.879 316.05 131.156 335.345 131.156 335.595C151.203 372.683 177.765 407.515 206.834 439.089C231.141 465.15 258.204 488.455 287.523 507.249C304.814 518.275 322.606 527.797 341.149 535.816C375.229 550.35 411.816 558.62 449.905 558.62H473.21C475.215 558.62 477.219 558.62 479.224 558.369C511.299 556.364 540.368 538.573 556.656 510.507L566.93 492.715C567.181 492.214 650.126 348.375 650.126 347.874C666.414 319.307 666.414 283.974 650.126 255.407C650.126 254.906 567.181 111.068 566.93 110.566L556.656 92.7746C539.867 63.7063 509.044 45.6639 475.465 45.1627C474.964 44.9121 409.31 44.6615 408.808 44.6615H357.688C295.542 44.6615 237.155 71.224 196.559 116.33C186.536 127.606 177.515 139.885 169.746 153.167Z" stroke="#968056" stroke-width="0.9" stroke-miterlimit="10"/>
<path d="M182.777 155.171L135.917 222.078C127.647 236.362 122.886 253.402 123.137 269.44C123.387 283.974 126.645 298.758 134.664 311.538C134.664 311.538 145.439 330.082 145.439 330.333C164.735 365.916 190.044 399.746 218.11 429.817C241.415 455.126 267.476 477.428 295.793 495.471C312.332 505.996 329.622 515.267 347.414 523.036C380.241 537.069 415.324 545.088 451.91 545.088H474.463C476.217 545.088 478.472 545.088 480.226 544.837C511.299 543.083 539.616 525.792 555.152 498.478L564.925 481.438C565.176 480.686 644.613 343.113 644.863 342.361C660.65 314.796 660.65 281.217 644.863 253.652C644.863 252.901 565.427 115.077 564.925 114.575L555.152 97.5354C538.864 69.4694 509.295 51.9282 476.969 51.6776C476.217 51.427 413.319 51.1764 412.567 51.1764H363.201C303.561 51.1764 247.429 76.7365 208.337 120.088C199.065 130.613 190.295 142.391 182.777 155.171Z" stroke="#968056" stroke-width="0.9" stroke-miterlimit="10"/>
<path d="M196.058 157.176L150.952 221.327C142.933 235.109 138.172 251.397 138.423 266.683C138.673 280.716 141.68 295 149.449 307.279C149.449 307.529 159.723 325.07 159.973 325.321C178.517 359.652 202.824 391.978 229.637 420.795C251.94 445.103 276.999 466.403 304.313 483.944C320.1 494.218 336.889 502.989 353.929 510.256C385.504 523.788 419.083 531.556 454.165 531.556H475.966C477.72 531.556 479.976 531.556 481.479 531.305C511.55 529.551 538.864 512.762 553.9 486.7L563.422 470.162C563.923 469.41 639.852 337.6 639.852 336.848C654.887 310.536 654.887 278.21 639.852 251.648C639.852 250.896 563.673 118.836 563.422 118.084L553.9 101.796C538.363 74.7319 509.796 57.9424 478.723 57.4412C477.971 57.1906 417.83 56.9401 416.827 56.9401H369.466C312.081 56.9401 258.455 81.4978 220.867 123.096C211.595 133.37 203.075 144.897 196.058 157.176Z" stroke="#968056" stroke-width="0.9" stroke-miterlimit="10"/>
<path d="M209.089 158.93L165.737 220.575C158.219 233.605 153.458 249.393 153.709 264.177C153.959 277.459 156.716 291.241 164.233 303.019C164.233 303.269 174.006 320.059 174.257 320.309C192.049 353.136 215.354 384.209 240.914 412.025C262.214 435.33 286.27 455.878 312.332 472.417C327.618 482.19 343.405 490.71 359.693 497.726C389.764 510.757 422.09 518.275 455.919 518.275H476.969C478.723 518.275 480.728 518.275 482.482 518.024C511.55 516.27 537.862 500.232 552.396 474.923L561.417 459.136C561.918 458.384 634.339 332.338 634.589 331.335C648.873 306.026 648.873 275.203 634.589 249.894C634.589 248.891 561.918 122.845 561.417 122.093L552.396 106.306C537.361 80.2449 510.046 64.2072 480.226 63.706C479.475 63.2048 421.839 63.2048 420.837 63.2048H375.23C320.35 63.2048 268.98 86.7602 233.145 126.604C223.874 136.377 216.105 147.403 209.089 158.93Z" stroke="#968056" stroke-width="0.9" stroke-miterlimit="10"/>
<path d="M222.37 160.935L180.522 219.823C173.255 232.353 168.744 247.388 168.744 261.421C168.995 274.201 171.501 287.482 178.768 298.759C178.768 299.01 188.29 315.047 188.29 315.298C205.08 346.622 227.382 376.442 251.94 403.004C272.237 425.306 295.292 444.852 320.351 460.89C334.885 470.162 350.171 478.431 365.707 485.197C394.525 497.727 425.347 504.743 457.673 504.743H477.971C479.475 504.743 481.73 504.743 483.233 504.493C511.299 502.739 536.609 487.453 550.892 462.895L559.663 447.859C560.164 446.857 629.327 326.825 629.327 325.823C643.109 301.766 643.109 272.197 629.327 248.14C629.327 247.138 560.164 126.855 559.663 126.103L550.892 111.068C536.609 86.2594 510.297 70.7229 481.73 69.9711C480.728 69.4699 425.849 69.2194 424.596 69.2194H380.742C328.369 69.2194 279.254 91.7724 244.923 129.862C236.403 139.384 228.885 149.658 222.37 160.935Z" stroke="#968056" stroke-width="0.9" stroke-miterlimit="10"/>
<path d="M235.401 162.939L195.307 219.071C188.541 230.849 183.779 245.634 184.03 258.664C184.281 270.943 186.536 283.473 193.552 294.248C193.552 294.499 202.574 309.784 202.574 310.035C218.611 339.855 239.911 368.422 263.216 393.982C282.762 415.282 304.563 434.077 328.369 449.363C342.402 458.133 356.686 466.152 371.721 472.667C399.286 484.696 428.605 491.462 459.427 491.462H478.973C480.477 491.462 482.482 491.462 483.985 491.211C511.049 489.707 535.356 474.672 549.138 451.117L557.408 436.833C557.909 435.831 623.563 321.562 623.814 320.56C636.845 297.506 636.845 269.44 623.814 246.385C623.814 245.383 557.909 130.864 557.408 130.112L549.138 115.829C535.356 92.0225 510.297 76.9872 482.983 76.486C481.98 75.9848 429.607 75.7343 428.354 75.7343H386.506C336.639 75.7343 289.779 97.0343 256.951 133.37C248.933 142.391 241.666 152.164 235.401 162.939Z" stroke="#968056" stroke-width="0.9" stroke-miterlimit="10"/>
<path d="M248.682 164.693L210.342 218.319C203.827 229.596 199.316 243.629 199.316 256.158C199.316 267.686 201.571 279.964 208.337 290.239C208.337 290.489 216.857 305.023 217.108 305.274C232.394 333.841 252.691 360.905 274.743 385.212C293.287 405.51 314.086 423.552 336.889 437.836C350.171 446.356 363.953 453.623 378.237 459.887C404.298 471.415 432.364 477.93 461.933 477.93H480.728C482.231 477.93 484.236 477.93 485.489 477.679C511.299 476.176 535.105 461.892 548.136 439.339L555.904 425.807C556.405 424.805 618.802 316.3 619.053 315.297C631.332 293.496 631.332 266.683 619.053 244.882C618.802 243.629 556.656 135.375 555.904 134.122L548.136 120.59C534.855 97.7861 511.049 83.5026 484.988 82.7508C483.985 82.2496 434.118 81.999 432.865 81.999H392.771C345.159 81.999 300.554 102.297 269.731 136.878C261.462 145.147 254.696 154.67 248.682 164.693Z" stroke="#968056" stroke-width="0.9" stroke-miterlimit="10"/>
<path d="M261.713 166.698L225.127 217.568C219.112 228.093 214.351 241.624 214.602 253.402C214.602 264.428 216.607 275.955 223.122 285.728C223.373 285.979 231.141 299.761 231.391 300.012C245.926 327.075 265.221 352.886 286.02 376.191C303.561 395.486 323.358 412.526 344.908 426.309C357.438 434.328 370.719 441.344 384 447.358C408.808 458.384 435.371 464.649 463.437 464.649H481.479C482.732 464.649 484.737 464.649 486.241 464.649C511.049 463.145 533.852 449.613 546.382 427.812L553.9 415.032C554.651 414.03 613.54 311.288 613.54 310.035C625.067 289.236 625.067 263.927 613.54 243.128C613.289 241.875 554.401 139.384 553.9 138.131L546.382 125.351C533.852 103.55 511.049 90.0181 485.99 89.2663C484.737 88.7651 437.626 88.5145 436.123 88.5145H398.033C352.927 88.5145 310.578 107.81 281.259 140.637C273.992 148.155 267.476 157.176 261.713 166.698Z" stroke="#968056" stroke-width="0.9" stroke-miterlimit="10"/>
<path d="M274.994 168.703L240.162 216.816C234.398 226.84 229.888 239.62 229.888 250.646C229.888 261.17 231.893 271.946 237.907 281.218C238.157 281.468 245.675 294.499 245.675 294.749C259.457 320.309 277.5 344.867 297.296 366.919C313.835 385.212 332.629 401.5 353.178 414.531C365.206 422.049 377.485 428.814 390.265 434.578C413.82 445.103 438.879 451.117 465.442 451.117H482.732C483.985 451.117 485.99 451.117 487.243 451.117C511.049 449.864 532.85 436.583 544.878 415.784L551.895 403.505C552.647 402.252 608.027 305.525 608.277 304.272C619.303 284.726 619.303 260.669 608.277 241.123C608.027 239.87 552.647 143.143 551.895 141.89L544.878 129.611C532.85 108.812 511.299 95.7816 487.493 95.0298C486.24 94.5286 441.636 94.0275 440.132 94.0275H403.797C361.197 94.0275 321.102 112.32 293.287 143.394C286.521 151.162 280.256 159.431 274.994 168.703Z" stroke="#968056" stroke-width="0.9" stroke-miterlimit="10"/>
<path d="M288.025 170.457L254.947 216.064C249.434 225.336 245.174 237.615 245.174 248.14C245.174 257.913 246.928 268.437 252.441 277.208C252.691 277.459 259.708 289.737 259.708 289.988C272.739 314.045 289.779 337.6 308.322 358.399C323.859 375.69 341.651 391.226 360.946 403.254C372.222 410.521 384 416.786 396.028 422.048C418.08 432.072 442.137 437.585 466.945 437.585H483.484C484.737 437.585 486.491 437.585 487.744 437.585C510.548 436.332 531.347 423.803 542.874 403.756L549.389 392.228C550.141 390.975 602.263 300.262 602.263 298.759C612.537 280.215 612.537 257.662 602.263 239.118C602.013 237.615 549.89 146.902 549.389 145.649L542.874 134.122C531.597 114.576 511.049 102.046 488.496 101.294C487.243 100.793 445.144 100.292 443.64 100.292H409.059C368.965 100.292 331.126 117.583 305.065 146.902C299.05 153.918 293.036 161.937 288.025 170.457Z" stroke="#968056" stroke-width="0.9" stroke-miterlimit="10"/>
<path d="M301.306 172.462L269.982 215.312C264.97 224.083 260.46 235.61 260.46 245.383C260.46 254.655 261.963 264.428 267.226 272.697C267.476 272.948 273.991 284.475 274.242 284.725C286.521 307.529 302.559 329.581 319.849 349.127C334.383 365.666 351.173 379.949 369.466 391.476C380.241 398.242 391.267 404.256 402.544 409.268C423.343 418.791 445.896 424.053 469.451 424.053H485.238C486.24 424.053 488.245 424.053 489.248 424.053C511.049 422.8 530.845 410.772 541.871 391.727L548.136 380.952C548.888 379.699 597.502 294.749 597.753 293.246C607.275 275.955 607.275 254.655 597.753 237.364C597.502 235.861 548.888 150.911 548.136 149.407L541.871 138.632C531.096 120.088 511.801 108.311 490.5 107.308C488.997 106.557 449.654 106.306 447.9 106.306H415.324C377.485 106.306 342.152 122.594 317.594 149.909C311.58 156.925 306.067 164.443 301.306 172.462Z" stroke="#968056" stroke-width="0.9" stroke-miterlimit="10"/>
<path d="M314.336 174.216L284.767 214.31C280.006 222.329 275.746 233.355 275.746 242.627C275.746 251.397 276.999 260.669 282.01 268.437C282.261 268.688 288.275 279.463 288.526 279.714C300.053 301.014 314.838 321.813 331.126 340.106C344.658 355.642 360.445 368.924 377.485 379.95C387.508 386.214 397.783 391.978 408.307 396.739C427.603 405.76 448.903 410.772 470.955 410.772H485.99C486.992 410.772 488.746 410.772 489.749 410.772C510.548 409.519 529.592 398.243 539.867 380.2L545.63 370.177C546.382 368.673 591.739 289.738 591.989 287.983C601.01 271.695 601.01 251.899 591.989 235.61C591.739 234.107 546.632 154.921 545.63 153.417L539.867 143.394C529.843 125.852 511.55 114.826 491.503 113.824C489.999 113.072 453.163 112.822 451.409 112.822H420.586C385.253 112.822 352.175 128.108 329.121 153.668C324.109 159.932 318.847 166.949 314.336 174.216Z" stroke="#968056" stroke-width="0.9" stroke-miterlimit="10"/>
<path d="M327.618 176.22L299.802 213.809C295.542 221.326 291.282 231.851 291.032 240.121C290.781 248.139 292.034 256.91 296.795 264.177C297.046 264.428 302.559 274.451 302.809 274.702C313.585 294.498 327.367 314.044 342.402 331.335C354.932 345.869 369.717 358.649 385.754 368.422C395.026 374.436 404.799 379.448 414.572 384.209C432.614 392.729 452.411 397.491 472.959 397.491H487.243C488.245 397.491 489.999 397.491 491.002 397.491C510.798 396.488 528.841 385.713 538.614 368.422L544.127 359.15C545.129 357.647 586.727 284.475 586.977 282.721C595.247 267.685 595.247 249.142 586.977 234.106C586.727 232.352 544.878 159.18 544.127 157.677L538.614 147.904C529.091 131.365 512.051 120.84 493.257 119.838C491.753 119.086 457.423 118.835 455.669 118.835H426.851C394.024 118.835 363.201 132.868 341.901 156.925C336.388 162.939 331.627 169.454 327.618 176.22Z" stroke="#968056" stroke-width="0.9" stroke-miterlimit="10"/>
<path d="M340.648 178.225L314.587 213.057C310.578 219.823 306.317 229.847 306.067 237.364C305.816 244.882 306.819 253.152 311.329 259.917C311.58 260.168 316.842 269.189 317.093 269.69C326.866 287.983 339.896 306.276 353.679 322.314C365.206 335.846 378.988 347.624 393.773 356.895C402.544 362.158 411.565 367.17 420.586 371.43C437.376 379.448 455.669 383.959 474.713 383.959H488.245C488.997 383.959 491.002 383.959 491.753 383.959C510.548 382.957 527.588 372.683 537.11 356.394L542.122 347.624C543.124 346.12 581.464 278.712 581.715 276.958C589.233 262.925 589.233 245.885 581.715 232.102C581.464 230.348 543.124 162.94 542.122 161.436L537.11 152.665C528.089 137.129 512.302 127.356 494.761 126.103C493.006 125.351 461.432 124.85 459.427 124.85H432.364C402.043 124.85 373.475 137.881 353.679 160.183C348.918 165.696 344.658 171.71 340.648 178.225Z" stroke="#968056" stroke-width="0.9" stroke-miterlimit="10"/>
<path d="M353.679 179.979L329.121 212.055C325.613 218.319 321.353 227.591 321.102 234.608C320.852 241.624 321.854 249.142 325.863 255.407C326.114 255.657 330.875 263.927 331.126 264.428C340.147 281.468 351.925 298.257 364.705 313.293C375.48 325.822 388.01 336.598 401.792 345.118C409.811 350.129 418.08 354.64 426.6 358.649C441.886 366.167 458.926 370.176 476.718 370.176H489.498C490.25 370.176 492.004 370.176 492.756 370.176C510.548 369.174 526.585 359.652 535.607 344.115L540.117 336.096C541.12 334.342 576.202 272.948 576.202 271.194C583.218 258.414 583.218 242.627 576.202 229.847C575.951 228.092 540.869 166.448 539.867 164.944L535.356 156.925C527.087 142.642 512.302 133.37 496.013 132.117C494.259 131.365 465.191 130.864 463.186 130.864H438.378C410.563 130.864 384.251 142.892 366.208 163.44C361.447 168.703 357.438 174.216 353.679 179.979Z" stroke="#968056" stroke-width="0.9" stroke-miterlimit="10"/>
<path d="M366.96 181.984L344.156 211.554C340.899 217.067 336.639 225.837 336.388 232.102C336.138 238.617 336.889 245.383 340.648 251.397C340.899 251.648 345.159 259.166 345.409 259.667C353.679 275.203 364.454 290.74 375.981 304.522C385.754 316.049 397.281 326.073 409.811 333.841C417.328 338.352 424.846 342.612 432.364 346.371C446.397 353.137 461.933 357.146 478.222 357.146H490.25C491.002 357.146 492.756 357.146 493.257 357.146C509.796 356.394 525.082 347.373 533.602 332.839L537.862 325.572C538.864 323.818 570.438 268.187 570.689 266.182C576.954 254.405 576.954 240.372 570.689 228.594C570.438 226.589 538.864 170.958 537.862 169.204L533.602 161.937C525.834 148.656 511.801 142.642 497.266 138.632C495.262 138.131 468.95 137.379 466.945 137.379H443.64C418.08 137.379 394.274 148.405 377.735 166.949C373.977 171.71 370.218 176.722 366.96 181.984Z" stroke="#968056" stroke-width="0.9" stroke-miterlimit="10"/>
<path d="M379.991 183.989L358.941 210.802C356.185 215.813 351.925 223.832 351.674 229.345C351.424 235.109 351.925 241.624 355.433 246.887C355.684 247.137 359.442 253.903 359.693 254.404C367.211 268.437 376.984 282.721 387.258 295.501C396.028 306.026 406.553 315.297 418.08 322.314C424.846 326.323 431.612 330.333 438.629 333.841C451.409 340.106 465.442 343.865 480.226 343.865H491.503C492.255 343.865 493.758 343.865 494.51 343.865C510.046 343.113 524.33 334.593 532.349 321.061L536.108 314.546C537.11 312.791 565.427 262.924 565.677 260.92C571.19 250.395 571.19 237.615 565.677 226.839C565.427 224.835 537.361 174.967 536.108 173.213L532.349 166.698C525.332 154.419 512.302 148.656 499.021 145.147C497.016 144.646 473.21 143.894 471.205 143.894H449.654C426.6 143.894 405.05 153.918 390.014 170.707C386.506 174.466 383.248 179.227 379.991 183.989Z" stroke="#968056" stroke-width="0.9" stroke-miterlimit="10"/>
<path d="M393.272 185.743L373.977 209.799C371.471 214.059 367.461 221.577 366.96 226.589C366.709 231.851 366.96 237.615 370.218 242.627C370.468 242.877 373.977 248.891 374.227 249.393C380.993 262.173 389.764 275.203 399.036 286.48C406.804 296.002 416.326 304.522 426.6 310.536C432.614 314.295 438.879 317.803 445.144 320.81C456.42 326.574 469.2 330.082 482.482 330.082H493.006C493.508 330.082 495.262 330.082 495.763 330.082C510.297 329.33 523.829 321.562 531.096 308.782L534.354 303.019C535.356 301.014 560.164 257.161 560.415 255.156C565.427 245.634 565.427 234.357 560.415 224.835C560.164 222.58 535.356 178.977 534.354 176.972L531.096 171.209C524.581 159.932 512.803 154.67 500.775 151.162C498.519 150.66 477.47 149.658 475.215 149.658H455.418C434.87 149.658 415.574 158.679 402.293 173.715C399.036 177.473 396.028 181.483 393.272 185.743Z" stroke="#968056" stroke-width="0.9" stroke-miterlimit="10"/>
<path d="M406.303 187.748L388.761 209.298C386.506 213.057 382.497 220.074 382.246 224.083C381.745 228.844 381.995 234.107 385.002 238.367C385.253 238.617 388.26 243.88 388.511 244.381C394.525 255.657 402.043 267.435 410.312 277.709C417.078 286.229 425.598 293.496 434.87 299.26C440.383 302.518 445.896 305.525 451.409 308.532C461.432 313.794 472.709 317.052 484.737 317.052H494.51C495.011 317.052 496.515 317.052 497.016 317.052C510.548 316.3 523.077 309.033 529.843 297.255L532.85 291.993C534.103 289.988 555.403 252.149 555.654 249.894C559.914 241.624 559.914 231.601 555.654 223.081C555.403 220.826 534.103 182.987 532.85 180.982L529.843 175.97C524.079 165.696 513.304 160.684 502.529 157.677C500.274 156.925 481.98 156.174 479.475 156.174H461.683C443.64 156.174 426.6 163.942 414.823 177.474C411.565 180.481 408.808 183.989 406.303 187.748Z" stroke="#968056" stroke-width="0.9" stroke-miterlimit="10"/>
<path d="M419.584 189.752L403.797 208.546C402.043 211.553 398.033 218.069 397.532 221.326C397.031 225.586 397.031 230.097 399.787 233.856C400.038 234.106 402.544 238.617 402.794 239.118C408.057 248.891 414.572 259.416 421.589 268.437C427.352 276.205 434.87 282.47 443.139 287.482C447.9 290.238 452.662 292.995 457.423 295.751C466.193 300.512 475.966 303.269 486.491 303.269H495.512C496.013 303.269 497.517 303.269 497.768 303.269C510.297 302.768 521.824 296.002 528.089 284.976L530.595 280.465C531.848 278.461 549.389 246.135 550.141 243.879C552.396 236.111 552.396 228.593 550.141 220.825C549.389 218.57 531.848 186.494 530.595 184.239L528.089 179.729C522.827 170.707 513.555 165.946 503.782 162.939C501.526 162.187 485.739 161.436 483.233 161.436H467.196C451.409 161.436 436.874 168.201 426.6 179.979C424.094 183.487 421.589 186.494 419.584 189.752Z" stroke="#968056" stroke-width="0.9" stroke-miterlimit="10"/>
<path d="M432.614 191.507L418.581 207.545C417.078 210.051 413.068 215.814 412.818 218.571C412.317 222.079 412.317 226.339 414.321 229.596C414.572 229.847 416.577 233.606 416.827 234.107C421.338 242.377 426.851 251.648 432.614 259.417C437.376 266.182 443.64 271.695 450.907 275.705C454.917 278.211 459.177 280.466 463.186 282.972C470.453 287.232 479.224 289.738 487.995 289.738H496.264C496.515 289.738 498.018 289.738 498.519 289.738C510.046 289.237 520.571 283.223 526.335 273.199L528.59 269.44C529.843 267.185 543.876 240.873 544.628 238.618C546.382 232.102 546.382 225.587 544.628 219.322C543.876 217.067 529.843 190.755 528.59 188.5L526.335 184.741C521.574 176.722 513.555 172.212 505.035 169.706C502.529 168.954 489.498 168.202 486.742 168.202H472.709C459.427 168.202 447.149 173.966 438.629 183.739C436.624 186.245 434.619 189.001 432.614 191.507Z" stroke="#968056" stroke-width="0.9" stroke-miterlimit="10"/>
<path d="M445.896 193.511L433.617 207.043C432.614 208.797 428.104 214.059 428.104 216.064C427.101 219.071 427.352 222.58 429.106 225.336C429.357 225.837 431.111 228.594 431.361 229.095C435.12 236.111 439.38 243.88 444.142 250.645C447.9 256.409 453.163 261.17 459.427 264.428C462.936 266.433 466.444 268.437 469.702 270.442C475.716 274.201 482.983 276.456 490.501 276.456H498.018C498.269 276.456 499.772 276.456 500.023 276.456C510.548 275.955 520.07 270.442 525.332 261.421L527.087 258.414C528.339 256.158 539.115 235.861 539.867 233.355C541.37 228.092 541.37 222.83 539.867 217.568C539.115 215.062 528.339 194.764 527.087 192.509L525.332 189.502C521.323 182.485 514.306 178.476 507.039 175.97C504.533 175.218 494.009 174.216 491.252 174.216H478.472C467.697 174.216 457.423 178.977 450.657 186.996C449.153 189.251 447.399 191.256 445.896 193.511Z" stroke="#968056" stroke-width="0.9" stroke-miterlimit="10"/>
<path d="M458.926 195.516L448.402 206.291C447.65 207.544 443.139 212.055 443.39 213.558C442.137 215.814 442.387 218.821 443.891 221.327C444.141 221.828 445.394 223.833 445.645 224.334C448.401 229.847 451.91 236.362 455.418 241.875C458.425 246.636 462.435 250.646 467.446 253.151C470.203 254.655 472.959 256.409 475.465 258.163C480.226 261.421 485.99 263.426 492.004 263.426H498.77C499.021 263.426 500.273 263.426 500.524 263.426C510.046 263.175 518.817 258.163 523.578 249.894L524.831 247.639C526.084 245.383 533.602 230.849 534.103 228.343C535.105 224.334 535.105 220.324 534.103 216.315C533.351 213.809 526.084 199.275 524.831 197.02L523.578 194.764C520.07 188.75 514.306 185.242 508.042 182.987C505.536 181.984 497.517 181.232 494.76 181.232H484.236C475.966 181.232 467.947 184.991 462.685 191.256C461.432 192.258 460.179 193.762 458.926 195.516Z" stroke="#968056" stroke-width="0.9" stroke-miterlimit="10"/>
<path d="M472.207 197.27L463.186 205.289C462.936 205.79 458.425 209.799 458.425 210.551C457.172 212.305 457.172 214.811 458.425 216.565C458.676 217.067 459.427 218.319 459.678 218.821C461.683 222.83 464.189 228.092 466.444 232.603C468.449 236.362 471.456 239.369 475.465 241.123C477.72 242.125 479.725 243.629 481.479 245.132C484.737 247.889 489.248 249.643 493.758 249.643H499.772H501.276C509.796 249.392 517.564 245.132 521.824 237.615L522.826 236.111C524.33 233.605 528.339 225.085 528.841 222.329C529.342 219.572 529.342 216.565 528.841 213.809C528.339 211.052 524.33 202.532 522.826 200.026L521.824 198.523C519.068 193.762 514.306 190.253 509.295 188.249C506.789 187.246 501.276 186.495 498.269 186.495H489.749C483.735 186.495 478.222 189.251 474.713 193.762C473.962 195.015 473.21 196.268 472.207 197.27Z" stroke="#968056" stroke-width="0.9" stroke-miterlimit="10"/>
<path d="M502.529 193.01H495.763C492.255 193.01 488.997 194.764 486.992 197.27C486.491 198.022 485.99 198.523 485.238 199.024L473.711 207.795C472.458 209.048 472.208 210.802 473.21 212.305C474.964 214.561 476.468 219.823 477.72 223.582C478.723 226.338 480.728 228.594 483.484 229.596C484.988 230.097 486.491 231.1 487.493 232.352C489.498 234.608 492.505 235.861 495.512 235.861H502.278C509.796 235.861 516.562 231.851 520.321 225.587L520.822 224.584C524.581 218.069 524.581 210.301 520.822 203.785L520.321 202.783C516.812 197.019 510.046 193.01 502.529 193.01Z" stroke="#968056" stroke-width="0.9" stroke-miterlimit="10"/>
</svg>
